<svg id="Layer_1" data-name="Layer 1" xmlns="http://www.w3.org/2000/svg" viewBox="0 0 84.21 72.98"><defs><style>.cls-1{fill:#fcbd00;}.cls-2{fill:#fff;}.cls-3{fill:#ffde00;}.cls-4{fill:#dda500;}.cls-5{fill:#3d3d3d;}</style></defs><rect class="cls-1" x="5.49" y="16.88" width="75.9" height="53.33"/><rect class="cls-1" x="2.73" y="8.42" width="73.17" height="58.95"/><rect class="cls-1" x="2.8" y="2.73" width="30.85" height="9.88"/><rect class="cls-1" x="5.58" y="5.51" width="30.85" height="9.88"/><rect class="cls-2" x="2.81" y="2.81" width="2.77" height="61.55"/><rect class="cls-2" x="2.81" y="2.81" width="30.91" height="2.7"/><rect class="cls-2" x="11.21" y="22.47" width="2.77" height="44.9"/><rect class="cls-2" x="33.72" y="5.51" width="2.83" height="2.87"/><rect class="cls-2" x="33.73" y="19.58" width="2.83" height="2.83"/><rect class="cls-2" x="36.55" y="8.42" width="36.37" height="2.7"/><rect class="cls-2" x="36.49" y="16.79" width="41.99" height="2.83"/><rect class="cls-3" x="2.81" y="64.36" width="2.77" height="3.06"/><rect class="cls-3" x="72.93" y="8.39" width="2.97" height="2.73"/><rect class="cls-3" x="78.48" y="16.92" width="2.97" height="2.73"/><rect class="cls-3" x="11.11" y="67.41" width="2.97" height="2.73"/><rect class="cls-4" x="5.58" y="64.36" width="2.76" height="5.84"/><rect class="cls-4" x="14.09" y="67.41" width="67.28" height="2.73"/><rect class="cls-4" x="78.48" y="19.65" width="2.96" height="49.19"/><rect class="cls-4" x="72.93" y="11.12" width="2.88" height="2.89"/><g id="TQcgXA-13"><path class="cls-5" d="M5.49,70.26c.51,0,1-.05,1.53-.06H8.34V22.47h2.84V70.2H81.39V73H5.58V71a2.21,2.21,0,0,0-.08-.72Z"/><path class="cls-5" d="M2.78,67.39H0V2.79H2.78Z"/><path class="cls-5" d="M81.37,16.88h2.84V70.2H81.4V17.87a5.65,5.65,0,0,0-.06-1Z"/><path class="cls-5" d="M81.38,16.88c-1.07,0-2.14-.06-3.21-.06H37.11a5.32,5.32,0,0,0-.56.06h0V14.25c0-.08.15-.21.24-.22a3.21,3.21,0,0,1,.62,0H75.78V8.73a2.5,2.5,0,0,1,.06-.38h0l2.06.05h.69V14h2.73v2.87Z"/><path class="cls-5" d="M75.9,8.33c-.82,0-1.64.06-2.46.06H36.55V5.52h0c.36,0,.72.07,1.09.07H75.9V8.33Z"/><path class="cls-5" d="M2.78,2.73V0H33.63V2.73Z"/><path class="cls-5" d="M33.78,19.71V22.4H11.21V19.62h22a3.31,3.31,0,0,1,.55.08Z"/><path class="cls-5" d="M33.78,19.71V16.88H36.6a17.74,17.74,0,0,1-.06,1.78v1H34.16a1.61,1.61,0,0,0-.38.08Z"/><path class="cls-5" d="M36.55,5.51H33.72V2.81h2.82V5.52Z"/><path class="cls-5" d="M5.5,70.26,3.58,70.2h-.8V67.39h2.8v2.16a5.06,5.06,0,0,1-.09.68Z"/></g></svg>