<svg width="553" height="151" viewBox="0 0 553 151" fill="none" xmlns="http://www.w3.org/2000/svg">
<path d="M253.269 8.25563L273.325 26.2389C274.34 27.1487 275.799 27.3653 277.035 26.7893L312.063 10.4538C312.294 10.3459 312.566 10.4777 312.625 10.7259L316.575 27.4267C317.021 29.3113 318.947 30.4443 320.811 29.918L366.299 17.0707C366.652 16.9711 366.943 17.3562 366.752 17.6685L358.83 30.5846C357.301 33.0768 359.42 36.2089 362.302 35.7178L411.935 27.2601C412.087 27.2342 412.165 27.2673 412.21 27.2951C412.27 27.3323 412.336 27.4042 412.378 27.5105C412.419 27.6168 412.419 27.7147 412.4 27.7828C412.386 27.8337 412.351 27.9105 412.222 27.9946L396.821 37.9941C393.848 39.9239 395.438 44.5448 398.968 44.2376L447.323 40.0299C447.498 40.0146 447.571 40.0614 447.607 40.0906C447.662 40.1343 447.723 40.2193 447.75 40.3426C447.778 40.4658 447.759 40.5689 447.729 40.6316C447.708 40.6736 447.662 40.7472 447.498 40.8082L426.395 48.6436C422.81 49.9746 423.808 55.2938 427.631 55.2355L471.428 54.5678C471.613 54.5649 471.682 54.6203 471.713 54.6503C471.763 54.6982 471.818 54.7909 471.834 54.9222C471.849 55.0535 471.818 55.1567 471.781 55.2149C471.758 55.2516 471.704 55.3215 471.523 55.3627L445.217 61.3575C441.371 62.234 441.848 67.8572 445.787 68.0725L483.633 70.1414C483.822 70.1518 483.886 70.2131 483.914 70.2444C483.96 70.2957 484.008 70.3935 484.013 70.528C484.018 70.6626 483.978 70.7638 483.936 70.8184C483.91 70.8517 483.852 70.9177 483.663 70.9425L451.841 75.1265C447.896 75.6452 447.896 81.3548 451.841 81.8735L483.663 86.0575C483.852 86.0823 483.91 86.1483 483.936 86.1816C483.978 86.2362 484.018 86.3374 484.013 86.472C484.008 86.6065 483.96 86.7043 483.914 86.7556C483.886 86.7869 483.822 86.8482 483.633 86.8586L445.787 88.9275C441.848 89.1428 441.371 94.766 445.217 95.6425L471.523 101.637C471.704 101.679 471.758 101.748 471.781 101.785C471.818 101.843 471.849 101.947 471.834 102.078C471.818 102.209 471.763 102.302 471.713 102.35C471.682 102.38 471.613 102.435 471.428 102.432L427.631 101.764C423.808 101.706 422.81 107.025 426.395 108.356L447.498 116.192C447.662 116.253 447.708 116.326 447.729 116.368C447.759 116.431 447.778 116.534 447.75 116.657C447.723 116.781 447.662 116.866 447.607 116.909C447.571 116.939 447.498 116.985 447.323 116.97L398.968 112.762C395.438 112.455 393.848 117.076 396.821 119.006L412.222 129.005C412.351 129.09 412.386 129.166 412.4 129.217C412.419 129.285 412.419 129.383 412.378 129.49C412.336 129.596 412.27 129.668 412.21 129.705C412.165 129.733 412.087 129.766 411.935 129.74L362.302 121.282C359.42 120.791 357.301 123.923 358.83 126.415L366.752 139.331C366.943 139.644 366.652 140.029 366.299 139.929L320.811 127.082C318.947 126.556 317.021 127.689 316.575 129.573L312.625 146.274C312.566 146.522 312.294 146.654 312.063 146.546L277.035 130.211C275.799 129.635 274.34 129.851 273.325 130.761L253.269 148.744C253.116 148.881 252.884 148.881 252.731 148.744L232.675 130.761C231.66 129.851 230.201 129.635 228.965 130.211L193.937 146.546C193.706 146.654 193.434 146.522 193.375 146.274L189.425 129.573C188.979 127.689 187.053 126.556 185.189 127.082L139.701 139.929C139.348 140.029 139.057 139.644 139.248 139.331L147.17 126.415C148.699 123.923 146.58 120.791 143.698 121.282L94.0649 129.74C93.9127 129.766 93.8353 129.733 93.7904 129.705C93.7303 129.668 93.6638 129.596 93.6223 129.49C93.5808 129.383 93.5809 129.285 93.5999 129.217C93.6142 129.166 93.6486 129.09 93.7781 129.005L109.179 119.006C112.152 117.076 110.562 112.455 107.032 112.762L58.6771 116.97C58.5023 116.985 58.4292 116.939 58.3928 116.909C58.3384 116.866 58.2772 116.781 58.2495 116.657C58.2218 116.534 58.2407 116.431 58.2711 116.368C58.2916 116.326 58.3377 116.253 58.5021 116.192L79.6052 108.356C83.19 107.025 82.1924 101.706 78.369 101.764L34.5723 102.432C34.3867 102.435 34.3183 102.38 34.287 102.35C34.2373 102.302 34.1823 102.209 34.1665 102.078C34.1507 101.947 34.1821 101.843 34.2191 101.785C34.2424 101.748 34.2957 101.679 34.4767 101.637L60.7832 95.6425C64.6295 94.766 64.1519 89.1428 60.2129 88.9275L22.3671 86.8586C22.1776 86.8482 22.1139 86.7869 22.086 86.7556C22.0403 86.7043 21.9919 86.6065 21.9868 86.4719C21.9817 86.3374 22.0224 86.2362 22.0641 86.1816C22.0896 86.1483 22.1484 86.0823 22.3366 86.0575L54.1589 81.8735C58.1042 81.3548 58.1042 75.6452 54.1589 75.1265L22.3366 70.9425C22.1484 70.9177 22.0896 70.8517 22.0641 70.8184C22.0224 70.7638 21.9817 70.6626 21.9868 70.528C21.9919 70.3935 22.0403 70.2957 22.086 70.2444C22.1139 70.2131 22.1775 70.1518 22.3671 70.1414L60.2129 68.0725C64.1519 67.8572 64.6294 62.234 60.7832 61.3575L34.4767 55.3627C34.2957 55.3215 34.2424 55.2515 34.2191 55.2149C34.1821 55.1567 34.1507 55.0535 34.1665 54.9222C34.1822 54.7909 34.2372 54.6982 34.287 54.6503C34.3183 54.6203 34.3866 54.5649 34.5723 54.5678L78.369 55.2355C82.1924 55.2938 83.1899 49.9746 79.6052 48.6436L58.5021 40.8082C58.3376 40.7472 58.2915 40.6736 58.2711 40.6316C58.2406 40.5689 58.2218 40.4658 58.2495 40.3426C58.2772 40.2193 58.3384 40.1343 58.3928 40.0906C58.4292 40.0614 58.5023 40.0146 58.6771 40.0299L107.031 44.2376C110.562 44.5448 112.152 39.9239 109.179 37.9941L93.7781 27.9946C93.6486 27.9105 93.6142 27.8337 93.5999 27.7828C93.5809 27.7147 93.5808 27.6168 93.6223 27.5105C93.6638 27.4042 93.7303 27.3322 93.7904 27.2951C93.8353 27.2673 93.9127 27.2342 94.0649 27.2601L143.698 35.7178C146.58 36.2089 148.699 33.0768 147.17 30.5847L139.248 17.6685C139.057 17.3562 139.348 16.9711 139.701 17.0707L185.189 29.918C187.053 30.4443 188.979 29.3113 189.425 27.4267L193.375 10.7259C193.434 10.4777 193.706 10.3459 193.937 10.4538L228.965 26.7893C230.201 27.3653 231.66 27.1487 232.675 26.2389L252.731 8.25563C252.884 8.11851 253.116 8.11851 253.269 8.25563Z" stroke="#B63427" stroke-width="3"/>
<path d="M300.269 2.25563L320.325 20.2389C321.34 21.1487 322.799 21.3653 324.035 20.7893L359.063 4.45376C359.294 4.34593 359.566 4.47765 359.625 4.72593L363.575 21.4267C364.021 23.3113 365.947 24.4443 367.811 23.918L413.299 11.0707C413.652 10.9711 413.943 11.3562 413.752 11.6685L405.83 24.5846C404.301 27.0768 406.42 30.2089 409.302 29.7178L458.935 21.2601C459.087 21.2342 459.165 21.2673 459.21 21.2951C459.27 21.3323 459.336 21.4042 459.378 21.5105C459.419 21.6168 459.419 21.7147 459.4 21.7828C459.386 21.8337 459.351 21.9105 459.222 21.9946L443.821 31.9941C440.848 33.9239 442.438 38.5448 445.968 38.2376L494.323 34.0299C494.498 34.0146 494.571 34.0614 494.607 34.0906C494.662 34.1343 494.723 34.2193 494.75 34.3426C494.778 34.4658 494.759 34.5689 494.729 34.6316C494.708 34.6736 494.662 34.7472 494.498 34.8082L473.395 42.6436C469.81 43.9746 470.808 49.2938 474.631 49.2355L518.428 48.5678C518.613 48.5649 518.682 48.6203 518.713 48.6503C518.763 48.6982 518.818 48.7909 518.834 48.9222C518.849 49.0535 518.818 49.1567 518.781 49.2149C518.758 49.2516 518.704 49.3215 518.523 49.3627L492.217 55.3575C488.371 56.234 488.848 61.8572 492.787 62.0725L530.633 64.1414C530.822 64.1518 530.886 64.2131 530.914 64.2444C530.96 64.2957 531.008 64.3935 531.013 64.528C531.018 64.6626 530.978 64.7638 530.936 64.8184C530.91 64.8517 530.852 64.9177 530.663 64.9425L498.841 69.1265C494.896 69.6452 494.896 75.3548 498.841 75.8735L530.663 80.0575C530.852 80.0823 530.91 80.1483 530.936 80.1816C530.978 80.2362 531.018 80.3374 531.013 80.472C531.008 80.6065 530.96 80.7043 530.914 80.7556C530.886 80.7869 530.822 80.8482 530.633 80.8586L492.787 82.9275C488.848 83.1428 488.371 88.766 492.217 89.6425L518.523 95.6373C518.704 95.6785 518.758 95.7485 518.781 95.7851C518.818 95.8433 518.849 95.9465 518.834 96.0778C518.818 96.2091 518.763 96.3018 518.713 96.3497C518.682 96.3797 518.613 96.4351 518.428 96.4322L474.631 95.7645C470.808 95.7062 469.81 101.025 473.395 102.356L494.498 110.192C494.662 110.253 494.708 110.326 494.729 110.368C494.759 110.431 494.778 110.534 494.75 110.657C494.723 110.781 494.662 110.866 494.607 110.909C494.571 110.939 494.498 110.985 494.323 110.97L445.968 106.762C442.438 106.455 440.848 111.076 443.821 113.006L459.222 123.005C459.351 123.09 459.386 123.166 459.4 123.217C459.419 123.285 459.419 123.383 459.378 123.49C459.336 123.596 459.27 123.668 459.21 123.705C459.165 123.733 459.087 123.766 458.935 123.74L409.302 115.282C406.42 114.791 404.301 117.923 405.83 120.415L413.752 133.331C413.943 133.644 413.652 134.029 413.299 133.929L367.811 121.082C365.947 120.556 364.021 121.689 363.575 123.573L359.625 140.274C359.566 140.522 359.294 140.654 359.063 140.546L324.035 124.211C322.799 123.635 321.34 123.851 320.325 124.761L300.269 142.744C300.116 142.881 299.884 142.881 299.731 142.744L279.675 124.761C278.66 123.851 277.201 123.635 275.965 124.211L240.937 140.546C240.706 140.654 240.434 140.522 240.375 140.274L236.425 123.573C235.979 121.689 234.053 120.556 232.189 121.082L186.701 133.929C186.348 134.029 186.057 133.644 186.248 133.331L194.17 120.415C195.699 117.923 193.58 114.791 190.698 115.282L141.065 123.74C140.913 123.766 140.835 123.733 140.79 123.705C140.73 123.668 140.664 123.596 140.622 123.49C140.581 123.383 140.581 123.285 140.6 123.217C140.614 123.166 140.649 123.09 140.778 123.005L156.179 113.006C159.152 111.076 157.562 106.455 154.032 106.762L105.677 110.97C105.502 110.985 105.429 110.939 105.393 110.909C105.338 110.866 105.277 110.781 105.25 110.657C105.222 110.534 105.241 110.431 105.271 110.368C105.292 110.326 105.338 110.253 105.502 110.192L126.605 102.356C130.19 101.025 129.192 95.7062 125.369 95.7645L81.5723 96.4322C81.3867 96.4351 81.3183 96.3797 81.287 96.3497C81.2373 96.3018 81.1823 96.2091 81.1665 96.0778C81.1507 95.9465 81.1821 95.8433 81.2191 95.7851C81.2424 95.7485 81.2957 95.6785 81.4767 95.6373L107.783 89.6425C111.629 88.766 111.152 83.1428 107.213 82.9275L69.3671 80.8586C69.1776 80.8482 69.1139 80.7869 69.086 80.7556C69.0403 80.7043 68.9919 80.6065 68.9868 80.4719C68.9817 80.3374 69.0224 80.2362 69.0641 80.1816C69.0896 80.1483 69.1484 80.0823 69.3366 80.0575L101.159 75.8735C105.104 75.3548 105.104 69.6452 101.159 69.1265L69.3366 64.9425C69.1484 64.9177 69.0896 64.8517 69.0641 64.8184C69.0224 64.7638 68.9817 64.6626 68.9868 64.528C68.9919 64.3935 69.0403 64.2957 69.086 64.2444C69.1139 64.2131 69.1775 64.1518 69.3671 64.1414L107.213 62.0725C111.152 61.8572 111.629 56.234 107.783 55.3575L81.4767 49.3627C81.2957 49.3215 81.2424 49.2515 81.2191 49.2149C81.1821 49.1567 81.1507 49.0535 81.1665 48.9222C81.1822 48.7909 81.2372 48.6982 81.287 48.6503C81.3183 48.6203 81.3866 48.5649 81.5723 48.5678L125.369 49.2355C129.192 49.2938 130.19 43.9746 126.605 42.6436L105.502 34.8082C105.338 34.7472 105.292 34.6736 105.271 34.6316C105.241 34.5689 105.222 34.4658 105.25 34.3426C105.277 34.2193 105.338 34.1343 105.393 34.0906C105.429 34.0614 105.502 34.0146 105.677 34.0299L154.031 38.2376C157.562 38.5448 159.152 33.9239 156.179 31.9941L140.778 21.9946C140.649 21.9105 140.614 21.8337 140.6 21.7828C140.581 21.7147 140.581 21.6168 140.622 21.5105C140.664 21.4042 140.73 21.3322 140.79 21.2951C140.835 21.2673 140.913 21.2342 141.065 21.2601L190.698 29.7178C193.58 30.2089 195.699 27.0768 194.17 24.5847L186.248 11.6685C186.057 11.3562 186.348 10.9711 186.701 11.0707L232.189 23.918C234.053 24.4443 235.979 23.3113 236.425 21.4267L240.375 4.72593C240.434 4.47765 240.706 4.34593 240.937 4.45376L275.965 20.7893C277.201 21.3653 278.66 21.1487 279.675 20.2389L299.731 2.25563C299.884 2.11851 300.116 2.11851 300.269 2.25563Z" stroke="white" stroke-width="3"/>
<g filter="url(#filter0_i_801_2)">
<path d="M270.373 7.01354C271.014 6.43718 271.986 6.43718 272.627 7.01354L290.424 23.0119C290.927 23.4644 291.652 23.5721 292.266 23.2854L323.347 8.75295C324.316 8.29978 325.457 8.85209 325.703 9.89344L329.21 24.7591C329.43 25.6941 330.386 26.2562 331.311 25.9945L371.683 14.5625C373.16 14.1444 374.382 15.756 373.581 17.0653L366.535 28.582C365.779 29.8176 366.83 31.3683 368.258 31.1244L412.332 23.5945C414.137 23.2861 415.071 25.6712 413.536 26.6702L399.822 35.5972C398.351 36.555 399.14 38.8432 400.889 38.6906L443.86 34.9417C445.817 34.7709 446.436 37.5169 444.595 38.2022L425.791 45.2021C424.015 45.863 424.51 48.4978 426.405 48.4688L465.359 47.8734C467.384 47.8424 467.735 50.7527 465.761 51.2037L442.316 56.5603C440.41 56.9956 440.648 59.7813 442.599 59.8882L476.291 61.7349C478.337 61.847 478.451 64.823 476.419 65.0908L448.069 68.828C446.114 69.0857 446.114 71.9143 448.069 72.172L476.419 75.9092C478.451 76.177 478.337 79.153 476.291 79.2651L442.599 81.1118C440.648 81.2187 440.41 84.0044 442.316 84.4397L465.761 89.7963C467.735 90.2473 467.384 93.1576 465.359 93.1266L426.405 92.5312C424.51 92.5022 424.015 95.137 425.791 95.7979L444.595 102.798C446.436 103.483 445.817 106.229 443.86 106.058L400.889 102.309C399.14 102.157 398.351 104.445 399.822 105.403L413.536 114.33C415.071 115.329 414.137 117.714 412.332 117.406L368.258 109.876C366.83 109.632 365.779 111.182 366.535 112.418L373.581 123.935C374.382 125.244 373.159 126.856 371.683 126.437L331.311 115.006C330.386 114.744 329.43 115.306 329.21 116.241L325.703 131.107C325.457 132.148 324.316 132.7 323.347 132.247L292.266 117.715C291.652 117.428 290.927 117.536 290.424 117.988L272.627 133.986C271.986 134.563 271.014 134.563 270.373 133.986L252.576 117.988C252.073 117.536 251.348 117.428 250.734 117.715L219.653 132.247C218.684 132.7 217.543 132.148 217.297 131.107L213.79 116.241C213.57 115.306 212.614 114.744 211.689 115.006L171.317 126.437C169.84 126.856 168.618 125.244 169.419 123.935L176.465 112.418C177.221 111.182 176.17 109.632 174.742 109.876L130.668 117.406C128.863 117.714 127.929 115.329 129.464 114.33L143.178 105.403C144.649 104.445 143.86 102.157 142.111 102.309L99.1402 106.058C97.1831 106.229 96.5642 103.483 98.4053 102.798L117.209 95.7979C118.985 95.137 118.49 92.5022 116.595 92.5312L77.6406 93.1266C75.616 93.1576 75.2653 90.2473 77.2391 89.7963L100.684 84.4397C102.59 84.0044 102.352 81.2187 100.401 81.1118L66.7087 79.2651C64.663 79.153 64.5494 76.177 66.5806 75.9092L94.9314 72.172C96.8861 71.9143 96.8861 69.0857 94.9314 68.828L66.5806 65.0908C64.5494 64.823 64.663 61.847 66.7087 61.7349L100.401 59.8882C102.352 59.7813 102.59 56.9956 100.684 56.5603L77.2392 51.2037C75.2653 50.7527 75.616 47.8424 77.6406 47.8734L116.595 48.4688C118.49 48.4978 118.985 45.863 117.209 45.2021L98.4053 38.2022C96.5642 37.5169 97.1832 34.7709 99.1402 34.9417L142.111 38.6906C143.86 38.8432 144.649 36.555 143.178 35.5972L129.464 26.6702C127.929 25.6712 128.863 23.2861 130.668 23.5945L174.742 31.1244C176.17 31.3683 177.221 29.8176 176.465 28.582L169.419 17.0653C168.618 15.756 169.841 14.1444 171.317 14.5625L211.689 25.9945C212.614 26.2562 213.57 25.6941 213.79 24.7591L217.297 9.89343C217.543 8.85209 218.684 8.29978 219.653 8.75295L250.734 23.2854C251.348 23.5721 252.073 23.4644 252.576 23.0119L270.373 7.01354Z" fill="#F8B32E"/>
</g>
<path d="M153.929 57.9063L151.249 71.212H148.737L154.561 83.5686L145.266 85.0666L142.037 74.7571H141.963L140.623 84.2013C133.223 85.4047 129.498 86.0064 129.448 86.0064L136.613 57.8319L153.929 57.9063ZM143.461 63.7311L142.912 67.3599L144.038 67.2575L144.326 63.8892L143.461 63.7311ZM177.423 58.0738V64.0846L168.165 65.806L167.839 67.4436H173.245L171.691 73.6219L166.453 74.8315L165.96 77.5857H166.034L175.46 76.0318V82.908L156.208 84.285L162.675 58.0738H177.423ZM197.726 57.5993L198.061 65.1919L188.077 65.7409L186.737 77.1205L190.85 76.7576V76.6738L188.505 75.7713L188.589 71.8819H197.307L197.223 84.3595L177.349 85.0759V84.9922L181.871 59.5067L197.726 57.5993ZM215.451 58.6321L209.217 83.978L199.187 84.7596L208.026 59.0229L215.451 58.6321ZM220.252 57.7575H241.569V57.8412L237.466 66.3643H228.775L236.991 74.1057C233.884 80.8423 232.33 84.2385 232.33 84.2944L211.115 84.313L214.856 75.6875H222.858C218.075 71.3764 215.681 69.1898 215.674 69.1278V69.0533L220.252 57.7575ZM244.035 57.2829H265.427L261.565 65.7316L256.113 65.8153V65.8897L253.033 85.0015L242.37 86.4251L247.506 65.9735L242.295 66.1317L244.035 57.2829ZM282.007 58.0738V64.0846L272.749 65.806L272.424 67.4436H277.83L276.276 73.6219L271.037 74.8315L270.544 77.5857H270.619L280.044 76.0318V82.908L260.793 84.285L267.26 58.0738H282.007ZM305.93 57.9063L303.25 71.212H300.738L306.562 83.5686L297.267 85.0666L294.038 74.7571H293.964L292.624 84.2013C285.224 85.4047 281.499 86.0064 281.449 86.0064L288.614 57.8319L305.93 57.9063ZM295.462 63.7311L294.913 67.3599L296.039 67.2575L296.327 63.8892L295.462 63.7311ZM332.187 57.9156L334.234 67.4715H334.318L337.398 58.3902L344.814 58.0738L338.58 83.5035L328.633 84.2944L327.6 76.7855H327.526L325.944 83.4197L315.839 84.2106L324.837 58.3902L332.187 57.9156ZM363.088 57.7575L360.325 83.2615L340.031 84.8433L348.164 57.8412L363.088 57.7575ZM353.849 65.257L351.402 76.1621L352.667 75.8457L354.798 65.257H353.849ZM377.12 57.5248L373.249 71.5749H373.323L378.143 64.708L380.2 70.7933L382.963 59.1811L392.203 57.9156L384.545 84.2944L376.961 85.2341L375.854 77.26L369.536 85.5505L361.879 85.7087L367.406 59.4137L377.12 57.5248ZM404.001 57.0224L411.314 56.6316L407.36 72.9613L397.478 73.7429L404.001 57.0224ZM397.125 78.5627H406.522L406.532 78.6371C404.9 83.8663 403.985 86.6577 403.787 87.0113H394.073C396.039 81.4223 397.056 78.6061 397.125 78.5627Z" fill="#31054B"/>
<defs>
<filter id="filter0_i_801_2" x="65.1143" y="6.58124" width="412.771" height="131.838" filterUnits="userSpaceOnUse" color-interpolation-filters="sRGB">
<feFlood flood-opacity="0" result="BackgroundImageFix"/>
<feBlend mode="normal" in="SourceGraphic" in2="BackgroundImageFix" result="shape"/>
<feColorMatrix in="SourceAlpha" type="matrix" values="0 0 0 0 0 0 0 0 0 0 0 0 0 0 0 0 0 0 127 0" result="hardAlpha"/>
<feOffset dy="4"/>
<feGaussianBlur stdDeviation="5"/>
<feComposite in2="hardAlpha" operator="arithmetic" k2="-1" k3="1"/>
<feColorMatrix type="matrix" values="0 0 0 0 0.192157 0 0 0 0 0.0196078 0 0 0 0 0.294118 0 0 0 1 0"/>
<feBlend mode="normal" in2="shape" result="effect1_innerShadow_801_2"/>
</filter>
</defs>
</svg>
