<?xml version="1.0" encoding="UTF-8"?>
<svg xmlns="http://www.w3.org/2000/svg" xmlns:xlink="http://www.w3.org/1999/xlink" width="50pt" height="50pt" viewBox="0 0 50 50" version="1.1">
<g id="surface3794740">
<path style=" stroke:none;fill-rule:nonzero;fill:rgb(100%,89.411765%,0.392157%);fill-opacity:1;" d="M 10.15625 4.6875 C 7.140625 4.6875 4.6875 7.140625 4.6875 10.15625 L 4.6875 39.84375 C 4.6875 42.859375 7.140625 45.3125 10.15625 45.3125 L 39.84375 45.3125 C 42.859375 45.3125 45.3125 42.859375 45.3125 39.84375 L 45.3125 10.15625 C 45.3125 7.140625 42.859375 4.6875 39.84375 4.6875 Z M 10.15625 6.25 L 39.84375 6.25 C 42 6.25 43.75 8 43.75 10.15625 L 43.75 39.84375 C 43.75 42 42 43.75 39.84375 43.75 L 10.15625 43.75 C 8 43.75 6.25 42 6.25 39.84375 L 6.25 10.15625 C 6.25 8 8 6.25 10.15625 6.25 Z M 37.5 10.15625 C 36.210938 10.15625 35.15625 11.210938 35.15625 12.5 C 35.15625 13.789062 36.210938 14.84375 37.5 14.84375 C 38.789062 14.84375 39.84375 13.789062 39.84375 12.5 C 39.84375 11.210938 38.789062 10.15625 37.5 10.15625 Z M 37.5 11.351562 C 38.132812 11.351562 38.648438 11.867188 38.648438 12.5 C 38.648438 13.132812 38.132812 13.648438 37.5 13.648438 C 36.867188 13.648438 36.351562 13.132812 36.351562 12.5 C 36.351562 11.867188 36.867188 11.351562 37.5 11.351562 Z M 25 14.0625 C 18.96875 14.0625 14.0625 18.96875 14.0625 25 C 14.0625 31.03125 18.96875 35.9375 25 35.9375 C 31.03125 35.9375 35.9375 31.03125 35.9375 25 C 35.9375 18.96875 31.03125 14.0625 25 14.0625 Z M 25 15.625 C 30.167969 15.625 34.375 19.832031 34.375 25 C 34.375 30.167969 30.167969 34.375 25 34.375 C 19.832031 34.375 15.625 30.167969 15.625 25 C 15.625 19.832031 19.832031 15.625 25 15.625 Z M 25 17.1875 C 20.691406 17.1875 17.1875 20.691406 17.1875 25 C 17.1875 29.308594 20.691406 32.8125 25 32.8125 C 29.308594 32.8125 32.8125 29.308594 32.8125 25 C 32.8125 20.691406 29.308594 17.1875 25 17.1875 Z M 25 18.75 C 28.445312 18.75 31.25 21.554688 31.25 25 C 31.25 28.445312 28.445312 31.25 25 31.25 C 21.554688 31.25 18.75 28.445312 18.75 25 C 18.75 21.554688 21.554688 18.75 25 18.75 Z M 9.375 38.28125 C 8.945312 38.28125 8.59375 38.632812 8.59375 39.0625 L 8.59375 40.625 C 8.59375 41.054688 8.945312 41.40625 9.375 41.40625 C 9.804688 41.40625 10.15625 41.054688 10.15625 40.625 L 10.15625 39.0625 C 10.15625 38.632812 9.804688 38.28125 9.375 38.28125 Z M 13.28125 38.28125 C 12.851562 38.28125 12.5 38.632812 12.5 39.0625 L 12.5 40.625 C 12.5 41.054688 12.851562 41.40625 13.28125 41.40625 C 13.710938 41.40625 14.0625 41.054688 14.0625 40.625 L 14.0625 39.0625 C 14.0625 38.632812 13.710938 38.28125 13.28125 38.28125 Z M 17.1875 38.28125 C 16.757812 38.28125 16.40625 38.632812 16.40625 39.0625 L 16.40625 40.625 C 16.40625 41.054688 16.757812 41.40625 17.1875 41.40625 C 17.617188 41.40625 17.96875 41.054688 17.96875 40.625 L 17.96875 39.0625 C 17.96875 38.632812 17.617188 38.28125 17.1875 38.28125 Z M 21.09375 38.28125 C 20.664062 38.28125 20.3125 38.632812 20.3125 39.0625 L 20.3125 40.625 C 20.3125 41.054688 20.664062 41.40625 21.09375 41.40625 C 21.523438 41.40625 21.875 41.054688 21.875 40.625 L 21.875 39.0625 C 21.875 38.632812 21.523438 38.28125 21.09375 38.28125 Z M 25 38.28125 C 24.570312 38.28125 24.21875 38.632812 24.21875 39.0625 L 24.21875 40.625 C 24.21875 41.054688 24.570312 41.40625 25 41.40625 C 25.429688 41.40625 25.78125 41.054688 25.78125 40.625 L 25.78125 39.0625 C 25.78125 38.632812 25.429688 38.28125 25 38.28125 Z M 28.90625 38.28125 C 28.476562 38.28125 28.125 38.632812 28.125 39.0625 L 28.125 40.625 C 28.125 41.054688 28.476562 41.40625 28.90625 41.40625 C 29.335938 41.40625 29.6875 41.054688 29.6875 40.625 L 29.6875 39.0625 C 29.6875 38.632812 29.335938 38.28125 28.90625 38.28125 Z M 32.8125 38.28125 C 32.382812 38.28125 32.03125 38.632812 32.03125 39.0625 L 32.03125 40.625 C 32.03125 41.054688 32.382812 41.40625 32.8125 41.40625 C 33.242188 41.40625 33.59375 41.054688 33.59375 40.625 L 33.59375 39.0625 C 33.59375 38.632812 33.242188 38.28125 32.8125 38.28125 Z M 36.71875 38.28125 C 36.289062 38.28125 35.9375 38.632812 35.9375 39.0625 L 35.9375 40.625 C 35.9375 41.054688 36.289062 41.40625 36.71875 41.40625 C 37.148438 41.40625 37.5 41.054688 37.5 40.625 L 37.5 39.0625 C 37.5 38.632812 37.148438 38.28125 36.71875 38.28125 Z M 40.625 38.28125 C 40.195312 38.28125 39.84375 38.632812 39.84375 39.0625 L 39.84375 40.625 C 39.84375 41.054688 40.195312 41.40625 40.625 41.40625 C 41.054688 41.40625 41.40625 41.054688 41.40625 40.625 L 41.40625 39.0625 C 41.40625 38.632812 41.054688 38.28125 40.625 38.28125 Z M 40.625 38.28125 "/>
</g>
</svg>
