<svg id="Layer_1" data-name="Layer 1" xmlns="http://www.w3.org/2000/svg" width="1920" height="1080" viewBox="0 0 1920 1080"><defs><style>.cls-1,.cls-2,.cls-3{fill:none;stroke:#7f7f7f;stroke-width:0.75px;}.cls-1{stroke-miterlimit:10;}.cls-2,.cls-3{stroke-linejoin:round;}.cls-3{stroke-linecap:round;}</style></defs><path class="cls-1" d="M1559.51,872.89l-72.76-.79-.06,4.42a6.35,6.35,0,0,1-6.4,6.29h0l-64.71-.69a6.36,6.36,0,0,1-6.29-6.43h0l0-4.42-75.35-.82a6.72,6.72,0,0,0-6.79,6.63l-.29,24.45a6.71,6.71,0,0,0,6.64,6.78l225.55,2.45a6.72,6.72,0,0,0,6.78-6.64l.3-24.44a6.7,6.7,0,0,0-6.62-6.78Z"/><rect class="cls-1" x="1443.06" y="859.54" width="7.69" height="38.26" transform="translate(552.51 2315.9) rotate(-89.38)"/><circle class="cls-2" cx="1373.04" cy="889.84" r="13.94"/><circle class="cls-1" cx="1522.55" cy="891.45" r="13.94"/><path class="cls-1" d="M1326.89,901.48l.29-24.31a6.78,6.78,0,0,1,6.86-6.69l7.28.08-.4,37.86-7.34-.09A6.76,6.76,0,0,1,1326.89,901.48Z"/><path class="cls-1" d="M1529.49,903.55,1510.21,885a13.11,13.11,0,0,1,5.41-5.6l19.27,18.57a14.19,14.19,0,0,1-1.86,2.71A14,14,0,0,1,1529.49,903.55Z"/><line class="cls-2" x1="1550.89" y1="872.52" x2="1550.49" y2="910.38"/><path class="cls-1" d="M1369,903.24l.32-26.88a10.31,10.31,0,0,1,3.94-.46,11.83,11.83,0,0,1,3.91.55c-.08,8.61-.23,18.28-.32,26.88a11.36,11.36,0,0,1-3.93.45A10.91,10.91,0,0,1,1369,903.24Z"/><line class="cls-1" x1="1520.78" y1="884.37" x2="1515.32" y2="889.87"/><line class="cls-1" x1="1529.79" y1="893.05" x2="1524.33" y2="898.54"/><polygon class="cls-1" points="1739.72 777.02 1539.4 775.47 1540.61 780.17 1739.68 781.7 1739.62 789.78 1744.63 789.82 1744.73 777.06 1739.72 777.02"/><path class="cls-2" d="M1441.83,669c0-.77-.93-1.39-2.09-1.39l-13.9-.08c-1.15,0-2.09.61-2.09,1.37v.32c0,.77.93,1.39,2.09,1.4h4.77v4.46l-1.6.71a1,1,0,0,0-.52,1.39,1,1,0,0,0,1.3.55l.08,0,.74-.32v3.29l-1.63.73a1,1,0,1,0,.85,1.91l.77-.34v3.3l-1.66.74a1,1,0,1,0,.85,1.91h0l.8-.36v3.3l-1.68.75a1,1,0,1,0,.85,1.91l.83-.37v3.3l-1.72.77a1,1,0,0,0,.85,1.91l.87-.38V703l-1.75.79a1,1,0,0,0-.66,1.25.84.84,0,0,0,.06.14,1,1,0,0,0,1.29.57l.09,0,.89-.4v3l2.17,4.07,2.18-4v-5l1.38-.61a1,1,0,0,0-.86-1.91l-.51.23v-3.3l1.41-.63a1.06,1.06,0,0,0,.53-1.38,1,1,0,0,0-1.38-.53h0l-.55.25V692.2l1.43-.64a1.06,1.06,0,0,0,.53-1.38,1,1,0,0,0-1.38-.53l-.58.25v-3.29l1.47-.66a1,1,0,0,0-.86-1.91l-.61.27V681l1.5-.66a1.05,1.05,0,0,0,.53-1.39,1,1,0,0,0-1.38-.53l-.64.29v-3.3l1.53-.68a1,1,0,0,0,.56-1.3l0-.08h0a1,1,0,0,0-1.3-.57.2.2,0,0,0-.08,0l-.67.3v-2.5h4.78c1.15,0,2.09-.61,2.09-1.37Z"/><rect class="cls-2" x="1655.07" y="693.06" width="8.91" height="76.57" transform="translate(915.46 2385.21) rotate(-89.56)"/><path class="cls-1" d="M1582.16,502.87c.47-7.87,1.17-21.48,1.41-38.45.42-30.52-1.1-40.59-2.18-95.78-.46-23.22-.68-35-.28-43.31.57-11.69,1.51-20,.8-33.06a188.91,188.91,0,0,0-2.5-22,6,6,0,0,1,4-6.78,48.39,48.39,0,0,1,29.38-.17,6,6,0,0,1,4.09,6.93A184.87,184.87,0,0,0,1614,292c-1,13-.21,21.37.12,33.06.23,8.32-.23,20.09-1.16,43.3-2.22,55.15-3.94,65.19-4.14,95.71-.12,17,.31,30.59.62,38.48Z"/><polygon class="cls-1" points="1630.06 973.56 1313.95 971.14 1314.25 932.54 1322.96 932.6 1630.35 934.96 1630.06 973.56"/><line class="cls-1" x1="1324.89" y1="950.77" x2="1325.31" y2="932.62"/><line class="cls-1" x1="1333.46" y1="932.68" x2="1333.39" y2="941.76"/><line class="cls-1" x1="1340.59" y1="932.74" x2="1340.52" y2="941.81"/><line class="cls-1" x1="1347.73" y1="932.79" x2="1347.66" y2="941.87"/><line class="cls-1" x1="1354.86" y1="932.85" x2="1354.79" y2="941.92"/><line class="cls-1" x1="1362.28" y1="951.05" x2="1362.7" y2="932.91"/><line class="cls-1" x1="1369.99" y1="932.96" x2="1369.92" y2="942.04"/><line class="cls-1" x1="1377.12" y1="933.02" x2="1377.05" y2="942.09"/><line class="cls-1" x1="1384.26" y1="933.07" x2="1384.19" y2="942.15"/><line class="cls-1" x1="1391.39" y1="933.13" x2="1391.32" y2="942.2"/><line class="cls-1" x1="1398.81" y1="951.33" x2="1399.23" y2="933.19"/><line class="cls-1" x1="1406.52" y1="933.25" x2="1406.45" y2="942.32"/><line class="cls-1" x1="1413.66" y1="933.3" x2="1413.59" y2="942.37"/><line class="cls-1" x1="1420.79" y1="933.35" x2="1420.72" y2="942.43"/><line class="cls-1" x1="1427.92" y1="933.41" x2="1427.86" y2="942.48"/><line class="cls-1" x1="1435.34" y1="951.61" x2="1435.77" y2="933.47"/><line class="cls-1" x1="1443.06" y1="933.53" x2="1442.99" y2="942.6"/><line class="cls-1" x1="1450.19" y1="933.58" x2="1450.12" y2="942.65"/><line class="cls-1" x1="1457.32" y1="933.64" x2="1457.25" y2="942.71"/><line class="cls-1" x1="1464.46" y1="933.69" x2="1464.39" y2="942.76"/><line class="cls-1" x1="1471.88" y1="951.89" x2="1472.3" y2="933.75"/><line class="cls-1" x1="1479.59" y1="933.81" x2="1479.52" y2="942.88"/><line class="cls-1" x1="1486.72" y1="933.86" x2="1486.65" y2="942.93"/><line class="cls-1" x1="1493.86" y1="933.92" x2="1493.79" y2="942.99"/><line class="cls-1" x1="1500.99" y1="933.97" x2="1500.92" y2="943.04"/><line class="cls-1" x1="1508.41" y1="952.18" x2="1508.83" y2="934.03"/><line class="cls-1" x1="1516.12" y1="934.09" x2="1516.05" y2="943.16"/><line class="cls-1" x1="1523.26" y1="934.14" x2="1523.19" y2="943.22"/><line class="cls-1" x1="1530.39" y1="934.2" x2="1530.32" y2="943.27"/><line class="cls-1" x1="1537.52" y1="934.25" x2="1537.45" y2="943.32"/><line class="cls-1" x1="1544.94" y1="952.46" x2="1545.37" y2="934.31"/><line class="cls-1" x1="1552.66" y1="934.37" x2="1552.59" y2="943.44"/><line class="cls-1" x1="1559.79" y1="934.42" x2="1559.72" y2="943.5"/><line class="cls-1" x1="1566.92" y1="934.48" x2="1566.85" y2="943.55"/><line class="cls-1" x1="1574.06" y1="934.53" x2="1573.99" y2="943.61"/><line class="cls-1" x1="1581.47" y1="952.74" x2="1581.9" y2="934.59"/><line class="cls-1" x1="1589.19" y1="934.65" x2="1589.12" y2="943.72"/><line class="cls-1" x1="1596.32" y1="934.7" x2="1596.25" y2="943.78"/><line class="cls-1" x1="1603.46" y1="934.76" x2="1603.39" y2="943.83"/><line class="cls-1" x1="1610.59" y1="934.81" x2="1610.52" y2="943.89"/><line class="cls-1" x1="1618.01" y1="953.02" x2="1618.43" y2="934.87"/><polygon class="cls-2" points="1436.81 811.75 1431.16 807.73 1431.81 800.83 1438.12 797.94 1443.77 801.96 1443.12 808.87 1436.81 811.75"/><polygon class="cls-1" points="1437.15 808.17 1434.43 806.24 1434.74 802.91 1437.78 801.52 1440.5 803.46 1440.19 806.78 1437.15 808.17"/><polygon class="cls-2" points="1644.22 899.97 1637.28 899.99 1633.8 893.99 1637.25 887.98 1644.18 887.96 1647.67 893.96 1644.22 899.97"/><polygon class="cls-1" points="1642.41 896.87 1639.07 896.87 1637.39 893.98 1639.05 891.09 1642.4 891.08 1644.07 893.97 1642.41 896.87"/><polygon class="cls-2" points="1689.14 706.13 1682.21 706.15 1678.73 700.15 1682.18 694.14 1689.11 694.12 1692.6 700.12 1689.14 706.13"/><polygon class="cls-1" points="1687.34 703.02 1684 703.03 1682.32 700.14 1683.98 697.25 1687.32 697.24 1689 700.13 1687.34 703.02"/><rect class="cls-1" x="1339.94" y="925.82" width="49.32" height="191.96" rx="9.95" transform="translate(327.15 2374.55) rotate(-89.34)"/><polyline class="cls-1" points="1268.51 1020.68 1258.31 1020.56 1257.89 1056.5 1363.79 1081.23 1363.59 1098.99"/><rect class="cls-1" x="1452.58" y="1021.67" width="19.19" height="3.38" rx="1.69" transform="translate(427.61 2477.63) rotate(-89.56)"/><path class="cls-2" d="M1498,994h-13.9A2.1,2.1,0,0,0,1482,996v.51a2.1,2.1,0,0,0,2.09,2.1h4.77l-.19,57.15,2.16,6.16,2.2-6.14.18-57.15H1498a2.1,2.1,0,0,0,2.1-2.08v-.51A2.1,2.1,0,0,0,1498,994Z"/><path class="cls-2" d="M1683.73,593.22h-13.9a2.1,2.1,0,0,0-2.1,2.08v.51a2.1,2.1,0,0,0,2.09,2.1h4.77l-.19,57.15,2.16,6.16,2.2-6.14.18-57.15h4.78a2.1,2.1,0,0,0,2.1-2.08v-.51a2.1,2.1,0,0,0-2.08-2.12Z"/><polygon class="cls-2" points="1647.29 472.71 1640.35 472.73 1636.87 466.73 1640.32 460.72 1647.26 460.7 1650.74 466.7 1647.29 472.71"/><polygon class="cls-2" points="1645.48 469.6 1642.14 469.61 1640.46 466.72 1642.13 463.83 1645.47 463.82 1647.15 466.71 1645.48 469.6"/><path class="cls-2" d="M1403.24,433.14l13.9-.15a2.11,2.11,0,0,0,2.07-2.11v-.51a2.09,2.09,0,0,0-2.11-2.07h-4.77l-.6-57.15-2.24-6.12-2.11,6.17.59,57.15h-4.77a2.08,2.08,0,0,0-2.07,2.11h0V431a2.09,2.09,0,0,0,2,2.17Z"/><path class="cls-2" d="M1527.62,502.87h141.51a120.11,120.11,0,0,1,0,67.54H1527.62A110.93,110.93,0,0,1,1527.62,502.87Z"/><path class="cls-2" d="M1456,307.92l.08,6.73-8.49.1.35,29.9,110-33a1.65,1.65,0,0,0,0-3.17l-110.78-30.39.35,29.9Z"/><rect class="cls-2" x="1431.6" y="308.07" width="24.47" height="6.62" transform="translate(-3.54 16.9) rotate(-0.67)"/><path class="cls-2" d="M1431.51,304.18l.17,14.66h0l-45.22.53a7.33,7.33,0,0,1-7.42-7.24h0a7.34,7.34,0,0,1,7.25-7.42l45.22-.53Z"/><polygon class="cls-2" points="1518.79 251.11 1518.96 258.05 1513.05 261.66 1506.96 258.34 1506.79 251.41 1512.7 247.8 1518.79 251.11"/><polygon class="cls-1" points="1515.73 252.99 1515.81 256.33 1512.96 258.07 1510.02 256.47 1509.94 253.13 1512.79 251.39 1515.73 252.99"/><polygon class="cls-2" points="1352.36 423.01 1352.54 429.94 1346.62 433.56 1340.53 430.24 1340.36 423.31 1346.28 419.69 1352.36 423.01"/><polygon class="cls-1" points="1349.3 424.88 1349.38 428.22 1346.53 429.96 1343.6 428.37 1343.51 425.03 1346.36 423.28 1349.3 424.88"/><polygon class="cls-2" points="1549.99 462.44 1550.16 469.37 1544.24 472.99 1538.15 469.67 1537.98 462.74 1543.9 459.12 1549.99 462.44"/><polygon class="cls-1" points="1546.92 464.32 1547.01 467.66 1544.15 469.4 1541.22 467.8 1541.14 464.46 1543.99 462.72 1546.92 464.32"/><polygon class="cls-2" points="1308.32 150.38 1308.49 157.31 1302.57 160.93 1296.48 157.61 1296.31 150.68 1302.23 147.07 1308.32 150.38"/><polygon class="cls-1" points="1305.25 152.25 1305.34 155.6 1302.48 157.34 1299.55 155.74 1299.47 152.4 1302.32 150.66 1305.25 152.25"/><path class="cls-1" d="M1331.58,205.2v6a1.31,1.31,0,0,0,1.3,1.31h36.36a1.31,1.31,0,0,0,1.3-1.31v-6a1.3,1.3,0,0,0-1.3-1.3H1364a1.3,1.3,0,0,1-1.3-1.3h0v-5.72a1.3,1.3,0,0,1,1.3-1.3h5.26a1.31,1.31,0,0,0,1.3-1.31V85.41a4.31,4.31,0,0,0-4.3-4.32h-30.36a4.3,4.3,0,0,0-4.32,4.3V194.27a1.31,1.31,0,0,0,1.3,1.31h4.07a1.3,1.3,0,0,1,1.3,1.3h0v5.72a1.3,1.3,0,0,1-1.3,1.3h-4.07A1.3,1.3,0,0,0,1331.58,205.2Z"/><rect class="cls-1" x="1356.33" y="88.85" width="7.43" height="99.86"/><rect class="cls-1" x="1338.33" y="88.85" width="7.43" height="99.86"/><polygon class="cls-1" points="1347.35 377.94 1354.79 377.94 1359.23 361.13 1354.79 348.6 1354.79 212.56 1347.35 212.56 1347.35 348.6 1343.13 361.27 1347.35 377.94"/><polygon class="cls-2" points="1446.47 1070.6 1446.64 1077.53 1440.73 1081.15 1434.64 1077.83 1434.46 1070.9 1440.38 1067.28 1446.47 1070.6"/><polygon class="cls-1" points="1443.4 1072.47 1443.49 1075.81 1440.64 1077.55 1437.7 1075.96 1437.62 1072.61 1440.47 1070.87 1443.4 1072.47"/><path class="cls-2" d="M1417.71,151.35c0-.77-1-1.36-2.13-1.34l-13.9.32c-1.15,0-2.07.67-2,1.43v.33c0,.76,1,1.36,2.12,1.33l4.78-.1.11,4.45-1.57.76a1,1,0,1,0,.9,1.89h0l.73-.35.09,3.3-1.61.77a1,1,0,0,0-.53,1.31l0,.08a1,1,0,0,0,1.4.49l.76-.36.08,3.3-1.64.78a1,1,0,0,0-.49,1.4,1,1,0,0,0,1.4.49h0l.79-.38.09,3.3-1.67.8a1,1,0,1,0,.9,1.88l.83-.39.08,3.3-1.7.81a1,1,0,0,0-.49,1.4,1,1,0,0,0,1.4.49h0l.85-.41.09,3.3-1.73.83a1,1,0,1,0,.9,1.89h0l.88-.43.08,3,2.28,4,2.08-4.11-.13-5,1.35-.66a1,1,0,0,0-.9-1.88h0l-.51.24-.09-3.3,1.39-.66a1,1,0,0,0-.91-1.89h0l-.54.26-.08-3.3,1.41-.68a1,1,0,1,0-.9-1.88h0l-.57.27-.09-3.3,1.45-.69a1,1,0,0,0-.91-1.89h0l-.6.29-.08-3.3,1.47-.71a1,1,0,0,0,.52-1.31l0-.08a1,1,0,0,0-1.32-.53l-.07,0-.63.3-.09-3.3,1.51-.72a1.05,1.05,0,0,0,.49-1.4h0a1,1,0,0,0-1.31-.53l-.09,0-.66.32-.06-2.49,4.77-.11c1.16,0,2.08-.67,2.06-1.43Z"/><path class="cls-2" d="M1467,234.2l-.15-13.9a2.1,2.1,0,0,0-2.12-2.07h-.5a2.1,2.1,0,0,0-2.07,2.12v4.77l-57.14.65-6.13,2.24,6.17,2.11,57.15-.64.06,4.77a2.09,2.09,0,0,0,2.11,2.07h.51a2.08,2.08,0,0,0,2.11-2Z"/><path class="cls-2" d="M1315.48,265.51c0,.77-1,1.37-2.12,1.35l-13.9-.22c-1.15,0-2.08-.65-2.06-1.41v-.34c0-.76,1-1.36,2.11-1.34l4.78.07.08-4.46-1.58-.74a1,1,0,1,1,.89-1.9l.73.35.07-3.3-1.61-.76a1,1,0,0,1,.89-1.89l.76.36.06-3.3-1.64-.78a1,1,0,0,1,.89-1.89h0l.8.38.06-3.3-1.67-.79a1,1,0,0,1,.89-1.89l.82.38.07-3.29-1.71-.81a1,1,0,1,1,.9-1.89l.85.4.06-3.3-1.73-.81a1,1,0,1,1,.89-1.9l.89.42v-3l2.26-4,2.1,4.09-.1,5,1.36.64a1,1,0,1,1-.89,1.89l-.51-.24-.06,3.3,1.39.65a1.05,1.05,0,0,1-.9,1.9l-.54-.26-.06,3.3,1.42.67a1,1,0,1,1-.89,1.89h0l-.57-.27-.07,3.3,1.45.69a1,1,0,1,1-.89,1.89l-.6-.28-.06,3.29,1.48.7a1,1,0,0,1-.89,1.9h0l-.64-.3-.06,3.29,1.51.72a1,1,0,0,1,.53,1.31l0,.08h0a1,1,0,0,1-1.31.54l-.08,0-.66-.31v2.49l4.77.08c1.16,0,2.08.65,2.07,1.41Z"/><path class="cls-2" d="M1545.75,403.15c0,.76-1,1.37-2.11,1.35l-13.9-.22c-1.16,0-2.08-.65-2.07-1.41v-.34c0-.76,1-1.36,2.11-1.34l4.78.07.08-4.46-1.58-.74a1.05,1.05,0,1,1,.9-1.9l.73.35.06-3.3-1.61-.76a1,1,0,0,1,.89-1.89l.76.36.07-3.3-1.65-.78a1,1,0,1,1,.9-1.89l.79.37L1535,380l-1.67-.79a1,1,0,1,1,.89-1.9l.83.39.06-3.3-1.7-.8a1,1,0,0,1,.89-1.89l.85.4.06-3.3-1.73-.82a1,1,0,0,1-.54-1.31l0-.08a1,1,0,0,1,1.39-.5l.89.42v-3l2.26-4,2.1,4.09-.1,5,1.36.64a1,1,0,1,1-.89,1.89l-.51-.24-.06,3.3,1.39.65a1,1,0,0,1-.89,1.9l-.55-.26-.06,3.3,1.42.67a1,1,0,1,1-.89,1.89l-.57-.27-.06,3.3,1.45.69a1,1,0,0,1-.9,1.89l-.6-.29-.06,3.3,1.48.7a1,1,0,1,1-.89,1.89h0l-.63-.29-.07,3.29,1.52.72a1,1,0,0,1,.54,1.31.2.2,0,0,0,0,.08h0a1.06,1.06,0,0,1-1.4.5h0l-.66-.31v2.49l4.78.08c1.15,0,2.07.65,2.06,1.41Z"/><path class="cls-2" d="M1718.14,732.21l9.4-10.88,22.39-1.43-8.61-11.53-25.46-.57a9.3,9.3,0,0,0-7.89,4.07l-7.6,11.15-81.94.41-8.62-11.65a9.29,9.29,0,0,0-7.72-3.76l-25.65.68-8.57,11.56,22.39,1.33,9.41,10.81-9.38,10.83-22.39,1.41,8.55,11.51,23.65.55a12.44,12.44,0,0,0,10.66-5.51L1618.3,740l82.68.77,6.09,9.88a12.5,12.5,0,0,0,10.93,5.9l23.34-.59,8.62-11.56-22.4-1.35Z"/><rect class="cls-2" x="1621.23" y="726.95" width="76.57" height="8.91" transform="translate(-1.03 2.34) rotate(-0.08)"/><path class="cls-1" d="M1678.76,877.24l-2.32.23a3.45,3.45,0,0,0-3,3.5,20.88,20.88,0,0,1,.32,15.69,3.79,3.79,0,0,0,1.23,2.68,3.62,3.62,0,0,0,2.81.92c1.19-.1,3.22-.63,4.41-.73"/><path class="cls-2" d="M1724.31,916.53l-8.79-54-38.94.06,8.33,53.59-26.78,13.44a6.2,6.2,0,0,0-3.42,5.56l0,33.24a6.44,6.44,0,0,0,6.44,6.43h0l75.55-.12a6.43,6.43,0,0,0,6.42-6.44h0l-.06-34a6.19,6.19,0,0,0-2.39-4.89Z"/><path class="cls-2" d="M1742.78,808.79l-88.56.13a26.78,26.78,0,0,0-7.89,1.21L1619,818.66l-21.77.45a4.75,4.75,0,0,0-4,2.36l-8.48,12.1.1,2.88,9,13.23c.83,1.48,3.18,2.46,4.9,2.45l20.29,0,27.11,9.14a26.58,26.58,0,0,0,8.52,1.38l88.22-.13a7.47,7.47,0,0,0,7.46-7.48h0l-.06-38.73a7.45,7.45,0,0,0-7.43-7.49Z"/><path class="cls-2" d="M1592.45,849.2,1583,834.78l9.36-13.56a6.16,6.16,0,0,1,5.11-2.67l21.46.11.06,33.44-21.43-.11A6.17,6.17,0,0,1,1592.45,849.2Z"/><polygon class="cls-2" points="1554.5 833.53 1550.69 834.85 1554.5 836.16 1583.41 836.11 1583.41 833.49 1554.5 833.53"/><line class="cls-2" x1="1597.71" y1="824.04" x2="1614.48" y2="824.02"/><line class="cls-2" x1="1597.72" y1="829.51" x2="1614.48" y2="829.48"/><line class="cls-2" x1="1597.72" y1="834.97" x2="1614.49" y2="834.95"/><line class="cls-2" x1="1597.74" y1="840.44" x2="1614.51" y2="840.42"/><line class="cls-2" x1="1597.75" y1="845.91" x2="1614.51" y2="845.88"/><rect class="cls-1" x="1660.7" y="818.53" width="78.78" height="33.44" rx="7.87" transform="matrix(1, 0, 0, 1, -1.37, 2.8)"/><line class="cls-2" x1="1654.89" y1="934.34" x2="1743.11" y2="934.19"/><path class="cls-2" d="M1452.09,422.24a10.29,10.29,0,0,1,5.31-8.83l11-6a1.22,1.22,0,0,0,.17-.15l-2.43-.49c-.49-.29-.82-1.41-1-2.64-.21-1.46-.25-3.74-.48-7.67-.16-2.85-3.47-4.36-6.77-4.83a1.15,1.15,0,0,1-.92-.7,11.77,11.77,0,0,1,4.15-14.17,1.16,1.16,0,0,0,.46-1.2q-1.36-6.22-2.74-12.46a1.15,1.15,0,0,0-1.37-.88,1.13,1.13,0,0,0-.51.26,47.31,47.31,0,0,0-12.48,17.1c-8.81,21.13,1.12,44.9,7.46,57.13Z"/><path class="cls-2" d="M1498.61,499.12a23.29,23.29,0,0,0-1.34-13.05l-16-39.51a1,1,0,0,1-.08-.44l.09-7.27c-1.43,2.58-2.7,4.65-3.54,6A133.13,133.13,0,0,1,1467,459.76a99.62,99.62,0,0,1,13.57,23.54,136.39,136.39,0,0,1,5.14,14.72,15.16,15.16,0,0,1,.24,7.27l-6.81,31.91A6.55,6.55,0,0,0,1479,539l2.36,35.1a1.14,1.14,0,0,0,1.22,1.07,1.12,1.12,0,0,0,.64-.24l7.31-5.89a1.12,1.12,0,0,0,.42-1L1489.75,548a2.44,2.44,0,0,1,0-.27Z"/><path class="cls-2" d="M1476.66,365.11a1.16,1.16,0,0,1,1.41-.84,1.29,1.29,0,0,1,.49.26,47.26,47.26,0,0,1,12,17.43c10,25.93-7.72,55-12.54,62.94-9.35,15.36-17.31,19.57-26.39,39.84a137.49,137.49,0,0,0-5.51,14.57,15,15,0,0,0-.44,7.27q3,16,5.9,32.08a6.93,6.93,0,0,1,.09,1.82l-3.31,35.08a1.15,1.15,0,0,1-1.25,1,1.12,1.12,0,0,1-.65-.28l-7.13-6.08a1.18,1.18,0,0,1-.41-1l1.69-20a.82.82,0,0,0,0-.27l-7.52-49a23.48,23.48,0,0,1,1.7-12.95l17.1-39.06a1,1,0,0,0,.09-.43l.38-25.33a10.31,10.31,0,0,1,5.31-8.83l11-6c.49-.27.38-.84.51-1.39.29-1.24-.15-7,1.1-9.87s3.17-2,6.5-2.44a1.15,1.15,0,0,0,.93-.66,11.81,11.81,0,0,0-3.66-14.31,1.14,1.14,0,0,1-.43-1.19Q1475.12,371.3,1476.66,365.11Z"/><circle class="cls-2" cx="1467.79" cy="427.55" r="6.03" transform="translate(989.97 1879.75) rotate(-88.03)"/><polygon class="cls-2" points="1329.41 600.53 1329.41 635.75 1330.58 635.87 1334.56 632.94 1338 636.63 1340.49 636.88 1344.54 633.9 1348.03 637.65 1350.41 637.89 1354.52 634.87 1358.07 638.67 1360.33 638.9 1364.5 635.83 1368.11 639.7 1370.25 639.91 1374.49 636.79 1378.15 640.72 1380.16 640.93 1384.47 637.76 1388.19 641.75 1390.08 641.94 1394.45 638.72 1398.23 642.77 1400 642.95 1404.43 639.68 1408.27 643.79 1409.91 643.96 1414.42 640.65 1418.31 644.82 1419.83 644.97 1424.4 641.61 1428.35 645.84 1429.75 645.99 1434.38 642.58 1438.39 646.87 1439.67 647 1444.37 643.54 1448.43 647.89 1449.58 648.01 1454.35 644.5 1458.47 648.91 1459.5 649.02 1464.33 645.46 1468.51 649.94 1469.42 650.03 1474.31 646.43 1478.55 650.96 1479.34 651.04 1484.3 647.39 1488.59 651.99 1489.25 652.05 1494.28 648.35 1498.63 653.01 1499.17 653.07 1504.26 649.32 1508.67 654.04 1509.31 654.1 1514.25 650.47 1518.51 655.04 1519.53 655.14 1524.23 651.68 1528.29 656.04 1529.44 656.16 1534.21 652.65 1538.33 657.06 1539.42 657.17 1544.19 653.66 1548.33 658.08 1549.33 658.18 1554.18 654.62 1558.37 659.11 1559.25 659.2 1564.16 655.58 1568.41 660.13 1569.17 660.21 1574.14 656.55 1578.45 661.15 1579.14 661.22 1579.14 600.53 1329.41 600.53"/><path class="cls-2" d="M1579.14,600.53v60.69l25.1,21.29a15.35,15.35,0,0,0,10,3.76h34.65a4.8,4.8,0,0,0,4.8-4.8V605.18a4.65,4.65,0,0,0-4.65-4.65Z"/><rect class="cls-2" x="1614.42" y="605.95" width="33.31" height="74.89" rx="3"/><circle class="cls-2" cx="1337.43" cy="614.13" r="2.89"/><line class="cls-3" x1="1581.98" y1="657.84" x2="1610.47" y2="681.56"/><line class="cls-3" x1="1581.98" y1="651.09" x2="1610.47" y2="674.81"/><line class="cls-3" x1="1581.98" y1="644.34" x2="1610.47" y2="668.06"/><line class="cls-3" x1="1581.98" y1="637.59" x2="1610.47" y2="661.31"/><line class="cls-3" x1="1581.98" y1="630.84" x2="1610.47" y2="654.56"/><line class="cls-3" x1="1581.98" y1="624.09" x2="1610.47" y2="647.81"/><line class="cls-3" x1="1581.98" y1="617.34" x2="1610.47" y2="641.06"/><line class="cls-3" x1="1581.98" y1="610.59" x2="1610.47" y2="634.31"/><line class="cls-3" x1="1581.98" y1="603.84" x2="1610.47" y2="627.56"/><line class="cls-3" x1="1588.85" y1="602.81" x2="1610.47" y2="620.81"/><line class="cls-3" x1="1596.96" y1="602.81" x2="1610.47" y2="614.06"/><line class="cls-3" x1="1605.07" y1="602.81" x2="1610.47" y2="607.31"/><path class="cls-1" d="M1683.33,445.65v12.6a4.62,4.62,0,0,0,7.05,0v-12.6"/><path class="cls-1" d="M1657.38,255.24l.62-.12v-3.26a2.17,2.17,0,0,1,2.16-2.16h2.33l8.18-24.51a42.75,42.75,0,0,1,37.63,1.05l8,23.78a6.12,6.12,0,0,1,1.51,5.15l3.22.49,1.54.24c29.32-17.27,38.21-54.63,20.94-84a61.61,61.61,0,1,0-86.09,83.29Z"/><path class="cls-1" d="M1673.05,427.76v15.53a38,38,0,0,0,26.41,0V427.67a65.27,65.27,0,0,1-26.41.09Z"/><path class="cls-1" d="M1663.52,417.24V426a95.73,95.73,0,0,0,44.84,0l.21-8.73"/><path class="cls-2" d="M1673.05,432.39a42.14,42.14,0,0,0,26.41,0"/><path class="cls-2" d="M1673.05,438a42.14,42.14,0,0,0,26.41,0"/><path class="cls-1" d="M1675.59,223.3a35.65,35.65,0,0,1,.76-7.06c.06-.26.11-.51.17-.77,2.38-9.93,8.8-16,13.49-15.72,4.54.23,10,6.44,11.76,15.91a6.13,6.13,0,0,0,.14.84,34.41,34.41,0,0,1,.38,6.8Z"/><path class="cls-1" d="M1676.35,216.24c-.64-.88-4.23-6-2.81-12.45a15.81,15.81,0,1,1,28.37,12.71"/><path class="cls-1" d="M1654.83,232.25c-.68-1-14.19-22.12-3.39-44.59,9.38-19.52,29.37-24,31.69-24.45"/><path class="cls-1" d="M1666.55,211.52c-.32-.64-4.73-9.73.52-18.75,5.08-8.71,14.66-9.6,15.49-9.66"/><path class="cls-1" d="M1714.82,167.62c1.68,1.31,16.08,13.06,15.78,33-.32,20.88-16.52,32.35-18,33.4"/><path class="cls-1" d="M1694.36,173.87a15.64,15.64,0,0,1,9.24,2.13,16.18,16.18,0,0,1,7.21,10.39"/><path class="cls-1" d="M1727.76,234a42.63,42.63,0,0,0,9.66-44.91"/><path class="cls-1" d="M1720.42,403a7.88,7.88,0,0,0,4.68-7.22c0-23.8,2.1-113.56,1.58-122.23a4.72,4.72,0,0,0-3-4.11l-12.63-4.92a4.76,4.76,0,0,1-2.84-3.14q-3.27-11.88-6.55-23.75a51.06,51.06,0,0,0-27.74,0l-6.54,23.74a4.68,4.68,0,0,1-2.83,3.14l-12.63,4.92a4.74,4.74,0,0,0-3,4.11l-1.64,121.92a7.92,7.92,0,0,0,4.94,7.44l10.23,4.14,1.07,10.18a104.76,104.76,0,0,0,45,.66l.3-9.71Z"/><path class="cls-1" d="M1658,255l-18,2.66a5.7,5.7,0,0,0-4.83,5.62v11.06a5.85,5.85,0,0,0,4,5.53l9.68,3.27.08-8.76a5.47,5.47,0,0,1,.73-3,3.94,3.94,0,0,1,2.95-2.15l12.64-5.17a3.7,3.7,0,0,0,1.67-2.45l3.71-12h-9.15A3.49,3.49,0,0,0,1658,253Z"/><rect class="cls-1" x="1676.52" y="245.75" width="22.41" height="7.56" rx="3.16"/><path class="cls-1" d="M1713.13,274.6h-15a4.47,4.47,0,0,0-4.47,4.47v26.5a4.47,4.47,0,0,0,4.47,4.47h.16V283.51a3.45,3.45,0,0,1,3.43-3.43h7.78a3.44,3.44,0,0,1,3.43,3.43V310h.16a4.47,4.47,0,0,0,4.47-4.47v-26.5A4.47,4.47,0,0,0,1713.13,274.6Z"/><rect class="cls-1" x="1698.33" y="280.06" width="14.63" height="36.4" rx="2.86"/><line class="cls-1" x1="1673.05" y1="263.19" x2="1702.29" y2="263.19"/><line class="cls-1" x1="1658" y1="283.11" x2="1658" y2="397.4"/><line class="cls-1" x1="1670.45" y1="296.91" x2="1670.77" y2="397.4"/><line class="cls-1" x1="1686.05" y1="319.75" x2="1686.05" y2="399"/><line class="cls-1" x1="1702.29" y1="331.9" x2="1702.29" y2="399"/><line class="cls-1" x1="1717.6" y1="323.55" x2="1717.6" y2="397.4"/><path class="cls-1" d="M1717.77,253.13a3.55,3.55,0,0,0-3.47-3.6h-9.15l3.72,12.47a3.83,3.83,0,0,0,1.67,2.54l10.52,4.11c.26.05,4.59.93,5.56,4.23a4.78,4.78,0,0,1,.15,2l.15,9.38,9.67-3.39a6,6,0,0,0,4-5.72V263.74a5.8,5.8,0,0,0-4.82-5.81l-18-2.76Z"/><path class="cls-2" d="M1584.75,155.08a2.66,2.66,0,0,0,.92,1,2.63,2.63,0,0,0,1.11.42,13.49,13.49,0,0,0,1.55,11.8,13.31,13.31,0,0,0,9.66,5.38q-.13,33.25-.25,66.52a259.77,259.77,0,0,1-9.81-37.6C1583.87,180.38,1584.05,171.08,1584.75,155.08Z"/><path class="cls-2" d="M1610.31,129.72a8.76,8.76,0,0,1-5.94,1.46,8.52,8.52,0,0,1-5.23-3.22c.2,12.55-.81,26-.61,38.57l13.48-.81c.28-4.85.32-8.88.3-11.81a56.64,56.64,0,0,0-.41-8.85c-.73-4.07-1.78-5.55-2.12-9.46A19.4,19.4,0,0,1,1610.31,129.72Z"/><path class="cls-3" d="M1597.15,128.1l0,20.62a12.75,12.75,0,0,1,11.77,5c4,5.41,1.69,11.54,1.53,12h2a267,267,0,0,1-14.25,74.52V188.4l2-.16-.2-14.5a12.84,12.84,0,0,1-13.29-17.2,5.84,5.84,0,0,1-2.54-2.13c-.7-1.14-.87-2.49-.24-6.48.37-2.33.61-3,1.32-6.35,1.08-5.14,1.14-6.49,1.14-7.38a21.23,21.23,0,0,0-.6-4.89,10.82,10.82,0,0,0,11.29-1.21Z"/><circle class="cls-2" cx="1598.53" cy="161.18" r="5.35"/><path class="cls-1" d="M1595.79,188.39V173.51a13.66,13.66,0,0,0,3.19.17c.48,0,.93-.1,1.34-.17v14.88Z"/><path class="cls-1" d="M1610.31,129.72a8.93,8.93,0,0,1-5.94,1.46,8.8,8.8,0,0,1-5.27-2.64"/><path class="cls-1" d="M1625.63,8.42a8,8,0,0,0-3.28,1.27A9.07,9.07,0,0,0,1619,14.3a13.78,13.78,0,0,0-.92,5.36c.22,7.63,2,22.69,2.28,25.86a83.42,83.42,0,0,1,0,16c-.92,11.45-4,18.86-8.62,31-3.11,8.22-7.51,20.23-12.56,35.45a8,8,0,0,0,11.22,1.75,178.57,178.57,0,0,0,19.51-42.16,154.31,154.31,0,0,0,6.65-33c.5-6-.39-15-2.17-33.2A16.15,16.15,0,0,0,1632,14,16,16,0,0,0,1625.63,8.42Z"/><path class="cls-1" d="M1570.68,9.09a8.09,8.09,0,0,1,3.28,1.27,9.21,9.21,0,0,1,3.37,4.6,14,14,0,0,1,.91,5.37c-.21,7.63-2,22.69-2.27,25.86a81.8,81.8,0,0,0,0,16c.91,11.45,4,18.85,8.61,31,3.11,8.23,7.49,19.71,12.55,34.93-.31.42-2.1,1.67-5.32,2.18a8.91,8.91,0,0,1-6-1c-10.42-16.53-16.11-30.43-19.43-41.09a155,155,0,0,1-6.65-33c-.49-6,.4-15,2.18-33.2a16,16,0,0,1,2.39-7.42A16.13,16.13,0,0,1,1570.68,9.09Z"/><rect class="cls-1" x="1671.03" y="31.31" width="11.19" height="26.77" transform="matrix(1, 0, 0, 1, -0.17, 6.89)"/><polygon class="cls-1" points="1801.45 45.56 1801.52 42.22 1798.67 40.48 1795.74 42.1 1795.67 45.44 1798.52 47.16 1801.45 45.56"/><polygon class="cls-2" points="1650.74 22.68 1650.95 74.9 1665.06 107.02 1671.68 106.99 1670.8 22.6 1650.74 22.68"/><path class="cls-2" d="M1682.3,22.55,1682,107l9.82,0,.87-18.25a21.9,21.9,0,0,1,1.17-6.85c5.29-15.22,26.61-18.79,28.85-19.12l59.91-1.36-.16-37.08Z"/><path class="cls-1" d="M1782.5,31.94l89-1.3a12.2,12.2,0,0,1,12.38,12v.13h0a12.21,12.21,0,0,1-12,12.24l-89.24,1.3Z"/><rect class="cls-1" x="1698.56" y="33.37" width="52.49" height="19.62" transform="translate(-0.16 7.09) rotate(-0.24)"/><rect class="cls-1" x="1757.94" y="30.95" width="15.64" height="24.12" transform="matrix(1, 0, 0, 1, -0.16, 7.26)"/><rect class="cls-1" x="1802.66" y="36.4" width="71.04" height="14.17" rx="7.08" transform="translate(-0.46 29.38) rotate(-0.92)"/><path class="cls-1" d="M1782.54,49.52c4.68.31,8-3.4,7.67-6.38-.28-2.72-3.58-5.48-7.71-5"/><line class="cls-1" x1="1757.97" y1="49.51" x2="1764.42" y2="55.08"/><line class="cls-1" x1="1757.94" y1="42.1" x2="1773.63" y2="55.04"/><line class="cls-1" x1="1757.91" y1="35.14" x2="1773.6" y2="47.68"/><line class="cls-1" x1="1760.06" y1="30.91" x2="1773.35" y2="40.93"/><line class="cls-1" x1="1769.56" y1="30.93" x2="1773.35" y2="33.77"/><path class="cls-1" d="M1529.37,736.37h0a39.42,39.42,0,0,0-77.75,9.2V776a15.92,15.92,0,0,0,15.92,15.92H1532a9,9,0,0,0,9-9,9.34,9.34,0,0,0-.28-2.16Z"/><circle class="cls-2" cx="1491.35" cy="745.57" r="29.76" transform="translate(516.52 2098.24) rotate(-80.78)"/><path class="cls-2" d="M1528.51,734.18l2-.63a5,5,0,0,1,6,2.66,29.76,29.76,0,0,0,9.39,20.31,5.4,5.4,0,0,1,.09,4.21,5.26,5.26,0,0,1-3,2.94c-1.59.6-4.54,1.2-6.13,1.81"/><path class="cls-1" d="M1532.58,51.74a6.69,6.69,0,0,0,6.7-6.7V20.6a6.72,6.72,0,0,0-6.7-6.72L1307,13.5a6.72,6.72,0,0,0-6.72,6.7V44.65a6.71,6.71,0,0,0,6.7,6.71l75.36.13V47.07h0a6.36,6.36,0,0,1,6.37-6.35l64.71.12h0a6.35,6.35,0,0,1,6.33,6.37v4.42l72.77.12Z"/><rect class="cls-1" x="1416.17" y="25.42" width="7.69" height="38.26" transform="translate(1373.16 1464.5) rotate(-89.91)"/><circle class="cls-2" cx="1346.3" cy="32.46" r="13.94"/><circle class="cls-1" cx="1495.82" cy="32.72" r="13.94"/><path class="cls-1" d="M1307.07,13.47h7.34l-.06,37.86h-7.29a6.77,6.77,0,0,1-6.77-6.77V20.24A6.77,6.77,0,0,1,1307.07,13.47Z"/><path class="cls-1" d="M1506.41,23.65a14.25,14.25,0,0,1,1.83,2.73l-19.5,18.33a12.85,12.85,0,0,1-2.46-1.8A13.31,13.31,0,0,1,1483.4,39l19.51-18.33A14,14,0,0,1,1506.41,23.65Z"/><path class="cls-1" d="M1346.31,18.52a11.62,11.62,0,0,1,3.92.49c0,8.61,0,18.28,0,26.89a12,12,0,0,1-3.92.5,10.36,10.36,0,0,1-3.93-.51V19A11,11,0,0,1,1346.31,18.52Z"/><line class="cls-1" x1="1493.96" y1="39.77" x2="1488.57" y2="34.21"/><line class="cls-1" x1="1503.08" y1="31.22" x2="1497.68" y2="25.65"/><line class="cls-1" x1="1350.15" y1="39.3" x2="1342.39" y2="39.44"/><line class="cls-1" x1="1350.12" y1="26.8" x2="1342.37" y2="26.94"/><line class="cls-1" x1="1414.23" y1="48.43" x2="1414.19" y2="40.68"/><line class="cls-1" x1="1426.71" y1="48.43" x2="1426.67" y2="40.68"/><line class="cls-1" x1="1377.05" y1="883.75" x2="1369.3" y2="883.6"/><line class="cls-1" x1="1376.91" y1="896.18" x2="1369.04" y2="896.04"/><line class="cls-1" x1="1440.81" y1="874.62" x2="1440.77" y2="882.37"/><line class="cls-1" x1="1453.29" y1="874.62" x2="1453.25" y2="882.37"/><polygon class="cls-2" points="1533.08 234.99 1534.32 84.05 1392.1 82.88 1533.08 234.99"/><polygon class="cls-2" points="1513.92 186.26 1514.61 102.08 1438.09 101.45 1513.92 186.26"/><line class="cls-2" x1="1522.7" y1="223.78" x2="1528.46" y2="217.91"/><line class="cls-2" x1="1516.06" y1="216.79" x2="1521.83" y2="210.92"/><line class="cls-2" x1="1509.42" y1="209.81" x2="1515.18" y2="203.94"/><line class="cls-2" x1="1502.78" y1="202.82" x2="1508.55" y2="196.95"/><line class="cls-2" x1="1496.15" y1="195.84" x2="1501.91" y2="189.97"/><line class="cls-2" x1="1489.75" y1="188.64" x2="1495.52" y2="182.76"/><line class="cls-2" x1="1483.15" y1="181.57" x2="1488.92" y2="175.7"/><line class="cls-2" x1="1476.63" y1="174.54" x2="1482.4" y2="168.67"/><line class="cls-2" x1="1470.09" y1="167.34" x2="1475.85" y2="161.47"/><line class="cls-2" x1="1463.51" y1="160.35" x2="1469.28" y2="154.48"/><line class="cls-2" x1="1456.92" y1="153.32" x2="1462.68" y2="147.45"/><line class="cls-2" x1="1450.37" y1="146.27" x2="1456.13" y2="140.4"/><line class="cls-2" x1="1443.95" y1="139.08" x2="1449.71" y2="133.19"/><line class="cls-2" x1="1437.33" y1="132.11" x2="1443.1" y2="126.24"/><line class="cls-2" x1="1430.84" y1="124.98" x2="1436.6" y2="119.11"/><line class="cls-2" x1="1424.19" y1="117.99" x2="1429.95" y2="112.12"/><line class="cls-2" x1="1417.71" y1="110.83" x2="1423.47" y2="104.96"/><line class="cls-2" x1="1411.18" y1="103.72" x2="1416.93" y2="97.84"/><line class="cls-2" x1="1404.5" y1="96.62" x2="1410.27" y2="90.75"/><polygon class="cls-2" points="1673.18 995.05 1522.24 995.21 1522.39 1137.44 1673.18 995.05"/><polygon class="cls-2" points="1624.63 1014.66 1540.45 1014.75 1540.53 1091.28 1624.63 1014.66"/><line class="cls-2" x1="1662.07" y1="1005.53" x2="1656.15" y2="999.83"/><line class="cls-2" x1="1655.15" y1="1012.24" x2="1649.22" y2="1006.53"/><line class="cls-2" x1="1648.23" y1="1018.94" x2="1642.3" y2="1013.23"/><line class="cls-2" x1="1641.3" y1="1025.64" x2="1635.38" y2="1019.93"/><line class="cls-2" x1="1634.38" y1="1032.34" x2="1628.45" y2="1026.64"/><line class="cls-2" x1="1627.24" y1="1038.81" x2="1621.31" y2="1033.09"/><line class="cls-2" x1="1620.23" y1="1045.48" x2="1614.31" y2="1039.76"/><line class="cls-2" x1="1613.26" y1="1052.05" x2="1607.33" y2="1046.34"/><line class="cls-2" x1="1606.13" y1="1058.66" x2="1600.2" y2="1052.96"/><line class="cls-2" x1="1599.19" y1="1065.31" x2="1593.27" y2="1059.59"/><line class="cls-2" x1="1592.23" y1="1071.96" x2="1586.3" y2="1066.26"/><line class="cls-2" x1="1585.24" y1="1078.58" x2="1579.31" y2="1072.88"/><line class="cls-2" x1="1578.1" y1="1085.07" x2="1572.17" y2="1079.35"/><path class="cls-2" d="M1389.37,772.27l-3.16,62.35c.54,6.31,5.22,11.29,10.81,12,6.69.91,13.57-4.35,14.38-12-1-19.31-1.77-33.61-3.29-62.35"/><polygon class="cls-2" points="1398.81 683.14 1396.26 690.82 1396.26 767.36 1401.35 767.36 1401.35 690.82 1398.81 683.14"/><path class="cls-2" d="M1388.82,767.36h20a2.61,2.61,0,0,1,2.61,2.61h0a2.61,2.61,0,0,1-2.61,2.61h-20a2.61,2.61,0,0,1-2.61-2.61h0A2.61,2.61,0,0,1,1388.82,767.36Z"/><path class="cls-2" d="M1395.05,772.58v58.55a3.49,3.49,0,0,0,3.49,3.49h0a3.49,3.49,0,0,0,3.49-3.49V772.58Z"/><path class="cls-2" d="M1776.17,377.29l.13,13.2,61.62-.4h7.6a5.66,5.66,0,0,0,5.63-5.67h0v-7.57l-1.78-269.75V99.51a5.65,5.65,0,0,0-5.7-5.6h0l-70.07.4,0,13.18,56.77-.31a5.65,5.65,0,0,1,5.7,5.6l1.7,258.48a5.68,5.68,0,0,1-5.63,5.68Z"/><polygon class="cls-2" points="1768.52 115.29 1771.6 118.31 1768.58 121.39 1771.66 124.41 1768.64 127.48 1771.71 130.5 1768.7 133.58 1771.77 136.6 1768.75 139.67 1771.83 142.69 1768.81 145.76 1771.88 148.78 1768.87 151.86 1771.94 154.88 1768.92 157.95 1772 160.97 1768.98 164.05 1772.06 167.07 1769.04 170.14 1772.12 173.16 1769.1 176.24 1772.17 179.25 1769.16 182.33 1772.23 185.35 1769.21 188.42 1772.29 191.44 1769.27 194.52 1772.34 197.53 1769.33 200.61 1772.4 203.63 1769.38 206.71 1772.46 209.72 1769.44 212.8 1772.52 215.82 1769.5 218.89 1772.58 221.91 1769.56 224.99 1772.63 228 1769.62 231.08 1772.69 234.1 1769.67 237.17 1772.75 240.19 1769.73 243.27 1772.81 246.29 1769.79 249.36 1772.86 252.38 1769.84 255.46 1772.92 258.48 1769.9 261.55 1772.98 264.57 1769.96 267.64 1773.03 270.66 1770.02 273.74 1773.09 276.76 1770.08 279.83 1773.15 282.85 1770.13 285.93 1773.21 288.95 1770.19 292.02 1773.27 295.04 1770.25 298.11 1773.32 301.13 1770.31 304.21 1773.38 307.23 1770.36 310.3 1773.44 313.32 1770.42 316.4 1773.49 319.41 1770.48 322.49 1773.55 325.51 1770.53 328.58 1773.61 331.6 1770.59 334.68 1773.67 337.7 1770.65 340.77 1773.73 343.79 1770.71 346.87 1773.78 349.88 1770.77 352.96 1773.84 355.98 1770.82 359.05 1773.9 362.07 1770.88 365.15 1773.95 368.17 1770.94 371.24 1774.01 374.26 1770.99 377.34 1786.65 377.19 1784.1 107.41 1768.45 107.56 1768.46 109.2 1771.54 112.22 1768.52 115.29"/><path class="cls-1" d="M1780.1,407.17a48.75,48.75,0,0,0-5.32,19.56c-.36,7.57,1.4,10.67,2.17,18,1.48,14.06-3.28,19-4.21,31.06-.59,7.73.33,19.27,8.33,34.11a7.35,7.35,0,0,0,13.65-.12c7.72-15,8.43-26.55,7.69-34.27-1.16-12-6-16.89-4.8-31,.64-7.34,2.34-10.47,1.83-18a48.64,48.64,0,0,0-5.68-19.46l-.36-16.47-13.47-.09Z"/><path class="cls-1" d="M1797.93,502.77a19.47,19.47,0,0,0-20.21.19"/><path class="cls-1" d="M1793.76,407a16.84,16.84,0,0,0-13.66.13"/><path class="cls-2" d="M1873.23,110.36l-.06,13.9a2.09,2.09,0,0,0,2.08,2.11h.51a2.09,2.09,0,0,0,2.1-2.07l0-4.77L1935,120l6.16-2.14-6.13-2.22-57.15-.43,0-4.77a2.09,2.09,0,0,0-2.06-2.11h-.53a2.08,2.08,0,0,0-2.11,2.06Z"/><rect class="cls-1" x="1864.65" y="836.44" width="26.77" height="11.19" transform="translate(-2.49 5.58) rotate(-0.17)"/><polygon class="cls-1" points="1879.04 717.2 1875.7 717.13 1873.96 719.98 1875.58 722.91 1878.92 722.98 1880.64 720.13 1879.04 717.2"/><polygon class="cls-2" points="1855.99 867.89 1908.21 867.74 1940.35 853.66 1940.33 847.04 1855.93 847.83 1855.99 867.89"/><path class="cls-2" d="M1855.9,836.33l84.4.39,0-9.82L1922,826a21.58,21.58,0,0,1-6.85-1.18c-15.21-5.3-18.76-26.63-19.08-28.87l-1.3-59.91-37.08.11Z"/><path class="cls-1" d="M1865.4,736.14l-1.2-89a12.21,12.21,0,0,1,12-12.37h.13a12.19,12.19,0,0,1,12.22,12l1.2,89.25Z"/><rect class="cls-1" x="1866.77" y="767.6" width="19.62" height="52.49" transform="translate(-2.35 5.57) rotate(-0.17)"/><rect class="cls-1" x="1864.39" y="745.07" width="24.12" height="15.64" transform="translate(-2.23 5.57) rotate(-0.17)"/><rect class="cls-1" x="1869.93" y="644.95" width="14.17" height="71.04" rx="7.08" transform="translate(-9.89 27.92) rotate(-0.85)"/><path class="cls-1" d="M1883,736.12c.32-4.69-3.39-8-6.37-7.68-2.72.27-5.48,3.57-5,7.71"/><line class="cls-1" x1="1882.94" y1="760.69" x2="1888.52" y2="754.24"/><line class="cls-1" x1="1875.53" y1="760.71" x2="1888.49" y2="745.03"/><line class="cls-1" x1="1868.57" y1="760.73" x2="1881.13" y2="745.06"/><line class="cls-1" x1="1864.35" y1="758.58" x2="1874.38" y2="745.3"/><line class="cls-1" x1="1864.38" y1="749.08" x2="1867.22" y2="745.29"/><path class="cls-2" d="M1889.73,500.93a10.26,10.26,0,0,1-9.06-4.89l-6.52-10.67a.71.71,0,0,0-.15-.15l-.38,2.44c-.26.5-1.37.89-2.58,1.12-1.45.28-3.73.43-7.64.84-2.84.3-4.2,3.68-4.52,7a1.14,1.14,0,0,1-.64.95,11.78,11.78,0,0,1-14.36-3.48,1.16,1.16,0,0,0-1.21-.4q-6.17,1.65-12.32,3.33a1.14,1.14,0,0,0-.82,1.4,1.18,1.18,0,0,0,.28.5,47.4,47.4,0,0,0,17.67,11.66c21.52,7.8,44.81-3.24,56.72-10.15Z"/><path class="cls-2" d="M1964.34,450.83a23.27,23.27,0,0,0-13,1.95l-38.7,17.87a1,1,0,0,1-.44.1L1905,471c2.65,1.3,4.77,2.47,6.2,3.25a131.91,131.91,0,0,1,15.36,10,99.61,99.61,0,0,1,22.88-14.66,136.8,136.8,0,0,1,14.45-5.84,15.16,15.16,0,0,1,7.26-.58l32.2,5.3a6.93,6.93,0,0,0,1.82,0l35-4a1.16,1.16,0,0,0,1-1.28,1.1,1.1,0,0,0-.28-.62l-6.23-7a1.12,1.12,0,0,0-1-.38l-20,2.12h-.27Z"/><path class="cls-2" d="M1831.51,479.08a1.16,1.16,0,0,1-.67-1.87,47.32,47.32,0,0,1,16.84-12.82c25.43-11.21,55.32,5.11,63.47,9.56,15.78,8.61,20.36,16.36,41,24.48a139,139,0,0,0,14.81,4.81,15.07,15.07,0,0,0,7.28.09l31.77-7.41a7.39,7.39,0,0,1,1.82-.17l35.19,1.65a1.16,1.16,0,0,1,1.1,1.2,1.14,1.14,0,0,1-.25.66l-5.73,7.41a1.18,1.18,0,0,1-1,.46l-20.09-.75h-.27l-48.57,9.82a23.48,23.48,0,0,1-13-1.08l-39.82-15.23a1,1,0,0,0-.44-.08l-25.32.82a10.27,10.27,0,0,1-9.06-4.89l-6.52-10.66c-.29-.47-.86-.33-1.41-.44-1.25-.23-7,.48-9.92-.63s-2.19-3.07-2.74-6.38a1.16,1.16,0,0,0-.7-.9,11.81,11.81,0,0,0-14.12,4.33,1.13,1.13,0,0,1-1.17.49Z"/><circle class="cls-2" cx="1894.3" cy="485" r="6.03" transform="translate(-6.06 24.31) rotate(-0.73)"/><polygon class="cls-2" points="1893.08 25.04 1892.9 18.11 1898.83 14.49 1904.91 17.81 1905.09 24.74 1899.16 28.36 1893.08 25.04"/><polygon class="cls-1" points="1896.14 23.17 1896.05 19.83 1898.9 18.09 1901.85 19.68 1901.92 23.02 1899.08 24.77 1896.14 23.17"/><path class="cls-2" d="M1733.18,503.43l13.9-.18a2.08,2.08,0,0,0,2.07-2.11h0v-.5a2.1,2.1,0,0,0-2.12-2.07l-4.77.06-.73-57.14-2.25-6.12-2.1,6.17.72,57.15-4.77.06a2.1,2.1,0,0,0-2.06,2.12h0v.5A2.1,2.1,0,0,0,1733.18,503.43Z"/><polygon class="cls-2" points="1843.54 438.36 1836.61 438.43 1833.08 432.46 1836.48 426.42 1843.42 426.35 1846.95 432.32 1843.54 438.36"/><polygon class="cls-1" points="1841.71 435.27 1838.37 435.3 1836.67 432.43 1838.31 429.52 1841.65 429.48 1843.36 432.36 1841.71 435.27"/><path class="cls-2" d="M1889.1,999.68c0,.76,1,1.36,2.12,1.35l13.9-.23c1.15,0,2.08-.65,2.06-1.41v-.33c0-.76-1-1.37-2.12-1.35l-4.77.08-.09-4.46,1.6-.75a1,1,0,0,0-.89-1.89h0l-.73.34-.06-3.29,1.61-.76a1.05,1.05,0,0,0-.9-1.9l-.78.35-.06-3.3,1.64-.77a1,1,0,0,0,.54-1.31l0-.08a1,1,0,0,0-1.31-.54.2.2,0,0,1-.08,0l-.79.37-.07-3.29,1.68-.79a1,1,0,0,0,.54-1.31.59.59,0,0,0,0-.08,1.05,1.05,0,0,0-1.4-.5h0l-.86.39V971l1.7-.8a1,1,0,0,0,.5-1.4h0a1.05,1.05,0,0,0-1.39-.5l-.86.41-.06-3.3,1.74-.82a1,1,0,1,0-.9-1.89h0l-.88.42-.06-3-2.25-4-2.1,4.08.09,5-1.36.64a1.05,1.05,0,0,0,.9,1.9l.49-.27.06,3.29-1.39.66a1,1,0,0,0-.54,1.31l0,.08a1,1,0,0,0,1.31.54l.08,0,.54-.25.06,3.3-1.42.65a1.05,1.05,0,0,0-.49,1.4,1,1,0,0,0,1.39.49h0l.57-.27.06,3.3-1.45.68a1.06,1.06,0,0,0-.5,1.4h0a1,1,0,0,0,1.33.49l.06,0,.6-.28.07,3.3-1.49.7a1.05,1.05,0,0,0-.49,1.4,1,1,0,0,0,1.39.49l.63-.3.06,3.3-1.51.71a1.06,1.06,0,0,0-.5,1.4h0a1.05,1.05,0,0,0,1.39.5l.67-.32v2.5l-4.77.07c-1.15,0-2.08.65-2.06,1.42Z"/><polygon class="cls-2" points="1848.56 981.62 1841.63 981.69 1838.1 975.72 1841.5 969.68 1848.44 969.61 1851.97 975.58 1848.56 981.62"/><polygon class="cls-1" points="1846.73 978.53 1843.39 978.56 1841.69 975.69 1843.33 972.78 1846.67 972.74 1848.38 975.62 1846.73 978.53"/><path class="cls-2" d="M1895.44,179.67c0-.76-1-1.36-2.12-1.34l-13.9.26c-1.15,0-2.08.65-2.06,1.41v.34c0,.76,1,1.36,2.12,1.34l4.77-.09.1,4.46-1.53.75a1.06,1.06,0,0,0-.5,1.4,1.05,1.05,0,0,0,1.4.49h0l.73-.35.07,3.3-1.61.77a1,1,0,0,0-.54,1.31l0,.08a1.05,1.05,0,0,0,1.4.5l.76-.37.07,3.3L1883,198a1.06,1.06,0,0,0-.5,1.4,1.05,1.05,0,0,0,1.4.49h0l.79-.37.07,3.29-1.67.8a1.06,1.06,0,0,0-.5,1.4,1.05,1.05,0,0,0,1.4.49l.83-.38.07,3.3-1.7.8a1.05,1.05,0,0,0-.49,1.4,1,1,0,0,0,1.31.53l.08,0,.85-.4.07,3.3-1.73.82a1.06,1.06,0,0,0-.5,1.4,1.05,1.05,0,0,0,1.4.49h0l.88-.42.07,3,2.26,4,2.09-4.09-.11-5,1.36-.64a1,1,0,0,0,.49-1.39,1,1,0,0,0-1.39-.5l-.51.24-.07-3.3,1.39-.66a1,1,0,0,0,.49-1.39,1,1,0,0,0-1.39-.5l-.54.26-.07-3.3,1.42-.68a1,1,0,0,0,.54-1.3l0-.09a1.06,1.06,0,0,0-1.4-.5l-.57.28-.07-3.3,1.45-.69a1,1,0,0,0,.49-1.39,1,1,0,0,0-1.39-.5l-.6.28-.14-3.26,1.48-.71a1,1,0,0,0,.49-1.39,1,1,0,0,0-1.39-.5l-.63.3-.07-3.29,1.51-.72a1,1,0,0,0,.49-1.4h0a1,1,0,0,0-1.31-.52l-.08,0-.66.31-.06-2.49,4.78-.09c1.15,0,2.07-.66,2.06-1.42Z"/><path class="cls-2" d="M1896.38,333.39c1.52-28.74,2.29-43,3.29-62.35-.81-7.7-7.69-13-14.38-12.05-5.59.76-10.27,5.74-10.81,12.05l3.16,62.35"/><polygon class="cls-2" points="1889.63 414.84 1889.63 338.3 1884.54 338.3 1884.54 414.84 1887.09 422.52 1889.63 414.84"/><path class="cls-2" d="M1874.48,335.69h0a2.61,2.61,0,0,1,2.61-2.61h20a2.61,2.61,0,0,1,2.61,2.61h0a2.61,2.61,0,0,1-2.61,2.61h-20A2.61,2.61,0,0,1,1874.48,335.69Z"/><path class="cls-2" d="M1883.32,333.08V274.53a3.49,3.49,0,0,1,3.49-3.49h0a3.49,3.49,0,0,1,3.49,3.49v58.55Z"/><rect class="cls-1" x="1710.72" y="541.82" width="191.96" height="49.32" rx="9.95"/><polyline class="cls-1" points="1710.12 564.34 1699.92 564.3 1699.78 600.23 1805.86 624.15 1805.8 641.91"/><rect class="cls-2" x="1730.92" y="704.1" width="149.14" height="24.84" rx="5.87" transform="translate(1082.05 2519.24) rotate(-89.78)"/><path class="cls-1" d="M1903.8,555.94h0a1.69,1.69,0,0,1,1.69,1.69v15.81a1.69,1.69,0,0,1-1.69,1.69h0a1.69,1.69,0,0,1-1.69-1.69V557.63A1.69,1.69,0,0,1,1903.8,555.94Z"/><path class="cls-1" d="M1825.64,940.56c7.88-.32,21.5-.77,38.47-.69,30.53.14,40.57,1.85,95.72,4,23.21.88,35,1.32,43.3,1.07,11.7-.35,20-1.14,33.07-.18a185.34,185.34,0,0,1,21.74,2.88,6,6,0,0,0,6.93-4.1,48.39,48.39,0,0,0-.24-29.38,6,6,0,0,0-6.79-4,184,184,0,0,1-21.94,2.55c-13.07.74-21.37-.19-33.06-.73-8.31-.39-20.09-.15-43.31.35-55.18,1.2-65.25,2.73-95.78,2.37-17-.2-30.57-.88-38.45-1.34"/><path class="cls-2" d="M1807.22,976.7a.51.51,0,0,0,.51-.51.59.59,0,0,0,0-.23,33.28,33.28,0,0,1-1.51-26.69,8.09,8.09,0,0,1,4.85-4.87,42.37,42.37,0,0,1,12.3-2.48,2.45,2.45,0,0,0,2.31-2.47l-.32-25.57a1.3,1.3,0,0,0-1.09-1.25l-25.48-3.93a27.31,27.31,0,0,1-5-12.83c-1.55-15,10.77-31.17,30.77-40.46-5.43,1.43-38.7,10.78-48.78,39.23a50.12,50.12,0,0,0-2.81,15.15l.44,35.46a10.36,10.36,0,0,0,.55,3.21,44.94,44.94,0,0,1,.27,27.39,1,1,0,0,0,.69,1.23,1.09,1.09,0,0,0,.26,0,78.23,78.23,0,0,0,32-.4Z"/><path class="cls-2" d="M1774.39,976.7l.12,9.21a2.17,2.17,0,0,0,1.73,2.1,67.75,67.75,0,0,0,30.15-.54,2.17,2.17,0,0,0,1.64-2.2q-.18-4.65-.35-9.3"/><line class="cls-1" x1="1382.35" y1="48.43" x2="1459.78" y2="48.43"/><line class="cls-1" x1="1526.81" y1="13.87" x2="1526.81" y2="51.44"/><line class="cls-1" x1="1409.28" y1="874.49" x2="1486.72" y2="875.12"/><path class="cls-2" d="M1741.84,1058.88a2.73,2.73,0,0,1-1-.92,2.61,2.61,0,0,1-.42-1.12,13.43,13.43,0,0,1-11.8-1.54,13.25,13.25,0,0,1-5.37-9.66l-66.53.25a261.08,261.08,0,0,0,37.6,9.81C1716.54,1059.76,1725.84,1059.57,1741.84,1058.88Z"/><path class="cls-2" d="M1767.69,1033.59a7.45,7.45,0,0,0-2,5.67c.36,3,2.71,4.74,3.22,5.23-12.55-.2-26,.81-38.57.61l.81-13.48c4.86-.28,8.89-.32,11.81-.3a55.32,55.32,0,0,1,8.85.41c4.07.73,5.55,1.78,9.46,2.12A25.84,25.84,0,0,0,1767.69,1033.59Z"/><path class="cls-3" d="M1768.3,1046.46h-20.1a12.78,12.78,0,0,0-5-11.78c-5.41-4-11.54-1.68-12-1.52v-2a267,267,0,0,0-74.52,14.25h51.84l.16-2,14.5.2a12.83,12.83,0,0,0,17.2,13.28,5.74,5.74,0,0,0,2.13,2.54c1.14.7,2.49.88,6.48.24,2.33-.36,3-.6,6.36-1.31,5.13-1.08,6.48-1.14,7.37-1.14a12.3,12.3,0,0,1,3.83.51,10,10,0,0,1-1.49-5.39C1765.27,1049.26,1767.7,1047.24,1768.3,1046.46Z"/><circle class="cls-2" cx="1735.74" cy="1045.1" r="5.35"/><path class="cls-1" d="M1708.54,1047.84h14.87a13.22,13.22,0,0,1-.16-3.19,12.64,12.64,0,0,1,.16-1.34h-14.87Z"/><path class="cls-1" d="M1767.62,1033.46a8.84,8.84,0,0,0-1.88,5.8,9.12,9.12,0,0,0,2.94,5.23"/><path class="cls-1" d="M1888.5,1018a8.09,8.09,0,0,1-1.27,3.28,9.15,9.15,0,0,1-4.6,3.37,13.77,13.77,0,0,1-5.37.91c-7.63-.21-22.69-1.94-25.86-2.27a83.42,83.42,0,0,0-16,0c-11.45.92-18.85,4-31,8.62-8.23,3.11-20.24,7.51-35.46,12.56a8.21,8.21,0,0,1-3.22-5.23,6.93,6.93,0,0,1,1.59-5.62,182.36,182.36,0,0,1,42-19.89,154.72,154.72,0,0,1,33-6.64c6-.5,15.05.39,33.2,2.17a15.27,15.27,0,0,1,13,8.72Z"/><path class="cls-1" d="M1887.84,1073a8.4,8.4,0,0,0-1.27-3.28,9.21,9.21,0,0,0-4.61-3.37,13.74,13.74,0,0,0-5.37-.91c-7.62.21-22.68,1.95-25.85,2.27a82.71,82.71,0,0,1-16,0c-11.44-.92-18.85-4-31-8.62-8.22-3.11-20.24-7.51-35.45-12.56a8,8,0,0,0-1.75,11.22,178.23,178.23,0,0,0,42.15,19.52,154,154,0,0,0,33,6.64c6,.5,15-.39,33.2-2.17a15.22,15.22,0,0,0,13-8.72Z"/><line class="cls-1" x1="1463.93" y1="734.01" x2="1518.78" y2="734.01"/><line class="cls-1" x1="1463.48" y1="756.01" x2="1519.23" y2="756.01"/></svg>