<svg xmlns="http://www.w3.org/2000/svg" viewBox="0 0 3000 3000"><defs><style>.cls-1,.cls-4{fill:#fff;}.cls-1{fill-rule:evenodd;}.cls-10,.cls-12,.cls-13,.cls-14,.cls-16,.cls-2,.cls-6{fill:none;}.cls-10,.cls-12,.cls-13,.cls-14,.cls-15,.cls-16,.cls-2,.cls-3,.cls-6,.cls-8,.cls-9{stroke:#000;}.cls-10,.cls-12,.cls-13,.cls-14,.cls-16,.cls-2,.cls-3,.cls-6,.cls-8,.cls-9{stroke-linecap:round;stroke-linejoin:round;}.cls-2{stroke-width:27.78px;}.cls-3{fill:#666766;stroke-width:26.95px;}.cls-15,.cls-5{fill:#666667;}.cls-6{stroke-width:32.91px;}.cls-7{fill:#f4c5c4;}.cls-8,.cls-9{fill:#ffe401;}.cls-8{stroke-width:32.65px;}.cls-9{stroke-width:14.88px;}.cls-10{stroke-width:33.31px;}.cls-11{fill:#060606;}.cls-12{stroke-width:5.55px;}.cls-13{stroke-width:22.21px;}.cls-14{stroke-width:17.97px;}.cls-15{stroke-miterlimit:10;stroke-width:10.04px;}.cls-16{stroke-width:11.09px;}</style></defs><g id="Layer_2" data-name="Layer 2"><path class="cls-1" d="M999.48,1441.28c-25.25,8.42-62.76,25.5-89.81,61.76-18,24.1-23.76,46.53-30.64,72.47-44.2,166.7-43.64,139-49.77,179.68a728.37,728.37,0,0,0-2.36,198.32,470.06,470.06,0,0,0-32.6,50c-17.86,31.59-31.88,64.92-38.67,88.21-15.7,53.78-22.23,155.45,37,232.69,42,54.75,117,97.23,139,77.75,15.27-13.53,12.63-63.74-88.15-242.47,41.34,62.46,96.44,168.3,97.6,303a505.12,505.12,0,0,1-3.82,66.36c-20.78,15.62-48.33,43.7-69.76,85.11-15.08,29.16-21.44,57.91-17.44,82.72,5.32,33,22.7,54.67,22.7,54.67a303.93,303.93,0,0,0,27,23.64c48.38,37.53,99.47,53.57,137.09,60.87,29-2,85.46-10.59,131.34-53.14,49.5-45.91,61.68-107.1,69.77-156.9,6.13-37.75,5.94-67.07,5.73-99.55,0,0-.42-63.91-9.8-121.8-20.74-128.1-91-248.06-109.35-278.4-.28-.48,34,46.56,65.1,126.51,35.8,91.91,25.22,116.36,56.58,139.28,7.73,45.12,20.79,57.34,31.06,60.36,25.35,7.48,75.53-28.73,100.16-27a38.36,38.36,0,0,0,7,.16c7-.51,13.06-3.17,27.86-7.24,3.67-1,14.68-3.86,37.07-8.5,36.93-7.65,78.26,4.5,155,6.74,35.47,1,71.27-.27,99.28,23.25a37.84,37.84,0,0,1,4.83,4.49c19,22.14-3.76,61-25.82,134.28-13.78,45.76-20.54,69.08-14.3,90.54,10.15,34.93,41,54.24,57.9,64.85,52.44,32.86,109,29,145,26.61,31.18-2.1,51.19-3.51,76-14.33,67.75-29.54,112.46-106,102.85-151.89-4.4-21-15.84-43.94-15.84-43.94a216.29,216.29,0,0,0-17.46-28.68c-21.65-30.71-39.2-88.2-16.58-206.13-4,16.56-32.84,140.15,3.72,160.06,35,19.05,125.81-59.18,135.66-134.23,2.53-19.26-1.09-32-3-37.48-15.29-43.86-68.74-57.2-78-59.37,39.23-121.27,52-225,56.19-297.11,6.61-113.84,11.34-215.93-41.28-327.39A494.07,494.07,0,0,0,1981,1487.13c-109.87,38.35-302.09,89.34-542.11,69.51A1314,1314,0,0,1,999.48,1441.28Z"/><path class="cls-2" d="M949.62,1443.5c-40.57,61-99.33,167.64-120.36,311.69a750.43,750.43,0,0,0-2.36,198.32,470.06,470.06,0,0,0-32.6,50c-17.86,31.59-31.88,64.92-38.67,88.21-16.18,55.44-20.67,155.33,37,232.69,40.83,54.75,113.91,99.77,135.88,81.27,15.25-12.86,13.51-62.81-85-246,41.34,62.46,96.44,168.3,97.6,303a505.12,505.12,0,0,1-3.82,66.36c-20.78,15.62-48.33,43.7-69.76,85.11-15.08,29.16-21.44,57.91-17.44,82.72,1.42,8.8,4.93,33.16,22.7,54.67,7.36,8.9,12.51,11.73,41.18,32.61,27.87,20.29,36.5,27.45,41.75,31.06,40.32,27.71,145.62,28,212.51-32.3,48.85-44,61.15-103.87,69.77-156.9,6.13-37.75,5.94-67.07,5.73-99.55,0,0-.42-63.91-9.8-121.8-20.74-128.1-91-248.06-109.35-278.4-.36-.61,38.75,46.88,65.1,126.51,23.16,70,46.41,100.06,51.88,135.19,4.85,31.15,1.9,42.86,13,52.9,28.49,25.78,102.59-2,139-15.62,3.3-1.24,15.2-5.25,31.56-10.09a184.09,184.09,0,0,1,24.34-5.32c47.16-7.3,109.84.05,109.84.05a375.83,375.83,0,0,1,66.1,11.74c42.83,11.64,51.08,22.07,65.76,18,29.3-8.2,32.82-59.89,52.28-130.32,28.19-102.07,69.22-166.73,69-166.27a1606.17,1606.17,0,0,0-103.92,301.33c-11.09,46.84-19.5,91.76-25.82,134.28-7.51,11.4-19.39,33.26-19.11,61.38.6,59,54.23,95.18,69,104.16,46.24,28,94.91,17.69,138.63,16.46,32.89-.92,57.23-12,71.31-18.43,15.15-6.9,61.69-28.89,89.67-79.67,9.18-16.67,21.91-39.94,17.88-68.12-2.48-17.36-11-34.31-15.84-43.94a216.29,216.29,0,0,0-17.46-28.68c-21.65-30.71-39.2-88.2-16.58-206.13-4,16.56-32.84,140.15,3.72,160.06,35,19.05,125.81-59.18,135.66-134.23,2.53-19.26-1.09-32-3-37.48-15.29-43.86-68.74-57.2-78-59.37,38.74-120.89,51.75-224.47,56.19-297.11,6.84-112.07,11.54-206.58-34.77-313-29.89-68.67-70.19-117.39-99-147.33a1479.71,1479.71,0,0,1-375.94,70C1315.79,1572.71,1084.63,1499.24,949.62,1443.5Z"/><path class="cls-3" d="M1503.71,1663.36c-313.88-6-397.62-12.12-498.19-71.57a560.57,560.57,0,0,1-96.09-71.8c-15.69-13.13-22.68-33.43-18.07-52.21,3.86-15.73,16.15-31.67,32-35,25.53-5.28,51.43,24,57.25,30.14,64.85,68.7,317.92,109.78,444.74,122.3,201.86,19.92,372.06,36.72,509.75-69.91a395.29,395.29,0,0,0,57.59-54.76,193.92,193.92,0,0,1,22.93,18.35c7.08,6.6,25.91,24.17,29.2,35.44,7.26,24.87-46.85,68.27-102.92,97.1C1832.9,1667.53,1718.47,1667.46,1503.71,1663.36Z"/><path class="cls-4" d="M1984.6,1501.48c-4.6,4.58-33.52,33-72.41,56.21-77.58,46.26-158.82,50.09-321,47-170.37-3.26-255.55-4.89-314.87-15.58,0,0-193.7-34.92-290.44-121.35a365.26,365.26,0,0,1-42.21-45.48,319.76,319.76,0,0,1-51.13-100.69c64.9-18,234.11-74.44,371.1-238.62C1427.38,886.71,1435,668.35,1435.05,606.41l339.79,12.66c103.88-177.15,259.48-255,357.09-214.43,84.69,35.19,108.57,152.37,115.86,188.15,44,215.75-120.9,394.61-147.46,422.57a546.28,546.28,0,0,1-23.62,339.37C2060.42,1394.48,2037.47,1448.89,1984.6,1501.48Z"/><path class="cls-5" d="M1351.7,1223.45c38.36-38.46,50.1-79.48,71.89-162,23.94-90.66,50.58-247.39,11.46-455.08l-164.82,4.84a641,641,0,0,0-72.64-112.47c-49.6-61.47-100-124-181.43-138.47-16.74-3-55.37-7.61-99.06,7.28-61.46,21-94.58,67.5-113.28,94.57C711.68,595.51,753.51,758.33,759.1,778.8c18.1,66.32,54.27,123.67,60.86,134a515.13,515.13,0,0,0,41.8,56.43,591.84,591.84,0,0,0-7.35,197.3c19.83,149.8,92.86,253.68,131.47,301.25a303.69,303.69,0,0,1,58.07-85.65C1144.3,1278.85,1263.94,1311.44,1351.7,1223.45Z"/><path class="cls-6" d="M1264.55,616.52c-71-193.61-238-289.55-352.72-254.61C770.32,405,748.78,634.64,747.35,652.13c-13.92,170.7,84.15,293.3,108.73,322.36-6.73,43.33-46.16,324.66,135.07,499,120.64,116,272.88,121,500.12,128.39,226,7.37,371,12.1,486.35-91.64,180.6-162.39,134.45-452,128-489.15,33.83-34.71,138.88-151.32,143.78-323.92.91-32.22,3.24-239.34-109.95-289.47-96.25-42.63-260,35.3-359.32,217.11a1938.79,1938.79,0,0,0-515.57-8.24Z"/><path class="cls-7" d="M931,874.68c35.8,5.45,45.64-56.12,148.86-138.64,56.43-45.12,84.47-51.48,89.89-83,9.37-54.36-61.73-107.73-83.19-123.84-32.12-24.11-88.66-66.55-140.86-49.15-84,28-84.43,186.84-84.48,205.4C861,760.25,885,867.69,931,874.68Z"/><path class="cls-7" d="M2072.22,917.2c-32.48,2.79-38.81-45.59-129.51-135.39-61.31-60.7-89.7-69.56-92.09-103.36-3.92-55.24,66.94-101,92.18-117.31,32.46-21,92.86-60,144.12-38.53,81.55,34.11,70.32,192.07,69,211.11C2150.64,807.47,2119.34,913.15,2072.22,917.2Z"/><path class="cls-8" d="M1815.55,752.35a727.37,727.37,0,0,1-606.84-34c7-10.92,54.88-88.21,24-171.61-11.84-32-31.22-53.92-45.42-67.09a268.53,268.53,0,0,1,29.11-70.31c33.93-57.18,80.26-85.95,103.18-99.81,109.55-66.27,232.51-47.38,254.7-43.59C1768.16,299,1862.63,474.87,1874.6,498c-16,9.92-52.31,35.6-72.71,83.45C1766.36,664.8,1810,742.82,1815.55,752.35Z"/><path class="cls-9" d="M1567.29,380.13l-22.36,39.08-29.7-46.72q-6.06-84.76-12.1-169.55c.29-22,18.81-39.6,40.26-38.91,21.94.71,39.49,20.26,37.6,42.71Q1574.14,293.44,1567.29,380.13Z"/><path class="cls-9" d="M1396.06,371.9c0,22.24.12,41.32.28,56.15-12.39-19.9-21.95-36.68-28.5-48.53-9.22-16.69-32.94-60.69-43.6-113.06-2.28-11.23-5.36-29.67,6.66-43.93,2-2.36,8.29-9.85,16.8-10.51,15.52-1.2,27.65,21.13,32.63,30.55C1397.5,275.05,1396.11,304.15,1396.06,371.9Z"/><path class="cls-9" d="M1711.77,398.6c-12.37,18.48-22.86,34.43-31,46.84.75-23.42,2.12-42.68,3.26-56.18,1.6-19,6.32-68.76,26.54-118.23,4.34-10.61,12-27.65,29.93-32.83,3-.86,12.37-3.58,19.82.6,13.56,7.62,11.25,32.92,10.16,43.51C1766.76,318.87,1749.44,342.29,1711.77,398.6Z"/><path class="cls-9" d="M1228.86,677.8a745,745,0,0,0,272.23,73.28,745.34,745.34,0,0,0,297-39.05"/><path class="cls-4" d="M1629.51,696.2c-16.85,9.14-60.84,30-118.72,24.09a204.65,204.65,0,0,1-90-31.86l8.49-227.73L1638,468.48Z"/><path d="M1548.54,554.57c-.91-11.09-4.71-17.43-15.51-18.78-16.33-2-23.08,13.18-27.08,43,8.07-9.45,22.2-14.32,37.78-12.36,31.4,3.93,51.27,26.57,46.45,65-4.66,37.17-31.57,58.54-71.51,53.54-55.76-7-64.35-48.37-57.68-101.62,8.15-65.06,31.8-93,79.78-86.95,41.44,5.19,55,35.21,53.48,63.85ZM1504.37,620c-1.67,13.31,5,21.29,17.8,22.89,11.8,1.48,20.19-4.36,21.82-17.42,1.54-12.31-4.79-20.75-17.1-22.3C1515.59,601.72,1506,607.15,1504.37,620Z"/><path class="cls-4" d="M1381,1379.06c-80.81,47.83-165.12,41.83-207.6,38.24a435,435,0,0,1-103.8-21.86c-5.05-2.55-33.65-17.41-32.27-34.74,1.33-16.68,29.71-26.26,43.2-30.81,78.19-26.39,272.15-1.57,352,9.91A280.75,280.75,0,0,1,1381,1379.06Z"/><path class="cls-4" d="M1901.53,1415.82a436.59,436.59,0,0,1-382.42-43.7l38.25-21.85,366,16.38Z"/><path class="cls-10" d="M1733.43,1079.07c54.17-40.63,116.69-50.23,157.21-23.82,8.8,5.75,21.13,16.16,31.23,35.28"/><ellipse cx="1178.98" cy="1037.58" rx="57.88" ry="59.9" transform="translate(71.76 2151.42) rotate(-86.52)"/><circle class="cls-11" cx="1272.05" cy="1256.84" r="22.21"/><circle class="cls-11" cx="1188.15" cy="1310.15" r="19.43"/><circle class="cls-11" cx="1138.37" cy="1259.84" r="22.21"/><circle class="cls-11" cx="1693.93" cy="1271.36" r="22.21"/><ellipse class="cls-11" cx="1743.21" cy="1329.99" rx="16.66" ry="19.43" transform="translate(309.89 2989.27) rotate(-86.52)"/><ellipse class="cls-11" cx="1785.38" cy="1276.92" rx="16.66" ry="19.43" transform="translate(402.46 2981.52) rotate(-86.52)"/><path class="cls-12" d="M1347.32,1116.79a333.21,333.21,0,0,1,266,16.17"/><path d="M1350.5,1155.92c13.28-29.69,81.23-24,129.16-20,43.92,3.69,125,10.49,131,41.34,5.4,28.07-54.5,60.49-59.47,63.13a156.8,156.8,0,0,1-78.94,17.46c-15.15-.62-70.23-2.87-102.94-45.2C1362.71,1204.16,1341.31,1176.47,1350.5,1155.92Z"/><path class="cls-13" d="M1466.36,1263.09c-5.36,24.26-19.67,71.29-61.17,105.84-38.07,31.69-78.89,36.14-142.57,43.09-76.4,8.33-123.62,13.48-177.35-10.78-71.89-32.46-107-95.7-120.4-124.14"/><path class="cls-13" d="M1478.12,1252.68c-1.95,16.74-3.78,53.55,16.78,90,20.31,36,51.37,52,79.43,66,38.79,19.34,77.13,23.43,153.83,31.6,67.42,7.19,95.66,4.37,122.6-3.67,19.23-5.73,39.73-12.11,57.44-29.88,38.69-38.82,30.61-98.42,28.91-109.5"/><path class="cls-14" d="M1449.47,1596.65a169.31,169.31,0,0,1,10.55,68.18c-1.26,23.66-5.81,54.77-12.4,55-3.27.1-9.12-7.35-17.48-58"/><path class="cls-15" d="M1364.83,1718.44l176.28,1.41c2-4.14,8.83-17,24.05-24.06,17.51-8.11,33.72-2.81,40.24-.59,4.71,1.6,30.37,10.91,32,28,.13,1.29.71,8.82-3.37,11.4-6.39,4-15.58-9.46-28.35-7.22-8.32,1.46-14.87,9-17.36,16.33-.78,2.26-3.21,10.51,1,18.19a21.75,21.75,0,0,0,8.72,8.35c12.46,7.08,24.67.74,29.5,8a5,5,0,0,1,1.15,3.07c-.36,9.78-40.19,25.19-66.22,10-10.49-6.12-16-15.6-18.64-21.26h-177.8a54.66,54.66,0,0,1-13.6,16.35c-2.87,2.31-20.75,16.22-42.06,11.45-23.58-5.26-39.89-30.82-35.53-38.28,1.47-2.51,5.26-3,8.88-3.4,11-1.32,14.84,5.42,23.82,4.65,7.38-.63,13.88-6,17.19-11.78,3.94-6.92,4.6-16.69.25-23.4-9.35-14.45-37.49-7.9-38.73-14.58-.85-4.57,11.86-10.37,16.91-12.67,9.52-4.35,24.22-11.06,39.48-5a38.27,38.27,0,0,1,15.47,11.49A36.7,36.7,0,0,1,1364.83,1718.44Z"/><path class="cls-4" d="M1411.52,1759.92l-14.45-.1.21-31,14,.1c6.32,0,10,3.21,10,8.11a7,7,0,0,1-5.3,7,7.5,7.5,0,0,1,5.91,7.5C1421.83,1756.68,1418.06,1760,1411.52,1759.92Zm-1.77-25-5,0,0,6.49,5,0c2.47,0,3.85-1.08,3.87-3.2S1412.22,1735,1409.75,1734.94Zm.44,12-5.48,0,0,6.85,5.56,0c2.52,0,4-1.13,4-3.33S1412.71,1747,1410.19,1747Z"/><path class="cls-4" d="M1424,1729l8.57.06,5.92,13,6-12.95,8.49.06-10.88,20.69-.08,10.26-7.55-.06.07-10.25Z"/><path class="cls-4" d="M1454.36,1729.2l24,.17,0,6.05-8.21-.06-.18,25-7.55,0,.17-25-8.22-.06Z"/><path class="cls-4" d="M1501.11,1735.58l-11.44-.08-.05,6.28,10.12.07,0,5.83-10.12-.07,0,6.8,11.44.08,0,6.06-19-.14.21-31,19,.14Z"/><path class="cls-16" d="M1537.1,1972a659,659,0,0,1-97.14,1.4c-14.47-.86-28.35-2.17-41.58-3.81"/></g></svg>