<svg id="Layer_1" data-name="Layer 1" xmlns="http://www.w3.org/2000/svg" viewBox="0 0 418.02 256.51"><defs><style>.cls-1{fill:#fff;}.cls-2{fill:#ffe401;}.cls-3,.cls-4{fill:#e2c30e;}.cls-4{stroke:#e2c30e;stroke-miterlimit:10;stroke-width:3px;}.cls-5{fill:#494949;}</style></defs><path class="cls-1" d="M49.52,22.8a1.5,1.5,0,0,0,0-3,1.5,1.5,0,0,0,0,3Z"/><path class="cls-2" d="M127.6,17.62c-12.71-6.73-26.28-12.21-40.55-14s-29.34.32-41.58,7.86C25.46,23.79,16.27,48,12.1,71.16c-4.88,27-4.78,54.62-4.59,82.05.06,8.74.13,17.52,1.49,26.16a89.17,89.17,0,0,0,12.19,33C30.94,228.16,46.12,241,64,246s38.35,1.64,52.5-10.38"/><path class="cls-2" d="M129.11,15C115.93,8.06,101.93,2.47,87.05.6,73.3-1.12,58.8.76,46.51,7.4c-22.26,12-32.44,37.53-37,61.13a303.08,303.08,0,0,0-4.75,46.66c-.54,15.72-.56,31.53-.15,47.26a121.15,121.15,0,0,0,2.44,22.94,92.45,92.45,0,0,0,7.26,20.73,85.44,85.44,0,0,0,24.3,30.16,69.94,69.94,0,0,0,34.93,14.56,61.15,61.15,0,0,0,37.16-7.52,55.23,55.23,0,0,0,7.89-5.6,3,3,0,0,0,0-4.24,3.06,3.06,0,0,0-4.24,0c-9.06,7.63-20.93,11.48-32.62,11.73A61,61,0,0,1,48,235.54C26,221.7,13,196.73,11.06,171.18c-.57-7.44-.53-14.9-.58-22.35,0-7.64-.06-15.28,0-22.92a361,361,0,0,1,3.06-45.3c3.27-22.88,9.82-48.1,28.57-63.19C51.89,9.59,64.64,6.07,77.1,6c13.73-.08,27.2,3.92,39.61,9.57,3.17,1.45,6.29,3,9.38,4.64a3.07,3.07,0,0,0,4.1-1.08,3,3,0,0,0-1.08-4.1Z"/><path class="cls-2" d="M291.71,17.62c12.71-6.73,26.29-12.21,40.56-14s29.34.32,41.58,7.86c20,12.33,29.2,36.58,33.37,59.7,4.87,27,4.77,54.62,4.58,82.05-.06,8.74-.13,17.52-1.48,26.16a89.34,89.34,0,0,1-12.19,33c-9.76,15.8-24.94,28.59-42.81,33.62s-38.35,1.64-52.5-10.38"/><path class="cls-2" d="M293.23,20.21C316.45,8,345.91-.82,370.51,13c20.49,11.49,29.38,35.5,33.54,57.51a291.41,291.41,0,0,1,4.46,44.21c.53,15.25.5,30.55.21,45.8a121.87,121.87,0,0,1-2,22,85.76,85.76,0,0,1-6.16,19A81.72,81.72,0,0,1,378,230.84c-9,7.29-20.14,12.51-31.62,13.93A55.69,55.69,0,0,1,312,238.33a47,47,0,0,1-7-4.85,3.07,3.07,0,0,0-4.24,0,3,3,0,0,0,0,4.24,58.89,58.89,0,0,0,35.68,13.45,66.44,66.44,0,0,0,36.67-9.64c23.88-14.3,38.34-40.62,41-67.94.76-7.74.73-15.53.78-23.3.05-8,.08-15.93,0-23.89A371.73,371.73,0,0,0,411.51,79c-3.44-24.05-10.79-50.76-30.83-66.4C369.76,4.09,356.19.12,342.42,0,327.67-.13,313.33,4.17,300,10.2c-3.32,1.5-6.58,3.13-9.8,4.83a3,3,0,1,0,3,5.18Z"/><path class="cls-2" d="M291.71,17.62c-40.55-9.54-83-14.15-124.49-10C153.56,9,139.66,11.18,127.6,17.73L116.5,235.6a128.52,128.52,0,0,0,44.29,11.63c47.35,4.14,95.71-2.09,142-11.63"/><path class="cls-2" d="M292.51,14.72A428.06,428.06,0,0,0,214.73,3.47a330.84,330.84,0,0,0-38.95.41C163.51,4.75,151,6,139.19,9.67A80.33,80.33,0,0,0,130.44,13c-2.19,1-5.61,2-5.84,4.74,0,.26,0,.52,0,.78l-.26,5.06-1.1,21.67-1.68,32.93-2,39.13-2.06,40.3L115.62,194l-1.4,27.47-.69,13.5,0,.6a2.94,2.94,0,0,0,1.48,2.59,128.45,128.45,0,0,0,33.9,10.54c12.33,2,24.94,2.6,37.43,2.77,25.28.34,50.54-1.89,75.53-5.56,14-2.06,27.92-4.6,41.78-7.45a3,3,0,0,0,2.09-3.69,3.07,3.07,0,0,0-3.69-2.1,637,637,0,0,1-73.21,11.15c-12.36,1.07-24.78,1.68-37.19,1.68a287.53,287.53,0,0,1-36.76-1.94A122.66,122.66,0,0,1,118,233l1.49,2.59.3-5.84.8-15.82,1.2-23.48,1.45-28.54,1.6-31.39,1.62-31.67L128,69.44l1.26-24.88.92-18c.14-2.83.39-5.67.43-8.5,0-.12,0-.25,0-.37l-1.49,2.59c8.9-4.78,18.83-7.14,28.76-8.6a270.13,270.13,0,0,1,31.5-2.51,366.87,366.87,0,0,1,65.13,4.23c12.23,1.85,24.38,4.24,36.42,7.07a3.06,3.06,0,0,0,3.69-2.1,3,3,0,0,0-2.1-3.69Z"/><path class="cls-3" d="M407.62,143.87c-5.18-4.81-12.84-5.69-19.93-5.86a159.23,159.23,0,0,0-64.22,11.89L301.33,238l-185.36.9L321.47,150c-51.44-34.57-120.48-41.7-178-18.4-14.87,6-29.51,14.07-45.56,14.66-11.28.42-22.32-2.9-33.19-5.91s-22.16-5.79-33.34-4.25S9,144.49,5.69,155.19c-1.73,5.52-1.26,11.46-.55,17.2,2.32,19,7.69,38.87,22,51.69a4.41,4.41,0,0,0-.4-1.86c20.52,24.08,58.29,32,86.76,17.8l2.32-1a326.41,326.41,0,0,0,185.5-.83l-.49,2c16.3,5.73,34.06,8,51,4.71s33-12.41,43.11-26.36c9-12.5,12.78-27.88,16.36-42.84C413.9,164.75,415.87,151.53,407.62,143.87Z"/><path class="cls-3" d="M410.8,140.69c-8.14-7.28-19.59-7.4-29.92-7.2a165.72,165.72,0,0,0-34.15,4.27A158.44,158.44,0,0,0,330,142.61q-3.93,1.37-7.77,2.95a4.94,4.94,0,0,0-3.17,3.26c-.59,1.88-1,3.86-1.45,5.77l-15.78,62.82L297,236.84l4.34-3.3-18.5.09-44.23.21-53.47.26-46.39.23-15.18.07c-2.4,0-4.88-.16-7.28,0H116l2.27,8.38,20.56-8.9,49-21.2L247.19,187l51.33-22.21,16.86-7.29c2.65-1.15,5.43-2.16,8-3.47l.35-.15c3.34-1.44,2.5-6.1,0-7.77a193.33,193.33,0,0,0-73.61-29.36,201.67,201.67,0,0,0-79.64,1.69c-13.5,3.06-26.26,7.88-38.93,13.38-13.35,5.8-26.85,11.16-41.69,9.66-15.51-1.57-30-8.33-45.51-10-13.24-1.39-28,1.67-37.09,12.1A29.76,29.76,0,0,0,0,163c-.16,7.08,1.11,14.37,2.45,21.31,2.48,12.91,7,25.66,15.11,36.11a54.54,54.54,0,0,0,6.36,6.88c2.68,2.44,8,.94,7.68-3.18a10.6,10.6,0,0,0-.56-3.06l-7.52,4.38C41.72,246.55,72,255.63,99,249.8c6.7-1.44,12.76-4.19,19-6.9l-3.47.45A332.38,332.38,0,0,0,261.65,252a322.54,322.54,0,0,0,40.84-9.51L297,237l-.5,1.95a4.62,4.62,0,0,0,3.15,5.54c25.17,8.77,53.94,9.29,77.54-4.29a68.4,68.4,0,0,0,25.77-25.9c6.38-11.51,9.61-24.4,12.64-37.1,2.86-12,5.16-27-4.76-36.5-4.18-4-10.55,2.34-6.36,6.36,3.22,3.09,4.42,7.16,4.59,11.49A55.33,55.33,0,0,1,407.29,173c-2.62,11.5-5.39,23.34-10.69,33.95-9.92,19.84-30,32.12-51.82,34.41-14.53,1.53-29-.8-42.78-5.59l3.14,5.53.49-2c.82-3.24-2.17-6.56-5.53-5.54a323.51,323.51,0,0,1-121.82,12.45q-15.27-1.35-30.35-4.18c-10.22-1.93-20.15-4.71-30.23-7.23-2.21-.55-3.74.05-5.69.9-1.32.57-2.6,1.24-3.93,1.8A64,64,0,0,1,97.2,241a70.26,70.26,0,0,1-22.72,1.13A69.13,69.13,0,0,1,29.89,219c-2.87-3.34-9.08.2-7.52,4.37.09.22.17.45.24.67l7.69-3.18c-9-8.21-14.23-19.28-17.32-30.92a128.34,128.34,0,0,1-3.34-17.59c-.8-6.47-1.45-13.55,1.89-19.38,5.89-10.25,18.73-13.37,29.77-12.73,15.07.87,29.12,7.41,44,9.63a66,66,0,0,0,22.69-.34A105.1,105.1,0,0,0,128,143.06c12.33-5.13,24.35-10.53,37.28-14A190.34,190.34,0,0,1,240,124.24a187.21,187.21,0,0,1,71.22,24.62q4,2.41,8,5v-7.77L298.63,155l-49,21.2-59.4,25.7-51.32,22.21-16.86,7.29c-2.65,1.15-5.44,2.14-8,3.47a3.88,3.88,0,0,1-.36.15c-4.26,1.84-1.88,8.41,2.28,8.39l18.5-.09,44.22-.22,53.47-.26,46.4-.22c7.46,0,15,.23,22.45-.11h.32a4.58,4.58,0,0,0,4.34-3.31l7.47-29.74L325.06,162l2.75-10.94-3.15,3.14a156.42,156.42,0,0,1,42.26-10.86,154.34,154.34,0,0,1,21.71-.85c5.42.19,11.59.75,15.81,4.52S415.13,144.56,410.8,140.69Z"/><polygon class="cls-4" points="112.22 233.57 321.03 149.9 299.03 238.18 112.22 233.57"/><path class="cls-5" d="M122.05,11.84a23.68,23.68,0,0,1,6.2-.93,24.08,24.08,0,0,1,6.95.93A401.06,401.06,0,0,0,124,246.25a28.92,28.92,0,0,1-5.67.67,28.38,28.38,0,0,1-6.68-.67A414.8,414.8,0,0,1,122.05,11.84Z"/><path class="cls-5" d="M298.14,12.31a23.68,23.68,0,0,0-6.2-.93,23.4,23.4,0,0,0-6.95.93A399,399,0,0,1,308.1,128.47a399.85,399.85,0,0,1-12,117.78,28.92,28.92,0,0,0,5.67.67,28.38,28.38,0,0,0,6.68-.67,413.75,413.75,0,0,0,11.95-112.11A413,413,0,0,0,298.14,12.31Z"/></svg>
