<svg id="Layer_1" data-name="Layer 1" xmlns="http://www.w3.org/2000/svg" width="50" height="50" viewBox="0 0 50 50"><defs><style>.cls-1,.cls-3,.cls-4,.cls-5,.cls-6{fill:none;stroke:#ffe400;}.cls-1,.cls-3{stroke-linejoin:round;}.cls-1,.cls-5,.cls-6{stroke-width:1.5px;}.cls-2{fill:#ffe400;}.cls-3,.cls-6{stroke-linecap:round;}.cls-4,.cls-5,.cls-6{stroke-miterlimit:10;}.cls-4{stroke-width:0.25px;}</style></defs><path class="cls-1" d="M36.7,34.76a12.66,12.66,0,0,1,1.84,2.29,12.94,12.94,0,0,1,1.52,3.52"/><path class="cls-1" d="M19.53,16c-1.74-4.23-5.52-6.22-8-5.35-3.1,1.07-3.39,6.18-3.41,6.57a10.07,10.07,0,0,0,2.68,7.05c-.12,1-.76,7.24,3.4,10.95,2.77,2.47,6.15,2.46,11.2,2.43s8.23,0,10.7-2.43c3.87-3.75,2.61-10.13,2.43-10.95A10.91,10.91,0,0,0,41.42,17c0-.71-.12-5.3-2.67-6.32-2.17-.87-5.74,1-7.79,5.11A42.9,42.9,0,0,0,19.53,16Z"/><path class="cls-2" d="M12.34,22c.8.09,1-1.28,3.19-3.2,1.21-1,1.83-1.21,1.92-1.91.17-1.21-1.45-2.34-1.94-2.68-.73-.5-2-1.4-3.17-1-1.83.69-1.71,4.21-1.7,4.62C10.7,19.53,11.32,21.89,12.34,22Z"/><path class="cls-2" d="M37.68,22c-.72.09-.9-1-3-2.9-1.4-1.29-2-1.46-2.12-2.21-.13-1.22,1.4-2.29,2-2.68s2-1.4,3.16-1c1.84.69,1.72,4.2,1.7,4.62C39.32,19.51,38.72,21.88,37.68,22Z"/><path class="cls-2" d="M22.2,28.18c.25-.67,1.75-.64,2.8-.61s2.75.06,2.92.73-1.11,1.4-1.22,1.46a3.39,3.39,0,0,1-1.7.49,3,3,0,0,1-2.31-.86C22.53,29.21,22,28.64,22.2,28.18Z"/><path class="cls-3" d="M24.88,30.37a4.23,4.23,0,0,1-1.2,2.39,5.22,5.22,0,0,1-3.06,1.13c-1.66.29-2.68.46-3.89,0a5.52,5.52,0,0,1-2.8-2.55"/><path class="cls-3" d="M25.12,30.12a3.27,3.27,0,0,0,.49,1.95,3.64,3.64,0,0,0,1.82,1.34,9.42,9.42,0,0,0,3.41.48,6.32,6.32,0,0,0,2.67-.24,2.7,2.7,0,0,0,1.22-.73,2.89,2.89,0,0,0,.49-2.43"/><path class="cls-4" d="M25.54,37.7a4,4,0,0,1,.25,1.57c0,.53-.14,1.25-.29,1.26s-.23-.27-.43-1.53"/><path class="cls-2" d="M23.6,40.5l4,0A1.13,1.13,0,0,1,28.2,40a1.2,1.2,0,0,1,.92,0c.11,0,.7.25.74.64,0,0,0,.21-.08.27s-.36-.22-.65-.17a.57.57,0,0,0-.4.37.53.53,0,0,0,0,.42.41.41,0,0,0,.2.19c.28.17.56,0,.67.19a.09.09,0,0,1,0,.07c0,.22-.92.58-1.52.23a1.13,1.13,0,0,1-.43-.49H23.63a1.43,1.43,0,0,1-.31.38,1.24,1.24,0,0,1-1,.26c-.54-.12-.92-.71-.82-.88s.13-.07.21-.08c.25,0,.34.13.55.11a.58.58,0,0,0,.39-.27.55.55,0,0,0,0-.54c-.22-.33-.86-.18-.89-.33s.27-.24.38-.29a1.14,1.14,0,0,1,.91-.12,1,1,0,0,1,.36.27A.81.81,0,0,1,23.6,40.5Z"/><circle class="cls-5" cx="25" cy="25" r="21.92"/><path class="cls-3" d="M12.55,35.53A14.46,14.46,0,0,0,17,37.94c.63.21,2.21.71,8.11.68,6.15,0,7.79-.59,8.51-.86a14.81,14.81,0,0,0,4.06-2.34"/><path class="cls-6" d="M30.56,7a4.25,4.25,0,0,1,2.29,1"/><path class="cls-6" d="M16.36,8.39A15.68,15.68,0,0,1,28,6.38"/><path class="cls-1" d="M10.18,40.6a13,13,0,0,1,1.53-3.52,12.21,12.21,0,0,1,1.83-2.28"/></svg>