<svg width="331" height="84" viewBox="0 0 331 84" fill="none" xmlns="http://www.w3.org/2000/svg">
<rect width="331" height="84" rx="42" fill="#EC9EBD"/>
<path d="M85.672 33.272L79.36 50H76.84L70.528 33.272H72.856L78.112 47.696L83.368 33.272H85.672ZM89.1948 34.712C88.7788 34.712 88.4268 34.568 88.1388 34.28C87.8508 33.992 87.7068 33.64 87.7068 33.224C87.7068 32.808 87.8508 32.456 88.1388 32.168C88.4268 31.88 88.7788 31.736 89.1948 31.736C89.5948 31.736 89.9308 31.88 90.2028 32.168C90.4908 32.456 90.6348 32.808 90.6348 33.224C90.6348 33.64 90.4908 33.992 90.2028 34.28C89.9308 34.568 89.5948 34.712 89.1948 34.712ZM90.2508 36.848V50H88.0668V36.848H90.2508ZM98.629 50.216C97.621 50.216 96.717 50.048 95.917 49.712C95.117 49.36 94.485 48.88 94.021 48.272C93.557 47.648 93.301 46.936 93.253 46.136H95.509C95.573 46.792 95.877 47.328 96.421 47.744C96.981 48.16 97.709 48.368 98.605 48.368C99.437 48.368 100.093 48.184 100.573 47.816C101.053 47.448 101.293 46.984 101.293 46.424C101.293 45.848 101.037 45.424 100.525 45.152C100.013 44.864 99.221 44.584 98.149 44.312C97.173 44.056 96.373 43.8 95.749 43.544C95.141 43.272 94.613 42.88 94.165 42.368C93.733 41.84 93.517 41.152 93.517 40.304C93.517 39.632 93.717 39.016 94.117 38.456C94.517 37.896 95.085 37.456 95.821 37.136C96.557 36.8 97.397 36.632 98.341 36.632C99.797 36.632 100.973 37 101.869 37.736C102.765 38.472 103.245 39.48 103.309 40.76H101.125C101.077 40.072 100.797 39.52 100.285 39.104C99.789 38.688 99.117 38.48 98.269 38.48C97.485 38.48 96.861 38.648 96.397 38.984C95.933 39.32 95.701 39.76 95.701 40.304C95.701 40.736 95.837 41.096 96.109 41.384C96.397 41.656 96.749 41.88 97.165 42.056C97.597 42.216 98.189 42.4 98.941 42.608C99.885 42.864 100.653 43.12 101.245 43.376C101.837 43.616 102.341 43.984 102.757 44.48C103.189 44.976 103.413 45.624 103.429 46.424C103.429 47.144 103.229 47.792 102.829 48.368C102.429 48.944 101.861 49.4 101.125 49.736C100.405 50.056 99.573 50.216 98.629 50.216ZM107.64 34.712C107.224 34.712 106.872 34.568 106.584 34.28C106.296 33.992 106.152 33.64 106.152 33.224C106.152 32.808 106.296 32.456 106.584 32.168C106.872 31.88 107.224 31.736 107.64 31.736C108.04 31.736 108.376 31.88 108.648 32.168C108.936 32.456 109.08 32.808 109.08 33.224C109.08 33.64 108.936 33.992 108.648 34.28C108.376 34.568 108.04 34.712 107.64 34.712ZM108.696 36.848V50H106.512V36.848H108.696ZM115.082 38.648V46.4C115.082 47.04 115.218 47.496 115.49 47.768C115.762 48.024 116.234 48.152 116.906 48.152H118.514V50H116.546C115.33 50 114.418 49.72 113.81 49.16C113.202 48.6 112.898 47.68 112.898 46.4V38.648H111.194V36.848H112.898V33.536H115.082V36.848H118.514V38.648H115.082ZM130.223 38.648V46.4C130.223 47.04 130.359 47.496 130.631 47.768C130.903 48.024 131.375 48.152 132.047 48.152H133.655V50H131.687C130.471 50 129.559 49.72 128.951 49.16C128.343 48.6 128.039 47.68 128.039 46.4V38.648H126.335V36.848H128.039V33.536H130.223V36.848H133.655V38.648H130.223ZM148.301 42.92C148.301 43.336 148.277 43.776 148.229 44.24H137.717C137.797 45.536 138.237 46.552 139.037 47.288C139.853 48.008 140.837 48.368 141.989 48.368C142.933 48.368 143.717 48.152 144.341 47.72C144.981 47.272 145.429 46.68 145.685 45.944H148.037C147.685 47.208 146.981 48.24 145.925 49.04C144.869 49.824 143.557 50.216 141.989 50.216C140.741 50.216 139.621 49.936 138.629 49.376C137.653 48.816 136.885 48.024 136.325 47C135.765 45.96 135.485 44.76 135.485 43.4C135.485 42.04 135.757 40.848 136.301 39.824C136.845 38.8 137.605 38.016 138.581 37.472C139.573 36.912 140.709 36.632 141.989 36.632C143.237 36.632 144.341 36.904 145.301 37.448C146.261 37.992 146.997 38.744 147.509 39.704C148.037 40.648 148.301 41.72 148.301 42.92ZM146.045 42.464C146.045 41.632 145.861 40.92 145.493 40.328C145.125 39.72 144.621 39.264 143.981 38.96C143.357 38.64 142.661 38.48 141.893 38.48C140.789 38.48 139.845 38.832 139.061 39.536C138.293 40.24 137.853 41.216 137.741 42.464H146.045ZM150.368 43.376C150.368 42.032 150.64 40.856 151.184 39.848C151.728 38.824 152.472 38.032 153.416 37.472C154.376 36.912 155.44 36.632 156.608 36.632C157.76 36.632 158.76 36.88 159.608 37.376C160.456 37.872 161.088 38.496 161.504 39.248V36.848H163.712V50H161.504V47.552C161.072 48.32 160.424 48.96 159.56 49.472C158.712 49.968 157.72 50.216 156.584 50.216C155.416 50.216 154.36 49.928 153.416 49.352C152.472 48.776 151.728 47.968 151.184 46.928C150.64 45.888 150.368 44.704 150.368 43.376ZM161.504 43.4C161.504 42.408 161.304 41.544 160.904 40.808C160.504 40.072 159.96 39.512 159.272 39.128C158.6 38.728 157.856 38.528 157.04 38.528C156.224 38.528 155.48 38.72 154.808 39.104C154.136 39.488 153.6 40.048 153.2 40.784C152.8 41.52 152.6 42.384 152.6 43.376C152.6 44.384 152.8 45.264 153.2 46.016C153.6 46.752 154.136 47.32 154.808 47.72C155.48 48.104 156.224 48.296 157.04 48.296C157.856 48.296 158.6 48.104 159.272 47.72C159.96 47.32 160.504 46.752 160.904 46.016C161.304 45.264 161.504 44.392 161.504 43.4ZM183.219 36.608C184.243 36.608 185.155 36.824 185.955 37.256C186.755 37.672 187.387 38.304 187.851 39.152C188.315 40 188.547 41.032 188.547 42.248V50H186.387V42.56C186.387 41.248 186.059 40.248 185.403 39.56C184.763 38.856 183.891 38.504 182.787 38.504C181.651 38.504 180.747 38.872 180.075 39.608C179.403 40.328 179.067 41.376 179.067 42.752V50H176.907V42.56C176.907 41.248 176.579 40.248 175.923 39.56C175.283 38.856 174.411 38.504 173.307 38.504C172.171 38.504 171.267 38.872 170.595 39.608C169.923 40.328 169.587 41.376 169.587 42.752V50H167.403V36.848H169.587V38.744C170.019 38.056 170.595 37.528 171.315 37.16C172.051 36.792 172.859 36.608 173.739 36.608C174.843 36.608 175.819 36.856 176.667 37.352C177.515 37.848 178.147 38.576 178.563 39.536C178.931 38.608 179.539 37.888 180.387 37.376C181.235 36.864 182.179 36.608 183.219 36.608ZM200.712 39.272C201.144 38.52 201.784 37.896 202.632 37.4C203.496 36.888 204.496 36.632 205.632 36.632C206.8 36.632 207.856 36.912 208.8 37.472C209.76 38.032 210.512 38.824 211.056 39.848C211.6 40.856 211.872 42.032 211.872 43.376C211.872 44.704 211.6 45.888 211.056 46.928C210.512 47.968 209.76 48.776 208.8 49.352C207.856 49.928 206.8 50.216 205.632 50.216C204.512 50.216 203.52 49.968 202.656 49.472C201.808 48.96 201.16 48.328 200.712 47.576V56.24H198.528V36.848H200.712V39.272ZM209.64 43.376C209.64 42.384 209.44 41.52 209.04 40.784C208.64 40.048 208.096 39.488 207.408 39.104C206.736 38.72 205.992 38.528 205.176 38.528C204.376 38.528 203.632 38.728 202.944 39.128C202.272 39.512 201.728 40.08 201.312 40.832C200.912 41.568 200.712 42.424 200.712 43.4C200.712 44.392 200.912 45.264 201.312 46.016C201.728 46.752 202.272 47.32 202.944 47.72C203.632 48.104 204.376 48.296 205.176 48.296C205.992 48.296 206.736 48.104 207.408 47.72C208.096 47.32 208.64 46.752 209.04 46.016C209.44 45.264 209.64 44.384 209.64 43.376ZM213.93 43.376C213.93 42.032 214.202 40.856 214.746 39.848C215.29 38.824 216.034 38.032 216.978 37.472C217.938 36.912 219.002 36.632 220.17 36.632C221.322 36.632 222.322 36.88 223.17 37.376C224.018 37.872 224.65 38.496 225.066 39.248V36.848H227.274V50H225.066V47.552C224.634 48.32 223.986 48.96 223.122 49.472C222.274 49.968 221.282 50.216 220.146 50.216C218.978 50.216 217.922 49.928 216.978 49.352C216.034 48.776 215.29 47.968 214.746 46.928C214.202 45.888 213.93 44.704 213.93 43.376ZM225.066 43.4C225.066 42.408 224.866 41.544 224.466 40.808C224.066 40.072 223.522 39.512 222.834 39.128C222.162 38.728 221.418 38.528 220.602 38.528C219.786 38.528 219.042 38.72 218.37 39.104C217.698 39.488 217.162 40.048 216.762 40.784C216.362 41.52 216.162 42.384 216.162 43.376C216.162 44.384 216.362 45.264 216.762 46.016C217.162 46.752 217.698 47.32 218.37 47.72C219.042 48.104 219.786 48.296 220.602 48.296C221.418 48.296 222.162 48.104 222.834 47.72C223.522 47.32 224.066 46.752 224.466 46.016C224.866 45.264 225.066 44.392 225.066 43.4ZM236.389 36.632C237.525 36.632 238.517 36.88 239.365 37.376C240.229 37.872 240.869 38.496 241.285 39.248V36.848H243.493V50.288C243.493 51.488 243.237 52.552 242.725 53.48C242.213 54.424 241.477 55.16 240.517 55.688C239.573 56.216 238.469 56.48 237.205 56.48C235.477 56.48 234.037 56.072 232.885 55.256C231.733 54.44 231.053 53.328 230.845 51.92H233.005C233.245 52.72 233.741 53.36 234.493 53.84C235.245 54.336 236.149 54.584 237.205 54.584C238.405 54.584 239.381 54.208 240.133 53.456C240.901 52.704 241.285 51.648 241.285 50.288V47.528C240.853 48.296 240.213 48.936 239.365 49.448C238.517 49.96 237.525 50.216 236.389 50.216C235.221 50.216 234.157 49.928 233.197 49.352C232.253 48.776 231.509 47.968 230.965 46.928C230.421 45.888 230.149 44.704 230.149 43.376C230.149 42.032 230.421 40.856 230.965 39.848C231.509 38.824 232.253 38.032 233.197 37.472C234.157 36.912 235.221 36.632 236.389 36.632ZM241.285 43.4C241.285 42.408 241.085 41.544 240.685 40.808C240.285 40.072 239.741 39.512 239.053 39.128C238.381 38.728 237.637 38.528 236.821 38.528C236.005 38.528 235.261 38.72 234.589 39.104C233.917 39.488 233.381 40.048 232.981 40.784C232.581 41.52 232.381 42.384 232.381 43.376C232.381 44.384 232.581 45.264 232.981 46.016C233.381 46.752 233.917 47.32 234.589 47.72C235.261 48.104 236.005 48.296 236.821 48.296C237.637 48.296 238.381 48.104 239.053 47.72C239.741 47.32 240.285 46.752 240.685 46.016C241.085 45.264 241.285 44.392 241.285 43.4ZM259.184 42.92C259.184 43.336 259.16 43.776 259.112 44.24H248.6C248.68 45.536 249.12 46.552 249.92 47.288C250.736 48.008 251.72 48.368 252.872 48.368C253.816 48.368 254.6 48.152 255.224 47.72C255.864 47.272 256.312 46.68 256.568 45.944H258.92C258.568 47.208 257.864 48.24 256.808 49.04C255.752 49.824 254.44 50.216 252.872 50.216C251.624 50.216 250.504 49.936 249.512 49.376C248.536 48.816 247.768 48.024 247.208 47C246.648 45.96 246.368 44.76 246.368 43.4C246.368 42.04 246.64 40.848 247.184 39.824C247.728 38.8 248.488 38.016 249.464 37.472C250.456 36.912 251.592 36.632 252.872 36.632C254.12 36.632 255.224 36.904 256.184 37.448C257.144 37.992 257.88 38.744 258.392 39.704C258.92 40.648 259.184 41.72 259.184 42.92ZM256.928 42.464C256.928 41.632 256.744 40.92 256.376 40.328C256.008 39.72 255.504 39.264 254.864 38.96C254.24 38.64 253.544 38.48 252.776 38.48C251.672 38.48 250.728 38.832 249.944 39.536C249.176 40.24 248.736 41.216 248.624 42.464H256.928Z" fill="black"/>
</svg>
