<?xml version="1.0" encoding="utf-8"?>
<!-- Generator: Adobe Illustrator 24.1.0, SVG Export Plug-In . SVG Version: 6.00 Build 0)  -->
<svg version="1.1" id="Layer_1" xmlns="http://www.w3.org/2000/svg" xmlns:xlink="http://www.w3.org/1999/xlink" x="0px" y="0px"
	 viewBox="0 0 1880 1292" style="enable-background:new 0 0 1880 1292;" xml:space="preserve">
<style type="text/css">
	.st0{fill:#203C9C;}
	.st1{fill:none;stroke:#23489B;stroke-miterlimit:10;}
	.st2{opacity:0.5;}
	.st3{opacity:0.5;fill:none;stroke:#FCFFFF;stroke-width:0.75;stroke-miterlimit:10;enable-background:new    ;}

		.st4{opacity:0.5;fill:none;stroke:#FCFFFF;stroke-width:0.75;stroke-miterlimit:10;stroke-dasharray:12.12;stroke-dashoffset:50;enable-background:new    ;}

		.st5{opacity:0.5;fill:none;stroke:#FCFFFF;stroke-width:0.75;stroke-miterlimit:10;stroke-dasharray:1353;stroke-dashoffset:1353;enable-background:new    ;}
		#dottedcircle, #dotted1, #dotted2, #dotted3, #dotted4, #dotted5, #dotted6 {
		                stroke-dasharray: 12.12;
		                stroke-dashoffset: 50;
		                animation: move 3s linear infinite;
		            }

		            #draw {
		                stroke-dasharray: 1353px;
		                stroke-dashoffset: 1353px;
		                animation: move 5s linear;
		                animation-fill-mode: forwards;
		            }

		            @keyframes move {
		                100% {
		                    stroke-dashoffset: 0;
		                }
		            }
</style>
<path class="st0" d="M1885.1-8.5H-11.1v1304.3h1896.2V-8.5z"/>
<g id="grid">
	<rect x="-11.1" y="-8.5" class="st1" width="1896.2" height="1304.3"/>
	<line class="st1" x1="-11.1" y1="1233.7" x2="1885.1" y2="1233.7"/>
	<line class="st1" x1="-11.1" y1="1171.6" x2="1885.1" y2="1171.6"/>
	<line class="st1" x1="-11.1" y1="1109.5" x2="1885.1" y2="1109.5"/>
	<line class="st1" x1="-11.1" y1="1047.4" x2="1885.1" y2="1047.4"/>
	<line class="st1" x1="-11.1" y1="985.3" x2="1885.1" y2="985.3"/>
	<line class="st1" x1="-11.1" y1="923.1" x2="1885.1" y2="923.1"/>
	<line class="st1" x1="-11.1" y1="861" x2="1885.1" y2="861"/>
	<line class="st1" x1="-11.1" y1="798.9" x2="1885.1" y2="798.9"/>
	<line class="st1" x1="-11.1" y1="736.8" x2="1885.1" y2="736.8"/>
	<line class="st1" x1="-11.1" y1="674.7" x2="1885.1" y2="674.7"/>
	<line class="st1" x1="-11.1" y1="612.6" x2="1885.1" y2="612.6"/>
	<line class="st1" x1="-11.1" y1="550.5" x2="1885.1" y2="550.5"/>
	<line class="st1" x1="-11.1" y1="488.4" x2="1885.1" y2="488.4"/>
	<line class="st1" x1="-11.1" y1="426.3" x2="1885.1" y2="426.3"/>
	<line class="st1" x1="-11.1" y1="364.2" x2="1885.1" y2="364.2"/>
	<line class="st1" x1="-11.1" y1="302" x2="1885.1" y2="302"/>
	<line class="st1" x1="-11.1" y1="239.9" x2="1885.1" y2="239.9"/>
	<line class="st1" x1="-11.1" y1="177.8" x2="1885.1" y2="177.8"/>
	<line class="st1" x1="-11.1" y1="115.7" x2="1885.1" y2="115.7"/>
	<line class="st1" x1="-11.1" y1="53.6" x2="1885.1" y2="53.6"/>
	<line class="st1" x1="1794.8" y1="-8.5" x2="1794.8" y2="1295.8"/>
	<line class="st1" x1="1704.5" y1="-8.5" x2="1704.5" y2="1295.8"/>
	<line class="st1" x1="1614.2" y1="-8.5" x2="1614.2" y2="1295.8"/>
	<line class="st1" x1="1523.9" y1="-8.5" x2="1523.9" y2="1295.8"/>
	<line class="st1" x1="1433.6" y1="-8.5" x2="1433.6" y2="1295.8"/>
	<line class="st1" x1="1343.3" y1="-8.5" x2="1343.3" y2="1295.8"/>
	<line class="st1" x1="1253" y1="-8.5" x2="1253" y2="1295.8"/>
	<line class="st1" x1="1162.7" y1="-8.5" x2="1162.7" y2="1295.8"/>
	<line class="st1" x1="1072.4" y1="-8.5" x2="1072.4" y2="1295.8"/>
	<line class="st1" x1="982.1" y1="-8.5" x2="982.1" y2="1295.8"/>
	<line class="st1" x1="891.9" y1="-8.5" x2="891.9" y2="1295.8"/>
	<line class="st1" x1="801.6" y1="-8.5" x2="801.6" y2="1295.8"/>
	<line class="st1" x1="711.3" y1="-8.5" x2="711.3" y2="1295.8"/>
	<line class="st1" x1="621" y1="-8.5" x2="621" y2="1295.8"/>
	<line class="st1" x1="530.7" y1="-8.5" x2="530.7" y2="1295.8"/>
	<line class="st1" x1="440.4" y1="-8.5" x2="440.4" y2="1295.8"/>
	<line class="st1" x1="350.1" y1="-8.5" x2="350.1" y2="1295.8"/>
	<line class="st1" x1="259.8" y1="-8.5" x2="259.8" y2="1295.8"/>
	<line class="st1" x1="169.5" y1="-8.5" x2="169.5" y2="1295.8"/>
	<line class="st1" x1="79.2" y1="-8.5" x2="79.2" y2="1295.8"/>
</g>
<g class="st2">
	<path class="st3" d="M2043,1275.2l-6.4-5.1"/>
	<path class="st3" d="M2024.5,1260.3L1812.3,1090"/>
	<path class="st3" d="M1806.2,1085.2l-6.4-5.1l6-5.4"/>
	<path class="st3" d="M1817.3,1064.4l200-179.4"/>
	<path class="st3" d="M2023,879.9l6-5.4"/>
</g>
<g id="circles" class="st2">
	<path class="st3" d="M1346,204.9c106,0,191.8-72.9,191.8-162.8s-85.9-162.8-191.8-162.8c-106,0-191.8,72.9-191.8,162.8
		S1240.1,204.9,1346,204.9z"/>
	<path class="st3" d="M271.9,280.9c86.8-73.7,86.8-193.1,0-266.7c-86.8-73.7-227.6-73.7-314.4,0s-86.8,193.1,0,266.7
		C44.3,354.6,185.1,354.6,271.9,280.9z"/>
	<path class="st3" d="M114.7,393.8C275,393.8,405,283.6,405,147.6S275-98.7,114.7-98.7S-175.6,11.6-175.6,147.6
		S-45.6,393.8,114.7,393.8z"/>
</g>
<g id="dotted" class="st2">
	<path id="dotted1" class="st4" d="M2031.2,1326.6l-335-268.9L2011,775.3"/>
	<path id="dottedcircle" class="st4" d="M114.7,364c140.9,0,255.1-96.9,255.1-216.4S255.6-68.9,114.7-68.9S-140.4,28-140.4,147.6
		S-26.2,364,114.7,364z"/>
	<path id="dotted2" class="st4" d="M1161.9,207.1v70l82.5-35L1161.9,207.1z"/>
	<path id="dotted3" class="st4" d="M80.8,658.5v70l82.5-35L80.8,658.5z"/>
	<path id="dotted4" class="st4" d="M1759.3,1198.6v70l82.5-35L1759.3,1198.6z"/>
	<path id="dotted5" class="st4" d="M1456.7,1386.8l-361.1-306.4l-261.6,222"/>
	<path id="dotted6" class="st4" d="M1219.2-8.3L1677.5,183l163.3-281.7"/>
</g>
<g class="st2">
	<path class="st5" d="M1869.6,432.7"/>
	<path class="st5" d="M619.3,432.5"/>
</g>
<g class="st2">
	<path class="st5" d="M-544.3,1028.3"/>
</g>
<g class="st2">
	<path class="st5" d="M1575.9,376v113.5"/>
	<path class="st5" d="M1564.7,375.8h22.6"/>
	<path class="st5" d="M1564.7,489.2h22.6"/>
</g>
<g class="st2">
	<path class="st5" d="M57.8,636.9v113.6"/>
	<path class="st5" d="M46.5,636.7h22.6"/>
	<path class="st5" d="M46.5,750.1h22.6"/>
</g>
<g class="st2">
	<path class="st5" d="M1499,993.7v246.2"/>
	<path class="st5" d="M1487.7,993.3h22.6"/>
	<path class="st5" d="M1487.7,1239.2h22.6"/>
</g>
<g id="draw" class="st2">
	<path class="st3" d="M-240,796.2V611h724.1V407.2"/>
	<line class="st3" x1="801.6" y1="426.3" x2="1973.3" y2="426.3"/>
	<line class="st3" x1="801.6" y1="393.4" x2="801.6" y2="460.5"/>
	<line class="st3" x1="-821.8" y1="986.3" x2="349.9" y2="986.3"/>
	<line class="st3" x1="350.1" y1="954.7" x2="350.1" y2="1021.8"/>
</g>
</svg>
