<svg id="Layer_1" data-name="Layer 1" xmlns="http://www.w3.org/2000/svg" width="491" height="1390" viewBox="0 0 491 1390"><defs><style>.cls-1{fill:none;stroke:#fff;stroke-miterlimit:10;stroke-width:3px;stroke-dasharray:30;}</style></defs><path class="cls-1" d="M264.21,1035.9c102,0,176.5,71.5,176.5,184v139.5H88.21V1219.9C88.21,1107.4,160.71,1035.9,264.21,1035.9Zm90,191.5c0-56.5-32-92-90-92-58.5,0-91,35.5-91,92v34h181Z"/><path class="cls-1" d="M383.21,768.9v125l57.5,19v103L88.21,887.4v-113l352.5-128V749.9Zm-189,62.5,114,37.5V793.4Z"/><path class="cls-1" d="M88.21,640.41v-112l136-62-136-62V293.91l240.5,124h112v98.5h-112Z"/><path class="cls-1" d="M167.21,135.92v51.5h-92v-154h365.5v102.5Z"/></svg>
