<svg id="Layer_1" data-name="Layer 1" xmlns="http://www.w3.org/2000/svg" width="491" height="1521.5" viewBox="0 0 491 1521.5"><defs><style>.cls-1{fill:none;stroke:#fff;stroke-miterlimit:10;stroke-width:3px;stroke-dasharray:30;}</style></defs><path class="cls-1" d="M264.21,1167.4c102,0,176.5,71.5,176.5,184v139.5H88.21V1351.4C88.21,1238.9,160.71,1167.4,264.21,1167.4Zm90,191.5c0-56.5-32-92-90-92-58.5,0-91,35.5-91,92v34h181Z"/><path class="cls-1" d="M383.21,900.4v125l57.5,19v103L88.21,1018.9v-113l352.5-128V881.4Zm-189,62.5,114,37.5V924.9Z"/><path class="cls-1" d="M88.21,771.91v-112l136-62-136-62V425.41l240.5,124h112v98.5h-112Z"/><path class="cls-1" d="M362.21,311.42c-58.5-74.5-121-152.5-178-152.5-21,0-34,9.5-34,28.5,0,18.5,15.5,31,48,30v95c-93-3-130.5-63.5-130.5-131,0-87,49.5-121.5,109.5-121.5,76,0,138.5,63,179,121.5v-125h79.5v255Z"/></svg>