<svg id="Layer_1" data-name="Layer 1" xmlns="http://www.w3.org/2000/svg" width="491" height="1521.5" viewBox="0 0 491 1521.5"><defs><style>.cls-1{fill:none;stroke:#fff;stroke-miterlimit:10;stroke-width:3px;stroke-dasharray:30;}</style></defs><path class="cls-1" d="M264.21,1167.4c102,0,176.5,71.5,176.5,184v139.5H88.21V1351.4C88.21,1238.9,160.71,1167.4,264.21,1167.4Zm90,191.5c0-56.5-32-92-90-92-58.5,0-91,35.5-91,92v34h181Z"/><path class="cls-1" d="M383.21,900.4v125l57.5,19v103L88.21,1018.9v-113l352.5-128V881.4Zm-189,62.5,114,37.5V924.9Z"/><path class="cls-1" d="M88.21,771.91v-112l136-62-136-62V425.41l240.5,124h112v98.5h-112Z"/><path class="cls-1" d="M67.21,176.92c0-79,44.5-121,100.5-121,50,0,74,31,81.5,54h2c13-35,39-60.5,86-60.5,63,0,106.5,45,106.5,122,0,79-36,134.5-123,136.5v-95.5c26,1,42-11,42-37,0-19.5-13.5-31-33-31-25,0-37,15-37,52v17.5h-79.5v-17c.5-19-2.5-45.5-33.5-45.5-21,0-31,11.5-31,28,0,21.5,18.5,28,35.5,29v95.5C108.71,301.42,67.21,254.92,67.21,176.92Z"/></svg>