<svg id="Layer_1" data-name="Layer 1" xmlns="http://www.w3.org/2000/svg" width="1920" height="1080" viewBox="0 0 1920 1080"><defs><style>.cls-1{fill:#203c9c;}.cls-10,.cls-11,.cls-12,.cls-2,.cls-6,.cls-7,.cls-8{fill:none;stroke-miterlimit:10;}.cls-2{stroke:#23489b;}.cls-3{fill:#072384;}.cls-4{fill:#00096a;}.cls-5,.cls-6,.cls-7,.cls-8{opacity:0.5;}.cls-6,.cls-7,.cls-8{stroke:#fcffff;stroke-width:0.75px;isolation:isolate;}.cls-7{stroke-dashoffset:50px;stroke-dasharray:12.12;}.cls-8{stroke-dashoffset:1353px;stroke-dasharray:1353;}.cls-9{fill:#000051;}.cls-10,.cls-11,.cls-12{stroke:#072384;}.cls-10{stroke-width:5px;}.cls-11{stroke-width:2px;}.cls-12{stroke-width:8px;}</style></defs><path class="cls-1" d="M1940.66-144.57H-32.82V1212.89H1940.66Z"/><g id="grid"><rect class="cls-2" x="-32.82" y="-144.57" width="1973.48" height="1357.46"/><line class="cls-2" x1="-32.82" y1="1019" x2="1940.66" y2="1019"/><line class="cls-2" x1="-32.82" y1="954.36" x2="1940.66" y2="954.36"/><line class="cls-2" x1="-32.82" y1="889.73" x2="1940.66" y2="889.73"/><line class="cls-2" x1="-32.82" y1="825" x2="1940.66" y2="825"/><line class="cls-2" x1="-32.82" y1="760.37" x2="1940.66" y2="760.37"/><line class="cls-2" x1="-32.82" y1="695.74" x2="1940.66" y2="695.74"/><line class="cls-2" x1="-32.82" y1="631.11" x2="1940.66" y2="631.11"/><line class="cls-2" x1="-32.82" y1="566.48" x2="1940.66" y2="566.48"/><line class="cls-2" x1="-32.82" y1="501.84" x2="1940.66" y2="501.84"/><line class="cls-2" x1="-32.82" y1="437.21" x2="1940.66" y2="437.21"/><line class="cls-2" x1="-32.82" y1="372.58" x2="1940.66" y2="372.58"/><line class="cls-2" x1="-32.82" y1="307.95" x2="1940.66" y2="307.95"/><line class="cls-2" x1="-32.82" y1="243.32" x2="1940.66" y2="243.32"/><line class="cls-2" x1="-32.82" y1="178.59" x2="1940.66" y2="178.59"/><line class="cls-2" x1="-32.82" y1="113.96" x2="1940.66" y2="113.96"/><line class="cls-2" x1="-32.82" y1="49.32" x2="1940.66" y2="49.32"/><line class="cls-2" x1="1846.68" y1="-144.57" x2="1846.68" y2="1212.89"/><line class="cls-2" x1="1752.7" y1="-144.57" x2="1752.7" y2="1212.89"/><line class="cls-2" x1="1658.72" y1="-144.57" x2="1658.72" y2="1212.89"/><line class="cls-2" x1="1564.74" y1="-144.57" x2="1564.74" y2="1212.89"/><line class="cls-2" x1="1470.76" y1="-144.57" x2="1470.76" y2="1212.89"/><line class="cls-2" x1="1376.78" y1="-144.57" x2="1376.78" y2="1212.89"/><line class="cls-2" x1="1282.8" y1="-144.57" x2="1282.8" y2="1212.89"/><line class="cls-2" x1="1188.82" y1="-144.57" x2="1188.82" y2="1212.89"/><line class="cls-2" x1="1094.84" y1="-144.57" x2="1094.84" y2="1212.89"/><line class="cls-2" x1="1000.86" y1="-144.57" x2="1000.86" y2="1212.89"/><line class="cls-2" x1="906.99" y1="-144.57" x2="906.99" y2="1212.89"/><line class="cls-2" x1="813.01" y1="-144.57" x2="813.01" y2="1212.89"/><line class="cls-2" x1="719.03" y1="-144.57" x2="719.03" y2="1212.89"/><line class="cls-2" x1="625.05" y1="-144.57" x2="625.05" y2="1212.89"/><line class="cls-2" x1="531.07" y1="-144.57" x2="531.07" y2="1212.89"/><line class="cls-2" x1="437.09" y1="-144.57" x2="437.09" y2="1212.89"/><line class="cls-2" x1="343.11" y1="-144.57" x2="343.11" y2="1212.89"/><line class="cls-2" x1="249.13" y1="-144.57" x2="249.13" y2="1212.89"/><line class="cls-2" x1="155.15" y1="-144.57" x2="155.15" y2="1212.89"/><line class="cls-2" x1="61.17" y1="-144.57" x2="61.17" y2="1212.89"/></g><rect class="cls-3" x="1636.34" y="623.06" width="136.35" height="78.21"/><polygon class="cls-3" points="-354.72 554.48 -315.04 554.48 -315.04 424.8 -264.87 424.8 -264.87 406.82 -218.49 406.82 -218.49 448.47 -203.35 447.52 -203.35 554.48 -191.99 554.48 -191.99 513.78 -177.79 513.78 -177.79 331.1 -133.31 331.1 -133.31 291.35 -28.25 318.8 -28.25 540.28 -12.15 541.22 -12.15 513.78 2 513.78 2 480.5 13.09 480.5 13.09 468.17 32.81 468.17 32.81 478.65 44.52 478.65 44.52 512.54 62.39 512.54 62.39 554.48 93.82 554.48 93.82 466.94 130.18 466.32 130.18 410.86 195.51 410.86 195.51 395.45 262.06 395.45 262.06 554.48 291.03 554.48 291.03 488.51 318.76 488.51 318.76 461.39 342.18 455.85 342.18 438.59 372.99 431.81 372.99 447.22 401.96 439.21 401.96 488.51 422.3 488.51 422.3 533 443.25 533 443.25 557.53 453.11 557.53 453.11 458.31 475.91 457.69 475.91 445.37 507.96 445.37 507.96 590.81 524.6 590.81 524.6 412.71 551.71 412.71 551.71 388.06 579.66 387.44 579.66 325 594.35 325 594.35 291.35 610.27 291.35 610.27 414.37 635.98 414.37 635.98 643.31 691.07 643.31 691.07 399.68 726.57 381.32 726.57 322.56 740.03 322.56 740.03 242.98 748.55 242.98 748.55 322.35 763.26 322.35 763.26 367.12 809.31 346.65 809.31 594.69 827.82 594.69 827.82 498.44 845.59 498.44 845.59 448.83 887.8 449.57 887.8 499.18 913.71 499.92 913.71 555.45 945.55 556.19 945.55 249.66 975.91 249.66 975.91 140.81 1014.41 158.58 1014.41 124.53 1061.8 142.29 1061.8 177.84 1097.34 194.86 1097.34 252.62 1138.06 253.36 1138.06 596.17 1214.32 596.91 1214.32 342.18 1272.65 342.18 1272.65 306.47 1361.92 305.28 1361.92 593.34 1402.4 592.15 1402.4 385.15 1496.72 385.34 1587.06 472.5 1585.32 631.55 1691.06 631.55 1800.8 631.55 1800.05 448.08 1877.22 448.08 1877.22 693.47 1877.22 693.47 1877.22 353.17 1908.08 353.17 1908.08 304.55 1945.9 305.32 1945.9 693.47 1972.13 693.47 1972.13 259.02 2010.72 237.42 2010.72 203.46 2061.65 203.46 2061.65 237.42 2093.28 260.57 2093.28 693.47 2117.07 693.47 2117.07 772.56 -354.72 772.56 -354.72 554.48"/><polyline class="cls-4" points="1197.54 748.74 1197.54 610.94 1221.84 610.94 1221.84 588.54 1258.54 588.54 1269.97 597.59 1269.97 623.8 1290.94 676.22 1290.94 748.74 1337.17 748.74 1337.17 714.12 1349.92 714.12 1349.92 675.86 1372.69 675.86 1372.69 612.1 1390 612.1 1390 558.35 1408.22 558.35 1408.22 546.72 1450.13 546.72 1450.13 558.35 1475.63 558.35 1475.63 615.74 1500.23 615.74 1500.23 690.44 1526.65 690.44 1553.17 690.72 1553.16 536.49 1640.25 536.49 1640.25 599.7 1667.35 600.42 1668.09 691.96 1696.09 692.26 1727.06 692.26 1727.06 645.8 1743.46 644.89 1743.46 604.81 1784.45 618.47 1784.45 644.89 1800.85 644.89 1800.85 691.35 1824.53 691.35 1824.53 607.54 1856.42 606.63 1856.42 591.14 1872.82 591.14 1872.82 577.48 1899.23 577.48 1899.23 586.59 1917.45 587.5 1917.45 605.72 1963.91 608.45 1963.91 693.17 1986.69 693.17 1986.69 538.31 2098.74 536.49 2098.74 693.17 2119.43 693.17 2119.43 918.18 -352.36 918.18 -352.36 726.36 -327.43 701.74 -305.99 701.74 -305.99 652.5 -287.72 652.5 -287.72 592.14 -203.53 619.14 -203.53 652.5 -174.15 652.5 -174.15 726.36 -148.73 726.36 -148.73 554.02 -12.93 554.02 -12.93 623.11 21.23 623.11 21.23 726.36 50.61 726.36 50.61 682.68 65.7 682.68 65.7 640.19 79.2 640.19 79.2 608.02 105.41 608.02 105.41 681.88 127.65 681.88 127.65 730.33 146.71 730.33 146.71 642.17 177.68 642.17 177.68 615.17 281.72 614.38 281.72 683.47 299.99 683.47 299.99 730.33 350.02 730.33 350.02 642.17 363.52 642.17 363.52 594.52 381.79 573.08 464.39 572.28 464.39 623.91 518.39 623.11 518.39 704.12 544.6 704.12 544.6 730.33 561.28 730.33 561.28 650.12 584.31 650.12 584.31 730.33 605.75 730.33 605.75 616.76 618.46 616.76 618.46 580.23 661.24 580.27 661.24 593.32 671.32 593.32 671.32 627.73 682.59 627.73 682.59 666.29 691.49 666.29 691.49 730.33 706.91 730.33 706.91 642.17 752 642.17 752 624.76 791.14 624.76 791.14 730.33 808.35 730.33 808.35 644.93 912.16 642.17 912.16 748.74 922.83 748.74 922.83 676.96 951.31 676.96 995.2 690.61 995.2 748.74 1008.25 748.74 1008.25 651.38 1021.9 651.38 1021.9 638.41 1030.79 638.41 1030.79 627.73 1059.27 627.73 1059.27 644.93 1080.03 644.93 1080.03 684.68 1115.62 684.68 1115.62 742.22 1131.64 742.22 1131.64 716.12 1155.96 716.12 1155.96 703.07 1183.84 703.07 1183.58 748.74"/><g class="cls-5"><path class="cls-6" d="M2085.75,1175.94,1864.9,998.7"/><path class="cls-6" d="M1858.55,993.71l-6.66-5.31,6.24-5.62"/><path class="cls-6" d="M1870.1,972.06l208.15-186.71"/></g><g id="circles" class="cls-5"><path class="cls-6" d="M1379.59,77.53c110.32,0,199.62-75.87,199.62-169.44s-89.4-169.43-199.62-169.43S1180-185.47,1180-91.91,1269.38,77.53,1379.59,77.53Z"/><path class="cls-6" d="M261.72,156.63c90.34-76.71,90.34-201,0-277.57s-236.88-76.71-327.21,0-90.34,201,0,277.57S171.38,233.33,261.72,156.63Z"/><path class="cls-6" d="M98.11,274.13c166.83,0,302.13-114.69,302.13-256.24S264.94-238.44,98.11-238.44-204-123.65-204,17.89-68.72,274.13,98.11,274.13Z"/></g><g id="dotted" class="cls-5"><path id="dotted1" class="cls-7" d="M2092.72,1244.94,1744.07,965.08l327.63-293.9"/><path id="dottedcircle" class="cls-7" d="M98.11,243.11c146.64,0,265.5-100.85,265.5-225.22S244.75-207.43,98.11-207.43-167.38-106.58-167.38,17.89-48.53,243.11,98.11,243.11Z"/><path id="dotted2" class="cls-7" d="M1188,79.82v72.85l85.86-36.43Z"/><path id="dotted3" class="cls-7" d="M62.83,549.62v72.85L148.69,586Z"/><path id="dotted5" class="cls-7" d="M1494.81,1307.6,1119,988.71l-272.26,231"/><path id="dotted6" class="cls-7" d="M1247.63-144.36l477,199.1,170-293.18"/></g><g class="cls-5"><path class="cls-8" d="M1618.86,255.6V373.73"/><path class="cls-8" d="M1607.21,255.39h23.52"/><path class="cls-8" d="M1607.21,373.42h23.52"/></g><g class="cls-5"><path class="cls-8" d="M38.89,527.14V645.36"/><path class="cls-8" d="M27.13,526.93H50.65"/><path class="cls-8" d="M27.13,645H50.65"/></g><g class="cls-5"><path class="cls-8" d="M1538.83,898.48v256.23"/><path class="cls-8" d="M1527.07,898.06h23.52"/></g><rect class="cls-9" y="886.51" width="1920.44" height="190.9"/><ellipse class="cls-9" cx="1538.45" cy="911.05" rx="67.69" ry="47.01"/><ellipse class="cls-9" cx="1695.17" cy="916.26" rx="92.34" ry="46.47"/><ellipse class="cls-9" cx="1640.25" cy="905.53" rx="78.23" ry="56.52"/><ellipse class="cls-9" cx="1395.96" cy="888.59" rx="12.45" ry="9.89"/><ellipse class="cls-9" cx="1083.86" cy="889.73" rx="12.45" ry="9.89"/><ellipse class="cls-9" cx="1366.15" cy="888.96" rx="7.44" ry="5.27"/><ellipse class="cls-9" cx="1083.86" cy="889.73" rx="7.44" ry="5.27"/><ellipse class="cls-9" cx="844.19" cy="899.16" rx="43.74" ry="22.88"/><ellipse class="cls-9" cx="898.05" cy="907.97" rx="51.32" ry="44.15"/><ellipse class="cls-9" cx="965.47" cy="910.8" rx="96.81" ry="57.06"/><ellipse class="cls-9" cx="79.29" cy="894.62" rx="12.21" ry="10.67"/><ellipse class="cls-9" cx="124.4" cy="895.04" rx="21.23" ry="18.75"/><ellipse class="cls-9" cx="166.84" cy="893.13" rx="11.69" ry="9.51"/><ellipse class="cls-9" cx="109.27" cy="890.5" rx="11.94" ry="6.88"/><rect class="cls-3" x="1683.68" y="265.59" width="7.38" height="413.81"/><rect class="cls-3" x="1727.01" y="265.59" width="6.72" height="406.35"/><line class="cls-10" x1="1688.09" y1="279.48" x2="1730.46" y2="321.93"/><line class="cls-10" x1="1729.43" y1="279.48" x2="1686.18" y2="321.03"/><line class="cls-10" x1="1689.05" y1="321.93" x2="1731.42" y2="364.38"/><line class="cls-10" x1="1730.39" y1="321.93" x2="1687.13" y2="363.48"/><line class="cls-10" x1="1688.53" y1="364.38" x2="1730.9" y2="406.82"/><line class="cls-10" x1="1729.87" y1="364.38" x2="1686.62" y2="405.92"/><line class="cls-10" x1="1688.6" y1="405.39" x2="1730.97" y2="447.84"/><line class="cls-10" x1="1729.94" y1="405.39" x2="1686.69" y2="446.94"/><line class="cls-10" x1="1689.49" y1="446.94" x2="1731.86" y2="489.38"/><line class="cls-10" x1="1730.83" y1="446.94" x2="1687.58" y2="488.48"/><line class="cls-10" x1="1688.5" y1="489.79" x2="1730.87" y2="532.23"/><line class="cls-10" x1="1729.83" y1="489.79" x2="1686.58" y2="531.33"/><line class="cls-10" x1="1688.98" y1="530.64" x2="1731.35" y2="573.09"/><line class="cls-10" x1="1730.31" y1="530.64" x2="1687.06" y2="572.18"/><line class="cls-11" x1="1689.45" y1="574.4" x2="1731.82" y2="616.84"/><line class="cls-11" x1="1730.79" y1="574.4" x2="1687.54" y2="615.94"/><line class="cls-11" x1="1687.98" y1="615.24" x2="1730.35" y2="657.69"/><line class="cls-11" x1="1729.32" y1="615.24" x2="1686.06" y2="656.79"/><rect class="cls-3" x="1420.07" y="253" width="421.31" height="9.59"/><rect class="cls-3" x="1783.84" y="245.15" width="48.64" height="53.74"/><polygon class="cls-3" points="1742.73 268.75 1673.5 268.75 1673.5 245.15 1684.3 245.15 1742.73 245.15 1742.73 268.75"/><polygon class="cls-3" points="1709.28 124.53 1684.3 245.15 1691.29 245.15 1709.28 156.35 1727.62 245.15 1733.26 245.15 1709.28 124.53"/><polyline class="cls-11" points="1426.3 310.84 1426.3 258.44 1444.13 258.44 1444.13 310.84"/><polyline class="cls-11" points="1429.81 256.95 1709.81 131.64 1451.36 256.95"/><polyline class="cls-11" points="1797.76 245.15 1709.81 131.64 1825.51 248.09"/><polyline class="cls-11" points="1703.52 182.55 1716.56 182.55 1698.41 198.32 1719.98 198.32 1695.38 219.7 1722.63 219.7 1692.23 236.79 1727.72 236.79"/><path class="cls-3" d="M1422.52,309.34h24.76v19A11.69,11.69,0,0,1,1435.59,340h-1.37a11.69,11.69,0,0,1-11.69-11.69v-19Z"/><path class="cls-3" d="M1442,340.43c0,3.45-3.26,6.24-7.28,6.24a8.15,8.15,0,0,1-2.25-.31,6.41,6.41,0,0,1-5-5.93c0-3.44,3.25-6.23,7.27-6.23S1442,337,1442,340.43Z"/><rect class="cls-3" x="1430.36" y="344.93" width="7.89" height="10.17"/><path class="cls-12" d="M1424,363.41a10.77,10.77,0,0,0,5.58,5.42,9.93,9.93,0,0,0,10.46-1.65,9.55,9.55,0,0,0,1.65-11.63,9.25,9.25,0,0,0-4.72-3.7"/></svg>