<svg id="Layer_1" data-name="Layer 1" xmlns="http://www.w3.org/2000/svg" width="727.37" height="120.91" viewBox="0 0 727.37 120.91"><defs><style>.cls-1{fill:#fff;}.cls-2{fill:#ffe401;}</style></defs><path class="cls-1" d="M.39,120.91V117H19.5c5.54,0,7.93-3,7.93-7.45s-2.39-7.41-7.93-7.41H.39V98.17H19.45c7.85,0,11.44,5.15,11.44,11.39s-3.59,11.35-11.44,11.35Z"/><path class="cls-1" d="M9.14,64V68.7a9.65,9.65,0,0,0-5.55,9.19C3.59,84.26,8.19,89,15.47,89S27.3,84.26,27.3,77.89c0-5.94-3.82-10-9.8-10.62v12H14.29V63h3A14.63,14.63,0,0,1,30.81,77.84C30.81,86.33,24.48,93,15.43,93S0,86.33,0,77.84C0,71.49,3.29,66.23,9.14,64Z"/><path class="cls-1" d="M23.87,40V53.19l6.72,2.43v4.16L.59,48.86V44.31l30-10.88v4.16ZM5.41,46.6l15.26,5.46V41.14Z"/><path class="cls-1" d="M153.18,86.49H122.63v30.35H108.29V45.52H122.6V74.84h30.55V45.52h14.3v71.32h-14.3Z"/><path class="cls-1" d="M276.41,103.27H248l-4.7,13.59h-15L254,45.43H270.6l25.65,71.43H281.13ZM262.2,62,251.88,91.82h20.64Z"/><path class="cls-1" d="M389.62,44.62c15.84,0,28.71,8.48,33.51,23.09H406.68c-3.37-6.85-9.5-10.22-17.16-10.22-12.47,0-21.36,9.09-21.36,23.6s8.89,23.61,21.36,23.61c7.66,0,13.79-3.38,17.16-10.32h16.45c-4.8,14.71-17.67,23.09-33.51,23.09-20.54,0-36.17-15-36.17-36.38S369.08,44.62,389.62,44.62Z"/><path class="cls-1" d="M500.79,85.08v31.78H486.48V45.54h14.31v32l25.95-32H544L514.58,80.89l30.25,36H526.74Z"/><path class="cls-1" d="M629.94,117.57c-14.81,0-26.26-7.76-26.46-21.25H618.8c.41,5.72,4.19,9.5,10.83,9.5s10.73-3.58,10.73-8.68c0-15.43-36.78-6.14-36.68-32,0-12.87,10.42-20.64,25.14-20.64S653.44,52,654.36,64.84H638.63c-.31-4.7-4.09-8.38-10.22-8.48-5.62-.21-9.81,2.55-9.81,8.38,0,14.3,36.58,6.33,36.58,31.47C655.18,107.49,646.19,117.57,629.94,117.57Z"/><path class="cls-2" d="M719.11,10.91c-.71-3-2.3-4.6-5.75-4.6-5,0-7.28,3.72-7.39,12.92,1.81-3,5.42-4.65,9.31-4.65,7.11,0,12.09,4.7,12.09,13,0,7.71-4.76,13.35-13.3,13.35-11.82,0-14.77-8.32-14.77-20.68,0-13,4.21-20.25,14.34-20.25,8.15,0,12,5.25,12.58,10.89ZM706.69,27.49c0,4.27,2.51,7,7,7,3.94,0,6.4-2.57,6.4-6.68s-2.13-6.89-6.56-6.89C710,20.87,706.69,23,706.69,27.49Z"/></svg>
