<svg id="Layer_1" data-name="Layer 1" xmlns="http://www.w3.org/2000/svg" width="1920" height="1080" viewBox="0 0 1920 1080"><defs><style>.cls-1,.cls-2,.cls-3,.cls-4,.cls-5,.cls-6,.cls-7,.cls-8{fill:none;stroke:#7f7f7f;}.cls-1,.cls-2,.cls-3,.cls-4,.cls-5,.cls-7,.cls-8{stroke-linejoin:round;}.cls-6{stroke-miterlimit:10;}</style></defs><path class="cls-1" d="M1545.34,594.41l-25.17.32a3.79,3.79,0,0,0-3.75,3.82h0v.93a3.8,3.8,0,0,0,3.8,3.73h0l8.64-.11,1.32,103.51,4.08,11.08,3.8-11.19L1536.74,603l8.66-.11a3.81,3.81,0,0,0,3.73-3.84v-.9a3.75,3.75,0,0,0-3.77-3.74h0Z"/><path class="cls-1" d="M1493.53,993l-25.18.33a3.76,3.76,0,0,0-3.75,3.78v0h0v.92a3.77,3.77,0,0,0,3.81,3.73h0l8.63-.11,1.33,103.51,4.07,11.08,3.8-11.19-1.32-103.49,8.66-.11a3.82,3.82,0,0,0,3.73-3.84v-1a3.76,3.76,0,0,0-3.8-3.73h0Z"/><path class="cls-1" d="M1460.71,618.69c0,1.4,1.81,2.48,3.84,2.43l25.17-.45c2.1,0,3.77-1.2,3.73-2.57v-.64c0-1.37-1.81-2.46-3.84-2.42l-8.64.16-.18-8.08,2.87-1.36a1.9,1.9,0,0,0-1.64-3.42h0l-1.32.63-.12-6,2.91-1.38a1.89,1.89,0,1,0-1.63-3.42h0l-1.37.65-.13-6,3-1.41a1.89,1.89,0,1,0-1.63-3.42h0l-1.43.68-.13-6,3-1.45a1.82,1.82,0,0,0,1-2.37h0v-.15a1.91,1.91,0,0,0-2.53-.9l-1.49.7-.12-6,3.08-1.46a1.82,1.82,0,0,0,1-2.38v-.16a1.83,1.83,0,0,0-2.38-1h-.14l-1.54.73-.13-6,3.14-1.51a1.89,1.89,0,0,0-1.63-3.42l-1.6.76-.12-5.43-4.1-7.25-3.78,7.41.2,9.06-2.47,1.17a1.82,1.82,0,0,0-1,2.37h0v.14a1.93,1.93,0,0,0,2.54.91l.92-.46.13,6-2.52,1.2a1.89,1.89,0,0,0,1.63,3.42l1-.47.13,6-2.57,1.23a1.89,1.89,0,1,0,1.63,3.42h0l1-.49.13,6-2.63,1.25a1.89,1.89,0,1,0,1.63,3.42l1.09-.51.12,6-2.68,1.27a1.89,1.89,0,0,0,1.63,3.42l1.14-.54.13,6-2.73,1.28a1.9,1.9,0,0,0-.89,2.54h0a1.82,1.82,0,0,0,2.35,1h.17l1.19-.58.11,4.51-8.66.16c-2.08,0-3.75,1.19-3.73,2.57Z"/><path class="cls-1" d="M1479,642.08c1.26,1,14.94,11.88,14.48,29-.41,16-13,24.24-14.48,25.36Z"/><path class="cls-1" d="M1479,685.78l-18.12-.24a10.56,10.56,0,0,1-2.71-4.53,15.72,15.72,0,0,1,0-10.86,13.35,13.35,0,0,1,1.81-16.3h19Z"/><line class="cls-1" x1="1478.95" y1="669.82" x2="1458.12" y2="670.15"/><polyline class="cls-1" points="1458.12 682.05 1398.35 682.83 1394.73 659.28 1456.74 659.28"/><path class="cls-1" d="M1397.9,682.19h-51.85a20.26,20.26,0,0,1,0-22.28h48.3"/><line class="cls-1" x1="1393.57" y1="682.19" x2="1389.89" y2="659.91"/><line class="cls-1" x1="1386.45" y1="682.19" x2="1382.78" y2="659.91"/><line class="cls-1" x1="1379.33" y1="682.19" x2="1375.66" y2="659.91"/><line class="cls-1" x1="1372.22" y1="682.19" x2="1368.54" y2="659.91"/><line class="cls-1" x1="1365.1" y1="682.19" x2="1361.42" y2="659.91"/><line class="cls-1" x1="1357.98" y1="682.19" x2="1354.3" y2="659.91"/><line class="cls-1" x1="1350.86" y1="682.19" x2="1347.19" y2="659.91"/><path class="cls-1" d="M1535.31,561.57a22,22,0,0,0,15.75-7.24h-13.22V512.67l-2.8-6.79-2.52,6.79v41.66H1519A22,22,0,0,0,1535.31,561.57Z"/><path class="cls-1" d="M1469.18,475.29a21.93,21.93,0,0,0,15.76-7.25h-13.22V426.39l-2.81-6.79-2.52,6.79V468h-13.51A22,22,0,0,0,1469.18,475.29Z"/><path class="cls-1" d="M1310.31,612.05l.31,20.66c0,1.18,1.58,2.1,3.46,2.08s3.42-1,3.4-2.19l-.1-7.24,36.8-.54,1.3,2.31a3.62,3.62,0,0,0,3.82,1.13c1.58-.35,2.41-1.43,1.81-2.39l-.63-1.15,7.59-.12,1.3,2.33a3.62,3.62,0,0,0,3.82,1.13c1.58-.37,2.41-1.43,1.82-2.41l-.66-1.14,7.61-.11,1.3,2.32a3.65,3.65,0,0,0,3.83,1.12c1.57-.34,2.39-1.41,1.81-2.39l-.64-1.14,7.61-.13,1.3,2.34a3.63,3.63,0,0,0,3.82,1.12c1.56-.36,2.4-1.43,1.82-2.41l-.64-1.14,7.59-.11,1.3,2.34a3.65,3.65,0,0,0,3.83,1.12c1.57-.36,2.4-1.43,1.81-2.41l-.64-1.14h3.26l11.27-3.3-11.38-3-6.62.11-1.29-2.33a3.61,3.61,0,0,0-3.84-1.13c-1.56.36-2.39,1.43-1.81,2.41l.63,1.14-7.59.11-1.3-2.32a3.63,3.63,0,0,0-3.82-1.12c-1.58.34-2.41,1.43-1.81,2.39l.63,1.14-7.59.13-1.3-2.34a3.63,3.63,0,0,0-3.82-1.12c-1.58.36-2.41,1.43-1.81,2.41l.65,1.14-7.61.11-1.3-2.32a3.62,3.62,0,0,0-3.82-1.12c-1.58.34-2.39,1.41-1.81,2.39l.63,1.14-7.61.12-1.28-2.33a3.63,3.63,0,0,0-3.84-1.12c-1.56.36-2.39,1.43-1.81,2.4l.63,1.15-33.43.48-.11-7.24c0-1.18-1.58-2.12-3.46-2.08S1310.29,610.83,1310.31,612.05Z"/><path class="cls-1" d="M1306.27,647.85a21.8,21.8,0,0,0-15.77,7.25h13.2l-.18,41.65,2.77,6.81,2.56-6.79.19-41.65h13.5A21.91,21.91,0,0,0,1306.27,647.85Z"/><path class="cls-1" d="M1444.41,592.12,1444.1,567a3.79,3.79,0,0,0-3.8-3.77h-.93a3.79,3.79,0,0,0-3.75,3.81h0l.11,8.63-103.5,1.2-11.09,4.08,11.18,3.8,103.49-1.2.1,8.66a3.81,3.81,0,0,0,3.84,3.73h.93a3.77,3.77,0,0,0,3.73-3.78Z"/><path class="cls-1" d="M1322.88,484.47c0-1.39-1.81-2.46-3.86-2.41l-25.15.62c-2.1,0-3.77,1.21-3.63,2.59v.6c0,1.37,1.82,2.44,3.86,2.4l8.62-.21.24,8.07-2.84,1.38a1.82,1.82,0,0,0-1,2.38.91.91,0,0,0,.07.14,1.9,1.9,0,0,0,2.53.89l1.33-.64.14,6-2.9,1.39a1.82,1.82,0,0,0-.95,2.38.61.61,0,0,0,.07.14,1.89,1.89,0,0,0,2.53.89h0l1.38-.65.16,6-3,1.43a1.81,1.81,0,0,0-.93,2.39l.06.13a1.82,1.82,0,0,0,2.38,1l.14-.07h0l1.43-.71.16,6-3,1.47a1.8,1.8,0,0,0-1,2.37v.16a1.81,1.81,0,0,0,2.37,1l.16-.08,1.49-.73.16,6-3.08,1.49a1.81,1.81,0,0,0-1,2.37v.18a1.8,1.8,0,0,0,2.37.94h.15l1.54-.74.16,6-3.13,1.52a1.9,1.9,0,1,0,1.66,3.42l1.58-.77.16,5.43,4.13,7.24,3.75-7.42-.25-9.06,2.46-1.19a1.82,1.82,0,0,0,1-2.38v-.14a2,2,0,0,0-2.55-.91l-.91.47-.16-6,2.5-1.22a1.9,1.9,0,0,0-1.65-3.42h0l-1,.49-.16-6,2.57-1.25a1.89,1.89,0,1,0-1.65-3.4h0l-1,.49-.16-6,2.62-1.27a1.94,1.94,0,0,0,.89-2.53,1.9,1.9,0,0,0-2.54-.88h0l-1.07.5-.17-6,2.67-1.29a1.89,1.89,0,0,0,.88-2.53,1.81,1.81,0,0,0-2.38-.95l-.15.08-1.14.54-.17-6,2.74-1.3a1.8,1.8,0,0,0,.94-2.38,1.11,1.11,0,0,0-.07-.16h0a1.81,1.81,0,0,0-2.37-1h-.15l-1.19.58-.15-4.51,8.66-.21c2.08,0,3.75-1.22,3.62-2.59Z"/><rect class="cls-2" x="1346.19" y="490.35" width="19.42" height="46.84" rx="3.73" transform="translate(-0.54 1.42) rotate(-0.06)"/><path class="cls-1" d="M1505.86,501.26a20.27,20.27,0,0,1,4.33,13.58,19.93,19.93,0,0,1-4.37,11.29l-140.07.14V501.41Z"/><line class="cls-1" x1="1370.44" y1="501.39" x2="1374.66" y2="526.25"/><line class="cls-1" x1="1379.3" y1="501.39" x2="1383.52" y2="526.24"/><line class="cls-1" x1="1388.15" y1="501.37" x2="1392.37" y2="526.24"/><line class="cls-1" x1="1397.01" y1="501.37" x2="1401.23" y2="526.22"/><line class="cls-1" x1="1405.87" y1="501.35" x2="1410.09" y2="526.22"/><line class="cls-1" x1="1414.74" y1="501.35" x2="1418.96" y2="526.2"/><line class="cls-1" x1="1423.6" y1="501.33" x2="1427.82" y2="526.2"/><line class="cls-1" x1="1432.45" y1="501.33" x2="1436.67" y2="526.18"/><line class="cls-1" x1="1441.31" y1="501.31" x2="1445.53" y2="526.18"/><line class="cls-1" x1="1450.17" y1="501.31" x2="1454.39" y2="526.16"/><line class="cls-1" x1="1459.02" y1="501.3" x2="1463.24" y2="526.16"/><line class="cls-1" x1="1467.88" y1="501.3" x2="1472.1" y2="526.15"/><line class="cls-1" x1="1476.75" y1="501.28" x2="1480.97" y2="526.15"/><line class="cls-1" x1="1485.61" y1="501.28" x2="1489.83" y2="526.13"/><line class="cls-1" x1="1494.47" y1="501.28" x2="1498.69" y2="526.13"/><line class="cls-1" x1="1503.32" y1="501.26" x2="1507.22" y2="524.23"/><rect class="cls-3" x="1452.01" y="372.26" width="46.84" height="19.42" rx="3.73" transform="translate(1079.83 1853.8) rotate(-89.47)"/><path class="cls-1" d="M1325.45,393a19.72,19.72,0,0,1,.22-24.85l140.07,1.29-.21,24.87Z"/><line class="cls-1" x1="1460.87" y1="394.22" x2="1456.9" y2="369.34"/><line class="cls-1" x1="1452.01" y1="394.15" x2="1448.05" y2="369.25"/><line class="cls-1" x1="1443.16" y1="394.06" x2="1439.19" y2="369.18"/><line class="cls-1" x1="1434.3" y1="393.99" x2="1430.34" y2="369.08"/><line class="cls-1" x1="1425.45" y1="393.9" x2="1421.48" y2="369.01"/><line class="cls-1" x1="1416.59" y1="393.82" x2="1412.62" y2="368.92"/><line class="cls-1" x1="1407.71" y1="393.73" x2="1403.75" y2="368.85"/><line class="cls-1" x1="1398.86" y1="393.66" x2="1394.89" y2="368.76"/><line class="cls-1" x1="1390" y1="393.57" x2="1386.04" y2="368.69"/><line class="cls-1" x1="1381.15" y1="393.5" x2="1377.18" y2="368.6"/><line class="cls-1" x1="1372.29" y1="393.41" x2="1368.32" y2="368.51"/><line class="cls-1" x1="1363.43" y1="393.34" x2="1359.47" y2="368.43"/><line class="cls-1" x1="1354.58" y1="393.24" x2="1350.61" y2="368.34"/><line class="cls-1" x1="1345.72" y1="393.15" x2="1341.75" y2="368.27"/><line class="cls-1" x1="1336.85" y1="393.08" x2="1332.88" y2="368.18"/><line class="cls-1" x1="1327.99" y1="392.99" x2="1324.33" y2="370.01"/><path class="cls-1" d="M1489.58,32.87c1.39,0,2.48-1.81,2.42-3.84l-.45-25.18c0-2.1-1.19-3.76-2.57-3.73h-.63c-1.38,0-2.47,1.81-2.43,3.84l.16,8.64-8.08.18-1.35-2.86a1.9,1.9,0,0,0-3.43,1.63l.64,1.32-6,.13-1.38-2.92a1.89,1.89,0,0,0-3.42,1.63h0l.65,1.38-6,.13-1.42-3a1.89,1.89,0,1,0-3.42,1.63h0l.69,1.43-6,.12-1.45-3a1.81,1.81,0,0,0-2.36-1h-.16a1.93,1.93,0,0,0-.9,2.54l.71,1.48-6,.13L1436,10.5a1.81,1.81,0,0,0-2.37-1h-.17a1.81,1.81,0,0,0-1,2.37.38.38,0,0,1,0,.15l.73,1.54-6,.12-1.5-3.13a1.9,1.9,0,1,0-3.43,1.63l.76,1.59-5.43.13L1410.47,18l7.4,3.79,9.06-.2,1.18,2.46a1.79,1.79,0,0,0,2.36,1h.15a1.91,1.91,0,0,0,.91-2.53l-.45-.93,6-.12,1.2,2.51a1.89,1.89,0,1,0,3.42-1.63l-.47-1,6-.13,1.23,2.57a1.89,1.89,0,1,0,3.42-1.63l-.49-1,6-.13,1.25,2.63A1.9,1.9,0,0,0,1462,22l-.51-1.09,6-.13,1.27,2.68a1.9,1.9,0,0,0,3.43-1.63h0l-.55-1.14,6-.12,1.28,2.73a1.91,1.91,0,0,0,2.54.89h0a1.82,1.82,0,0,0,1-2.36.43.43,0,0,0,0-.16l-.58-1.19,4.51-.11.16,8.65c0,2.09,1.2,3.75,2.57,3.74Z"/><path class="cls-1" d="M1513,14.63c1-1.27,11.9-14.94,29-14.49,16,.42,24.23,13,25.35,14.49Z"/><path class="cls-1" d="M1556.66,14.63l-.23,18.11a10.6,10.6,0,0,1-4.53,2.72,15.87,15.87,0,0,1-10.87,0,13.35,13.35,0,0,1-16.3-1.81v-19Z"/><line class="cls-1" x1="1540.71" y1="14.63" x2="1541.03" y2="35.46"/><polyline class="cls-1" points="1552.95 35.46 1553.73 95.22 1530.18 98.85 1530.18 36.83"/><path class="cls-1" d="M1553.09,95.61v51.85a20.32,20.32,0,0,1-22.29,0V99.15"/><line class="cls-1" x1="1553.09" y1="100.01" x2="1530.8" y2="103.68"/><line class="cls-1" x1="1553.09" y1="107.12" x2="1530.8" y2="110.8"/><line class="cls-1" x1="1553.09" y1="114.24" x2="1530.8" y2="117.92"/><line class="cls-1" x1="1553.09" y1="121.36" x2="1530.8" y2="125.04"/><line class="cls-1" x1="1553.09" y1="128.48" x2="1530.8" y2="132.15"/><line class="cls-1" x1="1553.09" y1="135.59" x2="1530.8" y2="139.27"/><line class="cls-1" x1="1553.09" y1="142.71" x2="1530.8" y2="146.39"/><path class="cls-1" d="M1483,183.26l20.67-.3c1.17,0,2.12-1.58,2.08-3.46s-1-3.34-2.28-3.34l-7.25.11-.54-36.8,2.34-1.3a3.63,3.63,0,0,0,1.12-3.84c-.36-1.56-1.43-2.39-2.41-1.81l-1.14.63-.11-7.59,2.32-1.3a3.63,3.63,0,0,0,1.12-3.82c-.34-1.58-1.43-2.41-2.41-1.82l-1.14.66-.11-7.61,2.34-1.3a3.65,3.65,0,0,0,1.12-3.83c-.36-1.57-1.43-2.39-2.41-1.81l-1.14.64-.11-7.61,2.32-1.3a3.61,3.61,0,0,0,1.12-3.83c-.34-1.55-1.43-2.39-2.39-1.81l-1.16.64-.1-7.59,2.33-1.31a3.61,3.61,0,0,0,1.13-3.83c-.37-1.56-1.44-2.4-2.41-1.82l-1.14.64V74.29L1491.5,63l-3,11.4V81l-2.33,1.28a3.63,3.63,0,0,0-1.11,3.84c.35,1.56,1.42,2.39,2.39,1.81l1.15-.63.1,7.59-2.31,1.3a3.62,3.62,0,0,0-1.13,3.82c.35,1.58,1.43,2.41,2.41,1.81l1.14-.63.11,7.59-2.33,1.3a3.62,3.62,0,0,0-1.13,3.82c.36,1.58,1.43,2.41,2.41,1.81l1.14-.65.11,7.61-2.32,1.3a3.63,3.63,0,0,0-1.12,3.82c.34,1.56,1.43,2.4,2.39,1.82l1.16-.64.11,7.61-2.34,1.28a3.63,3.63,0,0,0-1.12,3.84c.36,1.56,1.43,2.4,2.41,1.82l1.14-.64.49,33.43-7.25.11c-1.17,0-2.1,1.58-2.08,3.46S1481.75,183.28,1483,183.26Z"/><path class="cls-1" d="M1518.74,187.3a21.75,21.75,0,0,0,7.24,15.78V189.87l41.66.19,6.82-2.78-6.79-2.55-41.65-.2V171A22,22,0,0,0,1518.74,187.3Z"/><path class="cls-1" d="M1313.86,278.22a22,22,0,0,0,7.25,15.79V280.79l41.65.2,6.83-2.79-6.79-2.53-41.66-.2V262A22,22,0,0,0,1313.86,278.22Z"/><path class="cls-1" d="M1477.59,205.3c1.27,1,15,11.85,14.49,29-.38,16-12.92,24.27-14.49,25.36Z"/><path class="cls-1" d="M1477.71,249l-18.11-.18a10.46,10.46,0,0,1-2.71-4.51,15.75,15.75,0,0,1,0-10.87,13.63,13.63,0,0,1-1.81-9.06,13.44,13.44,0,0,1,3.62-7.24h19Z"/><line class="cls-1" x1="1477.68" y1="233.03" x2="1456.85" y2="233.45"/><polyline class="cls-1" points="1456.89 245.35 1397.12 246.31 1393.42 222.78 1455.42 222.58"/><path class="cls-1" d="M1396.72,245.67l-51.83.17a20.26,20.26,0,0,1,0-22.28l48.3-.14"/><line class="cls-1" x1="1392.34" y1="245.69" x2="1388.57" y2="223.42"/><line class="cls-1" x1="1385.22" y1="245.71" x2="1381.45" y2="223.45"/><line class="cls-1" x1="1378.1" y1="245.73" x2="1374.34" y2="223.47"/><line class="cls-1" x1="1370.98" y1="245.77" x2="1367.22" y2="223.49"/><line class="cls-1" x1="1363.87" y1="245.78" x2="1360.1" y2="223.51"/><line class="cls-1" x1="1356.75" y1="245.8" x2="1352.98" y2="223.54"/><line class="cls-1" x1="1349.63" y1="245.82" x2="1345.88" y2="223.56"/><path class="cls-1" d="M1463.1,49.17l-25.18.31a3.76,3.76,0,0,0-3.75,3.78v0h0v.92a3.74,3.74,0,0,0,3.74,3.75h0l8.64-.11,1.21,103.51,4.06,11.08,3.82-11.17-1.21-103.49,8.65-.11a3.8,3.8,0,0,0,3.75-3.84V52.9a3.76,3.76,0,0,0-3.8-3.73h0Z"/><path class="cls-1" d="M1349-66.74l-25.18.29a3.81,3.81,0,0,0-3.75,3.82h0v.92a3.77,3.77,0,0,0,3.81,3.73h0l8.64-.09,1.19,103.51,4.06,11.08,3.82-11.19L1340.4-58.16l8.65-.09a3.8,3.8,0,0,0,3.73-3.84V-63a3.76,3.76,0,0,0-3.8-3.73h0Z"/><path class="cls-1" d="M1355.35,170.73c-1.39,0-2.46,1.81-2.39,3.84l.6,25.17c0,2.11,1.22,3.77,2.59,3.72h.64c1.37,0,2.46-1.81,2.4-3.86L1359,191l8.13-.33,1.38,2.85a1.89,1.89,0,0,0,3.4-1.65l-.63-1.32,6-.17,1.4,2.92a1.89,1.89,0,1,0,3.4-1.65h0l-.65-1.38,6-.16,1.43,3a1.82,1.82,0,0,0,2.38.95l.15-.08a1.81,1.81,0,0,0,.94-2.38.91.91,0,0,0-.07-.14h0l-.68-1.43,6-.16,1.47,3a1.81,1.81,0,0,0,2.37,1h.15a1.9,1.9,0,0,0,.88-2.54l-.7-1.48,6-.17,1.48,3.08a1.81,1.81,0,0,0,2.37.94h.17a1.81,1.81,0,0,0,.94-2.37v-.14l-.73-1.54,6-.17,1.52,3.14a1.82,1.82,0,0,0,2.39.93l.13-.06a1.91,1.91,0,0,0,.89-2.54l-.78-1.58,5.43-.16,7.25-4.15-7.43-3.73-9,.26L1417,179a1.81,1.81,0,0,0-2.37-1h-.15a1.9,1.9,0,0,0-.88,2.54l.45.92-6,.17-1.21-2.5a1.89,1.89,0,0,0-3.41,1.64h0l.48,1-6,.17-1.25-2.58a1.89,1.89,0,0,0-3.41,1.65l.49,1-6,.17-1.26-2.63a1.9,1.9,0,0,0-3.41,1.67l.51,1.07-6,.16-1.47-2.75a1.81,1.81,0,0,0-2.37-1l-.14.07a1.89,1.89,0,0,0-.89,2.53l.54,1.15-6,.16L1366,180a1.8,1.8,0,0,0-2.38-.94l-.15.07h0a1.82,1.82,0,0,0-1,2.38v.14l.58,1.2-4.51.14-.2-8.66c0-2.08-1.23-3.74-2.61-3.62Z"/><rect class="cls-4" x="1361.28" y="127.96" width="46.84" height="19.42" rx="3.73" transform="translate(-0.14 1.45) rotate(-0.06)"/><path class="cls-1" d="M1372.14-12.19a20.33,20.33,0,0,1,13.57-4.39,20.06,20.06,0,0,1,11.3,4.37l.13,140.07h-24.85Z"/><line class="cls-1" x1="1372.27" y1="123.13" x2="1397.14" y2="118.91"/><line class="cls-1" x1="1372.27" y1="114.28" x2="1397.12" y2="110.06"/><line class="cls-1" x1="1372.25" y1="105.42" x2="1397.12" y2="101.2"/><line class="cls-1" x1="1372.25" y1="96.56" x2="1397.1" y2="92.35"/><line class="cls-1" x1="1372.25" y1="87.71" x2="1397.1" y2="83.49"/><line class="cls-1" x1="1372.23" y1="78.83" x2="1397.08" y2="74.61"/><line class="cls-1" x1="1372.23" y1="69.98" x2="1397.08" y2="65.76"/><line class="cls-1" x1="1372.22" y1="61.12" x2="1397.07" y2="56.9"/><line class="cls-1" x1="1372.22" y1="52.26" x2="1397.07" y2="48.04"/><line class="cls-1" x1="1372.2" y1="43.41" x2="1397.05" y2="39.19"/><line class="cls-1" x1="1372.2" y1="34.55" x2="1397.05" y2="30.33"/><line class="cls-1" x1="1372.18" y1="25.7" x2="1397.05" y2="21.48"/><line class="cls-1" x1="1372.18" y1="16.82" x2="1397.03" y2="12.6"/><line class="cls-1" x1="1372.16" y1="7.96" x2="1397.03" y2="3.74"/><rect class="cls-5" x="1536.91" y="206.75" width="19.42" height="46.84" rx="3.73" transform="translate(1302.15 1774.6) rotate(-89.47)"/><path class="cls-1" d="M1557.66,380.15a20.39,20.39,0,0,1-13.62,4.24,20.11,20.11,0,0,1-11.25-4.47l1.3-140.08,24.87.24Z"/><line class="cls-1" x1="1558.91" y1="244.73" x2="1534.02" y2="248.7"/><line class="cls-1" x1="1558.83" y1="253.59" x2="1533.93" y2="257.56"/><line class="cls-1" x1="1558.74" y1="262.45" x2="1533.86" y2="266.41"/><line class="cls-1" x1="1558.67" y1="271.3" x2="1533.77" y2="275.27"/><line class="cls-1" x1="1558.58" y1="280.18" x2="1533.7" y2="284.12"/><line class="cls-1" x1="1558.51" y1="289.03" x2="1533.61" y2="293"/><line class="cls-1" x1="1558.42" y1="297.89" x2="1533.52" y2="301.86"/><line class="cls-1" x1="1558.35" y1="306.75" x2="1533.44" y2="310.71"/><line class="cls-1" x1="1558.26" y1="315.6" x2="1533.35" y2="319.57"/><line class="cls-1" x1="1558.16" y1="324.46" x2="1533.28" y2="328.42"/><line class="cls-1" x1="1558.09" y1="333.31" x2="1533.19" y2="337.28"/><line class="cls-1" x1="1558" y1="342.17" x2="1533.12" y2="346.14"/><line class="cls-1" x1="1557.93" y1="351.03" x2="1533.03" y2="354.99"/><line class="cls-1" x1="1557.84" y1="359.9" x2="1532.95" y2="363.87"/><line class="cls-1" x1="1557.77" y1="368.76" x2="1532.86" y2="372.72"/><line class="cls-1" x1="1557.68" y1="377.61" x2="1534.67" y2="381.27"/><path class="cls-1" d="M1852.49-6.14c-1,1.26-12,14.83-29.12,14.2-16-.58-24.09-13.24-25.21-14.75Z"/><path class="cls-1" d="M1320.38,131.57a22,22,0,0,0,15.8-7.24H1323l.2-41.66-2.77-6.82-2.55,6.79-.2,41.65h-13.51A22,22,0,0,0,1320.38,131.57Z"/><path class="cls-1" d="M1284.84,400.89a21.88,21.88,0,0,1,15.76,7.24h-13.23v41.66l-2.8,6.81-2.52-6.81V408.13h-13.51A22,22,0,0,1,1284.84,400.89Z"/><polygon class="cls-6" points="1529.73 459.79 1530.04 472.34 1519.33 478.89 1508.3 472.88 1507.98 460.33 1518.7 453.77 1529.73 459.79"/><polygon class="cls-6" points="1524.17 463.17 1524.33 469.22 1519.17 472.37 1513.85 469.49 1513.7 463.44 1518.86 460.27 1524.17 463.17"/><polygon class="cls-6" points="1328.75 189.26 1329.2 207.68 1313.5 217.29 1297.33 208.47 1296.84 190.06 1312.58 180.44 1328.75 189.26"/><polygon class="cls-6" points="1320.6 194.24 1320.84 203.11 1313.26 207.73 1305.44 203.51 1305.24 194.64 1312.81 189.98 1320.6 194.24"/><path class="cls-1" d="M1779.25,31.74l-.31-20.66c0-1.18-1.56-2.1-3.46-2.08s-3.4,1-3.39,2.19l.11,7.24-36.82.55-1.3-2.32a3.6,3.6,0,0,0-3.82-1.12c-1.58.34-2.39,1.43-1.81,2.39l.63,1.14-7.61.12-1.3-2.33a3.62,3.62,0,0,0-3.82-1.13c-1.56.37-2.39,1.44-1.81,2.41l.63,1.14-7.59.11-1.3-2.33a3.63,3.63,0,0,0-3.82-1.11c-1.58.35-2.41,1.41-1.81,2.39l.63,1.14-7.59.11-1.3-2.32a3.63,3.63,0,0,0-3.82-1.12c-1.58.35-2.41,1.43-1.82,2.41l.66,1.14-7.61.11-1.3-2.34a3.65,3.65,0,0,0-3.83-1.12c-1.57.36-2.39,1.43-1.81,2.41l.64,1.14h-3.26L1659,23.18l11.38,3L1677,26l1.3,2.34a3.63,3.63,0,0,0,3.82,1.12c1.58-.36,2.41-1.43,1.81-2.41l-.65-1.14,7.61-.11,1.3,2.32a3.63,3.63,0,0,0,3.82,1.12c1.58-.34,2.39-1.43,1.81-2.39l-.63-1.16,7.61-.11L1706,28a3.63,3.63,0,0,0,3.84,1.12c1.56-.36,2.39-1.43,1.81-2.41l-.63-1.14,7.59-.11,1.3,2.32a3.62,3.62,0,0,0,3.82,1.13c1.58-.35,2.41-1.44,1.81-2.4l-.63-1.14,7.59-.12,1.3,2.33a3.62,3.62,0,0,0,3.82,1.13c1.58-.37,2.41-1.43,1.82-2.41l-.66-1.14,33.46-.49.1,7.24c0,1.18,1.56,2.1,3.46,2.08S1779.27,32.92,1779.25,31.74Z"/><path class="cls-1" d="M1702.73,350.61l-.33-25.17a3.8,3.8,0,0,0-3.82-3.75h-.92a3.76,3.76,0,0,0-3.73,3.8h0l.1,8.64-103.5,1.32-11.08,4.08,11.19,3.8L1694.13,342l.1,8.66a3.81,3.81,0,0,0,3.84,3.73h.93a3.77,3.77,0,0,0,3.73-3.81h0Z"/><path class="cls-1" d="M1427.24,457V431.8a3.79,3.79,0,0,0-3.77-3.8h-.92a3.77,3.77,0,0,0-3.79,3.75h0v8.67l-103.52-.12-11.14,3.91,11.14,4,103.5.12v8.59a3.8,3.8,0,0,0,3.79,3.78h.92a3.77,3.77,0,0,0,3.79-3.75h0Z"/><path class="cls-1" d="M1664.35,263.73c-1.39,0-2.48,1.81-2.43,3.84l.46,25.18c0,2.1,1.19,3.76,2.57,3.73h.63c1.38,0,2.47-1.81,2.43-3.84l-.16-8.64,8.07-.18,1.36,2.86a1.93,1.93,0,0,0,2.54.9,1.9,1.9,0,0,0,.89-2.53l-.64-1.32,6-.13,1.37,2.92a1.93,1.93,0,0,0,2.54.9,1.91,1.91,0,0,0,.89-2.53h0l-.65-1.38,6-.13,1.42,3a1.89,1.89,0,1,0,3.42-1.63h0l-.69-1.43,6-.13,1.45,3a1.81,1.81,0,0,0,2.36,1h.15a1.9,1.9,0,0,0,.91-2.53h0l-.71-1.48,6-.13,1.47,3.08a1.81,1.81,0,0,0,2.37,1h.16a1.81,1.81,0,0,0,1-2.37v-.15l-.72-1.54,6-.12,1.5,3.13a1.93,1.93,0,0,0,2.54.9,1.89,1.89,0,0,0,.88-2.53l-.76-1.6,5.44-.12,7.24-4.1-7.41-3.78-9,.2-1.18-2.46a1.8,1.8,0,0,0-2.35-1h-.17a1.91,1.91,0,0,0-.9,2.53l.45.93-6,.12-1.19-2.51a1.89,1.89,0,1,0-3.42,1.63l.47,1-6,.13-1.23-2.57a1.9,1.9,0,0,0-3.43,1.63l.49,1-5.95.13-1.25-2.63a1.9,1.9,0,0,0-3.43,1.63l.51,1.09-6,.13-1.26-2.69a1.9,1.9,0,0,0-3.43,1.63l.55,1.15-6,.12-1.29-2.73a1.81,1.81,0,0,0-2.37-1l-.16.08h0a1.8,1.8,0,0,0-1,2.37h0a.38.38,0,0,1,0,.15l.58,1.19-4.51.11-.16-8.66c0-2.08-1.2-3.74-2.58-3.73Z"/><path class="cls-1" d="M1638.9,661.69c-1.39,0-2.48,1.81-2.42,3.84l.45,25.17c0,2.1,1.2,3.77,2.57,3.73h.64c1.37,0,2.46-1.81,2.42-3.83l-.16-8.64,8.08-.19,1.36,2.87a1.8,1.8,0,0,0,2.37,1l.14-.07a1.9,1.9,0,0,0,.91-2.51l-.64-1.33,6-.12,1.38,2.91a1.81,1.81,0,0,0,2.37,1l.15-.07a1.9,1.9,0,0,0,.9-2.52h0l-.65-1.37,6-.13,1.41,3a1.82,1.82,0,0,0,2.38,1l.14-.07a1.9,1.9,0,0,0,.9-2.52h0l-.69-1.43,6-.13,1.45,3a1.82,1.82,0,0,0,2.35,1h.17a2,2,0,0,0,.9-2.54l-.7-1.49,6-.12,1.47,3.08a1.81,1.81,0,0,0,2.37,1h.17a1.8,1.8,0,0,0,.94-2.38h0v-.13l-.73-1.54,6-.13,1.51,3.14a1.8,1.8,0,0,0,2.37.95l.14-.07a1.9,1.9,0,0,0,.91-2.51l-.76-1.6,5.43-.12,7.25-4.1-7.41-3.78-9.06.2-1.17-2.47a1.82,1.82,0,0,0-2.37-1h-.15a1.8,1.8,0,0,0-1,2.36l.08.17.46.92-6,.13-1.2-2.52a1.89,1.89,0,0,0-3.42,1.63l.47,1-6,.13-1.23-2.57a1.89,1.89,0,1,0-3.42,1.63l.49,1-6,.13-1.25-2.63a1.92,1.92,0,0,0-2.53-.91,1.81,1.81,0,0,0-1,2.38l.08.16.51,1.09-6,.12-1.27-2.68a1.89,1.89,0,0,0-3.42,1.63l.54,1.14-6,.13-1.28-2.73a1.9,1.9,0,0,0-2.54-.89h0a1.82,1.82,0,0,0-1,2.35v.17l.58,1.19-4.51.11-.16-8.66c0-2.08-1.19-3.75-2.57-3.73Z"/><path class="cls-1" d="M1541.45,399.11c-1.4,0-2.48,1.81-2.43,3.84l.45,25.18c0,2.1,1.2,3.76,2.58,3.73h.63c1.38,0,2.46-1.81,2.43-3.84l-.17-8.64,8.08-.18,1.36,2.86a1.81,1.81,0,0,0,2.38.95l.14-.06a1.9,1.9,0,0,0,.9-2.52l-.63-1.32,6-.13,1.37,2.92a1.81,1.81,0,0,0,2.38,1l.14-.07a1.89,1.89,0,0,0,.9-2.51h0l-.65-1.38,6-.13,1.41,3a1.82,1.82,0,0,0,2.38,1l.14-.07a1.91,1.91,0,0,0,.91-2.52h0l-.69-1.43,6-.12,1.45,3a1.82,1.82,0,0,0,2.36,1h.16a1.94,1.94,0,0,0,.91-2.54l-.71-1.48,6-.13,1.47,3.08a1.8,1.8,0,0,0,2.35,1h.18a1.82,1.82,0,0,0,1-2.38h0v-.13l-.72-1.54,6-.12,1.5,3.13a1.81,1.81,0,0,0,2.38.95l.14-.06a1.9,1.9,0,0,0,.9-2.52l-.76-1.59,5.44-.13,7.24-4.09-7.41-3.79-9.05.2-1.18-2.46a1.8,1.8,0,0,0-2.37-1h-.15a1.81,1.81,0,0,0-1,2.36.89.89,0,0,0,.08.17l.45.93-6,.12-1.19-2.51a1.9,1.9,0,1,0-3.43,1.63l.48,1-6,.12-1.23-2.57a1.9,1.9,0,1,0-3.43,1.63l.49,1-6,.13-1.25-2.63a1.91,1.91,0,0,0-2.53-.9,1.81,1.81,0,0,0-1,2.37l.08.16.51,1.09-6,.13-1.27-2.68a1.89,1.89,0,1,0-3.42,1.63l.54,1.14-6,.12-1.29-2.73a1.89,1.89,0,0,0-2.53-.89h0a1.81,1.81,0,0,0-1,2.36.43.43,0,0,0,0,.16l.58,1.19-4.51.11-.16-8.65c0-2.09-1.2-3.75-2.58-3.73Z"/><path class="cls-1" d="M1641,282c-1,1.27-11.88,14.94-29,14.49-16-.44-24.21-13-25.35-14.49Z"/><path class="cls-1" d="M1597.27,282l.23-18.11a10.2,10.2,0,0,1,4.53-2.72,15.75,15.75,0,0,1,10.87,0,13.59,13.59,0,0,1,9-1.81,13.4,13.4,0,0,1,7.25,3.62v19Z"/><line class="cls-1" x1="1613.24" y1="281.99" x2="1612.9" y2="261.16"/><polyline class="cls-1" points="1601 261.16 1600.22 201.39 1623.76 197.77 1623.76 259.76"/><path class="cls-1" d="M1600.85,201V149.16a20.3,20.3,0,0,1,22.28,0v48.3"/><line class="cls-1" x1="1600.85" y1="196.61" x2="1623.13" y2="192.92"/><line class="cls-1" x1="1600.85" y1="189.49" x2="1623.13" y2="185.8"/><line class="cls-1" x1="1600.85" y1="182.38" x2="1623.13" y2="178.68"/><line class="cls-1" x1="1600.85" y1="175.26" x2="1623.13" y2="171.56"/><line class="cls-1" x1="1600.85" y1="168.14" x2="1623.13" y2="164.45"/><line class="cls-1" x1="1600.85" y1="161.02" x2="1623.13" y2="157.33"/><line class="cls-1" x1="1600.85" y1="153.91" x2="1623.13" y2="150.21"/><path class="cls-1" d="M1721.47,338.33a21.85,21.85,0,0,0,7.25,15.76V340.87h41.65l6.81-2.81-6.81-2.52h-41.65V322A22,22,0,0,0,1721.47,338.33Z"/><path class="cls-1" d="M1671,113.35l-20.67.31c-1.17,0-2.1,1.56-2.08,3.46s1,3.41,2.19,3.39l7.25-.11.54,36.82-2.32,1.3a3.63,3.63,0,0,0-1.12,3.82c.34,1.56,1.43,2.4,2.41,1.82l1.14-.64.11,7.61-2.34,1.28a3.63,3.63,0,0,0-1.12,3.84c.36,1.56,1.43,2.4,2.41,1.82l1.14-.64.11,7.59-2.32,1.3a3.63,3.63,0,0,0-1.13,3.83c.35,1.57,1.44,2.4,2.39,1.81l1.16-.64.11,7.59-2.33,1.31a3.61,3.61,0,0,0-1.13,3.82c.37,1.57,1.43,2.41,2.41,1.81l1.14-.65.11,7.6-2.32,1.31a3.62,3.62,0,0,0-1.12,3.82c.34,1.57,1.43,2.39,2.39,1.81l1.14-.63v3.26l3.3,11.28,3-11.38-.11-6.62,2.34-1.31a3.63,3.63,0,0,0,1.12-3.82c-.36-1.57-1.43-2.41-2.41-1.81l-1.14.65-.11-7.61,2.34-1.3a3.61,3.61,0,0,0,1.1-3.82c-.34-1.58-1.41-2.39-2.39-1.81l-1.14.63-.11-7.6,2.32-1.31a3.59,3.59,0,0,0,1.12-3.82c-.34-1.56-1.43-2.39-2.4-1.81l-1.15.63-.1-7.59,2.33-1.3a3.63,3.63,0,0,0,1.13-3.84c-.37-1.56-1.44-2.39-2.41-1.81l-1.14.63-.11-7.59,2.32-1.3a3.63,3.63,0,0,0,1.12-3.82c-.35-1.58-1.43-2.41-2.39-1.81l-1.16.65-.49-33.45,7.24-.11c1.18,0,2.12-1.56,2.09-3.46S1672.19,113.34,1671,113.35Z"/><path class="cls-1" d="M1635.16,109.32a21.94,21.94,0,0,0-7.25-15.8v13.22l-41.66-.2-6.8,2.78,6.79,2.55,41.65.2v13.51A21.91,21.91,0,0,0,1635.16,109.32Z"/><path class="cls-1" d="M1660.73,93.52c-1.27-1-15-11.84-14.49-29,.38-16,12.91-24.25,14.49-25.35Z"/><path class="cls-1" d="M1660.6,49.82l18.11.18a10.62,10.62,0,0,1,2.74,4.51,15.87,15.87,0,0,1,0,10.87,13.85,13.85,0,0,1,1.81,9.05,13.61,13.61,0,0,1-3.62,7.25h-19Z"/><line class="cls-1" x1="1660.66" y1="65.79" x2="1681.48" y2="65.38"/><polyline class="cls-1" points="1681.45 53.48 1741.2 52.52 1744.89 76.05 1682.9 76.24"/><path class="cls-1" d="M1741.59,53.15l51.84-.16a20.3,20.3,0,0,1,0,22.28l-48.3.14"/><line class="cls-1" x1="1745.98" y1="53.13" x2="1749.75" y2="75.41"/><line class="cls-1" x1="1753.1" y1="53.12" x2="1756.86" y2="75.37"/><line class="cls-1" x1="1760.21" y1="53.1" x2="1763.98" y2="75.36"/><line class="cls-1" x1="1767.33" y1="53.06" x2="1771.1" y2="75.34"/><line class="cls-1" x1="1774.45" y1="53.04" x2="1778.22" y2="75.32"/><line class="cls-1" x1="1781.57" y1="53.03" x2="1785.33" y2="75.28"/><line class="cls-1" x1="1788.68" y1="53.01" x2="1792.45" y2="75.27"/><path class="cls-1" d="M1690.94,247.43l25.17-.29a3.79,3.79,0,0,0,3.75-3.82h0v-.92a3.76,3.76,0,0,0-3.8-3.73h0l-8.64.09-1.2-103.51-4.07-11.08-3.8,11.19,1.19,103.49-8.66.09a3.81,3.81,0,0,0-3.73,3.84v.92a3.77,3.77,0,0,0,3.81,3.73h0Z"/><path class="cls-1" d="M1804.86,363.34l25.17-.29a3.76,3.76,0,0,0,3.75-3.78v0h0v-.92a3.75,3.75,0,0,0-3.77-3.73h0l-8.64.09-1.22-103.51-4.05-11.08-3.83,11.19,1.22,103.49-8.66.09a3.81,3.81,0,0,0-3.75,3.84v.92a3.77,3.77,0,0,0,3.81,3.73h0Z"/><path class="cls-1" d="M1798.57,125.92c1.4,0,2.48-1.81,2.41-3.85l-.6-25.18c0-2.1-1.23-3.77-2.6-3.62h-.64c-1.37,0-2.44,1.81-2.39,3.86l.2,8.64-8.08.23-1.36-2.86a1.9,1.9,0,1,0-3.42,1.65l.65,1.32-6,.16-1.4-2.91A1.9,1.9,0,1,0,1772,105h0l.67,1.36-6,.16-1.43-3a1.9,1.9,0,1,0-3.42,1.65h0l.71,1.43-6,.16-1.47-3a1.81,1.81,0,0,0-2.37-1h-.16a1.94,1.94,0,0,0-.89,2.54l.72,1.48-6,.16-1.48-3.08a1.81,1.81,0,0,0-2.37-.94h-.17a1.8,1.8,0,0,0-.94,2.38h0v.15l.74,1.52-6,.16-1.53-3.11a1.89,1.89,0,0,0-2.53-.89,1.91,1.91,0,0,0-.89,2.54l.78,1.59-5.43.14-7.25,4.15,7.45,3.73,9-.25,1.18,2.46a1.81,1.81,0,0,0,2.37,1h.16a1.91,1.91,0,0,0,.89-2.53l-.47-.93,6-.16,1.21,2.52a1.9,1.9,0,0,0,3.42-1.65l-.48-1,6-.16,1.25,2.55a1.9,1.9,0,1,0,3.42-1.65h0l-.5-1,6-.16,1.26,2.62a1.9,1.9,0,0,0,3.43-1.64l-.53-1.09,6-.16,1.28,2.68a1.91,1.91,0,1,0,3.43-1.67h0l-.56-1.12,6-.17,1.31,2.72a1.81,1.81,0,0,0,2.38.95l.15-.08h0a1.81,1.81,0,0,0,1-2.37.38.38,0,0,0,0-.15l-.58-1.19,4.51-.13.22,8.66c0,2.08,1.21,3.73,2.59,3.71Z"/><rect class="cls-1" x="1745.8" y="149.41" width="46.84" height="19.42" rx="3.73"/><path class="cls-1" d="M1781.86,308.88a20.25,20.25,0,0,1-13.57,4.39A19.83,19.83,0,0,1,1757,308.9l-.15-140.07h24.87Z"/><line class="cls-1" x1="1781.66" y1="173.47" x2="1756.81" y2="177.69"/><line class="cls-1" x1="1781.66" y1="182.32" x2="1756.81" y2="186.54"/><line class="cls-1" x1="1781.68" y1="191.2" x2="1756.83" y2="195.42"/><line class="cls-1" x1="1781.68" y1="200.05" x2="1756.83" y2="204.27"/><line class="cls-1" x1="1781.69" y1="208.91" x2="1756.84" y2="213.13"/><line class="cls-1" x1="1781.69" y1="217.77" x2="1756.84" y2="221.99"/><line class="cls-1" x1="1781.71" y1="226.62" x2="1756.86" y2="230.84"/><line class="cls-1" x1="1781.71" y1="235.48" x2="1756.86" y2="239.7"/><line class="cls-1" x1="1781.73" y1="244.33" x2="1756.86" y2="248.55"/><line class="cls-1" x1="1781.73" y1="253.21" x2="1756.88" y2="257.43"/><line class="cls-1" x1="1781.75" y1="262.07" x2="1756.88" y2="266.29"/><line class="cls-1" x1="1781.75" y1="270.92" x2="1756.9" y2="275.14"/><line class="cls-1" x1="1781.77" y1="279.78" x2="1756.9" y2="284"/><line class="cls-1" x1="1781.77" y1="288.63" x2="1756.92" y2="292.85"/><line class="cls-1" x1="1781.78" y1="297.49" x2="1756.92" y2="301.71"/><line class="cls-1" x1="1781.78" y1="306.35" x2="1758.82" y2="310.26"/><rect class="cls-7" x="1597.59" y="43.02" width="19.42" height="46.84" rx="3.73" transform="translate(1526 1673.05) rotate(-89.47)"/><path class="cls-1" d="M1596.29-83.53a19.7,19.7,0,0,1,24.85.23l-1.31,140.07L1595,56.54Z"/><line class="cls-1" x1="1595.02" y1="51.87" x2="1619.92" y2="47.9"/><line class="cls-1" x1="1595.11" y1="43.01" x2="1620" y2="39.04"/><line class="cls-1" x1="1595.18" y1="34.15" x2="1620.09" y2="30.19"/><line class="cls-1" x1="1595.27" y1="25.3" x2="1620.16" y2="21.33"/><line class="cls-1" x1="1595.35" y1="16.44" x2="1620.25" y2="12.47"/><line class="cls-1" x1="1595.44" y1="7.58" x2="1620.32" y2="3.62"/><path class="cls-1" d="M1831.15,175.55a21.88,21.88,0,0,0-15.79,7.24h13.22l-.2,41.66,2.78,6.83,2.55-6.8.2-41.65h13.51A22,22,0,0,0,1831.15,175.55Z"/><path class="cls-1" d="M1903.36,349c-1,1.26-11.84,15-29,14.57-16-.38-24.27-12.91-25.36-14.48Z"/><path class="cls-1" d="M1859.73,349.16l.17-18.11a10.51,10.51,0,0,1,4.53-2.73,15.84,15.84,0,0,1,10.86,0,13.63,13.63,0,0,1,9.06-1.81,13.34,13.34,0,0,1,7.24,3.62v19Z"/><line class="cls-1" x1="1875.62" y1="349.11" x2="1875.22" y2="328.28"/><polyline class="cls-1" points="1863.32 328.32 1862.36 268.57 1885.89 264.87 1886.09 326.87"/><path class="cls-1" d="M1863,268.17l-.17-51.84a20.33,20.33,0,0,1,22.3,0l.14,48.31"/><line class="cls-1" x1="1862.98" y1="263.79" x2="1885.24" y2="260.02"/><line class="cls-1" x1="1862.94" y1="256.67" x2="1885.22" y2="252.9"/><line class="cls-1" x1="1862.92" y1="249.55" x2="1885.2" y2="245.78"/><line class="cls-1" x1="1862.9" y1="242.43" x2="1885.16" y2="238.67"/><line class="cls-1" x1="1862.89" y1="235.32" x2="1885.14" y2="231.55"/><line class="cls-1" x1="1862.87" y1="228.2" x2="1885.13" y2="224.43"/><line class="cls-1" x1="1862.83" y1="221.08" x2="1885.11" y2="217.31"/><path class="cls-1" d="M1935.8,211.19c0-1.39-1.81-2.48-3.84-2.41l-25.17.6c-2.1,0-3.77,1.23-3.62,2.61v.63c0,1.38,1.81,2.45,3.85,2.39l8.62-.2.24,8.06-2.84,1.38a1.9,1.9,0,1,0,1.64,3.42h0L1916,227l.16,6-2.92,1.39a1.9,1.9,0,0,0,1.65,3.42h0l1.38-.67.16,6-3,1.43a1.9,1.9,0,1,0,1.65,3.42h0l1.43-.7.16,6-3,1.46a1.81,1.81,0,0,0-1,2.37.49.49,0,0,0,0,.17,1.94,1.94,0,0,0,2.53.89l1.49-.73.16,6-3.08,1.48a1.82,1.82,0,0,0-.94,2.38.43.43,0,0,0,0,.16,1.81,1.81,0,0,0,2.37.94h.15l1.54-.74.16,6-3.13,1.52a1.9,1.9,0,1,0,1.66,3.42l1.58-.78.16,5.44,4.15,7.24,3.73-7.44-.25-9.06,2.46-1.18a1.81,1.81,0,0,0,1-2.37v-.16a1.92,1.92,0,0,0-2.54-.89l-.92.45-.16-5.95,2.5-1.22a1.9,1.9,0,0,0-1.65-3.42h0l-1,.49-.16-6,2.57-1.25a1.9,1.9,0,1,0-1.65-3.42l-1,.51-.16-6,2.62-1.27a1.9,1.9,0,1,0-1.67-3.42h0l-1.06.52-.17-6,2.67-1.29a1.92,1.92,0,1,0-1.73-3.42h0l-1.14.56-.16-6,2.74-1.3a1.92,1.92,0,0,0,.87-2.54h0a1.82,1.82,0,0,0-2.38-1h-.14l-1.2.6-.14-4.51,8.65-.22c2.09,0,3.75-1.21,3.63-2.59Z"/><rect class="cls-3" x="1852.85" y="392.77" width="46.84" height="19.42" rx="3.73" transform="translate(1456.45 2274.95) rotate(-89.47)"/><path class="cls-1" d="M1726.29,413.42a20.32,20.32,0,0,1-4.24-13.6,20.05,20.05,0,0,1,4.48-11.25l140.07,1.31-.24,24.84Z"/><line class="cls-1" x1="1861.71" y1="414.74" x2="1857.74" y2="389.84"/><line class="cls-1" x1="1852.85" y1="414.65" x2="1848.89" y2="389.77"/><line class="cls-1" x1="1844" y1="414.58" x2="1840.03" y2="389.68"/><line class="cls-1" x1="1835.14" y1="414.49" x2="1831.17" y2="389.6"/><line class="cls-1" x1="1826.26" y1="414.42" x2="1822.32" y2="389.51"/><line class="cls-1" x1="1817.41" y1="414.33" x2="1813.44" y2="389.44"/><line class="cls-1" x1="1808.55" y1="414.25" x2="1804.59" y2="389.35"/><line class="cls-1" x1="1799.7" y1="414.16" x2="1795.73" y2="389.26"/><line class="cls-1" x1="1790.84" y1="414.09" x2="1786.87" y2="389.19"/><line class="cls-1" x1="1781.98" y1="414" x2="1778.02" y2="389.1"/><line class="cls-1" x1="1773.13" y1="413.91" x2="1769.16" y2="389.03"/><line class="cls-1" x1="1764.27" y1="413.84" x2="1760.3" y2="388.93"/><line class="cls-1" x1="1755.4" y1="413.75" x2="1751.45" y2="388.86"/><line class="cls-1" x1="1746.54" y1="413.67" x2="1742.57" y2="388.77"/><line class="cls-1" x1="1737.68" y1="413.58" x2="1733.72" y2="388.7"/><line class="cls-1" x1="1728.83" y1="413.51" x2="1725.17" y2="390.51"/><path class="cls-1" d="M1830.65,27.43l20.66.31c1.18,0,2.1,1.58,2.09,3.46s-1,3.42-2.2,3.41L1844,34.5l-.54,36.82,2.31,1.28a3.61,3.61,0,0,1,1.13,3.84c-.35,1.56-1.43,2.39-2.39,1.81l-1.16-.63-.11,7.59,2.34,1.3a3.63,3.63,0,0,1,1.12,3.82c-.36,1.58-1.43,2.41-2.41,1.82l-1.14-.64L1843,99.1l2.32,1.3a3.65,3.65,0,0,1,1.12,3.83c-.34,1.57-1.43,2.4-2.39,1.81l-1.14-.65-.13,7.6,2.34,1.31a3.62,3.62,0,0,1,1.12,3.82c-.36,1.57-1.43,2.39-2.41,1.81l-1.14-.64-.11,7.61,2.32,1.29A3.61,3.61,0,0,1,1846,132c-.34,1.55-1.41,2.39-2.39,1.81l-1.14-.64v3.26l-3.29,11.29-3-11.38.11-6.63-2.33-1.3a3.62,3.62,0,0,1-1.13-3.82c.37-1.58,1.44-2.41,2.41-1.81l1.14.63.11-7.59-2.32-1.3a3.63,3.63,0,0,1-1.12-3.82c.35-1.58,1.43-2.41,2.39-1.81l1.14.65.13-7.61-2.34-1.3a3.63,3.63,0,0,1-1.12-3.82c.36-1.58,1.43-2.39,2.41-1.81l1.14.63.11-7.61-2.34-1.3a3.63,3.63,0,0,1-1.1-3.82c.34-1.56,1.41-2.39,2.39-1.81l1.14.63.11-7.59-2.32-1.3a3.62,3.62,0,0,1-1.12-3.82c.34-1.58,1.43-2.41,2.41-1.82l1.14.64.49-33.43-7.25-.11c-1.18,0-2.12-1.58-2.08-3.46S1829.45,27.43,1830.65,27.43Z"/><path class="cls-1" d="M1875.65-80a3.76,3.76,0,0,0-3.8,3.73h0v.92a3.82,3.82,0,0,0,3.73,3.84l8.66.11-1.32,103.49,3.8,11.19,4.08-11.08,1.32-103.51,8.64.11h0a3.76,3.76,0,0,0,3.8-3.73h0v-.92h0a3.77,3.77,0,0,0-3.71-3.83h0L1875.64-80Z"/><path class="cls-1" d="M1902.57,141.39c0-1.38-1.67-2.55-3.75-2.55l-8.66-.13.11-4.51,1.2.56a.33.33,0,0,0,.14,0,1.81,1.81,0,0,0,2.37-1h0a1.91,1.91,0,0,0-.9-2.53l-2.74-1.27.11-6,1.14.54a1.9,1.9,0,0,0,2.52-.91,1.88,1.88,0,0,0-.91-2.51l-2.68-1.27.11-6,1.09.51a1.89,1.89,0,1,0,1.63-3.42l-2.64-1.25.1-6,1,.49a1.9,1.9,0,0,0,1.63-3.43h0l-2.59-1.23.11-6,1,.48a1.89,1.89,0,1,0,1.61-3.43l-2.51-1.19.1-6,.93.45a1.91,1.91,0,0,0,2.53-.9v-.17a1.8,1.8,0,0,0-1-2.35l-2.47-1.18.17-9-3.81-7.39-4.07,7.24-.11,5.44-1.6-.76a1.89,1.89,0,0,0-1.61,3.42l3.14,1.5-.11,6-1.54-.72h-.15a1.81,1.81,0,0,0-2.37,1,.54.54,0,0,0,0,.18,1.81,1.81,0,0,0,1,2.35l3.08,1.47-.11,6-1.49-.71a1.91,1.91,0,0,0-2.53.92.38.38,0,0,0,0,.15,1.8,1.8,0,0,0,1,2.35l3,1.45-.11,6-1.43-.69h0a1.89,1.89,0,1,0-1.63,3.42l3,1.42-.11,6-1.38-.65h0a1.89,1.89,0,0,0-1.61,3.42l2.92,1.38-.11,6-1.32-.64a1.9,1.9,0,1,0-1.63,3.44l2.86,1.36-.16,8.08-8.64-.14c-2,0-3.83,1.06-3.83,2.44v.63c0,1.38,1.63,2.58,3.74,2.58l25.17.36c2,0,3.84-1,3.84-2.45Z"/><polygon class="cls-6" points="1875.36 184.24 1875.06 171.69 1885.76 165.13 1896.79 171.15 1897.12 183.7 1886.39 190.25 1875.36 184.24"/><polygon class="cls-6" points="1880.92 180.85 1880.76 174.81 1885.92 171.65 1891.25 174.53 1891.39 180.58 1886.23 183.75 1880.92 180.85"/><polygon class="cls-6" points="1744.09 -5.38 1743.79 -17.93 1754.49 -24.49 1765.52 -18.48 1765.85 -5.93 1755.12 0.63 1744.09 -5.38"/><polygon class="cls-6" points="1658.77 388.52 1668.14 372.65 1686.54 372.8 1695.61 388.84 1686.27 404.73 1667.83 404.56 1658.77 388.52"/><polygon class="cls-6" points="1668.32 388.63 1672.81 380.97 1681.68 381.06 1686.08 388.77 1681.57 396.41 1672.68 396.34 1668.32 388.63"/><path class="cls-1" d="M1824.36,746a3.76,3.76,0,0,0-3.73-3.8h-.92a3.8,3.8,0,0,0-3.84,3.73l-.11,8.65-103.49-1.32-11.19,3.81,11.08,4.07,103.51,1.32-.11,8.64h0a3.76,3.76,0,0,0,3.73,3.8h.93a3.78,3.78,0,0,0,3.82-3.74h0l.32-25.18Z"/><path class="cls-1" d="M1551.72,1166.32l-20.67-.31c-1.18,0-2.12-1.55-2.08-3.45s1-3.41,2.19-3.39l7.25.11.54-36.82-2.34-1.31a3.62,3.62,0,0,1-1.12-3.82c.36-1.57,1.43-2.39,2.41-1.81l1.14.63.11-7.6-2.32-1.29a3.63,3.63,0,0,1-1.12-3.84c.34-1.56,1.43-2.39,2.39-1.81l1.16.64.1-7.59-2.33-1.31a3.59,3.59,0,0,1-1.12-3.82c.36-1.57,1.43-2.41,2.4-1.81l1.15.63.1-7.58-2.31-1.31a3.62,3.62,0,0,1-1.13-3.82c.35-1.58,1.43-2.41,2.39-1.81l1.14.65.13-7.61-2.43-1.45a3.62,3.62,0,0,1-1.12-3.82c.36-1.57,1.43-2.39,2.41-1.81l1.14.64v-3.26l3.3-11.29,3,11.38v6.63l2.32,1.3a3.63,3.63,0,0,1,1.12,3.82c-.34,1.58-1.43,2.41-2.39,1.81l-1.14-.65-.13,7.61,2.34,1.3a3.63,3.63,0,0,1,1.12,3.82c-.36,1.58-1.43,2.39-2.41,1.81l-1.14-.63-.11,7.61L1548,1093a3.62,3.62,0,0,1,1.1,3.84c-.34,1.56-1.41,2.39-2.39,1.81l-1.14-.63-.12,7.59,2.33,1.3a3.62,3.62,0,0,1,1.13,3.82c-.37,1.58-1.44,2.41-2.41,1.81l-1.14-.63-.11,7.59,2.33,1.3a3.62,3.62,0,0,1,1.13,3.82c-.37,1.58-1.43,2.41-2.41,1.82l-1.14-.66-.51,33.45,7.24.11c1.18,0,2.11,1.56,2.09,3.46S1552.89,1166.34,1551.72,1166.32Z"/><path class="cls-1" d="M1747.79,677.28c-1.27,1-15,11.85-14.49,29,.38,16,12.91,24.25,14.49,25.36Z"/><path class="cls-1" d="M1747.64,721l18.12-.19a10.29,10.29,0,0,0,2.73-4.51,15.72,15.72,0,0,0,0-10.86,13.35,13.35,0,0,0-1.81-16.3h-19Z"/><line class="cls-1" x1="1747.7" y1="705.03" x2="1768.53" y2="705.43"/><polyline class="cls-1" points="1768.49 717.33 1828.26 718.29 1831.95 694.76 1769.96 694.56"/><path class="cls-1" d="M1828.64,717.69l51.85.16a20.28,20.28,0,0,0,0-22.27l-48.3-.15"/><line class="cls-1" x1="1833.04" y1="717.67" x2="1836.79" y2="695.41"/><line class="cls-1" x1="1840.16" y1="717.69" x2="1843.91" y2="695.43"/><line class="cls-1" x1="1847.27" y1="717.73" x2="1851.02" y2="695.45"/><line class="cls-1" x1="1854.39" y1="717.74" x2="1858.14" y2="695.47"/><line class="cls-1" x1="1861.51" y1="717.76" x2="1865.26" y2="695.49"/><line class="cls-1" x1="1868.63" y1="717.78" x2="1872.38" y2="695.52"/><line class="cls-1" x1="1875.74" y1="717.8" x2="1879.49" y2="695.54"/><path class="cls-1" d="M1899.25,569a3.76,3.76,0,0,0-3.8,3.73h0v.93a3.81,3.81,0,0,0,3.75,3.84l8.66.11-1.22,103.48,3.81,11.21,4-11.08,1.22-103.51,8.64.11h0a3.76,3.76,0,0,0,3.78-3.75h0v-.92h0a3.76,3.76,0,0,0-3.73-3.8h0l-25.17-.31Z"/><path class="cls-1" d="M1685.56,900c-1.38,0-2.59,1.63-2.59,3.71l-.22,8.66-4.51-.13.58-1.19a.38.38,0,0,0,0-.15,1.81,1.81,0,0,0-1-2.37h0a1.82,1.82,0,0,0-2.46.71,1.11,1.11,0,0,0-.07.16L1674,912.1l-6-.17.55-1.12a1.89,1.89,0,1,0-3.41-1.65l-1.28,2.66-6-.16.51-1.09a1.89,1.89,0,0,0-3.41-1.64h0l-1.26,2.62-5.93-.07.49-1a1.82,1.82,0,0,0-.71-2.46l-.16-.08a1.89,1.89,0,0,0-2.53.89l-1.25,2.55-6-.16.47-1a1.89,1.89,0,1,0-3.4-1.67l-1.22,2.52-6-.16.47-.93a1.91,1.91,0,0,0-.91-2.53H1627a1.82,1.82,0,0,0-2.38,1l-1.19,2.46-9.06-.25-7.42,3.73,7.24,4.15,5.44.14-.78,1.6a1.9,1.9,0,1,0,3.42,1.64l1.52-3.11,6,.16-.74,1.54v.13a1.8,1.8,0,0,0,.93,2.38h.17a1.82,1.82,0,0,0,2.39-.93h0L1634,919l6,.16-.73,1.49a1.89,1.89,0,0,0,.89,2.53h.14a1.82,1.82,0,0,0,2.38-1l1.46-3,6,.15-.69,1.43h0a1.91,1.91,0,0,0,.89,2.54,1.82,1.82,0,0,0,2.45-.75s0-.09.07-.14l1.43-2.95,6,.16-.65,1.38h0a1.82,1.82,0,0,0,.75,2.45l.14.06a1.8,1.8,0,0,0,2.45-.73.91.91,0,0,0,.07-.14l1.39-2.91,6,.16-.63,1.32a1.89,1.89,0,1,0,3.4,1.65h0l1.38-2.84,8.07.22-.21,8.63c0,2,1,3.86,2.41,3.86h.63c1.38,0,2.59-1.61,2.59-3.71l.62-25.18c0-2-1-3.83-2.41-3.85Z"/><path class="cls-1" d="M1651,1039.45c-1.38,0-2.59,1.63-2.61,3.72l-.2,8.65-4.51-.14.58-1.2v-.14a1.81,1.81,0,0,0-1-2.37h0a1.8,1.8,0,0,0-2.46.71l-.08.16-1.3,2.73-6-.16.55-1.14a1.91,1.91,0,0,0-.89-2.54,1.81,1.81,0,0,0-2.45.75.61.61,0,0,0-.07.14l-1.28,2.66-6-.16.51-1.07a1.9,1.9,0,1,0-3.41-1.67l-1.27,2.63-6-.16.49-1a1.89,1.89,0,0,0-3.4-1.65l-1.25,2.58-6-.17.47-1a1.89,1.89,0,1,0-3.4-1.65l-1.22,2.5-6-.17.45-.92a1.91,1.91,0,0,0-.89-2.54h-.14a1.82,1.82,0,0,0-2.37,1l-1.2,2.47-9.06-.26-7.42,3.75,7.24,4.13,5.44.17-.76,1.57a1.9,1.9,0,0,0,.88,2.54,1.83,1.83,0,0,0,2.46-.74l.06-.13,1.52-3.14,6,.17-.72,1.54a.33.33,0,0,0,0,.14,1.81,1.81,0,0,0,.94,2.37l.16.09a1.81,1.81,0,0,0,2.37-1l1.49-3.07,6,.16-.71,1.48a1.81,1.81,0,0,0,.73,2.46l.16.08h.14a1.82,1.82,0,0,0,2.38-1l1.46-3,6,.17-.69,1.43h0a1.81,1.81,0,0,0,.74,2.45l.13.06a1.8,1.8,0,0,0,2.46-.71l.08-.15,1.43-3,6,.17-.65,1.37h0a1.81,1.81,0,0,0,.72,2.46l.15.08a1.91,1.91,0,0,0,2.54-.89l1.39-2.91,6,.16-.63,1.32a1.8,1.8,0,0,0,.71,2.46l.15.08a1.91,1.91,0,0,0,2.54-.89l1.38-2.84,8.07.23-.21,8.62c0,2,1,3.86,2.41,3.86h.63c1.38,0,2.57-1.61,2.59-3.71l.6-25.18c0-2-1-3.84-2.39-3.84Z"/><path class="cls-1" d="M1744.85,835.77c1.27-1,15-11.84,14.49-29-.38-16-12.91-24.25-14.49-25.36Z"/><path class="cls-1" d="M1745,792.07l-18.11.18a10.48,10.48,0,0,0-2.72,4.51,15.87,15.87,0,0,0,0,10.87,13.32,13.32,0,0,0,1.81,16.3h19Z"/><line class="cls-1" x1="1744.95" y1="808.03" x2="1724.12" y2="807.63"/><polyline class="cls-1" points="1724.15 795.73 1664.39 794.77 1660.69 818.3 1722.69 818.5"/><path class="cls-1" d="M1664,795.4l-51.86-.16a20.29,20.29,0,0,0-3.36,11.23,20.65,20.65,0,0,0,3.29,11l48.3.14"/><line class="cls-1" x1="1659.61" y1="795.39" x2="1655.86" y2="817.65"/><line class="cls-1" x1="1652.49" y1="795.37" x2="1648.74" y2="817.63"/><line class="cls-1" x1="1645.37" y1="795.33" x2="1641.62" y2="817.61"/><line class="cls-1" x1="1638.25" y1="795.31" x2="1634.5" y2="817.59"/><line class="cls-1" x1="1631.13" y1="795.3" x2="1627.39" y2="817.55"/><line class="cls-1" x1="1624.02" y1="795.28" x2="1620.27" y2="817.54"/><line class="cls-1" x1="1616.9" y1="795.24" x2="1613.15" y2="817.52"/><path class="cls-1" d="M1910.45,882.72c-1,1.28-11.9,15-29,14.49-16-.42-24.23-13-25.36-14.49Z"/><path class="cls-1" d="M1866.74,882.72l.24-18.11a10.39,10.39,0,0,1,4.53-2.72,15.84,15.84,0,0,1,10.86,0,13.35,13.35,0,0,1,16.3,1.81v19Z"/><line class="cls-1" x1="1882.7" y1="882.72" x2="1882.37" y2="861.89"/><polyline class="cls-1" points="1870.46 861.91 1869.68 802.14 1893.22 798.52 1893.22 860.51"/><path class="cls-1" d="M1870.31,801.74V749.91a20.29,20.29,0,0,1,22.3,0v48.3"/><line class="cls-1" x1="1870.31" y1="797.36" x2="1892.61" y2="793.67"/><line class="cls-1" x1="1870.31" y1="790.24" x2="1892.61" y2="786.55"/><line class="cls-1" x1="1870.31" y1="783.13" x2="1892.61" y2="779.43"/><line class="cls-1" x1="1870.31" y1="776.01" x2="1892.61" y2="772.31"/><line class="cls-1" x1="1870.31" y1="768.89" x2="1892.61" y2="765.2"/><line class="cls-1" x1="1870.31" y1="761.77" x2="1892.61" y2="758.08"/><line class="cls-1" x1="1870.31" y1="754.65" x2="1892.61" y2="750.96"/><path class="cls-1" d="M1810.6,1048.71l-20.67.31c-1.17,0-2.12,1.55-2.08,3.46s1,3.4,2.19,3.38l7.25-.11.54,36.82-2.34,1.31a3.63,3.63,0,0,0-1.12,3.82c.36,1.56,1.43,2.39,2.41,1.81l1.14-.63.11,7.58-2.32,1.31a3.63,3.63,0,0,0-1.12,3.84c.34,1.56,1.43,2.39,2.39,1.81l1.16-.63.11,7.58-2.34,1.31a3.61,3.61,0,0,0-1.12,3.82c.36,1.58,1.43,2.41,2.41,1.81l1.14-.65.11,7.61-2.32,1.3a3.62,3.62,0,0,0-1.13,3.82c.35,1.58,1.44,2.39,2.4,1.81l1.14-.63.12,7.61-2.33,1.3a3.62,3.62,0,0,0-1.13,3.82c.37,1.56,1.43,2.39,2.41,1.81l1.14-.63v3.26L1802,1169l3-11.37V1151l2.32-1.31a3.61,3.61,0,0,0,1.13-3.82c-.35-1.57-1.44-2.41-2.4-1.81l-1.14.65-.12-7.6,2.33-1.31a3.61,3.61,0,0,0,1.13-3.82c-.37-1.57-1.43-2.41-2.41-1.81l-1.14.65-.11-7.6,2.33-1.31a3.61,3.61,0,0,0,1.11-3.82c-.35-1.56-1.41-2.39-2.39-1.81l-1.14.63-.11-7.6,2.32-1.29a3.63,3.63,0,0,0,1.12-3.84c-.34-1.56-1.43-2.39-2.41-1.81l-1.14.63-.11-7.58,2.34-1.31a3.63,3.63,0,0,0,1.12-3.82c-.36-1.58-1.43-2.41-2.41-1.81l-1.14.63-.51-33.43,7.25-.11c1.18,0,2.1-1.56,2.08-3.46S1811.78,1048.69,1810.6,1048.71Z"/><path class="cls-1" d="M1774.79,1044.67a21.87,21.87,0,0,0-7.24-15.79v13.22l-41.66-.2-6.83,2.77,6.8,2.55,41.65.2v13.51A22,22,0,0,0,1774.79,1044.67Z"/><path class="cls-1" d="M1800.33,1028.88c-1.27-1-15-11.85-14.49-29,.36-16,12.91-24.25,14.4-25.36Z"/><path class="cls-1" d="M1800.18,985.17l18.12.19a10.31,10.31,0,0,1,2.73,4.5,15.75,15.75,0,0,1,0,10.87,13.35,13.35,0,0,1-1.81,16.3h-19Z"/><line class="cls-1" x1="1800.24" y1="1001.13" x2="1821.07" y2="1000.73"/><polyline class="cls-1" points="1821.03 988.83 1880.8 987.87 1884.49 1011.4 1822.48 1011.6"/><path class="cls-1" d="M1881.18,988.51l51.85-.17a20.3,20.3,0,0,1,0,22.28l-48.32.15"/><line class="cls-1" x1="1885.58" y1="988.49" x2="1889.33" y2="1010.75"/><line class="cls-1" x1="1892.7" y1="988.47" x2="1896.45" y2="1010.73"/><line class="cls-1" x1="1899.81" y1="988.43" x2="1903.56" y2="1010.71"/><line class="cls-1" x1="1906.93" y1="988.42" x2="1910.68" y2="1010.69"/><line class="cls-1" x1="1914.05" y1="988.4" x2="1917.8" y2="1010.67"/><path class="cls-1" d="M1830.52,1182.79l25.18-.29a3.81,3.81,0,0,0,3.74-3.83h0v-1a3.77,3.77,0,0,0-3.78-3.73H1847l-1.21-103.5-4.06-11.09-3.82,11.2,1.21,103.48-8.66.09a3.8,3.8,0,0,0-3.74,3.84v.93a3.76,3.76,0,0,0,3.8,3.73h0Z"/><path class="cls-1" d="M1938.17,1061.28c1.4,0,2.47-1.81,2.39-3.86l-.59-25.17c0-2.11-1.22-3.77-2.59-3.63h-.64c-1.37,0-2.46,1.81-2.41,3.86l.22,8.64-8.08.22-1.37-2.85a1.9,1.9,0,0,0-2.54-.88,1.8,1.8,0,0,0-.94,2.38l.07.15.64,1.32-6,.17-1.39-2.92a1.82,1.82,0,0,0-2.39-.94l-.15.07a1.81,1.81,0,0,0-.93,2.39l.06.13h0l.65,1.38-6,.16-1.43-3a1.91,1.91,0,0,0-2.54-.89,1.82,1.82,0,0,0-1,2.38l.08.15h0l.69,1.44-6,.14-1.47-3a1.81,1.81,0,0,0-2.37-1h-.14a1.91,1.91,0,0,0-.89,2.54l.71,1.48-6,.17-1.49-3.08a1.81,1.81,0,0,0-2.37-.94H1882a1.81,1.81,0,0,0-1,2.38h0v.12l.73,1.54-6,.17-1.52-3.12a1.89,1.89,0,1,0-3.41,1.65l.77,1.59-5.44.15-7.24,4.15,7.42,3.73,9.06-.26,1.19,2.47a1.82,1.82,0,0,0,2.38,1h.14a1.91,1.91,0,0,0,.89-2.54l-.45-.92,6-.17,1.36,2.47a1.9,1.9,0,0,0,3.41-1.67l-.47-1,6-.16,1.25,2.55a1.82,1.82,0,0,0,2.38,1l.14-.07a1.91,1.91,0,0,0,.89-2.54l-.49-1,6-.16,1.26,2.62a1.89,1.89,0,0,0,3.41-1.64h0l-.51-1.09,6-.16,1.28,2.66a1.81,1.81,0,0,0,2.38,1l.14-.06a1.91,1.91,0,0,0,.89-2.54l-.54-1.12,6-.17,1.29,2.72a1.9,1.9,0,0,0,2.54.88h0a1.81,1.81,0,0,0,1-2.37v-.15l-.63-1.07,4.49-.12.22,8.66c0,2.08,1.23,3.73,2.61,3.71Z"/><rect class="cls-7" x="1737.17" y="978.37" width="19.42" height="46.84" rx="3.73" transform="translate(728.98 2739.33) rotate(-89.47)"/><path class="cls-1" d="M1735.87,851.82a19.72,19.72,0,0,1,24.85.22l-1.29,140.07-24.86-.22Z"/><line class="cls-1" x1="1734.62" y1="987.22" x2="1759.51" y2="983.25"/><line class="cls-1" x1="1734.69" y1="978.36" x2="1759.6" y2="974.4"/><line class="cls-1" x1="1734.79" y1="969.51" x2="1759.67" y2="965.54"/><line class="cls-1" x1="1734.86" y1="960.65" x2="1759.76" y2="956.69"/><line class="cls-1" x1="1734.95" y1="951.8" x2="1759.83" y2="947.83"/><line class="cls-1" x1="1735.02" y1="942.94" x2="1759.92" y2="938.97"/><line class="cls-1" x1="1735.11" y1="934.06" x2="1760" y2="930.12"/><line class="cls-1" x1="1735.18" y1="925.21" x2="1760.09" y2="921.24"/><line class="cls-1" x1="1735.27" y1="916.35" x2="1760.16" y2="912.39"/><line class="cls-1" x1="1735.35" y1="907.5" x2="1760.25" y2="903.53"/><line class="cls-1" x1="1735.44" y1="898.64" x2="1760.34" y2="894.67"/><line class="cls-1" x1="1735.51" y1="889.78" x2="1760.41" y2="885.82"/><line class="cls-1" x1="1735.6" y1="880.93" x2="1760.5" y2="876.96"/><line class="cls-1" x1="1735.69" y1="872.07" x2="1760.58" y2="868.1"/><line class="cls-1" x1="1735.76" y1="863.21" x2="1760.67" y2="859.25"/><line class="cls-1" x1="1735.85" y1="854.34" x2="1758.84" y2="850.68"/><path class="cls-1" d="M1788.21,941.29c0,1.4,1.81,2.48,3.84,2.43l25.18-.46c2.1,0,3.76-1.19,3.73-2.57v-.63c0-1.38-1.81-2.46-3.84-2.43l-8.64.17-.18-8.08,2.86-1.36a1.82,1.82,0,0,0,1-2.37,1,1,0,0,1-.07-.15,1.93,1.93,0,0,0-2.54-.9l-1.32.63-.13-6,2.92-1.37a1.81,1.81,0,0,0,1-2.37,1,1,0,0,0-.07-.15,1.92,1.92,0,0,0-2.53-.91h0l-1.38.66-.13-6,3-1.41a1.82,1.82,0,0,0,1-2.37,1,1,0,0,0-.07-.15,1.93,1.93,0,0,0-2.54-.91h0l-1.43.69-.12-6,3-1.45a1.82,1.82,0,0,0,1-2.36.43.43,0,0,0,0-.16,1.93,1.93,0,0,0-2.54-.91l-1.48.71-.13-6,3.08-1.47a1.81,1.81,0,0,0,1-2.35v-.18a1.81,1.81,0,0,0-2.36-1l-.18.08h-.14l-1.54.73-.13-6,3.14-1.5a1.81,1.81,0,0,0,1-2.37,1,1,0,0,0-.07-.15,1.91,1.91,0,0,0-2.53-.91l-1.6.76-.13-5.43-4.09-7.24-3.78,7.4.2,9.06-2.47,1.18a1.81,1.81,0,0,0-1,2.36h0a.33.33,0,0,1,0,.14,1.81,1.81,0,0,0,2.37,1l.17-.08.92-.45.13,6-2.52,1.2a1.89,1.89,0,0,0-.88,2.53,1.81,1.81,0,0,0,2.37,1l.14-.07,1-.47.13,6-2.57,1.23a1.89,1.89,0,0,0-.89,2.53,1.82,1.82,0,0,0,2.38,1l.14-.07,1-.49.12,6-2.62,1.25a1.94,1.94,0,0,0-.91,2.54,1.82,1.82,0,0,0,2.38,1l.16-.08,1.09-.5.12,6-2.68,1.27a1.91,1.91,0,0,0-.89,2.54,1.82,1.82,0,0,0,2.38,1l.14-.07,1.14-.54.13,6-2.74,1.28a1.9,1.9,0,0,0-.88,2.54h0a1.81,1.81,0,0,0,2.36,1h.15l1.2-.58.11,4.51-8.66.16c-2.08,0-3.75,1.2-3.73,2.57Z"/><rect class="cls-2" x="1848.81" y="916" width="19.42" height="46.84" rx="3.73" transform="translate(-0.98 1.95) rotate(-0.06)"/><path class="cls-1" d="M2008.52,927a20.28,20.28,0,0,1,4.38,13.56,20,20,0,0,1-4.36,11.3l-140.08.13V927.09Z"/><line class="cls-1" x1="1873.1" y1="927.07" x2="1877.32" y2="951.94"/><line class="cls-1" x1="1881.96" y1="927.07" x2="1886.18" y2="951.92"/><line class="cls-1" x1="1890.81" y1="927.06" x2="1895.03" y2="951.92"/><line class="cls-1" x1="1899.67" y1="927.06" x2="1903.89" y2="951.9"/><line class="cls-1" x1="1908.53" y1="927.04" x2="1912.76" y2="951.9"/><line class="cls-1" x1="1917.4" y1="927.04" x2="1921.62" y2="951.89"/><polygon class="cls-6" points="1691.44 1095.98 1675.72 1086.36 1676.19 1067.94 1692.39 1059.12 1708.09 1068.74 1707.64 1087.16 1691.44 1095.98"/><polygon class="cls-6" points="1691.68 1086.43 1684.11 1081.78 1684.33 1072.9 1692.13 1068.68 1699.7 1073.3 1699.47 1082.18 1691.68 1086.43"/><path class="cls-1" d="M1564.83,563.51l25.17-.33a3.8,3.8,0,0,0,3.75-3.82h0v-.92a3.76,3.76,0,0,0-3.78-3.75h-.09l-8.64.11-1.32-103.51-4.08-11.08L1572,451.4l1.32,103.49-8.66.11a3.81,3.81,0,0,0-3.73,3.84v.92a3.76,3.76,0,0,0,3.8,3.73h0Z"/><path class="cls-1" d="M1651.71,525.13c0-1.39-1.81-2.48-3.84-2.43l-25.18.46c-2.1,0-3.76,1.19-3.73,2.57v.63c0,1.38,1.81,2.47,3.84,2.43l8.64-.16.18,8.07-2.86,1.36a1.91,1.91,0,0,0-.89,2.54,1.81,1.81,0,0,0,2.38.95l.14-.06,1.32-.64.13,6-2.92,1.37a1.9,1.9,0,0,0-.88,2.54,1.79,1.79,0,0,0,2.37,1l.14-.06h0l1.38-.65.13,6-3,1.41a1.91,1.91,0,0,0-.89,2.54,1.82,1.82,0,0,0,2.38,1l.14-.07h0l1.43-.69.13,6-3,1.45a1.81,1.81,0,0,0-1,2.36h0V571a1.92,1.92,0,0,0,2.54.91l1.48-.71.13,6-3.08,1.47a1.81,1.81,0,0,0-1,2.37.43.43,0,0,0,0,.16,1.81,1.81,0,0,0,2.37,1h.15l1.54-.72.12,6-3.13,1.5a1.91,1.91,0,0,0-.89,2.54,1.82,1.82,0,0,0,2.38.95l.14-.07,1.6-.76.12,5.44,4.1,7.24,3.78-7.41-.2-9.05,2.46-1.18a1.81,1.81,0,0,0,1-2.37h0v-.15a1.91,1.91,0,0,0-2.53-.9l-.93.45-.12-6,2.51-1.19a1.9,1.9,0,1,0-1.63-3.43l-1,.48-.13-6,2.57-1.23a1.9,1.9,0,1,0-1.63-3.43h0l-1,.49-.13-6,2.63-1.24a1.9,1.9,0,0,0-1.63-3.43l-1.09.51-.13-6,2.69-1.27a1.89,1.89,0,0,0-1.63-3.42l-1.15.55-.12-6,2.73-1.29a1.89,1.89,0,0,0,.89-2.53h0a1.8,1.8,0,0,0-2.37-1h-.15l-1.19.58-.11-4.51,8.66-.16c2.08,0,3.74-1.2,3.73-2.58Z"/><path class="cls-1" d="M1633.47,501.75c-1.28-1-14.94-11.88-14.49-29,.42-16,13-24.23,14.49-25.35Z"/><path class="cls-1" d="M1633.47,458.05l18.11.23a10.6,10.6,0,0,1,2.72,4.53,15.87,15.87,0,0,1,0,10.87,13.35,13.35,0,0,1-1.81,16.3h-19Z"/><line class="cls-1" x1="1633.47" y1="474" x2="1654.3" y2="473.68"/><polyline class="cls-1" points="1654.3 461.78 1714.07 461 1717.69 484.54 1655.67 484.54"/><path class="cls-1" d="M1714.45,461.63h51.85a20.38,20.38,0,0,1,0,22.28H1718"/><line class="cls-1" x1="1718.83" y1="461.63" x2="1722.52" y2="483.91"/><line class="cls-1" x1="1725.95" y1="461.63" x2="1729.64" y2="483.91"/><line class="cls-1" x1="1733.06" y1="461.63" x2="1736.76" y2="483.91"/><line class="cls-1" x1="1740.18" y1="461.63" x2="1743.88" y2="483.91"/><line class="cls-1" x1="1747.3" y1="461.63" x2="1750.99" y2="483.91"/><line class="cls-1" x1="1754.42" y1="461.63" x2="1758.11" y2="483.91"/><line class="cls-1" x1="1761.54" y1="461.63" x2="1765.23" y2="483.91"/><path class="cls-1" d="M1577.2,582.25a21.94,21.94,0,0,0-15.76,7.25h13.22v41.65l2.81,6.8,2.52-6.8V589.5h13.51A22,22,0,0,0,1577.2,582.25Z"/><path class="cls-1" d="M1563.53,894.71a21.88,21.88,0,0,0-15.76,7.24H1561v41.66l2.81,6.81,2.51-6.81V902h13.52A22.07,22.07,0,0,0,1563.53,894.71Z"/><path class="cls-1" d="M1802.09,531.78l-.31-20.67c0-1.17-1.56-2.1-3.44-2.08s-3.43,1-3.41,2.19l.11,7.25-36.82.54-1.3-2.32a3.63,3.63,0,0,0-3.82-1.12c-1.56.34-2.39,1.43-1.82,2.39l.64,1.16-7.59.11-1.3-2.34a3.63,3.63,0,0,0-3.84-1.12c-1.56.36-2.39,1.43-1.81,2.41l.63,1.14-7.59.11-1.3-2.32a3.62,3.62,0,0,0-3.82-1.13c-1.58.35-2.41,1.44-1.82,2.4l.66,1.14-7.61.12-1.3-2.33a3.63,3.63,0,0,0-3.83-1.13c-1.57.37-2.39,1.43-1.81,2.41l.64,1.14-7.61.11-1.3-2.32a3.65,3.65,0,0,0-3.83-1.12c-1.55.35-2.39,1.41-1.81,2.39l.64,1.14h-3.26l-11.29,3.3,11.38,2.95,6.63-.11,1.3,2.34a3.63,3.63,0,0,0,3.82,1.12c1.58-.36,2.41-1.43,1.81-2.41l-.63-1.14,7.59-.11,1.3,2.32a3.6,3.6,0,0,0,3.82,1.12c1.58-.34,2.41-1.43,1.81-2.39l-.65-1.14,7.61-.12,1.3,2.33a3.62,3.62,0,0,0,3.82,1.13c1.56-.37,2.4-1.44,1.82-2.41l-.64-1.14,7.61-.11,1.28,2.33a3.63,3.63,0,0,0,3.84,1.11c1.56-.35,2.39-1.41,1.82-2.39l-.64-1.14,7.59-.11,1.3,2.32a3.65,3.65,0,0,0,3.83,1.12c1.57-.35,2.4-1.43,1.81-2.41l-.64-1.14,33.44-.49.1,7.24c0,1.18,1.56,2.12,3.46,2.09S1802.1,533,1802.09,531.78Z"/><path class="cls-1" d="M1700.55,731.4l-.3-20.67c0-1.17-1.56-2.11-3.46-2.08s-3.41,1-3.39,2.19l.11,7.25-36.82.54-1.3-2.34a3.65,3.65,0,0,0-3.83-1.12c-1.55.36-2.39,1.43-1.81,2.41l.64,1.14-7.61.11-1.29-2.32a3.62,3.62,0,0,0-3.84-1.12c-1.55.34-2.39,1.43-1.81,2.39l.64,1.16-7.59.11-1.3-2.34a3.65,3.65,0,0,0-3.83-1.12c-1.57.36-2.41,1.43-1.81,2.41l.65,1.14-7.6.11-1.31-2.32a3.61,3.61,0,0,0-3.82-1.12c-1.57.34-2.41,1.43-1.81,2.39l.65,1.14-7.6.12-1.31-2.33A3.59,3.59,0,0,0,1596,716c-1.56.36-2.39,1.43-1.81,2.4l.63,1.15h-3.26l-11.28,3.27,11.37,3,6.63-.1,1.31,2.32a3.62,3.62,0,0,0,3.82,1.13c1.57-.35,2.41-1.42,1.81-2.39l-.65-1.15,7.6-.12,1.31,2.33a3.62,3.62,0,0,0,3.82,1.13c1.58-.37,2.41-1.43,1.81-2.41l-.63-1.14,7.6-.11,1.31,2.33a3.62,3.62,0,0,0,3.82,1.13c1.56-.36,2.39-1.43,1.81-2.41l-.63-1.14,7.59-.11,1.3,2.32a3.63,3.63,0,0,0,3.84,1.12c1.56-.34,2.39-1.43,1.81-2.39l-.63-1.16,7.58-.11,1.31,2.34a3.63,3.63,0,0,0,3.82,1.12c1.58-.36,2.41-1.43,1.81-2.41l-.65-1.14,33.45-.51.11,7.25c0,1.18,1.56,2.1,3.46,2.08S1700.57,732.58,1700.55,731.4Z"/><path class="cls-1" d="M1806.13,496a21.88,21.88,0,0,0,15.79-7.24H1808.7l.2-41.66-2.77-6.81-2.56,6.79-.2,41.66h-13.51A22,22,0,0,0,1806.13,496Z"/><path class="cls-1" d="M1821.92,521.51c1-1.27,11.84-15,29-14.58,16,.38,24.25,12.91,25.35,14.49Z"/><path class="cls-1" d="M1865.62,521.38l-.18,18.11a10.62,10.62,0,0,1-4.51,2.74,15.87,15.87,0,0,1-10.87,0,13.37,13.37,0,0,1-16.3-1.81v-19Z"/><line class="cls-1" x1="1849.66" y1="521.42" x2="1850.06" y2="542.25"/><polyline class="cls-1" points="1861.96 542.21 1862.92 601.98 1839.4 605.67 1839.2 543.68"/><path class="cls-1" d="M1862.29,602.38l.16,51.83a20.3,20.3,0,0,1-22.28,0l-.14-48.3"/><line class="cls-1" x1="1862.31" y1="606.76" x2="1840.05" y2="610.53"/><line class="cls-1" x1="1862.32" y1="613.88" x2="1840.07" y2="617.64"/><line class="cls-1" x1="1862.36" y1="620.99" x2="1840.08" y2="624.76"/><line class="cls-1" x1="1862.38" y1="628.11" x2="1840.1" y2="631.88"/><line class="cls-1" x1="1862.4" y1="635.23" x2="1840.14" y2="639"/><line class="cls-1" x1="1862.41" y1="642.35" x2="1840.16" y2="646.11"/><line class="cls-1" x1="1862.43" y1="649.46" x2="1840.17" y2="653.23"/><path class="cls-1" d="M1668,551.7l.29,25.17a3.8,3.8,0,0,0,3.82,3.77h.92a3.78,3.78,0,0,0,3.74-3.8h0V568.2l103.5-1.2,11.08-4.07-11.19-3.8-103.49,1.19-.09-8.66a3.81,3.81,0,0,0-3.84-3.73h-.92a3.77,3.77,0,0,0-3.73,3.79Z"/><path class="cls-1" d="M1569.81,842.19l.29,25.17a3.8,3.8,0,0,0,3.82,3.75h.93a3.76,3.76,0,0,0,3.73-3.8h0v-8.64l103.5-1.2,11.09-4.05L1682,849.59l-103.5,1.2-.1-8.66a3.8,3.8,0,0,0-3.83-3.73h-1a3.76,3.76,0,0,0-3.73,3.8h0Z"/><path class="cls-1" d="M1789.52,659.35c0,1.4,1.81,2.47,3.85,2.41l25.18-.61c2.1,0,3.77-1.22,3.62-2.59v-.64c0-1.37-1.81-2.44-3.86-2.41l-8.63.22-.22-8.08,2.84-1.37a1.82,1.82,0,0,0,1-2.38l-.07-.14a1.91,1.91,0,0,0-2.54-.89l-1.32.64-.16-6,2.91-1.4a1.8,1.8,0,0,0,.94-2.38.54.54,0,0,0-.07-.13,1.81,1.81,0,0,0-2.37-1l-.14.07h0l-1.38.65-.16-6,2.95-1.43a1.9,1.9,0,1,0-1.65-3.42h0l-1.43.71-.15-6,3-1.47a1.81,1.81,0,0,0,1-2.37.43.43,0,0,0,0-.16,1.91,1.91,0,0,0-2.53-.89l-1.49.72-.16-6,3.08-1.48a1.81,1.81,0,0,0,.94-2.38h0v-.16a1.81,1.81,0,0,0-2.38-.95h-.14l-1.54.75-.16-6,3.11-1.52a1.9,1.9,0,0,0-1.64-3.43h0l-1.6.78-.14-5.43-4.15-7.25-3.73,7.43.25,9.06-2.46,1.19a1.81,1.81,0,0,0-1,2.37v.17a1.92,1.92,0,0,0,2.53.88l.93-.47.16,6L1798,608a1.91,1.91,0,0,0,1.67,3.43h0l1-.49.16,6-2.55,1.25a2,2,0,1,0,1.74,3.59h0l1-.51.16,6-2.62,1.27a1.9,1.9,0,0,0-.89,2.53,1.81,1.81,0,0,0,2.38.95l.15-.08,1.09-.5.16,6-2.66,1.29a1.91,1.91,0,0,0-.89,2.54,1.82,1.82,0,0,0,2.39.94l.15-.08,1.14-.54.15,6-2.72,1.3a1.82,1.82,0,0,0-1,2.38l.08.16h0a1.81,1.81,0,0,0,2.37,1h.15l1.19-.58.13,4.51-8.66.21c-2.08,0-3.73,1.22-3.62,2.59Z"/><rect class="cls-2" x="1746.83" y="606.65" width="19.42" height="46.84" rx="3.73" transform="translate(-0.66 1.84) rotate(-0.06)"/><path class="cls-1" d="M1606.56,642.56a20.22,20.22,0,0,1-4.39-13.56,19.8,19.8,0,0,1,4.37-11.28l140.07-.15v24.87Z"/><line class="cls-1" x1="1741.98" y1="642.44" x2="1737.76" y2="617.59"/><line class="cls-1" x1="1733.12" y1="642.44" x2="1728.9" y2="617.59"/><line class="cls-1" x1="1724.26" y1="642.46" x2="1720.04" y2="617.61"/><line class="cls-1" x1="1715.39" y1="642.46" x2="1711.17" y2="617.61"/><line class="cls-1" x1="1706.53" y1="642.47" x2="1702.31" y2="617.61"/><line class="cls-1" x1="1697.68" y1="642.47" x2="1693.46" y2="617.62"/><line class="cls-1" x1="1688.82" y1="642.49" x2="1684.6" y2="617.62"/><line class="cls-1" x1="1679.96" y1="642.49" x2="1675.74" y2="617.64"/><line class="cls-1" x1="1671.11" y1="642.51" x2="1666.89" y2="617.64"/><line class="cls-1" x1="1662.25" y1="642.51" x2="1658.03" y2="617.66"/><line class="cls-1" x1="1653.38" y1="642.53" x2="1649.16" y2="617.66"/><line class="cls-1" x1="1644.52" y1="642.53" x2="1640.3" y2="617.68"/><line class="cls-1" x1="1635.66" y1="642.55" x2="1631.44" y2="617.68"/><line class="cls-1" x1="1626.81" y1="642.55" x2="1622.59" y2="617.7"/><line class="cls-1" x1="1617.95" y1="642.56" x2="1613.73" y2="617.7"/><line class="cls-1" x1="1609.09" y1="642.56" x2="1605.18" y2="619.6"/><rect class="cls-8" x="1827.79" y="458.86" width="46.84" height="19.42" rx="3.73" transform="translate(1364.15 2315) rotate(-89.43)"/><path class="cls-1" d="M1999,457.05a19.74,19.74,0,0,1-.21,24.87l-140.08-1.31.22-24.85Z"/><line class="cls-1" x1="1863.57" y1="455.8" x2="1867.54" y2="480.7"/><line class="cls-1" x1="1872.43" y1="455.89" x2="1876.4" y2="480.78"/><line class="cls-1" x1="1881.29" y1="455.96" x2="1885.25" y2="480.87"/><line class="cls-1" x1="1890.14" y1="456.05" x2="1894.11" y2="480.94"/><line class="cls-1" x1="1899" y1="456.13" x2="1902.97" y2="481.03"/><line class="cls-1" x1="1907.86" y1="456.22" x2="1911.82" y2="481.1"/><line class="cls-1" x1="1916.73" y1="456.29" x2="1920.68" y2="481.19"/><polygon class="cls-6" points="1582.69 684.04 1582.38 671.49 1593.08 664.93 1604.11 670.94 1604.44 683.5 1593.72 690.05 1582.69 684.04"/><polygon class="cls-6" points="1588.25 680.65 1588.08 674.6 1593.25 671.45 1598.57 674.33 1598.71 680.38 1593.55 683.55 1588.25 680.65"/><polygon class="cls-6" points="1595.6 379.95 1595.29 367.4 1606 360.84 1617.03 366.86 1617.35 379.41 1606.63 385.96 1595.6 379.95"/><polygon class="cls-6" points="1601.16 376.56 1601 370.51 1606.16 367.36 1611.48 370.24 1611.63 376.29 1606.47 379.46 1601.16 376.56"/><polygon class="cls-6" points="1469.29 301.55 1478.66 285.68 1497.08 285.83 1506.13 301.87 1496.8 317.76 1478.37 317.59 1469.29 301.55"/><polygon class="cls-6" points="1478.86 301.64 1483.35 294 1492.22 294.07 1496.6 301.78 1492.1 309.43 1483.2 309.37 1478.86 301.64"/><polygon class="cls-6" points="1416.43 288.18 1416.14 275.63 1426.82 269.07 1437.87 275.09 1438.18 287.64 1427.47 294.19 1416.43 288.18"/><polygon class="cls-6" points="1422 284.8 1421.82 278.73 1427 275.58 1432.33 278.47 1432.47 284.5 1427.29 287.68 1422 284.8"/><polygon class="cls-6" points="1895.32 512.49 1902.17 501.97 1914.7 502.62 1920.39 513.81 1913.56 524.35 1901.01 523.68 1895.32 512.49"/><polygon class="cls-6" points="1901.83 512.85 1905.1 507.76 1911.15 508.09 1913.9 513.47 1910.61 518.54 1904.56 518.23 1901.83 512.85"/><polygon class="cls-6" points="1792.23 814.24 1801.6 798.38 1820 798.52 1829.07 814.57 1819.73 830.45 1801.31 830.29 1792.23 814.24"/><polygon class="cls-6" points="1801.78 814.33 1806.27 806.69 1815.14 806.76 1819.55 814.48 1815.04 822.12 1806.14 822.06 1801.78 814.33"/><path class="cls-1" d="M1314.73,815.2c0-1.39-1.81-2.48-3.84-2.43l-25.17.46c-2.1,0-3.77,1.19-3.73,2.57v.63c0,1.38,1.81,2.46,3.84,2.43l8.63-.16.19,8.07-2.87,1.36a1.81,1.81,0,0,0-1,2.37,1,1,0,0,0,.07.15,1.91,1.91,0,0,0,2.53.9l1.33-.63.12,6-2.91,1.37a1.82,1.82,0,0,0-1,2.37l.07.15a1.93,1.93,0,0,0,2.54.91h0l1.37-.65.13,6-3,1.41a1.82,1.82,0,0,0-1,2.37,1,1,0,0,1,.07.15,1.92,1.92,0,0,0,2.54.91h0l1.43-.69.13,6-3,1.44a1.82,1.82,0,0,0-1,2.36v.16a1.91,1.91,0,0,0,2.53.91l1.49-.71.12,6-3.08,1.47a1.81,1.81,0,0,0-1,2.37v.16a1.8,1.8,0,0,0,2.38.94h.14l1.54-.72.13,6-3.14,1.5a1.81,1.81,0,0,0-1,2.37,1,1,0,0,0,.07.15,1.9,1.9,0,0,0,2.53.9l1.6-.76.12,5.44,4.1,7.24,3.78-7.41-.2-9,2.47-1.18a1.81,1.81,0,0,0,1-2.36h0v-.15a1.91,1.91,0,0,0-2.53-.9l-.92.45-.13-6,2.52-1.19a1.9,1.9,0,0,0,.88-2.54,1.8,1.8,0,0,0-2.37-1,.61.61,0,0,0-.14.07l-1,.47-.13-6,2.57-1.23a1.91,1.91,0,0,0,.89-2.54,1.81,1.81,0,0,0-2.38-.95l-.14.07-1,.49-.13-6,2.63-1.25a1.94,1.94,0,0,0,.91-2.54,1.82,1.82,0,0,0-2.38-1l-.16.07-1.09.51-.12-6,2.68-1.26a1.91,1.91,0,0,0,.89-2.54,1.81,1.81,0,0,0-2.38-1l-.14.06-1.14.55-.13-6,2.73-1.29a1.89,1.89,0,0,0,.89-2.53h0a1.8,1.8,0,0,0-2.36-1h-.16l-1.19.58-.11-4.51,8.66-.16c2.08,0,3.75-1.2,3.73-2.57Z"/><path class="cls-1" d="M1296.48,791.8c-1.29-1-15-11.88-14.49-29,.41-16,13-24.21,14.49-25.35Z"/><path class="cls-1" d="M1296.48,748.1l18.11.23a10.68,10.68,0,0,1,2.71,4.53,15.75,15.75,0,0,1,0,10.87,13.85,13.85,0,0,1,1.81,9,13.54,13.54,0,0,1-3.62,7.25h-19Z"/><line class="cls-1" x1="1296.49" y1="764.07" x2="1317.32" y2="763.73"/><polyline class="cls-1" points="1317.32 751.83 1377.09 751.05 1380.71 774.6 1318.7 774.6"/><path class="cls-1" d="M1377.47,751.68h51.83a20.26,20.26,0,0,1,0,22.28H1381"/><line class="cls-1" x1="1381.85" y1="751.68" x2="1385.55" y2="773.96"/><line class="cls-1" x1="1388.97" y1="751.68" x2="1392.66" y2="773.96"/><line class="cls-1" x1="1396.09" y1="751.68" x2="1399.78" y2="773.96"/><line class="cls-1" x1="1403.2" y1="751.68" x2="1406.9" y2="773.96"/><line class="cls-1" x1="1410.32" y1="751.68" x2="1414.02" y2="773.96"/><line class="cls-1" x1="1417.44" y1="751.68" x2="1421.13" y2="773.96"/><line class="cls-1" x1="1424.56" y1="751.68" x2="1428.25" y2="773.96"/><path class="cls-1" d="M1465.11,821.85l-.31-20.67c0-1.18-1.56-2.12-3.46-2.08s-3.4,1-3.39,2.17l.11,7.25-36.82.54-1.3-2.34a3.63,3.63,0,0,0-3.82-1.12c-1.56.36-2.39,1.43-1.81,2.41l.63,1.14-7.59.11-1.3-2.32a3.63,3.63,0,0,0-3.84-1.12c-1.56.34-2.39,1.43-1.81,2.39l.63,1.14-7.59.13-1.3-2.34a3.63,3.63,0,0,0-3.82-1.12c-1.58.36-2.41,1.43-1.81,2.41l.65,1.14-7.61.11-1.3-2.34a3.61,3.61,0,0,0-3.82-1.1c-1.58.34-2.41,1.41-1.81,2.39l.65,1.14-7.61.11-1.3-2.32a3.62,3.62,0,0,0-3.82-1.13c-1.56.35-2.4,1.44-1.82,2.41l.64,1.14h-3.26l-11.29,3.3,11.38,3h6.63l1.3,2.32a3.6,3.6,0,0,0,3.82,1.12c1.58-.34,2.41-1.43,1.81-2.39l-.65-1.16,7.61-.1,1.3,2.33a3.6,3.6,0,0,0,3.82,1.12c1.58-.36,2.41-1.43,1.82-2.4l-.66-1.15,7.61-.1,1.3,2.31a3.63,3.63,0,0,0,3.83,1.13c1.55-.35,2.39-1.43,1.81-2.39l-.64-1.14,7.61-.13,1.28,2.34a3.63,3.63,0,0,0,3.84,1.12c1.56-.36,2.4-1.43,1.82-2.41l-.64-1.14,7.59-.11,1.3,2.34a3.64,3.64,0,0,0,3.83,1.1c1.57-.34,2.4-1.41,1.81-2.39l-.66-1.14,33.46-.51.1,7.25c0,1.19,1.56,2.12,3.46,2.1S1465.13,823,1465.11,821.85Z"/><path class="cls-1" d="M1420.7,984.88l-.31-20.66c0-1.18-1.56-2.12-3.46-2.08s-3.4,1-3.38,2.17l.1,7.24-36.82.57-1.3-2.34a3.61,3.61,0,0,0-3.82-1.12c-1.58.36-2.41,1.43-1.81,2.41l.65,1.14-7.61.11-1.3-2.32a3.62,3.62,0,0,0-3.82-1.13c-1.58.35-2.39,1.42-1.81,2.39l.63,1.15-7.61.12-1.3-2.33a3.62,3.62,0,0,0-3.82-1.13c-1.56.37-2.39,1.43-1.81,2.41l.63,1.14-7.59.11-1.3-2.33a3.61,3.61,0,0,0-3.82-1.11c-1.58.35-2.41,1.41-1.81,2.39l.63,1.14-7.59.11-1.3-2.32a3.63,3.63,0,0,0-3.82-1.12c-1.58.34-2.41,1.43-1.81,2.41L1315,973h-3.26l-11.29,3.3,11.38,2.95,6.63-.09,1.3,2.32a3.63,3.63,0,0,0,3.82,1.12c1.58-.35,2.39-1.43,1.81-2.39l-.63-1.16,7.61-.11,1.28,2.34a3.63,3.63,0,0,0,3.84,1.12c1.56-.36,2.39-1.43,1.81-2.41l-.63-1.14,7.59-.11,1.3,2.32a3.63,3.63,0,0,0,3.82,1.12c1.58-.34,2.41-1.43,1.81-2.39l-.63-1.14,7.59-.13,1.3,2.34a3.62,3.62,0,0,0,3.82,1.12c1.58-.36,2.41-1.43,1.81-2.41l-.65-1.14,7.61-.11,1.3,2.32a3.63,3.63,0,0,0,3.83,1.13c1.57-.35,2.39-1.42,1.81-2.39l-.64-1.15,33.45-.5.11,7.24c0,1.18,1.56,2.12,3.46,2.08S1420.72,986.06,1420.7,984.88Z"/><path class="cls-1" d="M1469.15,786a22,22,0,0,0,15.79-7.24h-13.22l.2-41.66-2.77-6.81-2.56,6.79-.2,41.66h-13.51A22,22,0,0,0,1469.15,786Z"/><path class="cls-1" d="M1484.94,811.58c1-1.29,11.85-15,29-14.58,16,.36,24.25,12.91,25.35,14.49Z"/><path class="cls-1" d="M1528.64,811.43l-.18,18.11a10.31,10.31,0,0,1-4.51,2.74,15.72,15.72,0,0,1-10.86,0,13.42,13.42,0,0,1-16.3-1.81v-19Z"/><line class="cls-1" x1="1512.69" y1="811.49" x2="1513.09" y2="832.32"/><polyline class="cls-1" points="1524.98 832.28 1525.94 892.05 1502.42 895.74 1502.22 833.73"/><path class="cls-1" d="M1525.31,892.43l.16,51.85a20.21,20.21,0,0,1-22.27,0l-.15-48.3"/><line class="cls-1" x1="1525.33" y1="896.83" x2="1503.07" y2="900.58"/><line class="cls-1" x1="1525.35" y1="903.95" x2="1503.09" y2="907.69"/><line class="cls-1" x1="1525.37" y1="911.04" x2="1503.11" y2="914.81"/><line class="cls-1" x1="1525.4" y1="918.16" x2="1503.12" y2="921.93"/><line class="cls-1" x1="1525.42" y1="925.28" x2="1503.14" y2="929.05"/><line class="cls-1" x1="1525.44" y1="932.4" x2="1503.18" y2="936.17"/><line class="cls-1" x1="1525.46" y1="939.52" x2="1503.2" y2="943.28"/><path class="cls-1" d="M1331,841.77l.29,25.17a3.8,3.8,0,0,0,3.82,3.75h.93a3.76,3.76,0,0,0,3.73-3.8h0l-.09-8.64,103.5-1.19L1454.3,853l-11.2-3.82-103.48,1.19v-8.65a3.81,3.81,0,0,0-3.84-3.74h-.93a3.77,3.77,0,0,0-3.73,3.81h0Z"/><path class="cls-1" d="M1320.73,1058.4l.3,25.17a3.79,3.79,0,0,0,3.83,3.75h.92a3.76,3.76,0,0,0,3.73-3.8h0l-.11-8.64,103.51-1.2,11.1-4-11.19-3.82L1329.33,1067l-.11-8.66a3.78,3.78,0,0,0-3.77-3.78h-.92a3.79,3.79,0,0,0-3.75,3.8Z"/><path class="cls-1" d="M1452.54,949.4c0,1.4,1.81,2.49,3.86,2.41l25.17-.59c2.1,0,3.77-1.22,3.62-2.59V948c0-1.37-1.81-2.46-3.85-2.41l-8.64.22-.22-8.08,2.84-1.37a1.9,1.9,0,0,0-1.64-3.43l-1.33.66-.16-6,2.92-1.4a1.9,1.9,0,0,0-1.65-3.42h0l-1.38.67-.16-6,2.95-1.43a1.89,1.89,0,0,0,.89-2.53,1.82,1.82,0,0,0-2.38-1l-.16.08h0l-1.43.69-.16-6,3-1.47a1.81,1.81,0,0,0,1-2.37.33.33,0,0,0,0-.14,1.89,1.89,0,0,0-2.53-.89l-1.49.7-.16-5.95,3.08-1.49a1.81,1.81,0,0,0,.94-2.37v-.16a1.81,1.81,0,0,0-2.38-1h-.15l-1.53.73-.16-6,3.12-1.52a1.89,1.89,0,0,0-1.65-3.41l-1.6.76-.14-5.43-4.15-7.24-3.73,7.42.25,9.06-2.46,1.19a1.81,1.81,0,0,0-1,2.37v.15a1.91,1.91,0,0,0,2.54.89l.92-.46.16,6L1461,898a1.82,1.82,0,0,0-.94,2.39.83.83,0,0,0,.07.13,1.89,1.89,0,0,0,2.53.89l1-.47.17,6-2.56,1.24a1.81,1.81,0,0,0-1,2.38l.06.14a1.91,1.91,0,0,0,2.54.89l1-.49.16,6-2.62,1.25a1.92,1.92,0,0,0-.89,2.55,1.82,1.82,0,0,0,2.38.95l.16-.08,1.08-.51.17,6-2.68,1.29a1.9,1.9,0,1,0,1.66,3.42l1.13-.56.16,6-2.72,1.3a1.9,1.9,0,0,0-.87,2.54v0h0a1.82,1.82,0,0,0,2.37,1h.15l1.2-.6.12,4.51-8.66.21c-2.08,0-3.73,1.22-3.62,2.59Z"/><rect class="cls-2" x="1409.83" y="896.72" width="19.42" height="46.84" rx="3.73" transform="translate(-0.96 1.49) rotate(-0.06)"/><path class="cls-1" d="M1269.58,932.63a20.21,20.21,0,0,1-4.38-13.58,19.89,19.89,0,0,1,4.36-11.28l140.07-.15v24.87Z"/><line class="cls-1" x1="1405" y1="932.49" x2="1400.78" y2="907.64"/><line class="cls-1" x1="1396.14" y1="932.51" x2="1391.92" y2="907.64"/><line class="cls-1" x1="1387.29" y1="932.51" x2="1383.05" y2="907.66"/><line class="cls-1" x1="1378.41" y1="932.52" x2="1374.19" y2="907.66"/><line class="cls-1" x1="1369.55" y1="932.52" x2="1365.33" y2="907.68"/><line class="cls-1" x1="1360.7" y1="932.54" x2="1356.48" y2="907.68"/><line class="cls-1" x1="1351.84" y1="932.54" x2="1347.62" y2="907.69"/><line class="cls-1" x1="1342.99" y1="932.56" x2="1338.77" y2="907.69"/><line class="cls-1" x1="1334.13" y1="932.56" x2="1329.91" y2="907.71"/><line class="cls-1" x1="1325.27" y1="932.58" x2="1321.03" y2="907.71"/><line class="cls-1" x1="1316.4" y1="932.58" x2="1312.18" y2="907.73"/><line class="cls-1" x1="1307.54" y1="932.6" x2="1303.32" y2="907.73"/><line class="cls-1" x1="1298.68" y1="932.6" x2="1294.47" y2="907.75"/><line class="cls-1" x1="1289.83" y1="932.6" x2="1285.61" y2="907.75"/><line class="cls-1" x1="1280.97" y1="932.62" x2="1276.75" y2="907.77"/><line class="cls-1" x1="1272.12" y1="932.62" x2="1268.2" y2="909.67"/><rect class="cls-8" x="1490.57" y="749.15" width="46.84" height="19.42" rx="3.73" transform="matrix(0.01, -1, 1, 0.01, 740.03, 2265.19)"/><path class="cls-1" d="M1662,747.12a20.22,20.22,0,0,1,4.25,13.6,19.87,19.87,0,0,1-4.49,11.25l-140-1.31.21-24.84Z"/><line class="cls-1" x1="1526.6" y1="745.85" x2="1530.56" y2="770.76"/><line class="cls-1" x1="1535.45" y1="745.94" x2="1539.42" y2="770.85"/><line class="cls-1" x1="1544.31" y1="746.03" x2="1548.28" y2="770.92"/><line class="cls-1" x1="1553.17" y1="746.11" x2="1557.13" y2="771.01"/><line class="cls-1" x1="1562.02" y1="746.2" x2="1565.99" y2="771.08"/><line class="cls-1" x1="1570.88" y1="746.27" x2="1574.84" y2="771.17"/><line class="cls-1" x1="1579.73" y1="746.36" x2="1583.7" y2="771.24"/><line class="cls-1" x1="1588.61" y1="746.43" x2="1592.58" y2="771.33"/><line class="cls-1" x1="1597.47" y1="746.52" x2="1601.43" y2="771.41"/><line class="cls-1" x1="1606.32" y1="746.6" x2="1610.29" y2="771.5"/><line class="cls-1" x1="1615.18" y1="746.69" x2="1619.15" y2="771.57"/><line class="cls-1" x1="1624.03" y1="746.76" x2="1628" y2="771.66"/><line class="cls-1" x1="1632.89" y1="746.85" x2="1636.86" y2="771.73"/><line class="cls-1" x1="1641.75" y1="746.92" x2="1645.71" y2="771.82"/><line class="cls-1" x1="1650.6" y1="747.01" x2="1654.57" y2="771.91"/><line class="cls-1" x1="1659.48" y1="747.1" x2="1663.14" y2="770.09"/><rect class="cls-2" x="1665.46" y="981.18" width="46.84" height="19.42" rx="3.73" transform="translate(696.22 2678.72) rotate(-89.94)"/><path class="cls-1" d="M1538.91,978.2a19.74,19.74,0,0,0,0,24.87l140.07.12V978.35Z"/><line class="cls-1" x1="1674.31" y1="978.35" x2="1670.09" y2="1003.19"/><line class="cls-1" x1="1665.46" y1="978.33" x2="1661.24" y2="1003.18"/><line class="cls-1" x1="1656.6" y1="978.33" x2="1652.38" y2="1003.18"/><line class="cls-1" x1="1647.74" y1="978.31" x2="1643.52" y2="1003.16"/><line class="cls-1" x1="1638.89" y1="978.31" x2="1634.67" y2="1003.16"/><line class="cls-1" x1="1630.03" y1="978.29" x2="1625.81" y2="1003.14"/><line class="cls-1" x1="1621.16" y1="978.29" x2="1616.94" y2="1003.14"/><line class="cls-1" x1="1612.3" y1="978.27" x2="1608.08" y2="1003.14"/><line class="cls-1" x1="1603.44" y1="978.27" x2="1599.22" y2="1003.12"/><line class="cls-1" x1="1594.59" y1="978.26" x2="1590.37" y2="1003.12"/><line class="cls-1" x1="1585.73" y1="978.26" x2="1581.51" y2="1003.1"/><line class="cls-1" x1="1576.87" y1="978.24" x2="1572.65" y2="1003.1"/><line class="cls-1" x1="1568.02" y1="978.24" x2="1563.8" y2="1003.09"/><line class="cls-1" x1="1559.14" y1="978.22" x2="1554.92" y2="1003.09"/><line class="cls-1" x1="1550.29" y1="978.22" x2="1546.07" y2="1003.07"/><line class="cls-1" x1="1541.43" y1="978.2" x2="1537.54" y2="1001.17"/><polygon class="cls-6" points="1245.71 974.09 1245.4 961.54 1256.11 954.98 1267.13 961 1267.46 973.55 1256.74 980.1 1245.71 974.09"/><polygon class="cls-6" points="1251.27 970.7 1251.11 964.65 1256.27 961.5 1261.59 964.38 1261.74 970.43 1256.58 973.6 1251.27 970.7"/><polygon class="cls-6" points="1558.35 802.56 1565.19 792.02 1577.72 792.67 1583.41 803.88 1576.58 814.4 1564.03 813.75 1558.35 802.56"/><polygon class="cls-6" points="1564.85 802.9 1568.13 797.83 1574.17 798.14 1576.93 803.54 1573.63 808.61 1567.58 808.3 1564.85 802.9"/><polygon class="cls-6" points="1368.87 717 1375.71 706.48 1388.24 707.13 1393.95 718.32 1387.12 728.86 1374.57 728.19 1368.87 717"/><polygon class="cls-6" points="1375.37 717.36 1378.66 712.27 1384.69 712.6 1387.47 717.98 1384.15 723.05 1378.1 722.74 1375.37 717.36"/><polygon class="cls-6" points="1359.09 1026.49 1368.43 1010.62 1386.85 1010.76 1395.91 1026.81 1386.58 1042.69 1368.14 1042.53 1359.09 1026.49"/><polygon class="cls-6" points="1368.63 1026.58 1373.12 1018.93 1382 1019.01 1386.38 1026.72 1381.87 1034.36 1372.98 1034.31 1368.63 1026.58"/><path class="cls-1" d="M1323.08,320.87l.31,20.67c0,1.17,1.57,2.12,3.46,2.08s3.4-1,3.38-2.19l-.09-7.25,36.81-.54,1.3,2.32a3.63,3.63,0,0,0,3.82,1.12c1.58-.34,2.41-1.41,1.81-2.39l-.65-1.14,7.61-.13,1.3,2.34a3.62,3.62,0,0,0,3.82,1.12c1.58-.36,2.39-1.43,1.81-2.41l-.63-1.14,7.61-.11,1.34,2.32a3.61,3.61,0,0,0,3.82,1.13c1.56-.37,2.39-1.44,1.81-2.41l-.63-1.14,7.58-.11,1.31,2.32a3.63,3.63,0,0,0,3.84,1.12c1.56-.35,2.39-1.43,1.81-2.39l-.63-1.16,7.58-.11,1.31,2.34a3.63,3.63,0,0,0,3.82,1.12c1.57-.36,2.41-1.43,1.81-2.41l-.65-1.14h3.26l11.28-3.28-11.1-2.93-6.63.09-1.3-2.34a3.63,3.63,0,0,0-3.82-1.12c-1.56.36-2.4,1.43-1.82,2.41l.64,1.14-7.61.11-1.28-2.32a3.63,3.63,0,0,0-3.84-1.12c-1.56.34-2.39,1.43-1.82,2.39l.64,1.16-7.59.1-1.3-2.33a3.63,3.63,0,0,0-3.83-1.13c-1.57.37-2.4,1.44-1.81,2.41l.66,1.14-7.61.11-1.3-2.31a3.63,3.63,0,0,0-3.83-1.13c-1.57.35-2.4,1.43-1.81,2.39l.65,1.14-7.6.13-1.31-2.34A3.62,3.62,0,0,0,1365,324c-1.55.36-2.39,1.43-1.81,2.41l.64,1.14-33.46.49v-7.24c0-1.18-1.57-2.11-3.46-2.09S1323.06,319.7,1323.08,320.87Z"/><path class="cls-1" d="M1281,160.57c0-1.39-1.81-2.48-3.84-2.43l-25.17.46c-2.11,0-3.77,1.19-3.74,2.57v.63c0,1.38,1.82,2.46,3.84,2.43l8.64-.16.18,8.07L1258,173.5a1.81,1.81,0,0,0-1,2.37,1,1,0,0,0,.07.15,1.91,1.91,0,0,0,2.53.91h0l1.33-.63.12,6-2.91,1.37a1.82,1.82,0,0,0-1,2.37,1,1,0,0,0,.07.15,1.9,1.9,0,0,0,2.53.91h0l1.37-.66.13,6-3,1.41a1.82,1.82,0,0,0-1,2.37l.07.15a1.91,1.91,0,0,0,2.54.91h0l1.43-.69.13,6-3,1.44a1.82,1.82,0,0,0-1,2.37h0v.14a1.92,1.92,0,0,0,2.54.91l1.48-.71.11,6-3.06,1.47a1.81,1.81,0,0,0-1,2.36h0a.86.86,0,0,0,.1.16,1.81,1.81,0,0,0,2.37,1h.14l1.54-.72.11,6-3.11,1.5a1.81,1.81,0,0,0-1,2.37,1,1,0,0,0,.07.15,1.9,1.9,0,0,0,2.53.9h0L1262,227l.11,5.44,4.09,7.24,3.79-7.41-.2-9.05,2.46-1.18a1.82,1.82,0,0,0,1-2.37h0a.38.38,0,0,0,0-.15,1.91,1.91,0,0,0-2.53-.91h0l-.92.45-.13-6,2.52-1.19a1.9,1.9,0,0,0-1.63-3.43l-1,.48-.12-6,2.59-1.23a1.9,1.9,0,0,0,.88-2.54,1.79,1.79,0,0,0-2.37-.95l-.14.06-1,.49-.12-6,2.62-1.25a1.89,1.89,0,1,0-1.63-3.42h0l-1.08.51-.13-6,2.68-1.27a1.9,1.9,0,0,0,.89-2.53,1.82,1.82,0,0,0-2.38-1l-.14.07-1.14.54-.13-6,2.74-1.29a1.89,1.89,0,0,0,.88-2.53h0a1.79,1.79,0,0,0-2.36-1h-.15l-1.2.58-.11-4.51,8.66-.16c2.08,0,3.73-1.2,3.73-2.58Z"/></svg>