<svg xmlns="http://www.w3.org/2000/svg" xmlns:xlink="http://www.w3.org/1999/xlink" width="166" zoomAndPan="magnify" viewBox="0 0 124.5 79.499998" height="106" preserveAspectRatio="xMidYMid meet" version="1.0"><defs><clipPath id="646075c944"><path d="M 29 0 L 95 0 L 95 79.003906 L 29 79.003906 Z M 29 0 " clip-rule="nonzero"/></clipPath></defs><path fill="#000000" d="M 46.445312 56.761719 C 46.445312 56.9375 46.414062 57.105469 46.347656 57.265625 C 46.277344 57.425781 46.183594 57.570312 46.0625 57.691406 C 45.9375 57.816406 45.796875 57.910156 45.636719 57.976562 C 45.476562 58.042969 45.308594 58.078125 45.132812 58.078125 C 44.960938 58.078125 44.792969 58.042969 44.632812 57.976562 C 44.472656 57.910156 44.332031 57.816406 44.207031 57.691406 C 44.085938 57.570312 43.988281 57.425781 43.921875 57.265625 C 43.855469 57.105469 43.824219 56.9375 43.824219 56.761719 C 43.824219 56.589844 43.855469 56.421875 43.921875 56.261719 C 43.988281 56.097656 44.085938 55.957031 44.207031 55.832031 C 44.332031 55.710938 44.472656 55.617188 44.632812 55.546875 C 44.792969 55.480469 44.960938 55.449219 45.132812 55.449219 C 45.308594 55.449219 45.476562 55.480469 45.636719 55.546875 C 45.796875 55.617188 45.9375 55.710938 46.0625 55.832031 C 46.183594 55.957031 46.277344 56.097656 46.347656 56.261719 C 46.414062 56.421875 46.445312 56.589844 46.445312 56.761719 Z M 46.445312 56.761719 " fill-opacity="1" fill-rule="nonzero"/><path fill="#000000" d="M 42.570312 44.199219 C 42.558594 44.023438 42.515625 43.859375 42.4375 43.703125 C 42.363281 43.546875 42.257812 43.410156 42.128906 43.292969 C 41.996094 43.179688 41.851562 43.09375 41.6875 43.039062 C 41.519531 42.980469 41.351562 42.957031 41.179688 42.96875 C 41.003906 42.980469 40.839844 43.023438 40.683594 43.101562 C 40.527344 43.179688 40.394531 43.28125 40.277344 43.414062 C 40.164062 43.542969 40.078125 43.691406 40.019531 43.855469 C 39.964844 44.023438 39.941406 44.191406 39.953125 44.367188 C 40.121094 47.238281 40.710938 50.023438 41.71875 52.71875 C 41.78125 52.882812 41.871094 53.027344 41.988281 53.15625 C 42.109375 53.28125 42.246094 53.382812 42.40625 53.453125 C 42.5625 53.527344 42.730469 53.5625 42.902344 53.570312 C 43.078125 53.574219 43.246094 53.546875 43.410156 53.484375 C 43.570312 53.425781 43.714844 53.335938 43.84375 53.214844 C 43.96875 53.097656 44.070312 52.957031 44.140625 52.796875 C 44.214844 52.640625 44.253906 52.472656 44.257812 52.296875 C 44.261719 52.125 44.234375 51.957031 44.175781 51.792969 C 43.257812 49.34375 42.722656 46.808594 42.570312 44.199219 Z M 42.570312 44.199219 " fill-opacity="1" fill-rule="nonzero"/><g clip-path="url(#646075c944)"><path fill="#000000" d="M 33.859375 34.664062 C 34.292969 34.949219 34.746094 35.199219 35.214844 35.417969 C 32.792969 51.597656 39.144531 60.804688 45.347656 68.160156 C 50.144531 73.847656 55.992188 77.042969 59.046875 78.445312 C 60 78.882812 61 79.101562 62.046875 79.109375 C 63.09375 79.113281 64.097656 78.90625 65.054688 78.480469 C 68.195312 77.082031 74.191406 73.878906 79.011719 68.160156 C 85.214844 60.804688 91.566406 51.597656 89.144531 35.414062 C 92.035156 34.105469 94.226562 31.402344 94.765625 28.394531 C 95.808594 22.589844 92.230469 16.835938 86.183594 14.699219 C 80.4375 12.695312 74.535156 11.464844 68.46875 11.007812 C 69.59375 9.976562 70.992188 9.445312 72.667969 9.445312 C 75.054688 9.445312 76.785156 7.660156 76.785156 5.199219 C 76.589844 2.203125 74.757812 0.0078125 71.171875 0.261719 C 64.074219 0.757812 60.699219 7.433594 59.328125 10.816406 C 51.851562 11.082031 44.746094 12.378906 38.175781 14.699219 C 32.128906 16.835938 28.519531 22.597656 29.589844 28.394531 C 30.0625 30.929688 31.578125 33.15625 33.859375 34.664062 Z M 77.007812 66.460938 C 72.523438 71.78125 66.925781 74.769531 63.988281 76.078125 C 63.375 76.351562 62.730469 76.484375 62.058594 76.480469 C 61.390625 76.476562 60.746094 76.332031 60.136719 76.054688 C 57.277344 74.746094 51.816406 71.757812 47.347656 66.460938 C 41.316406 59.308594 35.65625 51.0625 37.742188 36.25 C 39.4375 36.636719 41.132812 36.636719 42.828125 36.246094 C 48.84375 34.882812 55.367188 34.066406 62.132812 33.820312 C 68.988281 34.066406 75.515625 34.882812 81.53125 36.246094 C 83.222656 36.625 84.921875 36.632812 86.617188 36.269531 C 88.699219 51.066406 83.039062 59.308594 77.007812 66.460938 Z M 71.449219 2.875 C 72.953125 2.765625 74.148438 3.734375 74.160156 5.199219 C 74.164062 5.472656 74.089844 6.816406 72.667969 6.816406 C 69.503906 6.816406 66.953125 8.207031 65.214844 10.820312 C 64.21875 10.78125 63.214844 10.761719 62.207031 10.761719 C 63.675781 7.589844 66.425781 3.246094 71.449219 2.875 Z M 39.046875 17.179688 C 53.066406 12.128906 71.289062 12.128906 85.3125 17.179688 C 90.210938 18.910156 93.019531 23.320312 92.1875 27.914062 C 91.398438 32.269531 86.320312 34.6875 82.109375 33.679688 C 75.953125 32.210938 69.246094 31.445312 62.132812 31.191406 C 55.113281 31.445312 48.421875 32.285156 42.25 33.679688 C 38.050781 34.738281 32.941406 32.273438 32.171875 27.917969 C 31.320312 23.324219 34.148438 18.910156 39.046875 17.179688 Z M 39.046875 17.179688 " fill-opacity="1" fill-rule="nonzero"/></g><path fill="#000000" d="M 62.179688 22.582031 C 63.136719 22.585938 64.03125 22.347656 64.859375 21.867188 C 65.691406 21.386719 66.34375 20.730469 66.820312 19.898438 C 66.90625 19.746094 66.960938 19.585938 66.984375 19.410156 C 67.007812 19.238281 67 19.070312 66.953125 18.898438 C 66.910156 18.730469 66.835938 18.578125 66.730469 18.4375 C 66.625 18.300781 66.496094 18.1875 66.347656 18.097656 C 66.195312 18.011719 66.035156 17.957031 65.863281 17.933594 C 65.691406 17.910156 65.519531 17.917969 65.351562 17.964844 C 65.183594 18.007812 65.03125 18.082031 64.894531 18.1875 C 64.753906 18.292969 64.640625 18.421875 64.554688 18.570312 C 63.574219 20.390625 60.785156 20.390625 59.804688 18.570312 C 59.71875 18.421875 59.605469 18.292969 59.464844 18.1875 C 59.328125 18.082031 59.175781 18.007812 59.007812 17.964844 C 58.835938 17.917969 58.667969 17.910156 58.496094 17.933594 C 58.324219 17.957031 58.160156 18.011719 58.011719 18.097656 C 57.863281 18.1875 57.734375 18.300781 57.628906 18.4375 C 57.523438 18.578125 57.449219 18.730469 57.402344 18.898438 C 57.359375 19.070312 57.351562 19.238281 57.375 19.410156 C 57.398438 19.585938 57.453125 19.746094 57.539062 19.898438 C 58.015625 20.730469 58.667969 21.386719 59.5 21.867188 C 60.328125 22.347656 61.222656 22.585938 62.179688 22.582031 Z M 62.179688 22.582031 " fill-opacity="1" fill-rule="nonzero"/><path fill="#000000" d="M 52.550781 28.902344 C 53.417969 28.902344 54.230469 28.6875 54.980469 28.253906 C 55.734375 27.816406 56.324219 27.222656 56.757812 26.46875 C 56.84375 26.316406 56.902344 26.15625 56.925781 25.980469 C 56.949219 25.808594 56.941406 25.636719 56.898438 25.46875 C 56.851562 25.296875 56.777344 25.144531 56.671875 25.003906 C 56.566406 24.863281 56.441406 24.75 56.289062 24.664062 C 56.136719 24.574219 55.976562 24.519531 55.804688 24.496094 C 55.628906 24.472656 55.457031 24.484375 55.289062 24.527344 C 55.121094 24.574219 54.96875 24.648438 54.828125 24.757812 C 54.691406 24.863281 54.578125 24.992188 54.492188 25.144531 C 53.691406 26.632812 51.414062 26.632812 50.613281 25.144531 C 50.523438 24.992188 50.410156 24.863281 50.273438 24.757812 C 50.136719 24.652344 49.980469 24.578125 49.8125 24.535156 C 49.644531 24.488281 49.476562 24.476562 49.300781 24.5 C 49.128906 24.523438 48.96875 24.582031 48.816406 24.667969 C 48.667969 24.757812 48.539062 24.871094 48.433594 25.007812 C 48.328125 25.148438 48.253906 25.300781 48.210938 25.46875 C 48.164062 25.636719 48.15625 25.808594 48.179688 25.980469 C 48.203125 26.15625 48.257812 26.316406 48.347656 26.46875 C 48.777344 27.222656 49.367188 27.816406 50.121094 28.253906 C 50.871094 28.6875 51.683594 28.902344 52.550781 28.902344 Z M 52.550781 28.902344 " fill-opacity="1" fill-rule="nonzero"/><path fill="#000000" d="M 71.808594 28.902344 C 72.675781 28.902344 73.484375 28.6875 74.238281 28.253906 C 74.988281 27.816406 75.582031 27.222656 76.011719 26.46875 C 76.101562 26.316406 76.15625 26.15625 76.179688 25.984375 C 76.203125 25.808594 76.191406 25.640625 76.148438 25.472656 C 76.105469 25.300781 76.027344 25.148438 75.921875 25.011719 C 75.816406 24.871094 75.691406 24.757812 75.539062 24.671875 C 75.390625 24.582031 75.226562 24.527344 75.054688 24.503906 C 74.882812 24.480469 74.714844 24.492188 74.546875 24.535156 C 74.378906 24.578125 74.222656 24.65625 74.085938 24.761719 C 73.945312 24.867188 73.835938 24.992188 73.746094 25.144531 C 72.945312 26.632812 70.667969 26.628906 69.867188 25.144531 C 69.78125 24.996094 69.667969 24.867188 69.527344 24.765625 C 69.390625 24.660156 69.238281 24.585938 69.070312 24.542969 C 68.902344 24.5 68.730469 24.488281 68.558594 24.511719 C 68.390625 24.535156 68.226562 24.589844 68.078125 24.679688 C 67.929688 24.765625 67.800781 24.878906 67.695312 25.015625 C 67.59375 25.15625 67.515625 25.308594 67.472656 25.476562 C 67.429688 25.644531 67.417969 25.8125 67.441406 25.984375 C 67.460938 26.15625 67.515625 26.320312 67.601562 26.46875 C 68.035156 27.222656 68.625 27.820312 69.378906 28.253906 C 70.128906 28.6875 70.941406 28.902344 71.808594 28.902344 Z M 71.808594 28.902344 " fill-opacity="1" fill-rule="nonzero"/><path fill="#000000" d="M 82.070312 25.277344 C 83.011719 25.445312 83.933594 25.363281 84.832031 25.035156 C 85.730469 24.707031 86.488281 24.175781 87.101562 23.441406 C 87.214844 23.308594 87.296875 23.15625 87.351562 22.992188 C 87.402344 22.824219 87.421875 22.65625 87.410156 22.480469 C 87.394531 22.308594 87.347656 22.144531 87.269531 21.988281 C 87.1875 21.835938 87.082031 21.699219 86.949219 21.589844 C 86.816406 21.476562 86.667969 21.394531 86.503906 21.339844 C 86.335938 21.285156 86.167969 21.265625 85.996094 21.28125 C 85.820312 21.296875 85.65625 21.34375 85.503906 21.421875 C 85.347656 21.5 85.214844 21.609375 85.101562 21.742188 C 83.820312 23.363281 81.074219 22.875 80.425781 20.914062 C 80.363281 20.75 80.277344 20.605469 80.15625 20.476562 C 80.039062 20.347656 79.902344 20.25 79.746094 20.175781 C 79.585938 20.101562 79.421875 20.0625 79.246094 20.054688 C 79.074219 20.050781 78.90625 20.074219 78.742188 20.136719 C 78.578125 20.195312 78.433594 20.285156 78.304688 20.402344 C 78.179688 20.523438 78.078125 20.660156 78.003906 20.820312 C 77.933594 20.976562 77.890625 21.144531 77.886719 21.316406 C 77.878906 21.492188 77.90625 21.660156 77.964844 21.824219 C 78.289062 22.726562 78.820312 23.488281 79.550781 24.105469 C 80.285156 24.722656 81.125 25.113281 82.070312 25.277344 Z M 82.070312 25.277344 " fill-opacity="1" fill-rule="nonzero"/><path fill="#000000" d="M 41.339844 25.359375 C 41.894531 25.359375 42.433594 25.277344 42.957031 25.113281 C 43.484375 24.949219 43.972656 24.707031 44.425781 24.390625 C 44.878906 24.074219 45.273438 23.699219 45.609375 23.261719 C 45.945312 22.820312 46.207031 22.34375 46.394531 21.824219 C 46.453125 21.660156 46.480469 21.492188 46.472656 21.316406 C 46.46875 21.140625 46.425781 20.976562 46.355469 20.816406 C 46.28125 20.660156 46.179688 20.519531 46.054688 20.402344 C 45.925781 20.285156 45.78125 20.195312 45.617188 20.136719 C 45.453125 20.074219 45.285156 20.046875 45.113281 20.054688 C 44.9375 20.0625 44.773438 20.101562 44.613281 20.175781 C 44.457031 20.25 44.320312 20.347656 44.199219 20.476562 C 44.082031 20.605469 43.992188 20.75 43.933594 20.914062 C 43.28125 22.875 40.539062 23.363281 39.257812 21.742188 C 39.144531 21.609375 39.011719 21.5 38.855469 21.421875 C 38.703125 21.339844 38.539062 21.292969 38.363281 21.28125 C 38.191406 21.265625 38.019531 21.285156 37.855469 21.339844 C 37.691406 21.390625 37.542969 21.472656 37.410156 21.585938 C 37.277344 21.699219 37.167969 21.832031 37.089844 21.988281 C 37.011719 22.144531 36.964844 22.308594 36.949219 22.480469 C 36.933594 22.65625 36.953125 22.824219 37.007812 22.992188 C 37.058594 23.15625 37.144531 23.308594 37.253906 23.441406 C 37.761719 24.046875 38.371094 24.519531 39.085938 24.855469 C 39.800781 25.191406 40.550781 25.359375 41.339844 25.359375 Z M 41.339844 25.359375 " fill-opacity="1" fill-rule="nonzero"/></svg>