<svg id="Layer_1" data-name="Layer 1" xmlns="http://www.w3.org/2000/svg" xmlns:xlink="http://www.w3.org/1999/xlink" width="1242" height="2208" viewBox="0 0 1242 2208"><defs><style>.cls-1{fill:none;}.cls-2{fill:#ffe401;}.cls-3{clip-path:url(#clip-path);}.cls-4{fill:#ffcd00;stroke:#ffcd00;}.cls-4,.cls-5{stroke-miterlimit:10;}.cls-5{stroke:#000;}.cls-6{clip-path:url(#clip-path-2);}</style><clipPath id="clip-path"><polygon class="cls-1" points="1468.77 88.43 -148.91 88.24 -142.68 0.34 1475 0.53 1468.77 88.43"/></clipPath><clipPath id="clip-path-2"><polygon class="cls-1" points="1468.89 2207.92 -148.79 2207.74 -142.57 2119.83 1475.12 2120.02 1468.89 2207.92"/></clipPath></defs><rect class="cls-2" x="0.5" y="0.5" width="1241" height="2207.26"/><path class="cls-2" d="M1241,1V2207.26H1V1H1241m1-1H0V2208.26H1242V0Z"/><g class="cls-3"><polygon class="cls-4" points="1469.72 90.06 -147.96 89.87 -141.74 1.97 1475.94 2.15 1469.72 90.06"/><polygon class="cls-5" points="251.53 -343.88 -329.53 331.32 -348.6 290.41 232.46 -384.78 251.53 -343.88"/><polygon class="cls-5" points="374.5 -343.86 -206.56 331.34 -225.63 290.43 355.43 -384.77 374.5 -343.86"/><polygon class="cls-5" points="497.47 -343.85 -83.59 331.35 -102.67 290.44 478.4 -384.75 497.47 -343.85"/><polygon class="cls-5" points="620.44 -343.83 39.38 331.37 20.3 290.46 601.37 -384.74 620.44 -343.83"/><polygon class="cls-5" points="743.41 -343.82 162.34 331.38 143.27 290.47 724.34 -384.73 743.41 -343.82"/><polygon class="cls-5" points="866.38 -343.8 285.31 331.39 266.24 290.48 847.31 -384.71 866.38 -343.8"/><polygon class="cls-5" points="989.35 -343.79 408.28 331.41 389.21 290.5 970.27 -384.7 989.35 -343.79"/><polygon class="cls-5" points="1112.32 -343.78 531.25 331.42 512.18 290.51 1093.24 -384.69 1112.32 -343.78"/><polygon class="cls-5" points="1235.29 -343.76 654.22 331.44 635.15 290.53 1216.21 -384.67 1235.29 -343.76"/><polygon class="cls-5" points="1358.26 -343.75 777.19 331.45 758.12 290.54 1339.18 -384.66 1358.26 -343.75"/><polygon class="cls-5" points="1481.22 -343.73 900.16 331.46 881.09 290.56 1462.15 -384.64 1481.22 -343.73"/><polygon class="cls-5" points="1604.19 -343.72 1023.13 331.48 1004.06 290.57 1585.12 -384.63 1604.19 -343.72"/><polygon class="cls-5" points="1727.16 -343.71 1146.1 331.49 1127.03 290.58 1708.09 -384.62 1727.16 -343.71"/></g><g class="cls-6"><polygon class="cls-4" points="1469.83 2209.55 -147.85 2209.36 -141.62 2121.46 1476.06 2121.64 1469.83 2209.55"/><polygon class="cls-5" points="251.65 1775.62 -329.42 2450.82 -348.49 2409.91 232.57 1734.71 251.65 1775.62"/><polygon class="cls-5" points="374.62 1775.63 -206.45 2450.83 -225.52 2409.92 355.54 1734.72 374.62 1775.63"/><polygon class="cls-5" points="497.58 1775.64 -83.48 2450.84 -102.55 2409.93 478.51 1734.74 497.58 1775.64"/><polygon class="cls-5" points="620.55 1775.66 39.49 2450.86 20.42 2409.95 601.48 1734.75 620.55 1775.66"/><polygon class="cls-5" points="743.52 1775.67 162.46 2450.87 143.39 2409.96 724.45 1734.76 743.52 1775.67"/><polygon class="cls-5" points="866.49 1775.69 285.43 2450.89 266.36 2409.98 847.42 1734.78 866.49 1775.69"/><polygon class="cls-5" points="989.46 1775.7 408.4 2450.9 389.33 2409.99 970.39 1734.79 989.46 1775.7"/><polygon class="cls-5" points="1112.43 1775.71 531.37 2450.91 512.3 2410 1093.36 1734.81 1112.43 1775.71"/><polygon class="cls-5" points="1235.4 1775.73 654.34 2450.93 635.27 2410.02 1216.33 1734.82 1235.4 1775.73"/><polygon class="cls-5" points="1358.37 1775.74 777.31 2450.94 758.24 2410.03 1339.3 1734.84 1358.37 1775.74"/><polygon class="cls-5" points="1481.34 1775.76 900.28 2450.95 881.2 2410.05 1462.27 1734.85 1481.34 1775.76"/><polygon class="cls-5" points="1604.31 1775.77 1023.25 2450.97 1004.17 2410.06 1585.24 1734.86 1604.31 1775.77"/><polygon class="cls-5" points="1727.28 1775.79 1146.21 2450.98 1127.14 2410.07 1708.21 1734.88 1727.28 1775.79"/></g></svg>