<svg id="Layer_1" data-name="Layer 1" xmlns="http://www.w3.org/2000/svg" xmlns:xlink="http://www.w3.org/1999/xlink" width="7580" height="4263.75" viewBox="0 0 7580 4263.75"><defs><style>.cls-1{fill:none;}.cls-2{clip-path:url(#clip-path);}.cls-3{fill:#ffe401;stroke:#ffe401;}.cls-3,.cls-4{stroke-linecap:round;stroke-linejoin:round;stroke-width:32.65px;}.cls-4{stroke:#000;}</style><clipPath id="clip-path"><rect class="cls-1" x="0.5" y="0.4" width="7579" height="4263"/></clipPath></defs><g class="cls-2"><rect class="cls-3" width="7580" height="4263.75"/><rect class="cls-4" x="40.68" y="-3674.12" width="350" height="8551.63" transform="matrix(0.78, 0.63, -0.63, 0.78, 427.84, -1.25)"/><rect class="cls-4" x="-526.32" y="-4002.12" width="350" height="8551.63" transform="matrix(0.78, 0.63, -0.63, 0.78, 93.93, 282.91)"/><rect class="cls-4" x="572.68" y="-3284.12" width="350" height="8551.63" transform="matrix(0.78, 0.63, -0.63, 0.78, 793.02, -249.44)"/><rect class="cls-4" x="1142.68" y="-2865.12" width="350" height="8551.63" transform="matrix(0.78, 0.63, -0.63, 0.78, 1185, -515.11)"/><rect class="cls-4" x="1712.68" y="-2446.12" width="350" height="8551.63" transform="matrix(0.78, 0.63, -0.63, 0.78, 1576.98, -780.78)"/><rect class="cls-4" x="2282.68" y="-2027.12" width="350" height="8551.63" transform="matrix(0.78, 0.63, -0.63, 0.78, 1968.96, -1046.45)"/><rect class="cls-4" x="2852.68" y="-1608.12" width="350" height="8551.63" transform="translate(2360.94 -1312.11) rotate(39.11)"/><rect class="cls-4" x="3766.68" y="-1609.12" width="350" height="8551.63" transform="matrix(0.78, 0.63, -0.63, 0.78, 2565.07, -1888.85)"/><rect class="cls-4" x="4336.68" y="-1190.12" width="350" height="8551.63" transform="matrix(0.78, 0.63, -0.63, 0.78, 2957.05, -2154.52)"/><rect class="cls-4" x="4906.68" y="-771.12" width="350" height="8551.63" transform="matrix(0.78, 0.63, -0.63, 0.78, 3349.03, -2420.19)"/><rect class="cls-4" x="5476.68" y="-352.12" width="350" height="8551.63" transform="matrix(0.78, 0.63, -0.63, 0.78, 3741.01, -2685.85)"/><rect class="cls-4" x="5702.68" y="486.88" width="350" height="8551.63" transform="matrix(0.78, 0.63, -0.63, 0.78, 4320.84, -2640.45)"/><rect class="cls-4" x="6289.89" y="876.19" width="303.42" height="8551.63" transform="translate(4692.73 -2908.94) rotate(39.11)"/><rect class="cls-3" x="112.5" y="105.4" width="7359" height="4031"/></g></svg>