<?xml version="1.0" encoding="UTF-8"?>
<svg xmlns="http://www.w3.org/2000/svg" xmlns:xlink="http://www.w3.org/1999/xlink" width="50pt" height="50pt" viewBox="0 0 50 50" version="1.1">
<g id="surface3794732">
<path style=" stroke:none;fill-rule:nonzero;fill:rgb(100%,89.411765%,0.392157%);fill-opacity:1;" d="M 40.953125 8.910156 C 36.679688 4.671875 31.019531 2.34375 25.003906 2.34375 C 24.972656 2.34375 24.9375 2.34375 24.90625 2.34375 C 18.851562 2.371094 13.171875 4.75 8.910156 9.046875 C 4.652344 13.34375 2.316406 19.042969 2.34375 25.097656 C 2.371094 31.148438 4.75 36.828125 9.046875 41.089844 C 13.320312 45.328125 18.980469 47.65625 24.996094 47.65625 C 25.027344 47.65625 25.0625 47.65625 25.09375 47.65625 C 31.148438 47.628906 36.828125 45.25 41.089844 40.953125 C 45.347656 36.65625 47.683594 30.957031 47.65625 24.902344 C 47.628906 18.851562 45.25 13.171875 40.953125 8.910156 Z M 25.089844 46.09375 C 24.074219 46.097656 23.070312 46.027344 22.082031 45.890625 L 22.082031 30.175781 L 17.246094 30.175781 L 17.246094 25.042969 L 22.082031 25.042969 L 22.082031 21.625 C 22.082031 15.96875 24.835938 13.488281 29.535156 13.488281 C 31.789062 13.488281 32.976562 13.652344 33.542969 13.730469 L 33.542969 18.210938 L 30.335938 18.210938 C 28.339844 18.210938 27.644531 20.101562 27.644531 22.234375 L 27.644531 25.042969 L 33.492188 25.042969 L 32.699219 30.175781 L 27.644531 30.175781 L 27.644531 45.925781 C 26.800781 46.027344 25.949219 46.089844 25.089844 46.09375 Z M 39.980469 39.851562 C 36.996094 42.859375 33.269531 44.859375 29.207031 45.675781 L 29.207031 31.738281 L 32.699219 31.738281 C 33.46875 31.738281 34.125 31.175781 34.242188 30.414062 L 35.023438 25.363281 C 35.046875 25.257812 35.058594 25.152344 35.058594 25.042969 C 35.058594 24.179688 34.359375 23.480469 33.496094 23.480469 L 29.207031 23.480469 L 29.207031 22.238281 C 29.207031 21.316406 29.355469 19.773438 30.335938 19.773438 L 33.542969 19.773438 C 34.40625 19.773438 35.105469 19.074219 35.105469 18.210938 L 35.105469 13.730469 C 35.105469 12.949219 34.527344 12.285156 33.75 12.183594 C 33.109375 12.09375 31.847656 11.925781 29.539062 11.925781 C 23.722656 11.925781 20.519531 15.371094 20.519531 21.625 L 20.519531 23.480469 L 17.25 23.480469 C 16.386719 23.480469 15.6875 24.179688 15.6875 25.042969 L 15.6875 30.175781 C 15.6875 31.039062 16.386719 31.738281 17.25 31.738281 L 20.519531 31.738281 L 20.519531 45.613281 C 16.625 44.773438 13.042969 42.851562 10.148438 39.980469 C 6.144531 36.011719 3.929688 30.722656 3.90625 25.089844 C 3.882812 19.453125 6.054688 14.148438 10.019531 10.148438 C 13.988281 6.148438 19.277344 3.929688 24.910156 3.90625 C 24.941406 3.90625 24.972656 3.90625 25.003906 3.90625 C 30.601562 3.90625 35.875 6.074219 39.851562 10.019531 C 43.855469 13.988281 46.070312 19.277344 46.09375 24.910156 C 46.117188 30.546875 43.945312 35.851562 39.980469 39.851562 Z M 41.277344 34.308594 C 41.277344 34.308594 41.273438 34.308594 41.273438 34.308594 C 41.058594 34.683594 40.585938 34.8125 40.210938 34.597656 L 38.855469 33.824219 C 38.480469 33.609375 38.347656 33.132812 38.5625 32.757812 C 38.5625 32.753906 38.566406 32.753906 38.566406 32.753906 C 38.78125 32.382812 39.257812 32.253906 39.628906 32.464844 L 40.988281 33.242188 C 41.359375 33.457031 41.492188 33.933594 41.277344 34.308594 Z M 43.015625 30.0625 C 42.996094 30.128906 42.96875 30.195312 42.9375 30.253906 C 42.765625 30.550781 42.410156 30.710938 42.0625 30.617188 L 40.550781 30.21875 C 40.132812 30.109375 39.882812 29.683594 39.992188 29.265625 C 40.105469 28.851562 40.53125 28.597656 40.949219 28.707031 L 42.457031 29.105469 C 42.875 29.214844 43.125 29.644531 43.015625 30.0625 Z M 35.152344 39.699219 C 35.296875 39.949219 35.289062 40.25 35.152344 40.484375 C 35.085938 40.597656 34.992188 40.699219 34.871094 40.769531 C 34.496094 40.984375 34.019531 40.859375 33.800781 40.488281 L 33.015625 39.136719 C 32.796875 38.765625 32.921875 38.285156 33.296875 38.070312 C 33.667969 37.851562 34.148438 37.976562 34.363281 38.351562 Z M 43.597656 25.507812 C 43.597656 25.652344 43.558594 25.789062 43.492188 25.902344 C 43.355469 26.136719 43.105469 26.292969 42.816406 26.292969 L 41.253906 26.300781 C 40.824219 26.300781 40.472656 25.953125 40.46875 25.523438 C 40.46875 25.089844 40.816406 24.738281 41.25 24.738281 L 42.8125 24.730469 C 43.242188 24.730469 43.59375 25.078125 43.597656 25.507812 Z M 38.492188 36.855469 C 38.75 37.113281 38.792969 37.503906 38.621094 37.800781 C 38.585938 37.859375 38.546875 37.914062 38.5 37.960938 C 38.195312 38.269531 37.699219 38.269531 37.394531 37.964844 L 36.285156 36.863281 C 35.976562 36.558594 35.980469 36.0625 36.28125 35.761719 C 36.585938 35.453125 37.078125 35.453125 37.386719 35.757812 Z M 21.21875 7.511719 C 21.289062 7.808594 21.179688 8.105469 20.960938 8.292969 C 20.871094 8.367188 20.765625 8.421875 20.640625 8.453125 C 20.0625 8.59375 19.484375 8.765625 18.925781 8.964844 C 18.519531 9.113281 18.070312 8.902344 17.925781 8.496094 C 17.78125 8.089844 17.992188 7.644531 18.394531 7.496094 C 19.007812 7.277344 19.640625 7.085938 20.277344 6.933594 C 20.695312 6.832031 21.117188 7.089844 21.21875 7.511719 Z M 16.265625 9.292969 C 16.488281 9.660156 16.375 10.136719 16 10.367188 C 12.804688 12.304688 10.34375 15.296875 9.074219 18.792969 C 9.023438 18.925781 8.945312 19.035156 8.84375 19.121094 C 8.636719 19.296875 8.34375 19.359375 8.074219 19.257812 C 7.667969 19.113281 7.460938 18.664062 7.605469 18.257812 C 8.996094 14.429688 11.691406 11.152344 15.191406 9.027344 C 15.5625 8.804688 16.042969 8.925781 16.265625 9.292969 Z M 16.265625 9.292969 "/>
</g>
</svg>
