<?xml version="1.0" encoding="UTF-8"?>
<svg xmlns="http://www.w3.org/2000/svg" xmlns:xlink="http://www.w3.org/1999/xlink" width="50pt" height="50pt" viewBox="0 0 50 50" version="1.1">
<g id="surface3794728">
<path style=" stroke:none;fill-rule:nonzero;fill:rgb(100%,89.411765%,0.392157%);fill-opacity:1;" d="M 24.21875 1.5625 C 11.726562 1.5625 1.5625 11.726562 1.5625 24.21875 C 1.5625 34.101562 7.925781 42.519531 16.761719 45.609375 C 16.886719 45.695312 17.039062 45.753906 17.195312 45.753906 C 19.40625 46.476562 21.769531 46.875 24.21875 46.875 C 36.710938 46.875 46.875 36.710938 46.875 24.21875 C 46.875 11.726562 36.710938 1.5625 24.21875 1.5625 Z M 24.21875 3.125 C 35.847656 3.125 45.3125 12.589844 45.3125 24.21875 C 45.3125 33.328125 39.507812 41.105469 31.40625 44.050781 C 31.320312 43.800781 31.25 43.421875 31.25 43.167969 L 31.25 39.0625 C 31.25 37.425781 30.449219 35.644531 29.664062 34.449219 C 34 33.714844 38.957031 31.464844 38.957031 23.070312 C 38.957031 20.769531 38.234375 18.742188 36.816406 17.03125 C 37.128906 16.007812 37.511719 13.84375 36.4375 11.125 C 36.351562 10.910156 36.171875 10.742188 35.949219 10.667969 C 35.730469 10.601562 33.726562 10.078125 29.5625 12.8125 C 27.867188 12.375 26.078125 12.148438 24.21875 12.144531 C 22.371094 12.148438 20.574219 12.375 18.886719 12.8125 C 14.726562 10.078125 12.714844 10.597656 12.496094 10.667969 C 12.273438 10.742188 12.09375 10.910156 12.007812 11.125 C 10.929688 13.847656 11.316406 16.007812 11.632812 17.03125 C 10.207031 18.742188 9.488281 20.769531 9.488281 23.070312 C 9.488281 31.390625 14.355469 33.683594 18.65625 34.445312 C 18.113281 35.128906 17.546875 36.015625 17.296875 36.914062 C 16.1875 37.222656 13.910156 37.230469 12.382812 34.613281 C 12.324219 34.511719 10.988281 32.136719 8.351562 31.953125 C 7.933594 31.957031 6.871094 32.023438 6.617188 32.835938 C 6.332031 33.738281 7.328125 34.421875 7.753906 34.710938 C 7.78125 34.730469 7.824219 34.753906 7.851562 34.769531 C 7.902344 34.792969 9.039062 35.390625 9.886719 37.527344 C 10.066406 38.085938 11.617188 42.292969 17.195312 41.550781 C 17.195312 42.167969 17.195312 42.480469 17.1875 42.726562 L 17.1875 43.164062 C 17.1875 43.417969 17.109375 43.796875 17.027344 44.046875 C 8.921875 41.097656 3.125 33.320312 3.125 24.21875 C 3.125 12.589844 12.589844 3.125 24.21875 3.125 Z M 24.03125 5.472656 C 20.984375 5.503906 17.972656 6.308594 15.320312 7.824219 C 14.945312 8.035156 14.8125 8.515625 15.027344 8.886719 C 15.171875 9.140625 15.433594 9.285156 15.707031 9.285156 C 15.839844 9.285156 15.96875 9.25 16.09375 9.179688 C 19.324219 7.335938 23.136719 6.648438 26.828125 7.238281 C 27.253906 7.308594 27.652344 7.019531 27.722656 6.589844 C 27.789062 6.164062 27.5 5.765625 27.074219 5.695312 C 26.066406 5.53125 25.046875 5.460938 24.03125 5.472656 Z M 30.199219 6.550781 C 29.898438 6.5625 29.613281 6.757812 29.503906 7.058594 C 29.351562 7.464844 29.554688 7.914062 29.960938 8.066406 C 30.519531 8.273438 31.066406 8.511719 31.605469 8.78125 C 31.71875 8.835938 31.835938 8.867188 31.953125 8.867188 C 32.238281 8.867188 32.511719 8.710938 32.652344 8.433594 C 32.847656 8.054688 32.691406 7.582031 32.304688 7.386719 C 31.722656 7.09375 31.117188 6.828125 30.507812 6.601562 C 30.40625 6.5625 30.304688 6.550781 30.199219 6.550781 Z M 35.144531 12.144531 C 35.984375 14.613281 35.410156 16.402344 35.203125 16.910156 C 35.089844 17.191406 35.148438 17.511719 35.351562 17.734375 C 36.703125 19.214844 37.390625 21.007812 37.390625 23.070312 C 37.390625 30.992188 32.695312 32.582031 28.101562 33.089844 C 27.792969 33.125 27.53125 33.335938 27.441406 33.632812 C 27.347656 33.929688 27.441406 34.253906 27.675781 34.457031 C 28.292969 34.984375 29.6875 37.277344 29.6875 39.0625 L 29.6875 43.167969 C 29.6875 43.183594 29.691406 43.863281 29.914062 44.523438 C 28.101562 45.035156 26.191406 45.3125 24.21875 45.3125 C 22.242188 45.3125 20.332031 45.03125 18.515625 44.523438 C 18.742188 43.855469 18.746094 43.175781 18.746094 43.164062 L 18.75 42.746094 C 18.753906 42.390625 18.757812 41.914062 18.75 40.621094 C 18.746094 40.382812 18.640625 40.164062 18.457031 40.015625 C 18.273438 39.867188 18.03125 39.8125 17.800781 39.863281 C 12.554688 41.007812 11.417969 37.21875 11.378906 37.058594 C 11.367188 37.03125 11.359375 37.007812 11.347656 36.980469 C 10.597656 35.078125 9.609375 34.105469 9.019531 33.667969 C 10.292969 34.117188 11.003906 35.359375 11.023438 35.386719 C 13.089844 38.921875 16.5 39.011719 18.285156 38.214844 C 18.535156 38.105469 18.703125 37.875 18.742188 37.609375 C 18.898438 36.492188 20.125 35.015625 20.746094 34.472656 C 20.976562 34.269531 21.070312 33.945312 20.976562 33.652344 C 20.882812 33.355469 20.625 33.140625 20.320312 33.109375 C 15.738281 32.585938 11.050781 30.984375 11.050781 23.070312 C 11.050781 21.011719 11.738281 19.214844 13.09375 17.734375 C 13.300781 17.511719 13.359375 17.191406 13.242188 16.910156 C 13.035156 16.402344 12.457031 14.621094 13.292969 12.148438 C 13.957031 12.171875 15.578125 12.453125 18.308594 14.308594 C 18.496094 14.433594 18.738281 14.472656 18.957031 14.414062 C 20.589844 13.957031 22.414062 13.714844 24.21875 13.707031 C 26.03125 13.714844 27.851562 13.957031 29.488281 14.414062 C 29.707031 14.472656 29.945312 14.433594 30.136719 14.308594 C 32.878906 12.445312 34.5 12.167969 35.144531 12.144531 Z M 16.699219 26.871094 C 16.394531 26.835938 16.085938 26.972656 15.925781 27.253906 L 15.144531 28.605469 C 14.929688 28.984375 15.058594 29.457031 15.429688 29.675781 C 15.550781 29.746094 15.6875 29.777344 15.820312 29.777344 C 16.089844 29.777344 16.351562 29.640625 16.496094 29.386719 L 17.277344 28.035156 C 17.492188 27.664062 17.367188 27.183594 16.992188 26.96875 C 16.898438 26.917969 16.800781 26.882812 16.699219 26.871094 Z M 31.738281 26.871094 C 31.636719 26.882812 31.535156 26.917969 31.445312 26.96875 C 31.070312 27.183594 30.945312 27.664062 31.160156 28.039062 L 31.941406 29.390625 C 32.085938 29.640625 32.347656 29.78125 32.617188 29.78125 C 32.75 29.78125 32.886719 29.746094 33.007812 29.675781 C 33.382812 29.457031 33.507812 28.984375 33.292969 28.609375 L 32.511719 27.257812 C 32.347656 26.976562 32.039062 26.835938 31.738281 26.871094 Z M 28.273438 28.394531 C 28.171875 28.378906 28.0625 28.382812 27.957031 28.414062 C 27.542969 28.523438 27.292969 28.953125 27.40625 29.371094 L 27.8125 30.878906 C 27.90625 31.230469 28.21875 31.457031 28.566406 31.457031 C 28.632812 31.457031 28.703125 31.449219 28.769531 31.433594 C 29.183594 31.320312 29.433594 30.894531 29.320312 30.476562 L 28.917969 28.96875 C 28.832031 28.652344 28.570312 28.4375 28.273438 28.394531 Z M 20.167969 28.394531 C 19.867188 28.4375 19.605469 28.652344 19.519531 28.96875 L 19.117188 30.476562 C 19.003906 30.894531 19.253906 31.320312 19.667969 31.433594 C 19.734375 31.453125 19.804688 31.457031 19.875 31.457031 C 20.214844 31.457031 20.53125 31.230469 20.625 30.878906 L 21.03125 29.371094 C 21.144531 28.957031 20.894531 28.523438 20.480469 28.414062 C 20.375 28.382812 20.269531 28.382812 20.167969 28.394531 Z M 24.21875 28.90625 C 23.785156 28.90625 23.4375 29.253906 23.4375 29.6875 L 23.4375 31.25 C 23.4375 31.683594 23.785156 32.03125 24.21875 32.03125 C 24.652344 32.03125 25 31.683594 25 31.25 L 25 29.6875 C 25 29.253906 24.652344 28.90625 24.21875 28.90625 Z M 24.21875 28.90625 "/>
</g>
</svg>
