<?xml version="1.0" encoding="UTF-8"?>
<svg xmlns="http://www.w3.org/2000/svg" xmlns:xlink="http://www.w3.org/1999/xlink" width="50pt" height="50pt" viewBox="0 0 50 50" version="1.1">
<g id="surface3794736">
<path style=" stroke:none;fill-rule:nonzero;fill:rgb(100%,89.411765%,0.392157%);fill-opacity:1;" d="M 25 2.34375 C 12.507812 2.34375 2.34375 12.507812 2.34375 25 C 2.34375 37.492188 12.507812 47.65625 25 47.65625 C 37.492188 47.65625 47.65625 37.492188 47.65625 25 C 47.65625 12.507812 37.492188 2.34375 25 2.34375 Z M 25 3.90625 C 36.632812 3.90625 46.09375 13.367188 46.09375 25 C 46.09375 36.632812 36.632812 46.09375 25 46.09375 C 13.367188 46.09375 3.90625 36.632812 3.90625 25 C 3.90625 13.367188 13.367188 3.90625 25 3.90625 Z M 25 6.25 C 14.660156 6.25 6.25 14.660156 6.25 25 C 6.25 26.652344 6.464844 28.289062 6.886719 29.867188 C 6.980469 30.214844 7.296875 30.445312 7.640625 30.445312 C 7.707031 30.445312 7.777344 30.4375 7.847656 30.421875 C 8.261719 30.308594 8.507812 29.878906 8.398438 29.464844 C 8.007812 28.015625 7.8125 26.515625 7.8125 25 C 7.8125 15.523438 15.523438 7.8125 25 7.8125 C 29.457031 7.8125 33.683594 9.511719 36.898438 12.597656 C 37.210938 12.894531 37.707031 12.886719 38.003906 12.574219 C 38.304688 12.265625 38.292969 11.769531 37.980469 11.46875 C 34.472656 8.105469 29.863281 6.25 25 6.25 Z M 30.621094 14.667969 C 29.0625 14.71875 27.519531 15.363281 26.367188 16.59375 C 25.308594 17.722656 24.71875 19.214844 24.71875 20.765625 L 24.71875 21.25 C 20.882812 20.824219 17.367188 18.917969 14.921875 15.929688 C 14.683594 15.636719 14.246094 15.59375 13.953125 15.832031 C 13.890625 15.882812 13.839844 15.945312 13.796875 16.015625 C 12.671875 17.953125 12.699219 20.351562 13.867188 22.265625 C 13.515625 22.125 13.113281 22.292969 12.972656 22.644531 C 12.941406 22.722656 12.921875 22.808594 12.921875 22.890625 L 12.921875 22.96875 C 12.933594 24.835938 13.796875 26.589844 15.265625 27.742188 C 14.921875 27.867188 14.738281 28.238281 14.84375 28.585938 C 15.445312 30.4375 16.898438 31.890625 18.75 32.492188 C 16.882812 33.507812 14.746094 33.917969 12.632812 33.671875 C 12.253906 33.628906 11.914062 33.902344 11.875 34.28125 C 11.847656 34.539062 11.964844 34.789062 12.179688 34.929688 C 14.765625 36.601562 17.773438 37.492188 20.851562 37.5 C 25.417969 37.605469 29.800781 35.683594 32.8125 32.25 C 35.449219 29.25 36.917969 25.40625 36.953125 21.414062 L 36.953125 21.046875 C 37.957031 20.273438 38.828125 19.34375 39.53125 18.289062 C 39.738281 17.96875 39.648438 17.542969 39.328125 17.339844 C 39.136719 17.214844 38.898438 17.191406 38.6875 17.28125 L 38.664062 17.28125 L 38.125 17.5 C 38.445312 17.015625 38.691406 16.492188 38.859375 15.9375 C 38.960938 15.570312 38.742188 15.191406 38.378906 15.09375 C 38.203125 15.042969 38.019531 15.066406 37.859375 15.15625 C 36.96875 15.6875 36 16.078125 34.992188 16.3125 C 33.761719 15.160156 32.183594 14.617188 30.621094 14.667969 Z M 30.980469 16.09375 C 32.207031 16.136719 33.386719 16.65625 34.25 17.570312 C 34.410156 17.742188 34.652344 17.820312 34.882812 17.773438 C 35.441406 17.664062 35.988281 17.511719 36.523438 17.320312 C 36.210938 17.664062 35.851562 17.957031 35.453125 18.195312 C 35.144531 18.414062 35.070312 18.84375 35.292969 19.15625 C 35.4375 19.359375 35.6875 19.46875 35.9375 19.4375 C 36.265625 19.398438 36.589844 19.34375 36.914062 19.28125 C 36.574219 19.597656 36.214844 19.890625 35.835938 20.15625 C 35.648438 20.292969 35.542969 20.511719 35.554688 20.742188 L 35.554688 21.414062 C 35.546875 29.542969 28.949219 36.125 20.820312 36.117188 C 18.9375 36.117188 17.066406 35.753906 15.320312 35.046875 C 17.386719 34.792969 19.34375 33.984375 20.984375 32.703125 C 21.28125 32.464844 21.332031 32.035156 21.097656 31.738281 C 20.96875 31.574219 20.777344 31.480469 20.570312 31.476562 C 18.941406 31.449219 17.441406 30.582031 16.601562 29.1875 C 17.117188 29.179688 17.628906 29.109375 18.125 28.976562 C 18.488281 28.875 18.707031 28.496094 18.605469 28.128906 C 18.535156 27.882812 18.332031 27.691406 18.078125 27.640625 C 16.25 27.265625 14.808594 25.847656 14.40625 24.023438 C 14.933594 24.1875 15.480469 24.28125 16.03125 24.296875 C 16.339844 24.3125 16.617188 24.117188 16.703125 23.820312 C 16.796875 23.527344 16.683594 23.210938 16.429688 23.039062 C 14.664062 21.859375 13.898438 19.652344 14.554688 17.632812 C 17.40625 20.679688 21.324219 22.503906 25.492188 22.71875 C 25.707031 22.734375 25.917969 22.644531 26.054688 22.476562 C 26.191406 22.3125 26.242188 22.09375 26.195312 21.882812 C 25.609375 19.335938 27.199219 16.792969 29.75 16.207031 C 30.15625 16.113281 30.570312 16.078125 30.980469 16.09375 Z M 42.21875 18.832031 C 42.117188 18.820312 42.015625 18.832031 41.910156 18.863281 C 41.5 18.992188 41.269531 19.429688 41.398438 19.84375 C 41.921875 21.503906 42.1875 23.242188 42.1875 25 C 42.1875 27.097656 41.8125 29.148438 41.074219 31.09375 C 40.921875 31.5 41.125 31.949219 41.53125 32.101562 C 41.621094 32.136719 41.714844 32.152344 41.804688 32.152344 C 42.121094 32.152344 42.417969 31.960938 42.535156 31.648438 C 43.34375 29.527344 43.75 27.289062 43.75 25 C 43.75 23.082031 43.460938 21.191406 42.890625 19.375 C 42.792969 19.066406 42.523438 18.859375 42.21875 18.832031 Z M 39.976562 32.8125 C 39.675781 32.777344 39.363281 32.917969 39.203125 33.199219 C 38.988281 33.570312 39.113281 34.050781 39.488281 34.265625 L 40.839844 35.046875 C 40.964844 35.121094 41.097656 35.152344 41.230469 35.152344 C 41.5 35.152344 41.765625 35.015625 41.910156 34.765625 C 42.125 34.390625 41.996094 33.914062 41.621094 33.699219 L 40.269531 32.914062 C 40.175781 32.859375 40.078125 32.828125 39.976562 32.8125 Z M 37.8125 35.617188 C 37.613281 35.628906 37.417969 35.714844 37.273438 35.878906 C 36.988281 36.203125 37.015625 36.695312 37.339844 36.980469 L 38.507812 38.015625 C 38.65625 38.148438 38.839844 38.214844 39.027344 38.214844 C 39.242188 38.214844 39.457031 38.125 39.613281 37.953125 C 39.898438 37.628906 39.867188 37.132812 39.546875 36.847656 L 38.378906 35.8125 C 38.214844 35.667969 38.011719 35.605469 37.8125 35.617188 Z M 13.003906 37.640625 C 12.804688 37.648438 12.609375 37.738281 12.464844 37.898438 C 12.179688 38.222656 12.207031 38.714844 12.527344 39 C 15.964844 42.0625 20.394531 43.75 25 43.75 C 25.492188 43.75 25.992188 43.730469 26.488281 43.691406 C 26.917969 43.660156 27.238281 43.28125 27.203125 42.851562 C 27.171875 42.421875 26.792969 42.097656 26.367188 42.132812 C 21.652344 42.5 17.054688 40.941406 13.570312 37.835938 C 13.410156 37.691406 13.203125 37.628906 13.003906 37.640625 Z M 35.425781 37.972656 C 35.226562 37.945312 35.019531 37.992188 34.847656 38.121094 C 34.503906 38.378906 34.433594 38.867188 34.691406 39.214844 L 35.628906 40.464844 C 35.785156 40.667969 36.019531 40.773438 36.257812 40.773438 C 36.417969 40.773438 36.585938 40.722656 36.726562 40.617188 C 37.070312 40.359375 37.136719 39.871094 36.878906 39.523438 L 35.941406 38.273438 C 35.8125 38.101562 35.625 38 35.425781 37.972656 Z M 32.324219 39.753906 C 32.222656 39.757812 32.121094 39.785156 32.023438 39.828125 C 31.632812 40.015625 31.464844 40.480469 31.652344 40.871094 L 32.320312 42.28125 C 32.453125 42.5625 32.734375 42.726562 33.027344 42.726562 C 33.140625 42.726562 33.253906 42.703125 33.363281 42.652344 C 33.75 42.46875 33.917969 42.003906 33.734375 41.613281 L 33.0625 40.199219 C 32.925781 39.910156 32.628906 39.742188 32.324219 39.753906 Z M 29.21875 40.917969 C 29.117188 40.898438 29.015625 40.90625 28.910156 40.929688 C 28.492188 41.035156 28.234375 41.457031 28.339844 41.875 L 28.710938 43.394531 C 28.796875 43.75 29.117188 43.988281 29.46875 43.988281 C 29.53125 43.988281 29.589844 43.980469 29.652344 43.964844 C 30.074219 43.863281 30.328125 43.4375 30.226562 43.019531 L 29.855469 41.503906 C 29.777344 41.1875 29.519531 40.964844 29.21875 40.917969 Z M 29.21875 40.917969 "/>
</g>
</svg>
