<svg xmlns="http://www.w3.org/2000/svg" xmlns:xlink="http://www.w3.org/1999/xlink" width="166" zoomAndPan="magnify" viewBox="0 0 124.5 79.499998" height="106" preserveAspectRatio="xMidYMid meet" version="1.0"><defs><clipPath id="ec08783d04"><path d="M 2.273438 0 L 121 0 L 121 79.003906 L 2.273438 79.003906 Z M 2.273438 0 " clip-rule="nonzero"/></clipPath><clipPath id="0e96f8dee4"><path d="M 58 17 L 86 17 L 86 45 L 58 45 Z M 58 17 " clip-rule="nonzero"/></clipPath><clipPath id="0d3e57ad43"><path d="M 57.570312 43.191406 L 85.195312 16.863281 L 86.742188 18.488281 L 59.117188 44.816406 Z M 57.570312 43.191406 " clip-rule="nonzero"/></clipPath><clipPath id="8132d636e1"><path d="M 57.570312 43.191406 L 85.195312 16.863281 L 86.742188 18.488281 L 59.117188 44.816406 Z M 57.570312 43.191406 " clip-rule="nonzero"/></clipPath><clipPath id="7e59770c68"><path d="M 57.570312 43.191406 L 85.195312 16.863281 L 86.742188 18.488281 L 59.117188 44.816406 Z M 57.570312 43.191406 " clip-rule="nonzero"/></clipPath><clipPath id="9ae5e44635"><path d="M 73 13 L 101 13 L 101 40 L 73 40 Z M 73 13 " clip-rule="nonzero"/></clipPath><clipPath id="0c8503fb5f"><path d="M 72.304688 38.609375 L 99.929688 12.28125 L 101.480469 13.90625 L 73.851562 40.234375 Z M 72.304688 38.609375 " clip-rule="nonzero"/></clipPath><clipPath id="8752e1ecb6"><path d="M 72.304688 38.609375 L 99.929688 12.28125 L 101.480469 13.90625 L 73.851562 40.234375 Z M 72.304688 38.609375 " clip-rule="nonzero"/></clipPath><clipPath id="6e702b7872"><path d="M 72.304688 38.609375 L 99.929688 12.28125 L 101.480469 13.90625 L 73.851562 40.234375 Z M 72.304688 38.609375 " clip-rule="nonzero"/></clipPath></defs><g clip-path="url(#ec08783d04)"><path fill="#000000" d="M 51.222656 69.84375 C 53.28125 68.457031 55.308594 67.007812 57.351562 65.59375 C 50.757812 64.289062 44.128906 63.25 37.460938 62.429688 C 37.460938 62.429688 37.460938 62.429688 37.453125 62.429688 C 37.417969 62.453125 37.394531 62.480469 37.34375 62.5 C 34.519531 63.542969 31.710938 64.664062 29.128906 66.214844 C 33.164062 66.871094 37.203125 67.527344 41.246094 68.191406 C 44.570312 68.738281 47.894531 69.296875 51.222656 69.84375 Z M 78.546875 77.257812 C 78.457031 76.644531 78.382812 76.027344 78.367188 75.398438 C 74.621094 74.457031 70.644531 74.082031 66.851562 73.445312 C 58.453125 72.039062 50.050781 70.652344 41.648438 69.269531 C 37.042969 68.511719 32.433594 67.769531 27.828125 67.015625 C 27.65625 67.085938 27.503906 67.042969 27.382812 66.945312 C 23.6875 66.339844 19.992188 65.730469 16.289062 65.136719 C 12.464844 64.515625 8.480469 63.511719 4.59375 63.257812 C 4.59375 63.6875 4.59375 64.109375 4.59375 64.589844 C 8.316406 64.933594 12.113281 65.894531 15.773438 66.507812 C 24.328125 67.957031 32.882812 69.414062 41.4375 70.878906 C 53.753906 72.980469 66.339844 74.558594 78.546875 77.257812 Z M 88.417969 71.945312 C 88.195312 71.566406 88.089844 71.066406 88.15625 70.605469 C 85.15625 72.121094 82.179688 73.679688 79.367188 75.449219 C 79.382812 76.0625 79.464844 76.664062 79.550781 77.273438 C 79.585938 77.273438 79.613281 77.265625 79.640625 77.265625 C 82.453125 75.308594 85.40625 73.574219 88.417969 71.945312 Z M 91.441406 70.34375 C 91.324219 69.933594 91.199219 69.53125 91.082031 69.121094 C 90.652344 69.339844 90.222656 69.558594 89.789062 69.773438 C 90.097656 70.082031 90.277344 70.578125 90.214844 70.980469 C 90.625 70.765625 91.035156 70.550781 91.441406 70.34375 Z M 92.351562 69.871094 C 92.636719 69.726562 92.925781 69.578125 93.214844 69.429688 C 93.1875 68.988281 93.140625 68.546875 93.089844 68.101562 C 92.726562 68.292969 92.359375 68.476562 91.992188 68.660156 C 92.109375 69.070312 92.234375 69.46875 92.351562 69.871094 Z M 94.417969 68.820312 C 94.457031 68.347656 94.453125 67.875 94.453125 67.398438 C 94.3125 67.464844 94.175781 67.542969 94.039062 67.609375 C 94.085938 68.054688 94.128906 68.5 94.171875 68.949219 C 94.257812 68.902344 94.339844 68.859375 94.417969 68.820312 Z M 95.441406 68.300781 C 95.710938 68.15625 95.984375 68.019531 96.25 67.875 C 96.214844 67.425781 96.160156 66.984375 96.089844 66.535156 C 95.871094 66.65625 95.648438 66.769531 95.429688 66.886719 C 95.4375 66.917969 95.449219 66.945312 95.449219 66.984375 C 95.449219 67.417969 95.457031 67.863281 95.441406 68.300781 Z M 97.203125 67.371094 C 97.46875 67.234375 97.730469 67.089844 98 66.945312 C 97.972656 66.496094 97.933594 66.039062 97.914062 65.582031 C 97.617188 65.738281 97.332031 65.894531 97.035156 66.046875 C 97.109375 66.488281 97.160156 66.933594 97.203125 67.371094 Z M 93.957031 66.523438 C 98.660156 64.054688 103.367188 61.597656 108.089844 59.15625 C 104.761719 58.890625 101.402344 58.234375 98.125 57.8125 C 90.0625 56.773438 82.003906 55.722656 73.9375 54.660156 C 62.390625 53.148438 50.722656 51.988281 39.234375 50.054688 C 38.898438 50 38.6875 49.824219 38.589844 49.597656 C 32.265625 51.960938 25.984375 54.027344 19.777344 56.75 C 15.195312 58.753906 9.804688 59.792969 5.457031 62.3125 C 8.988281 62.640625 12.585938 63.515625 16.050781 64.082031 C 19.90625 64.707031 23.769531 65.339844 27.636719 65.972656 C 30.550781 64.042969 33.8125 62.738281 37.078125 61.527344 C 37.097656 61.519531 37.109375 61.527344 37.132812 61.519531 C 37.210938 61.453125 37.316406 61.40625 37.460938 61.425781 C 44.515625 62.292969 51.535156 63.386719 58.503906 64.800781 C 58.957031 64.882812 58.941406 65.402344 58.675781 65.644531 C 58.675781 65.796875 58.613281 65.945312 58.453125 66.050781 C 56.507812 67.378906 54.589844 68.746094 52.644531 70.082031 C 57.46875 70.878906 62.292969 71.667969 67.121094 72.476562 C 71.027344 73.132812 75.132812 73.507812 78.976562 74.511719 C 83.746094 71.53125 88.980469 69.128906 93.957031 66.523438 Z M 105.613281 62.8125 C 105.597656 62.425781 105.558594 62.03125 105.40625 61.679688 C 103.238281 62.800781 101.070312 63.933594 98.910156 65.066406 C 98.902344 65.519531 98.933594 65.964844 98.96875 66.414062 C 101.175781 65.207031 103.378906 63.96875 105.613281 62.8125 Z M 109.238281 59.972656 C 109.230469 59.929688 109.226562 59.894531 109.226562 59.851562 C 109.199219 59.8125 109.179688 59.773438 109.167969 59.722656 C 108.984375 59.820312 108.8125 59.914062 108.628906 60 C 108.792969 60.1875 108.882812 60.441406 108.917969 60.667969 C 108.9375 60.832031 108.8125 61.035156 108.671875 61.105469 C 108.546875 61.164062 108.421875 61.199219 108.308594 61.21875 C 108.183594 61.265625 108.046875 61.273438 107.910156 61.214844 C 107.792969 61.1875 107.671875 61.144531 107.546875 61.078125 C 107.371094 60.984375 107.308594 60.835938 107.308594 60.6875 C 106.972656 60.863281 106.632812 61.035156 106.296875 61.21875 C 106.457031 61.570312 106.535156 61.945312 106.574219 62.332031 C 107.390625 61.925781 108.226562 61.519531 109.054688 61.140625 C 109.152344 60.785156 109.21875 60.433594 109.226562 60.085938 C 109.226562 60.046875 109.230469 60.011719 109.238281 59.972656 Z M 114.945312 31.777344 C 116.179688 23.285156 117.085938 14.683594 118.613281 6.246094 C 117.523438 5.109375 111.578125 5.28125 110.804688 5.246094 C 108.382812 5.117188 105.960938 4.996094 103.539062 4.871094 C 98.300781 4.605469 93.058594 4.332031 87.820312 4.058594 C 77.527344 3.53125 67.226562 2.976562 56.921875 2.5 C 54.574219 2.390625 51.90625 1.789062 49.574219 2.074219 C 47.625 2.308594 47.535156 5.433594 47.371094 6.921875 C 46.925781 10.761719 46.164062 14.5625 45.507812 18.367188 C 44.644531 23.371094 43.789062 28.367188 42.945312 33.367188 C 42.136719 38.199219 40.738281 43.207031 40.554688 48.105469 C 40.554688 48.15625 40.542969 48.195312 40.535156 48.234375 C 52.042969 50.144531 63.71875 51.3125 75.285156 52.828125 C 83.0625 53.851562 90.851562 54.871094 98.632812 55.871094 C 102.261719 56.339844 105.988281 57.101562 109.640625 57.238281 C 110.082031 57.25 110.371094 57.503906 110.511719 57.820312 C 110.710938 58 110.84375 58.269531 110.867188 58.558594 C 110.867188 58.472656 110.875 58.492188 110.886719 58.550781 L 110.90625 58.542969 C 110.925781 58.535156 110.933594 58.53125 110.933594 58.53125 C 111.683594 56.445312 111.894531 52.363281 112.265625 49.957031 C 113.1875 43.90625 114.070312 37.835938 114.945312 31.777344 Z M 115.636719 3.46875 C 118.378906 3.59375 122.027344 3.382812 120.6875 7.359375 C 120.625 7.558594 120.5 7.714844 120.367188 7.824219 C 118.867188 16.378906 117.9375 25.074219 116.6875 33.660156 C 115.820312 39.621094 114.960938 45.578125 114.035156 51.523438 C 113.753906 53.355469 113.675781 55.207031 113.355469 57.023438 C 113.082031 58.542969 112.886719 60.683594 111.03125 60.761719 C 111.074219 61.132812 111.113281 61.617188 111.058594 62.011719 C 110.925781 63.050781 108.824219 63.441406 108.007812 63.839844 C 106.488281 64.582031 104.996094 65.375 103.511719 66.179688 C 100.582031 67.761719 97.679688 69.40625 94.710938 70.910156 C 89.808594 73.398438 84.964844 75.960938 80.457031 79.117188 C 80.179688 79.308594 79.914062 79.316406 79.683594 79.238281 C 79.464844 79.238281 79.25 79.210938 79.074219 79.246094 C 78.964844 79.273438 78.84375 79.207031 78.71875 79.183594 C 78.675781 79.183594 78.636719 79.023438 78.59375 79.023438 C 66.203125 76.34375 53.417969 74.804688 40.902344 72.660156 C 32.351562 71.199219 23.796875 69.894531 15.238281 68.453125 C 11.53125 67.820312 6.847656 66.703125 3.472656 66.507812 C 2.644531 66.460938 2.347656 65.609375 2.589844 65.035156 C 2.589844 65 2.582031 64.980469 2.582031 64.945312 C 2.582031 64.160156 2.582031 62.9375 2.582031 62.9375 C 2.582031 62.867188 2.589844 62.8125 2.601562 62.753906 C 2.453125 62.339844 2.519531 61.828125 2.972656 61.507812 C 7.863281 58.042969 14.449219 56.921875 19.894531 54.507812 C 25.957031 51.820312 32.152344 49.878906 38.335938 47.550781 C 38.425781 47.519531 38.507812 47.503906 38.589844 47.492188 C 38.898438 41.785156 40.476562 35.960938 41.429688 30.339844 C 42.496094 24.066406 43.566406 17.792969 44.667969 11.527344 C 45.226562 8.328125 45.023438 3.886719 47 1.15625 C 47.789062 0.0546875 49.3125 -0.0234375 50.546875 0.0546875 C 53.089844 0.203125 55.609375 0.421875 58.152344 0.546875 C 71.128906 1.167969 84.089844 1.851562 97.058594 2.523438 C 103.25 2.847656 109.441406 3.183594 115.636719 3.46875 " fill-opacity="1" fill-rule="nonzero"/></g><path fill="#000000" d="M 114.492188 12.417969 C 114.652344 11.191406 115.910156 7.8125 113.917969 7.714844 C 111.703125 7.597656 109.484375 7.484375 107.273438 7.371094 C 89.148438 6.445312 70.902344 6.054688 52.808594 4.589844 C 49.121094 4.285156 48.945312 13.128906 48.5 15.59375 C 47.664062 20.269531 46.816406 24.941406 45.980469 29.609375 C 45.246094 33.679688 44.730469 37.871094 43.769531 41.894531 C 42.851562 45.734375 53.542969 45.742188 55.917969 46.050781 C 65.125 47.246094 74.339844 48.449219 83.546875 49.652344 C 88.21875 50.257812 92.886719 50.863281 97.554688 51.46875 C 100.03125 51.796875 102.511719 52.117188 104.988281 52.445312 C 106.164062 52.589844 107.964844 53.121094 109.21875 52.964844 C 110.003906 51.40625 109.835938 48.222656 110.042969 46.632812 C 110.359375 44.183594 110.679688 41.730469 110.996094 39.285156 C 111.59375 34.707031 112.1875 30.136719 112.789062 25.558594 C 113.355469 21.175781 113.925781 16.796875 114.492188 12.417969 Z M 116.199219 7.914062 C 116.199219 9.703125 115.589844 11.738281 115.355469 13.535156 C 114.71875 18.382812 114.089844 23.230469 113.460938 28.070312 C 112.761719 33.441406 112.0625 38.816406 111.359375 44.183594 C 111.074219 46.386719 110.621094 48.640625 110.53125 50.863281 C 110.484375 51.824219 110.503906 52.773438 110.011719 53.609375 C 109.96875 53.757812 109.867188 53.878906 109.675781 53.914062 C 106.769531 54.460938 102.976562 53.191406 100.03125 52.800781 C 89.507812 51.433594 78.992188 50.054688 68.464844 48.6875 C 63.027344 47.976562 57.585938 47.273438 52.140625 46.5625 C 49.910156 46.269531 47.667969 45.90625 45.425781 45.6875 C 44.679688 45.613281 43.566406 45.640625 42.984375 45.058594 C 42.214844 44.285156 42.394531 43.328125 42.621094 42.367188 C 43.097656 40.378906 43.394531 38.335938 43.757812 36.320312 C 44.632812 31.449219 45.507812 26.574219 46.390625 21.695312 C 47.355469 16.332031 48.527344 10.957031 49.203125 5.554688 C 49.503906 3.105469 52.003906 3.542969 53.777344 3.628906 C 64.011719 4.152344 74.242188 4.675781 84.476562 5.199219 C 89.90625 5.480469 95.339844 5.753906 100.773438 6.027344 C 103.386719 6.164062 105.992188 6.300781 108.601562 6.429688 C 110.574219 6.53125 112.859375 6.324219 114.78125 6.730469 C 115.398438 6.867188 116.199219 7.050781 116.199219 7.914062 " fill-opacity="1" fill-rule="nonzero"/><path fill="#000000" d="M 27.339844 58.351562 C 28.039062 57.941406 28.738281 57.539062 29.433594 57.136719 C 28.4375 56.984375 27.433594 56.828125 26.4375 56.667969 C 25.621094 57.042969 24.816406 57.421875 23.996094 57.78125 C 25.085938 58.023438 26.210938 58.203125 27.339844 58.351562 Z M 30.828125 56.347656 C 31.117188 56.183594 31.40625 56.027344 31.691406 55.863281 C 31.023438 55.714844 30.378906 55.535156 29.804688 55.296875 C 29.742188 55.269531 29.707031 55.234375 29.667969 55.199219 C 29.140625 55.441406 28.613281 55.675781 28.085938 55.917969 C 29.003906 56.054688 29.917969 56.203125 30.828125 56.347656 Z M 33.328125 57.75 C 32.5625 57.625 31.789062 57.503906 31.023438 57.386719 C 30.339844 57.773438 29.660156 58.160156 28.984375 58.558594 C 29.941406 58.671875 30.894531 58.789062 31.832031 58.917969 C 31.851562 58.890625 31.863281 58.863281 31.890625 58.839844 C 32.347656 58.433594 32.828125 58.078125 33.328125 57.75 Z M 35.550781 53.804688 C 35.03125 53.683594 34.519531 53.550781 34.03125 53.382812 C 33 53.777344 31.972656 54.1875 30.945312 54.632812 C 31.617188 54.839844 32.328125 54.988281 33.070312 55.113281 C 33.890625 54.660156 34.714844 54.230469 35.550781 53.804688 Z M 34.640625 56.9375 C 34.957031 56.757812 35.269531 56.585938 35.59375 56.410156 C 34.800781 56.347656 34.011719 56.265625 33.238281 56.152344 C 32.964844 56.300781 32.699219 56.445312 32.433594 56.59375 C 33.167969 56.710938 33.902344 56.828125 34.640625 56.9375 Z M 37.542969 58.390625 C 36.632812 58.25 35.726562 58.117188 34.8125 57.976562 C 34.234375 58.316406 33.664062 58.691406 33.128906 59.109375 C 33.984375 59.238281 34.847656 59.367188 35.703125 59.503906 C 35.738281 59.46875 35.773438 59.429688 35.824219 59.402344 C 36.421875 59.089844 36.980469 58.746094 37.542969 58.390625 Z M 37.230469 55.5 C 37.851562 55.140625 38.460938 54.75 39.0625 54.355469 C 38.425781 54.285156 37.796875 54.207031 37.167969 54.113281 C 36.359375 54.507812 35.558594 54.917969 34.757812 55.339844 C 35.558594 55.417969 36.351562 55.488281 37.140625 55.554688 C 37.167969 55.535156 37.203125 55.515625 37.230469 55.5 Z M 39.753906 56.835938 C 39.644531 56.820312 39.535156 56.808594 39.425781 56.785156 C 38.78125 56.695312 38.085938 56.628906 37.371094 56.566406 C 36.988281 56.765625 36.613281 56.976562 36.234375 57.175781 C 37.078125 57.304688 37.917969 57.441406 38.761719 57.566406 C 39.097656 57.324219 39.433594 57.085938 39.753906 56.835938 Z M 39.960938 51.742188 C 39.792969 51.707031 39.617188 51.679688 39.445312 51.648438 C 39.417969 51.660156 39.390625 51.679688 39.351562 51.6875 C 38.085938 51.996094 36.855469 52.378906 35.640625 52.800781 C 36.09375 52.90625 36.554688 53 37.03125 53.082031 C 37.996094 52.609375 38.972656 52.164062 39.960938 51.742188 Z M 41.273438 58.953125 C 40.523438 58.839844 39.78125 58.726562 39.027344 58.609375 C 38.453125 59.011719 37.859375 59.382812 37.257812 59.746094 C 38.085938 59.875 38.910156 60 39.742188 60.128906 C 39.78125 60.074219 39.820312 60.023438 39.886719 59.984375 C 40.382812 59.675781 40.84375 59.335938 41.273438 58.953125 Z M 40.835938 55.984375 C 41.359375 55.5625 41.875 55.117188 42.390625 54.675781 C 41.828125 54.617188 41.257812 54.570312 40.683594 54.515625 C 40.066406 54.933594 39.453125 55.328125 38.828125 55.714844 C 39.125 55.746094 39.414062 55.78125 39.691406 55.824219 C 40.074219 55.875 40.457031 55.929688 40.835938 55.984375 Z M 40.367188 53.492188 C 41.011719 53.054688 41.648438 52.625 42.289062 52.1875 C 42.082031 52.15625 41.867188 52.109375 41.65625 52.070312 C 41.605469 52.125 41.546875 52.164062 41.472656 52.1875 C 40.574219 52.550781 39.699219 52.933594 38.828125 53.328125 C 39.34375 53.390625 39.855469 53.445312 40.367188 53.492188 Z M 43.40625 53.800781 C 43.847656 53.402344 44.296875 53.007812 44.742188 52.617188 C 44.402344 52.558594 44.0625 52.507812 43.722656 52.453125 C 43.132812 52.835938 42.542969 53.234375 41.957031 53.636719 C 42.449219 53.683594 42.929688 53.738281 43.40625 53.800781 Z M 44.59375 58.304688 C 44.816406 58.078125 45.046875 57.851562 45.28125 57.632812 C 43.894531 57.441406 42.511719 57.238281 41.125 57.039062 C 40.808594 57.285156 40.5 57.53125 40.179688 57.78125 C 41.628906 57.996094 43.074219 58.207031 44.515625 58.433594 C 44.539062 58.390625 44.558594 58.34375 44.59375 58.304688 Z M 46.277344 56.773438 C 46.824219 56.320312 47.390625 55.875 47.953125 55.433594 C 46.554688 55.234375 45.160156 55.042969 43.761719 54.84375 C 43.757812 54.84375 43.742188 54.84375 43.734375 54.839844 C 43.21875 55.296875 42.699219 55.734375 42.167969 56.179688 C 43.539062 56.382812 44.90625 56.574219 46.277344 56.773438 Z M 49.011719 54.578125 C 49.441406 54.214844 49.863281 53.847656 50.265625 53.457031 C 48.847656 53.261719 47.433594 53.054688 46.03125 52.828125 C 45.597656 53.210938 45.160156 53.589844 44.722656 53.972656 C 46.152344 54.175781 47.582031 54.375 49.011719 54.578125 Z M 49.542969 59.066406 C 49.917969 58.863281 50.277344 58.644531 50.625 58.40625 C 49.28125 58.214844 47.929688 58.015625 46.585938 57.824219 C 46.289062 58.078125 46 58.335938 45.722656 58.609375 C 46.953125 58.792969 48.191406 58.980469 49.429688 59.164062 C 49.460938 59.128906 49.496094 59.09375 49.542969 59.066406 Z M 53.234375 56.179688 C 51.933594 55.992188 50.621094 55.808594 49.3125 55.625 C 48.753906 56.078125 48.183594 56.519531 47.625 56.964844 C 48.992188 57.164062 50.371094 57.367188 51.742188 57.558594 C 52.265625 57.121094 52.761719 56.660156 53.234375 56.179688 Z M 54.734375 58.988281 C 53.835938 58.863281 52.941406 58.738281 52.050781 58.609375 C 51.695312 58.886719 51.339844 59.15625 50.96875 59.394531 C 51.914062 59.539062 52.84375 59.675781 53.789062 59.820312 C 53.789062 59.820312 53.789062 59.820312 53.789062 59.8125 C 54.105469 59.546875 54.417969 59.261719 54.734375 58.988281 Z M 54.089844 55.289062 C 54.46875 54.886719 54.835938 54.484375 55.195312 54.085938 C 53.964844 53.929688 52.734375 53.777344 51.496094 53.617188 C 51.480469 53.644531 51.476562 53.671875 51.449219 53.699219 C 51.09375 54.074219 50.722656 54.421875 50.332031 54.761719 C 51.585938 54.941406 52.839844 55.113281 54.089844 55.289062 Z M 55.710938 58.125 C 56.21875 57.667969 56.722656 57.203125 57.214844 56.738281 C 56.300781 56.609375 55.382812 56.480469 54.46875 56.347656 C 54.011719 56.828125 53.542969 57.296875 53.054688 57.75 C 53.9375 57.867188 54.828125 57.996094 55.710938 58.125 Z M 58.058594 60.359375 C 58.347656 60.101562 58.640625 59.847656 58.929688 59.582031 C 57.964844 59.449219 57.011719 59.316406 56.046875 59.175781 C 55.726562 59.457031 55.402344 59.738281 55.082031 60.011719 C 55.972656 60.148438 56.859375 60.277344 57.746094 60.414062 C 57.824219 60.429688 57.90625 60.441406 57.984375 60.457031 C 58.011719 60.421875 58.023438 60.386719 58.058594 60.359375 Z M 59.261719 54.578125 C 58.3125 54.460938 57.355469 54.347656 56.402344 54.234375 C 56.382812 54.261719 56.367188 54.292969 56.339844 54.328125 C 56 54.695312 55.652344 55.078125 55.300781 55.460938 C 56.230469 55.589844 57.167969 55.722656 58.105469 55.851562 C 58.507812 55.441406 58.886719 55.011719 59.261719 54.578125 Z M 61.433594 61.992188 C 59.894531 61.753906 58.359375 61.519531 56.820312 61.289062 C 52.050781 60.5625 47.28125 59.851562 42.511719 59.136719 C 42.101562 59.589844 41.640625 59.984375 41.152344 60.339844 C 45.480469 61.003906 49.8125 61.671875 54.144531 62.332031 C 56.027344 62.621094 57.914062 62.914062 59.796875 63.203125 C 59.832031 63.164062 59.867188 63.121094 59.914062 63.089844 C 60.449219 62.746094 60.953125 62.382812 61.433594 61.992188 Z M 61.539062 57.34375 C 60.515625 57.195312 59.488281 57.058594 58.46875 56.910156 C 57.984375 57.386719 57.503906 57.851562 57.003906 58.304688 C 57.972656 58.445312 58.949219 58.578125 59.921875 58.71875 C 60.457031 58.253906 60.988281 57.796875 61.539062 57.34375 Z M 63.457031 60.222656 C 62.601562 60.101562 61.746094 59.984375 60.890625 59.867188 C 60.675781 59.832031 60.457031 59.804688 60.234375 59.773438 C 59.898438 60.058594 59.570312 60.355469 59.242188 60.640625 C 60.316406 60.8125 61.378906 60.972656 62.453125 61.132812 C 62.789062 60.835938 63.125 60.53125 63.457031 60.222656 Z M 64.25 55.171875 C 62.992188 55.015625 61.734375 54.863281 60.476562 54.714844 C 60.105469 55.171875 59.726562 55.601562 59.332031 56.027344 C 60.414062 56.179688 61.507812 56.332031 62.59375 56.484375 C 63.136719 56.042969 63.691406 55.601562 64.25 55.171875 Z M 65.828125 62.660156 C 64.8125 62.503906 63.792969 62.355469 62.777344 62.199219 C 62.265625 62.628906 61.738281 63.03125 61.199219 63.417969 C 62.046875 63.542969 62.890625 63.679688 63.738281 63.804688 C 63.789062 63.671875 63.882812 63.558594 64.046875 63.496094 C 64.644531 63.289062 65.238281 62.996094 65.828125 62.660156 Z M 66.058594 57.96875 C 65.601562 57.90625 65.148438 57.847656 64.691406 57.789062 C 64.089844 57.699219 63.488281 57.613281 62.882812 57.53125 C 62.335938 57.980469 61.789062 58.445312 61.246094 58.90625 C 62.292969 59.054688 63.355469 59.203125 64.410156 59.347656 C 64.644531 59.136719 64.886719 58.917969 65.125 58.710938 C 65.425781 58.453125 65.742188 58.207031 66.058594 57.96875 Z M 68.453125 60.925781 C 67.21875 60.75 65.988281 60.585938 64.765625 60.40625 C 64.429688 60.714844 64.09375 61.03125 63.753906 61.332031 C 64.886719 61.507812 66.011719 61.679688 67.140625 61.847656 C 67.589844 61.546875 68.023438 61.234375 68.453125 60.925781 Z M 69.027344 55.789062 C 67.898438 55.636719 66.765625 55.488281 65.628906 55.339844 C 65.605469 55.367188 65.59375 55.386719 65.566406 55.40625 C 65.019531 55.824219 64.484375 56.246094 63.941406 56.675781 C 64.285156 56.722656 64.613281 56.765625 64.957031 56.8125 C 65.714844 56.921875 66.476562 57.015625 67.234375 57.121094 C 67.851562 56.695312 68.453125 56.257812 69.027344 55.789062 Z M 71.414062 58.664062 C 70.125 58.507812 68.839844 58.335938 67.554688 58.167969 C 66.949219 58.609375 66.339844 59.0625 65.757812 59.539062 C 67.03125 59.71875 68.316406 59.902344 69.597656 60.074219 C 69.675781 60.019531 69.761719 59.949219 69.835938 59.902344 C 70.375 59.503906 70.902344 59.089844 71.414062 58.664062 Z M 70.371094 64.550781 C 70.800781 64.222656 71.226562 63.886719 71.65625 63.550781 C 70.199219 63.332031 68.746094 63.101562 67.289062 62.882812 C 66.644531 63.316406 65.980469 63.722656 65.296875 64.050781 C 66.933594 64.296875 68.5625 64.550781 70.199219 64.800781 C 70.230469 64.710938 70.28125 64.625 70.371094 64.550781 Z M 72.738281 62.710938 C 73.160156 62.375 73.578125 62.035156 73.996094 61.699219 C 72.613281 61.507812 71.226562 61.316406 69.84375 61.117188 C 69.789062 61.152344 69.742188 61.191406 69.695312 61.226562 C 69.289062 61.488281 68.886719 61.769531 68.488281 62.054688 C 69.902344 62.273438 71.320312 62.484375 72.738281 62.710938 Z M 72.457031 57.796875 C 72.984375 57.34375 73.496094 56.894531 74.015625 56.445312 C 72.792969 56.292969 71.574219 56.128906 70.363281 55.972656 C 70.34375 56 70.335938 56.019531 70.308594 56.042969 C 69.800781 56.5 69.265625 56.914062 68.71875 57.320312 C 69.964844 57.476562 71.210938 57.632812 72.457031 57.796875 Z M 75.070312 60.84375 C 75.683594 60.339844 76.308594 59.847656 76.925781 59.34375 C 75.542969 59.175781 74.171875 59.007812 72.792969 58.835938 C 72.210938 59.328125 71.617188 59.8125 71.015625 60.273438 C 72.367188 60.460938 73.71875 60.65625 75.070312 60.84375 Z M 77.378906 64.425781 C 75.917969 64.199219 74.46875 63.980469 73.007812 63.761719 C 72.484375 64.167969 71.957031 64.582031 71.429688 64.984375 C 72.738281 65.195312 74.050781 65.390625 75.355469 65.589844 C 75.398438 65.550781 75.449219 65.511719 75.515625 65.476562 C 76.164062 65.175781 76.773438 64.8125 77.378906 64.425781 Z M 78 58.480469 C 78.558594 58.023438 79.121094 57.570312 79.691406 57.128906 C 78.246094 56.957031 76.808594 56.78125 75.371094 56.609375 C 74.839844 57.058594 74.324219 57.503906 73.804688 57.953125 C 75.203125 58.128906 76.601562 58.304688 78 58.480469 Z M 80.09375 62.554688 C 78.511719 62.332031 76.9375 62.109375 75.355469 61.890625 C 74.925781 62.230469 74.507812 62.574219 74.078125 62.910156 C 75.585938 63.140625 77.089844 63.371094 78.589844 63.597656 C 79.089844 63.25 79.585938 62.894531 80.09375 62.554688 Z M 81.453125 66.375 C 82.070312 65.984375 82.703125 65.617188 83.324219 65.234375 C 81.8125 65.027344 80.292969 64.851562 78.808594 64.636719 C 78.21875 65.054688 77.625 65.457031 77.007812 65.820312 C 78.464844 65.996094 79.972656 66.148438 81.453125 66.375 Z M 82.027344 61.359375 C 82.695312 61.011719 83.34375 60.632812 83.980469 60.25 C 82.085938 59.992188 80.195312 59.75 78.300781 59.519531 C 77.671875 60.019531 77.050781 60.53125 76.417969 61.03125 C 78.074219 61.261719 79.730469 61.492188 81.386719 61.726562 C 81.597656 61.601562 81.804688 61.472656 82.027344 61.359375 Z M 84.65625 64.429688 C 85.183594 64.117188 85.710938 63.792969 86.25 63.484375 C 84.730469 63.242188 83.21875 62.988281 81.726562 62.78125 C 81.675781 62.773438 81.625 62.765625 81.574219 62.757812 C 81.023438 63.085938 80.496094 63.441406 79.976562 63.796875 C 81.523438 64.015625 83.097656 64.195312 84.65625 64.429688 Z M 87.265625 65.910156 C 86.476562 65.738281 85.679688 65.59375 84.871094 65.464844 C 84.226562 65.851562 83.59375 66.242188 82.953125 66.632812 C 83.617188 66.769531 84.277344 66.925781 84.910156 67.113281 C 84.945312 67.097656 84.964844 67.070312 85.007812 67.058594 C 85.816406 66.761719 86.558594 66.351562 87.265625 65.910156 Z M 85.300781 59.429688 C 85.976562 58.988281 86.648438 58.53125 87.320312 58.070312 C 85.246094 57.796875 83.164062 57.539062 81.085938 57.292969 C 80.515625 57.742188 79.953125 58.195312 79.382812 58.644531 C 81.359375 58.890625 83.332031 59.15625 85.300781 59.429688 Z M 88.421875 65.164062 C 88.988281 64.773438 89.550781 64.378906 90.117188 63.996094 C 89.351562 63.921875 88.59375 63.824219 87.820312 63.722656 C 87.277344 64.035156 86.738281 64.355469 86.199219 64.679688 C 86.925781 64.808594 87.65625 64.953125 88.367188 65.136719 C 88.386719 65.140625 88.394531 65.15625 88.421875 65.164062 Z M 88.859375 61.945312 C 89.289062 61.695312 89.703125 61.425781 90.117188 61.160156 C 88.570312 60.914062 87.019531 60.675781 85.460938 60.460938 C 84.636719 60.972656 83.800781 61.46875 82.957031 61.957031 C 84.496094 62.199219 86.046875 62.464844 87.601562 62.6875 C 88.023438 62.4375 88.441406 62.191406 88.859375 61.945312 Z M 91.355469 60.339844 C 92.0625 59.867188 92.78125 59.402344 93.511719 58.980469 C 91.9375 58.726562 90.355469 58.484375 88.765625 58.261719 C 88.742188 58.289062 88.722656 58.316406 88.6875 58.34375 C 88.050781 58.792969 87.40625 59.214844 86.757812 59.636719 C 88.296875 59.859375 89.832031 60.085938 91.355469 60.339844 Z M 94.230469 61.863281 C 93.335938 61.695312 92.4375 61.535156 91.535156 61.378906 C 90.761719 61.890625 89.988281 62.402344 89.207031 62.894531 C 89.996094 62.984375 90.789062 63.058594 91.570312 63.101562 C 91.761719 62.996094 91.949219 62.886719 92.152344 62.785156 C 92.832031 62.453125 93.535156 62.15625 94.230469 61.863281 Z M 98.496094 59.878906 C 97.386719 59.65625 96.269531 59.445312 95.15625 59.246094 C 94.339844 59.644531 93.546875 60.101562 92.773438 60.585938 C 93.757812 60.75 94.738281 60.925781 95.722656 61.113281 C 95.785156 61.117188 95.824219 61.144531 95.871094 61.171875 C 96.769531 60.785156 97.644531 60.375 98.496094 59.878906 Z M 99.738281 59.101562 C 100.03125 59.164062 100.128906 59.402344 100.089844 59.628906 C 100.09375 59.773438 100.054688 59.914062 99.964844 60.011719 C 99.933594 60.113281 99.878906 60.203125 99.773438 60.269531 C 97.316406 61.910156 94.394531 62.503906 91.917969 64.082031 C 89.722656 65.476562 87.738281 67.117188 85.265625 68.027344 C 85.230469 68.042969 85.199219 68.035156 85.164062 68.042969 C 85.058594 68.125 84.917969 68.164062 84.75 68.109375 C 81.605469 67.136719 77.953125 67.003906 74.707031 66.503906 C 67.542969 65.394531 60.371094 64.296875 53.207031 63.203125 C 46.089844 62.109375 38.976562 61.023438 31.855469 59.921875 C 28.738281 59.445312 25.320312 59.261719 22.277344 58.390625 C 21.707031 58.226562 21.878906 57.425781 22.378906 57.414062 C 27.882812 54.988281 33.210938 52.144531 39.082031 50.722656 C 39.097656 50.714844 39.105469 50.722656 39.117188 50.714844 C 39.21875 50.640625 39.359375 50.601562 39.519531 50.636719 C 49.367188 52.699219 59.667969 53.476562 69.628906 54.863281 C 79.59375 56.257812 89.890625 57.039062 99.738281 59.101562 " fill-opacity="1" fill-rule="nonzero"/><g clip-path="url(#0e96f8dee4)"><g clip-path="url(#0d3e57ad43)"><g clip-path="url(#8132d636e1)"><g clip-path="url(#7e59770c68)"><path fill="#000000" d="M 84.011719 17.992188 L 58.753906 42.0625 C 58.253906 42.539062 58.199219 43.289062 58.625 43.734375 C 59.054688 44.183594 59.804688 44.164062 60.300781 43.6875 L 85.558594 19.617188 C 86.058594 19.144531 86.113281 18.394531 85.6875 17.945312 C 85.257812 17.496094 84.507812 17.519531 84.011719 17.992188 Z M 84.011719 17.992188 " fill-opacity="1" fill-rule="nonzero"/></g></g></g></g><g clip-path="url(#9ae5e44635)"><g clip-path="url(#0c8503fb5f)"><g clip-path="url(#8752e1ecb6)"><g clip-path="url(#6e702b7872)"><path fill="#000000" d="M 98.746094 13.410156 L 73.488281 37.480469 C 72.992188 37.953125 72.933594 38.703125 73.359375 39.152344 C 73.789062 39.601562 74.539062 39.578125 75.039062 39.105469 L 100.296875 15.035156 C 100.792969 14.558594 100.851562 13.808594 100.421875 13.363281 C 99.996094 12.914062 99.246094 12.933594 98.746094 13.410156 Z M 98.746094 13.410156 " fill-opacity="1" fill-rule="nonzero"/></g></g></g></g></svg>