<svg id="Layer_1" data-name="Layer 1" xmlns="http://www.w3.org/2000/svg" xmlns:xlink="http://www.w3.org/1999/xlink" viewBox="0 0 418.57 267.18"><defs><style>.cls-1{fill:none;}.cls-2{fill:#ccc;stroke:#ccc;}.cls-2,.cls-3{stroke-linejoin:round;}.cls-2,.cls-3,.cls-6{stroke-width:3px;}.cls-3{fill:#a8a8a8;stroke:#a8a8a8;}.cls-4{fill:#8e8e8e;}.cls-5{clip-path:url(#clip-path);}.cls-6{fill:#1e1e1e;stroke:#1e1e1e;stroke-miterlimit:10;}.cls-7{fill:#203c9d;}.cls-8{fill:#fff;opacity:0.1;}</style><clipPath id="clip-path"><path class="cls-1" d="M47.49-.19H373.17A12.17,12.17,0,0,1,385.34,12V213.43a0,0,0,0,1,0,0h-352a0,0,0,0,1,0,0V14A14.15,14.15,0,0,1,47.49-.19Z"/></clipPath></defs><path class="cls-2" d="M1.5,245.58H417a0,0,0,0,1,0,0v0a20.09,20.09,0,0,1-20.09,20.09H21.59A20.09,20.09,0,0,1,1.5,245.58v0a0,0,0,0,1,0,0Z"/><path class="cls-3" d="M1.57,245.58l31.75-30.46h352l31.75,30.46Z"/><path class="cls-4" d="M380.86,236.87,365.18,218.7l-310-.45L37.84,236.83A1.58,1.58,0,0,0,39,239.48H379.66A1.58,1.58,0,0,0,380.86,236.87Z"/><path class="cls-4" d="M169,247h72a0,0,0,0,1,0,0v1.29a5.3,5.3,0,0,1-5.3,5.3H174.26a5.3,5.3,0,0,1-5.3-5.3V247A0,0,0,0,1,169,247Z"/><g class="cls-5"><path class="cls-6" d="M47.4,1.5H373.08a12.17,12.17,0,0,1,12.17,12.17V215.12a0,0,0,0,1,0,0h-352a0,0,0,0,1,0,0V15.65A14.15,14.15,0,0,1,47.4,1.5Z"/><rect class="cls-7" x="42.46" y="15.13" width="333.72" height="189.56"/><rect class="cls-8" x="246.12" y="-118.56" width="179.55" height="314.85" transform="translate(70.9 248.89) rotate(-45)"/></g></svg>
