<svg width="25" height="25" viewBox="0 0 25 25" fill="none" xmlns="http://www.w3.org/2000/svg">
<path d="M12.3166 0C7.17619 0 5.67283 0.00530287 5.3806 0.0295446C4.32571 0.117231 3.66929 0.283325 2.95416 0.639375C2.40304 0.913041 1.9684 1.23027 1.53943 1.67495C0.758205 2.48591 0.284735 3.48361 0.113338 4.66956C0.0300075 5.2453 0.00576582 5.36272 0.000841725 8.30354C-0.00105216 9.28381 0.000841725 10.5739 0.000841725 12.3044C0.000841725 17.4406 0.00652337 18.9424 0.0311438 19.2341C0.116369 20.2606 0.277348 20.9064 0.618247 21.6128C1.26974 22.965 2.51402 23.9801 3.97989 24.3589C4.48745 24.4896 5.04804 24.5616 5.76771 24.5957C6.07263 24.6089 9.18049 24.6184 12.2902 24.6184C15.4 24.6184 18.5098 24.6146 18.8071 24.5994C19.6404 24.5602 20.1243 24.4953 20.6593 24.357C22.1346 23.9764 23.3562 22.9764 24.0209 21.6052C24.3552 20.9158 24.5247 20.2454 24.6014 19.2725C24.6181 19.0604 24.6251 15.6785 24.6251 12.3011C24.6251 8.92322 24.6175 5.54756 24.6009 5.33544C24.5232 4.34684 24.3537 3.68209 24.0086 2.97946C23.7255 2.40428 23.4111 1.97475 22.9547 1.53556C22.1401 0.757553 21.144 0.284082 19.9569 0.112875C19.3817 0.0297339 19.2671 0.00511348 16.324 0H12.3166Z" fill="#FFFFFF"/>
<path d="M12.3109 3.2196C9.84201 3.2196 9.53217 3.2304 8.5625 3.27453C7.59473 3.31884 6.93414 3.47206 6.35613 3.69686C5.75823 3.92905 5.25105 4.23965 4.74576 4.74513C4.2401 5.25041 3.9295 5.7576 3.69655 6.3553C3.47118 6.93351 3.31777 7.59428 3.27422 8.56168C3.23085 9.53135 3.21948 9.84137 3.21948 12.3102C3.21948 14.7791 3.23047 15.088 3.27441 16.0577C3.31891 17.0254 3.47213 17.686 3.69674 18.264C3.92912 18.8619 4.23972 19.3691 4.74519 19.8744C5.25029 20.3801 5.75747 20.6914 6.35499 20.9236C6.93338 21.1484 7.59416 21.3016 8.56174 21.3459C9.53141 21.3901 9.84106 21.4009 12.3097 21.4009C14.7788 21.4009 15.0877 21.3901 16.0574 21.3459C17.0251 21.3016 17.6865 21.1484 18.2649 20.9236C18.8626 20.6914 19.369 20.3801 19.8741 19.8744C20.3798 19.3691 20.6904 18.8619 20.9233 18.2642C21.1468 17.686 21.3002 17.0252 21.3456 16.0579C21.3892 15.0882 21.4006 14.7791 21.4006 12.3102C21.4006 9.84137 21.3892 9.53153 21.3456 8.56187C21.3002 7.59409 21.1468 6.93351 20.9233 6.35549C20.6904 5.7576 20.3798 5.25041 19.8741 4.74513C19.3684 4.23946 18.8628 3.92886 18.2643 3.69686C17.6848 3.47206 17.0238 3.31884 16.056 3.27453C15.0864 3.2304 14.7777 3.2196 12.308 3.2196H12.3109ZM11.4954 4.85781C11.7374 4.85743 12.0075 4.85781 12.3109 4.85781C14.7381 4.85781 15.0258 4.86652 15.9842 4.91008C16.8706 4.95061 17.3516 5.09871 17.6721 5.22314C18.0963 5.38791 18.3988 5.58487 18.7167 5.90305C19.0349 6.22122 19.2319 6.52424 19.397 6.94847C19.5215 7.26853 19.6697 7.74958 19.7101 8.63592C19.7536 9.59422 19.7631 9.88209 19.7631 12.3082C19.7631 14.7342 19.7536 15.0221 19.7101 15.9804C19.6696 16.8667 19.5215 17.3478 19.397 17.6678C19.2323 18.0921 19.0349 18.3941 18.7167 18.7121C18.3986 19.0303 18.0965 19.2273 17.6721 19.392C17.352 19.517 16.8706 19.6647 15.9842 19.7053C15.0259 19.7488 14.7381 19.7583 12.3109 19.7583C9.88348 19.7583 9.5958 19.7488 8.6375 19.7053C7.75116 19.6644 7.27012 19.5163 6.94948 19.3918C6.52525 19.2271 6.22223 19.0301 5.90406 18.7119C5.58589 18.3938 5.38892 18.0915 5.22378 17.6671C5.09935 17.347 4.95106 16.866 4.91072 15.9796C4.86716 15.0213 4.85845 14.7335 4.85845 12.3059C4.85845 9.8783 4.86716 9.59195 4.91072 8.63365C4.95125 7.74731 5.09935 7.26626 5.22378 6.94582C5.38855 6.52159 5.58589 6.21857 5.90406 5.90039C6.22223 5.58222 6.52525 5.38526 6.94948 5.22011C7.26993 5.09512 7.75116 4.94739 8.6375 4.90667C9.47611 4.8688 9.8011 4.85743 11.4954 4.85554V4.85781ZM17.1634 6.36724C16.5611 6.36724 16.0725 6.85529 16.0725 7.45773C16.0725 8.05999 16.5611 8.54861 17.1634 8.54861C17.7656 8.54861 18.2543 8.05999 18.2543 7.45773C18.2543 6.85548 17.7656 6.36686 17.1634 6.36686V6.36724ZM12.3109 7.64182C9.73273 7.64182 7.64245 9.7321 7.64245 12.3102C7.64245 14.8884 9.73273 16.9777 12.3109 16.9777C14.889 16.9777 16.9785 14.8884 16.9785 12.3102C16.9785 9.7321 14.889 7.64182 12.3109 7.64182ZM12.3109 9.28003C13.9843 9.28003 15.3411 10.6366 15.3411 12.3102C15.3411 13.9837 13.9843 15.3404 12.3109 15.3404C10.6372 15.3404 9.28066 13.9837 9.28066 12.3102C9.28066 10.6366 10.6372 9.28003 12.3109 9.28003Z" fill="black"/>
</svg>
