<svg width="25" height="25" viewBox="0 0 25 25" fill="none" xmlns="http://www.w3.org/2000/svg">
<path d="M18.7153 0H6.26487C2.81523 0 0 2.81523 0 6.26487V18.7351C0 22.1649 2.81523 24.9802 6.26487 24.9802H18.7351C22.1848 24.9802 25 22.1649 25 18.7153V6.26487C24.9802 2.81523 22.1649 0 18.7153 0ZM8.32673 20.222H4.75813V9.91277H8.32673V20.222ZM6.5226 8.32673C5.5115 8.32673 4.69865 7.51388 4.69865 6.50278C4.69865 5.49167 5.5115 4.67883 6.5226 4.67883C7.5337 4.67883 8.34655 5.49167 8.34655 6.50278C8.32672 7.51388 7.51388 8.32673 6.5226 8.32673ZM20.2419 20.222H20.222H17.2482V15.226C17.2482 14.0167 17.0896 12.4703 15.4441 12.4703C13.7589 12.4703 13.4814 13.7787 13.4814 15.1467V20.222H10.5075V9.91277H13.2831V11.3006H13.3624C13.7986 10.5075 14.8097 9.89294 16.3957 9.89294C19.6669 9.89294 20.2419 11.7764 20.2419 14.5718V20.222Z" fill="#E8E8E8"/>
</svg>
