<svg width="25" height="25" viewBox="0 0 25 25" fill="none" xmlns="http://www.w3.org/2000/svg">
<path d="M24.3039 16.6122C24.754 15.3238 24.9996 13.9401 24.9996 12.4999C24.9996 11.0598 24.754 9.67611 24.3039 8.38765C24.2929 8.34894 24.2799 8.31119 24.2641 8.27488C22.528 3.4554 17.9101 0 12.4998 0C7.08951 0 2.47156 3.4554 0.735494 8.27488C0.719726 8.31131 0.706586 8.34894 0.695715 8.38765C0.245603 9.67611 0 11.0598 0 12.4999C0 13.9401 0.245603 15.3238 0.695715 16.6122C0.706705 16.6509 0.719726 16.6887 0.735494 16.725C2.47168 21.5446 7.08951 24.9999 12.4998 24.9999C17.9101 24.9999 22.528 21.5445 24.2641 16.725C24.2799 16.6887 24.2929 16.6511 24.3039 16.6122ZM12.4998 23.2082C12.0238 23.2082 11.2563 22.3466 10.6148 20.4219C10.3052 19.4932 10.0573 18.4255 9.87667 17.264H15.123C14.9423 18.4255 14.6945 19.4931 14.385 20.4219C13.7434 22.3466 12.9759 23.2082 12.4998 23.2082ZM9.65926 15.4721C9.57313 14.5167 9.52762 13.52 9.52762 12.4999C9.52762 11.4799 9.57313 10.4832 9.65926 9.52774H15.3403C15.4264 10.4832 15.4719 11.4799 15.4719 12.4999C15.4719 13.52 15.4264 14.5167 15.3403 15.4721H9.65926ZM1.79173 12.5001C1.79173 11.4691 1.93854 10.4719 2.21174 9.52786H7.86204C7.7783 10.503 7.73577 11.5024 7.73577 12.5001C7.73577 13.4978 7.77818 14.4971 7.86204 15.4723H2.21174C1.93854 14.5281 1.79173 13.531 1.79173 12.5001ZM12.4998 1.79185C12.9759 1.79185 13.7435 2.65337 14.385 4.57806C14.6945 5.50683 14.9425 6.57453 15.123 7.73589H9.87655C10.0572 6.57441 10.305 5.50683 10.6147 4.57806C11.2563 2.65337 12.0238 1.79185 12.4998 1.79185ZM17.1375 9.52786H22.7878C23.061 10.4719 23.2078 11.4691 23.2078 12.5001C23.2078 13.531 23.061 14.5282 22.7878 15.4723H17.1375C17.2212 14.4971 17.2637 13.4978 17.2637 12.5001C17.2637 11.5024 17.2212 10.503 17.1375 9.52786ZM22.0876 7.73601H16.9319C16.6132 5.53837 16.0664 3.56674 15.2994 2.16408C18.2733 2.97029 20.7371 5.02865 22.0876 7.73601ZM9.70012 2.16396C8.93309 3.56662 8.38633 5.53825 8.06762 7.73601H2.91187C4.26257 5.02865 6.72624 2.97029 9.70012 2.16396ZM2.91187 17.264H8.06762C8.38633 19.4616 8.93309 21.4333 9.70012 22.836C6.72624 22.0297 4.26257 19.9715 2.91187 17.264ZM15.2994 22.836C16.0664 21.4334 16.6132 19.4618 16.9319 17.264H22.0876C20.7371 19.9715 18.2733 22.0297 15.2994 22.836Z" fill="white"/>
</svg>
