<svg id="Layer_1" data-name="Layer 1" xmlns="http://www.w3.org/2000/svg" width="618.59" height="464.46" viewBox="0 0 618.59 464.46"><defs><style>.cls-1{fill:none;stroke:#fff;stroke-width:1.5px;stroke-dasharray:10;}</style></defs><path class="cls-1" d="M38.64,134.38c-18.84,0-33.48-9-34.44-27.12H29.28c.48,6.36,4.2,8.52,8.52,8.52s7.44-2.16,7.44-6.12c-.12-13.56-41.16-7.2-40.8-36.6,0-16.56,13.8-25.44,31.68-25.44,19.44,0,32.16,9.48,33,26.28H43.56c-.24-5.28-3.48-7.68-7.8-7.68-3.48-.12-6.24,1.92-6.24,6,0,12.6,40.68,8.52,40.68,35.64C70.2,122.74,58.68,134.38,38.64,134.38Z"/><path class="cls-1" d="M120.36,48.1c21.24,0,36.36,12.24,40.56,31.44H135.6A16.54,16.54,0,0,0,120,69.7c-10.8,0-17.88,8.4-17.88,21.36s7.08,21.48,17.88,21.48a16.54,16.54,0,0,0,15.6-9.84h25.32c-4.2,19.2-19.32,31.44-40.56,31.44-25.44,0-42.12-17.76-42.12-43.08S94.92,48.1,120.36,48.1Z"/><path class="cls-1" d="M224.28,99.58H195.6v34H172.08V48.94H195.6v31.8h28.68V48.94H247.8v84.6H224.28Z"/><path class="cls-1" d="M315.36,67.78h-30.6v13.8h27V99.46h-27V114.7h30.6v18.84H261.24V48.94h54.12Z"/><path class="cls-1" d="M404.63,91.18c0,24.48-17.16,42.36-44.15,42.36H327V48.94h33.48C387.47,48.94,404.63,66.34,404.63,91.18Zm-45.95,21.6c13.55,0,22.07-7.68,22.07-21.6s-8.52-21.84-22.07-21.84h-8.16v43.44Z"/><path class="cls-1" d="M414.83,48.94h23.4V98c0,8.76,4,14.28,12.84,14.28s13.08-5.52,13.08-14.28V48.94h23.52V98c0,24.12-16.8,36.36-37.08,36.36S414.83,122.14,414.83,98Z"/><path class="cls-1" d="M524.15,48.94v66.6h26.28v18h-49.8V48.94Z"/><path class="cls-1" d="M613.67,67.78h-30.6v13.8h27V99.46h-27V114.7h30.6v18.84H559.55V48.94h54.12Z"/><path class="cls-1" d="M96.66,192.1c21.24,0,36.36,12.24,40.55,31.44H111.9a16.54,16.54,0,0,0-15.6-9.84c-10.8,0-17.88,8.4-17.88,21.36s7.08,21.48,17.88,21.48a16.54,16.54,0,0,0,15.6-9.84h25.31c-4.19,19.2-19.31,31.44-40.55,31.44-25.44,0-42.12-17.76-42.12-43.08S71.22,192.1,96.66,192.1Z"/><path class="cls-1" d="M188.94,278.38c-24,0-43.44-18-43.44-43.44s19.44-43.32,43.44-43.32,43.31,17.88,43.31,43.32S212.94,278.38,188.94,278.38Zm0-21.84c12.12,0,19.44-8.52,19.44-21.6,0-13.32-7.32-21.72-19.44-21.72s-19.44,8.4-19.44,21.72C169.5,248,176.7,256.54,188.94,256.54Z"/><path class="cls-1" d="M242.82,192.94h28.43l21.24,55,20.76-55h28.32v84.6H318.05V230.86l-16,46.68H282.41l-16.08-47v47H242.82Z"/><path class="cls-1" d="M355,192.94h23.51v84.6H355Z"/><path class="cls-1" d="M470.33,192.94v84.6H446.81l-31.32-47.28v47.28H392v-84.6h23.51l31.32,47.88V192.94Z"/><path class="cls-1" d="M563.09,220.78H537.77c-2.64-4.44-7.44-7-13.92-7-11.87,0-19.08,8.28-19.08,21.24,0,14.52,7.44,22.32,21.36,22.32,8.16,0,14.16-3.84,17.64-11.16H520.13V229.3h43.92v22.8c-5,12.36-18.12,26-40.2,26-25.91,0-43-17.76-43-43.08s16.91-43,42.83-43C545.09,192.1,559.73,203.14,563.09,220.78Z"/><path class="cls-1" d="M170.4,422.38c-18.84,0-33.48-9-34.44-27.12H161c.48,6.36,4.2,8.52,8.52,8.52s7.44-2.16,7.44-6.12c-.12-13.56-41.16-7.2-40.8-36.6,0-16.56,13.8-25.44,31.68-25.44,19.44,0,32.16,9.48,33,26.28H175.32c-.24-5.28-3.48-7.68-7.8-7.68-3.48-.12-6.24,1.92-6.24,6,0,12.6,40.68,8.52,40.68,35.64C202,410.74,190.44,422.38,170.4,422.38Z"/><path class="cls-1" d="M253.44,422.38c-24,0-43.44-18-43.44-43.44s19.44-43.32,43.44-43.32,43.31,17.88,43.31,43.32S277.44,422.38,253.44,422.38Zm0-21.84c12.12,0,19.44-8.52,19.44-21.6,0-13.32-7.32-21.72-19.44-21.72S234,365.62,234,378.94C234,392,241.2,400.54,253.44,400.54Z"/><path class="cls-1" d="M347.87,422.38c-24,0-43.43-18-43.43-43.44s19.44-43.32,43.43-43.32,43.32,17.88,43.32,43.32S371.87,422.38,347.87,422.38Zm0-21.84c12.12,0,19.44-8.52,19.44-21.6,0-13.32-7.32-21.72-19.44-21.72s-19.43,8.4-19.43,21.72C328.44,392,335.63,400.54,347.87,400.54Z"/><path class="cls-1" d="M480.11,336.94v84.6H456.59l-31.32-47.28v47.28H401.75v-84.6h23.52l31.32,47.88V336.94Z"/></svg>