<?xml version="1.0" encoding="utf-8"?>
<!-- Generator: Adobe Illustrator 23.0.1, SVG Export Plug-In . SVG Version: 6.00 Build 0)  -->
<svg version="1.1" xmlns="http://www.w3.org/2000/svg" x="0px" y="0px"
     viewBox="0 0 177.99 61.91" style="enable-background:new 0 0 177.99 61.91;" xml:space="preserve">
<g id="Artwork">
	<path d="M35.87,41.27V20.64h4.7v20.64H35.87z M127.25,33.55c0-4.97-3.86-8.09-8.41-8.09c-4.55,0-8.41,3.12-8.41,8.09
		c0,4.98,3.86,8.12,8.41,8.12C123.39,41.68,127.25,38.53,127.25,33.55z M122.61,33.55c0,2.61-1.74,4.07-3.77,4.07
		c-2.04,0-3.77-1.47-3.77-4.07c0-2.64,1.73-4.04,3.77-4.04C120.88,29.51,122.61,30.92,122.61,33.55z M33.99,35.33
		c0-2.32-1.2-4.11-3.35-4.89c2.04-1.1,2.76-2.59,2.76-4.31c0-3.01-2.18-5.49-7.05-5.49l-9.35,0v20.64l9.75,0
		C31.64,41.27,33.99,38.84,33.99,35.33z M28.39,26.73c0,1.4-0.9,2.22-2.61,2.22l-3.89,0v-4.31l3.89,0
		C27.35,24.64,28.39,25.34,28.39,26.73z M28.83,35.03c0,1.35-0.93,2.25-2.7,2.25l-4.23,0v-4.49l4.23,0
		C27.82,32.78,28.83,33.64,28.83,35.03z M74.91,29.68c-1.3-2.7-3.71-4.2-7.35-4.2c-4.31,0-8.15,2.71-8.15,8.06
		c0,5.23,3.38,8.12,8.09,8.12c3.31,0,6.09-1.32,7.38-4.17l-3.79-1.96c-0.68,1.27-1.76,2.06-3.43,2.06c-2.17,0-3.6-1.56-3.6-4.06
		c0-2.51,1.61-4.03,3.56-4.03c1.51,0,2.67,0.7,3.37,2.18L74.91,29.68z M144.2,29.68c-1.3-2.7-3.71-4.2-7.35-4.2
		c-4.31,0-8.15,2.71-8.15,8.06c0,5.23,3.38,8.12,8.09,8.12c3.31,0,6.09-1.32,7.38-4.17l-3.79-1.96c-0.68,1.27-1.76,2.06-3.43,2.06
		c-2.17,0-3.6-1.56-3.6-4.06c0-2.51,1.61-4.03,3.56-4.03c1.51,0,2.67,0.7,3.37,2.18L144.2,29.68z M104.8,41.27l-3.92-6.94h-3v6.94
		h-4.85V20.64h8.74c4.73,0,8.04,2.25,8.04,6.7c0,2.84-1.41,4.83-3.9,6.07l4.53,7.86H104.8z M97.88,30.24l3.61,0
		c2.24,0,3.32-1.26,3.32-2.76c0-1.77-1.04-2.74-3.32-2.74l-3.61,0V30.24z M58.68,41.01v-3.23c-0.2,0.05-0.5,0.11-0.79,0.11
		c-0.62,0-0.91-0.3-0.91-0.87v-5.35c0-4-2.68-6.14-7.13-6.14c-2.88,0-5.37,1.05-6.92,2.43l2.6,2.92c1.04-0.9,2.42-1.49,3.75-1.49
		c2.05,0,3.05,1.03,3.05,2.73v0.5c-0.99-0.24-2.2-0.46-3.7-0.46c-3.76,0-6.18,1.79-6.18,4.8c0,3.06,2.03,4.68,5.18,4.68
		c2.16,0,4.07-0.88,5.09-2.03c0.61,1.51,1.92,1.91,3.22,1.91C56.77,41.52,57.79,41.37,58.68,41.01z M52.32,36.17
		c0,1.4-1.35,2.32-2.89,2.32c-1.46,0-2.17-0.75-2.17-1.78c0-1.09,0.8-1.89,2.42-1.89c1,0,1.9,0.17,2.64,0.34V36.17z M160.99,41.27
		l-5.54-9.6l5.2-5.66h-5.22l-5.47,6.08l0-11.45h-4.66v20.64h4.66l0-3.71l2.23-2.39l3.5,6.1H160.99z M91.76,41.27l-5.54-9.6l5.2-5.66
		h-5.29l-5.41,6.08l0-11.45h-4.66v20.64h4.66l0-3.71l2.23-2.39l3.5,6.1H91.76z"/>
    <g>
		<path d="M163.89,38.4c-0.98,0-1.55,0.61-1.55,1.53c0,0.92,0.56,1.53,1.55,1.53c0.97,0,1.55-0.61,1.55-1.53
			C165.44,39.02,164.87,38.4,163.89,38.4z M163.89,41.26c-0.77,0-1.3-0.46-1.3-1.32c0-0.86,0.53-1.32,1.3-1.32
			c0.76,0,1.29,0.46,1.29,1.32C165.19,40.8,164.65,41.26,163.89,41.26z"/>
        <path d="M164.51,39.63c0-0.29-0.2-0.48-0.56-0.48h-0.64v1.5h0.28v-0.5h0.34l0.27,0.5h0.31l-0.29-0.54
			C164.39,40.04,164.51,39.89,164.51,39.63z M163.9,39.92h-0.32v-0.53h0.36c0.19,0,0.28,0.1,0.28,0.26
			C164.22,39.85,164.11,39.92,163.9,39.92z"/>
	</g>
</g>
    <g id="Clear_x5F_Space">
</g>
</svg>
