<svg id="Layer_1" data-name="Layer 1" xmlns="http://www.w3.org/2000/svg" width="940.03" height="165.49" viewBox="0 0 940.03 165.49"><defs><style>.cls-1{fill:#fff;}.cls-2{fill:#666766;stroke-width:2.78px;}.cls-10,.cls-12,.cls-13,.cls-14,.cls-2,.cls-4,.cls-7,.cls-8,.cls-9{stroke:#000;}.cls-10,.cls-12,.cls-13,.cls-2,.cls-4,.cls-7,.cls-8,.cls-9{stroke-linecap:round;stroke-linejoin:round;}.cls-14,.cls-3{fill:#666667;}.cls-12,.cls-13,.cls-4,.cls-7,.cls-8{fill:none;}.cls-4{stroke-width:3.28px;}.cls-5{fill:#f4c5c4;}.cls-6{fill:#060606;}.cls-7{stroke-width:0.55px;}.cls-8{stroke-width:2.19px;}.cls-10,.cls-11,.cls-9{fill:#ffe401;}.cls-9{stroke-width:3.26px;}.cls-10,.cls-12{stroke-width:1.48px;}.cls-13{stroke-width:1.85px;}.cls-14{stroke-miterlimit:10;stroke-width:1.04px;}</style></defs><path class="cls-1" d="M145.67,157.37A385.88,385.88,0,0,1,8.56,158.65a38.84,38.84,0,0,1,11.31-21.38,119.86,119.86,0,0,0,113.87-2.64,57.86,57.86,0,0,1,8.89,14.1A57.12,57.12,0,0,1,145.67,157.37Z" transform="translate(-0.26 -0.26)"/><path class="cls-2" d="M81.49,150.07c-35.48.69-45.61-4-51.42-7.39a59.7,59.7,0,0,1-9.91-7.42,4.39,4.39,0,0,1,.73-2.56A4.51,4.51,0,0,1,23,131a4.57,4.57,0,0,1,2.11-.14,4.63,4.63,0,0,1,2,.8L132,129.13a4.34,4.34,0,0,1,2.36,1.89,4.28,4.28,0,0,1,.57,2,37.45,37.45,0,0,1-6.25,7.1C123.21,144.93,114.92,149.4,81.49,150.07Z" transform="translate(-0.26 -0.26)"/><path class="cls-1" d="M128.4,132.46a40.09,40.09,0,0,1-7,5.86c-7.56,4.91-15.64,5.58-31.81,5.88-17,.31-25.49.46-31.44-.38,0,0-19.44-2.77-29.4-11a38.46,38.46,0,0,1-4.38-4.37,32,32,0,0,1-5.46-9.85A74.45,74.45,0,0,0,55,93.44c15.59-20.16,15.55-42,15.32-48.13h33.89c9.69-18,24.91-26.37,34.79-22.69,8.57,3.19,11.39,14.78,12.25,18.32,5.18,21.34-10.59,39.77-13.13,42.66A54.44,54.44,0,0,1,137,117.5,41.25,41.25,0,0,1,128.4,132.46Z" transform="translate(-0.26 -0.26)"/><path class="cls-3" d="M64.29,107.1C68,103.1,69,99,70.86,90.69c2-9.12,4.12-24.84-.55-45.4L53.9,46.39a63,63,0,0,0-7.66-10.94c-5.17-5.94-10.43-12-18.59-13.13a20.15,20.15,0,0,0-9.85,1.09c-6.05,2.32-9.17,7.08-10.94,9.85C-1.83,46.89,3,63,3.58,65a52.56,52.56,0,0,0,6.56,13.13,53.53,53.53,0,0,0,4.38,5.47,58.57,58.57,0,0,0,0,19.68,60.39,60.39,0,0,0,14.22,29.53A30.52,30.52,0,0,1,34.21,124C43.83,113.39,55.87,116.19,64.29,107.1Z" transform="translate(-0.26 -0.26)"/><path class="cls-4" d="M53.35,46.93c-7.8-19-24.79-28-36.1-24.06C3.31,27.69,2,50.65,1.94,52.4c-.75,17.07,9.48,28.92,12,31.73-.51,4.34-3.39,32.51,15.32,49.22,12.45,11.11,27.64,11.05,50.32,10.94s37-.17,48.13-10.94c17.39-16.85,11.72-45.55,10.94-49.22,3.24-3.59,13.28-15.6,13.12-32.82,0-3.22-.56-23.87-12-28.44-9.75-3.89-25.78,4.48-35,23A193.76,193.76,0,0,0,53.35,47Z" transform="translate(-0.26 -0.26)"/><path class="cls-5" d="M21.06,73.9c3.59.41,4.34-5.76,14.32-14.37,5.46-4.71,8.23-5.44,8.66-8.6.73-5.45-6.56-10.51-8.76-12C32,36.64,26.2,32.62,21.06,34.55c-8.26,3.1-7.72,18.94-7.65,20.78C13.66,62.76,16.46,73.37,21.06,73.9Z" transform="translate(-0.26 -0.26)"/><path class="cls-5" d="M135,73.9c-3.22.4-4-4.4-13.41-13-6.33-5.82-9.19-6.6-9.56-10-.59-5.49,6.3-10.32,8.75-12,3.16-2.21,9-6.33,14.22-4.38,8.26,3.1,7.73,18.88,7.66,20.78C142.37,62.67,139.64,73.32,135,73.9Z" transform="translate(-0.26 -0.26)"/><path class="cls-4" d="M34.76,94c5.08-4.32,11.17-5.64,15.31-3.28A8.9,8.9,0,0,1,53.35,94" transform="translate(-0.26 -0.26)"/><path class="cls-4" d="M102.58,91.78c5.08-4.32,11.17-5.63,15.31-3.28a8.9,8.9,0,0,1,3.28,3.28" transform="translate(-0.26 -0.26)"/><path class="cls-6" d="M58.28,114.21A2.19,2.19,0,1,0,56.09,112,2.2,2.2,0,0,0,58.28,114.21Z" transform="translate(-0.26 -0.26)"/><path class="cls-6" d="M50.35,119.67a1.91,1.91,0,1,0-1.91-1.91A1.92,1.92,0,0,0,50.35,119.67Z" transform="translate(-0.26 -0.26)"/><path class="cls-6" d="M45.15,115.29A2.19,2.19,0,1,0,43,113.11,2.18,2.18,0,0,0,45.15,115.29Z" transform="translate(-0.26 -0.26)"/><path class="cls-6" d="M99.85,113.11a2.19,2.19,0,1,0-2.19-2.19A2.2,2.2,0,0,0,99.85,113.11Z" transform="translate(-0.26 -0.26)"/><path class="cls-6" d="M105,118a1.66,1.66,0,1,0-1.91-1.64A1.79,1.79,0,0,0,105,118Z" transform="translate(-0.26 -0.26)"/><path class="cls-6" d="M108.87,112.56a1.66,1.66,0,1,0-1.91-1.64A1.79,1.79,0,0,0,108.87,112.56Z" transform="translate(-0.26 -0.26)"/><path class="cls-7" d="M64.84,97.8a32.81,32.81,0,0,1,26.25,0" transform="translate(-0.26 -0.26)"/><path d="M65.39,101.63c1.12-3,7.84-2.85,12.58-2.74,4.34.1,12.35.29,13.12,3.29.7,2.72-5,6.27-5.47,6.56A15.49,15.49,0,0,1,78,110.93c-1.5,0-6.93.13-10.4-3.83C66.87,106.3,64.6,103.7,65.39,101.63Z" transform="translate(-0.26 -0.26)"/><path class="cls-8" d="M77.42,111.46A18.8,18.8,0,0,1,72,122.25c-3.56,3.33-7.54,4-13.76,5.07-7.47,1.28-12.08,2.08-17.51,0-7.26-2.75-11.09-8.76-12.58-11.47" transform="translate(-0.26 -0.26)"/><path class="cls-8" d="M78.51,110.38a14.62,14.62,0,0,0,2.19,8.74c2.21,3.42,5.36,4.81,8.2,6,3.93,1.67,7.73,1.85,15.32,2.19,6.67.31,9.43-.14,12-1.09a12.39,12.39,0,0,0,5.47-3.28c3.57-4,2.42-9.86,2.19-10.94" transform="translate(-0.26 -0.26)"/><path class="cls-9" d="M108.77,58.42a72.5,72.5,0,0,1-30.42,6.06,72.57,72.57,0,0,1-30.18-7.19c.65-1.12,5.14-9,1.75-17.19a17.37,17.37,0,0,0-4.78-6.52,26.88,26.88,0,0,1,2.64-7.12,28.45,28.45,0,0,1,9.91-10.33c10.68-7,23-5.58,25.23-5.29,19.45,2.58,29.51,19.76,30.79,22a18.27,18.27,0,0,0-6.93,8.59C103.54,49.88,108.21,57.5,108.77,58.42Z" transform="translate(-0.26 -0.26)"/><path class="cls-10" d="M82.65,22.25l-2.09,4L77.43,21.7,75.59,4.85a4,4,0,0,1,.31-1.49,3.88,3.88,0,0,1,.86-1.25A3.93,3.93,0,0,1,78,1.28,3.83,3.83,0,0,1,79.52,1,4,4,0,0,1,81,1.31a3.88,3.88,0,0,1,1.25.86,3.93,3.93,0,0,1,.83,1.27,3.84,3.84,0,0,1,.28,1.5Z" transform="translate(-0.26 -0.26)"/><path class="cls-10" d="M65.55,22.07c.08,2.21.17,4.11.24,5.59-1.31-1.94-2.33-3.57-3-4.73A41.09,41.09,0,0,1,58,11.82c-.27-1.11-.64-2.93.5-4.4a2.64,2.64,0,0,1,1.64-1.11c1.54-.18,2.83,2,3.36,2.92C65.34,12.41,65.3,15.31,65.55,22.07Z" transform="translate(-0.26 -0.26)"/><path class="cls-10" d="M97.11,23.55C96,25.44,95,27.07,94.2,28.34c0-2.34.06-4.26.12-5.61a40.39,40.39,0,0,1,2.21-11.88c.39-1.08,1.09-2.81,2.86-3.39a2.57,2.57,0,0,1,2,0c1.38.71,1.25,3.24,1.18,4.3C102.3,15.4,100.66,17.8,97.11,23.55Z" transform="translate(-0.26 -0.26)"/><path class="cls-11" d="M50,53.17a74,74,0,0,0,28.3,6.32,74.14,74.14,0,0,0,28.56-5" transform="translate(-0.26 -0.26)"/><path class="cls-12" d="M50,53.17a74,74,0,0,0,28.3,6.32,74.14,74.14,0,0,0,28.56-5" transform="translate(-0.26 -0.26)"/><path class="cls-1" d="M90,53.52a20.27,20.27,0,0,1-20.83,0V30.79H90Z" transform="translate(-0.26 -0.26)"/><path d="M81.43,39.7c-.14-1.1-.54-1.71-1.62-1.81-1.63-.14-2.25,1.4-2.54,4.39A4.18,4.18,0,0,1,79,41.13a4.14,4.14,0,0,1,2-.22c3.14.27,5.21,2.46,4.87,6.3s-2.93,6-6.93,5.61c-5.58-.49-6.59-4.59-6.12-9.92.57-6.51,2.82-9.38,7.63-9,4.15.36,5.61,3.31,5.56,6.17Zm-4.16,6.69a1.75,1.75,0,0,0,0,.82,1.94,1.94,0,0,0,.37.73,2,2,0,0,0,.66.5,2.05,2.05,0,0,0,.81.16,1.92,1.92,0,0,0,.79,0,1.89,1.89,0,0,0,.7-.37,2,2,0,0,0,.47-.64,1.86,1.86,0,0,0,.15-.77,1.8,1.8,0,0,0,0-.8,2,2,0,0,0-.36-.7,1.86,1.86,0,0,0-.63-.48,1.7,1.7,0,0,0-.77-.17A1.84,1.84,0,0,0,78,45a2,2,0,0,0-.49.62A1.86,1.86,0,0,0,77.27,46.39Z" transform="translate(-0.26 -0.26)"/><path class="cls-13" d="M80.4,144.45a17.37,17.37,0,0,1,1.09,7c-.13,2.4-.59,5.65-1.28,5.67-.42,0-1-1.22-1.94-6.85" transform="translate(-0.26 -0.26)"/><path class="cls-14" d="M71.67,157l18.19.14a5.1,5.1,0,0,1,6.64-2.53c.49.16,3.13,1.13,3.3,2.89,0,.13.08.91-.34,1.16-.66.42-1.61-1-2.93-.74a2.58,2.58,0,0,0-1.11.61,2.52,2.52,0,0,0-.68,1.08,2.31,2.31,0,0,0-.14.94,2.56,2.56,0,0,0,.24.94,2.26,2.26,0,0,0,.9.86c1.29.73,2.55.07,3,.82a.66.66,0,0,1,.12.33c0,1-4.15,2.6-6.84,1a4.88,4.88,0,0,1-1.92-2.2H71.75A5.59,5.59,0,0,1,70.34,164a5.46,5.46,0,0,1-2,1.06,5.26,5.26,0,0,1-2.3.12c-2.43-.54-4.11-3.17-3.66-3.95.15-.25.54-.31.91-.36,1.14-.12,1.53.56,2.46.49a2.41,2.41,0,0,0,1-.4,2.36,2.36,0,0,0,.75-.82,2.43,2.43,0,0,0,0-2.41c-1-1.5-3.87-.81-4-1.5-.08-.47,1.23-1.08,1.75-1.31a5,5,0,0,1,2-.69,5.1,5.1,0,0,1,2.09.17,3.77,3.77,0,0,1,1.6,1.19A3.83,3.83,0,0,1,71.67,157Z" transform="translate(-0.26 -0.26)"/><path class="cls-1" d="M76.49,161.3H75v-3.2h1.44c.65,0,1,.33,1,.84a.73.73,0,0,1-.14.45.74.74,0,0,1-.4.27.72.72,0,0,1,.44.28.76.76,0,0,1,.17.5C77.55,161,77.21,161.3,76.49,161.3Zm-.18-2.58h-.52v.66h.51c.26,0,.4-.1.4-.32S76.56,158.72,76.31,158.72Zm0,1.24h-.56v.71h.58c.26,0,.41-.12.41-.34s-.13-.33-.39-.33Z" transform="translate(-0.26 -0.26)"/><path class="cls-1" d="M77.77,158.1h.89l.61,1.36.62-1.34h.88l-1.12,2.12v1.06h-.78v-1.06Z" transform="translate(-0.26 -0.26)"/><path class="cls-1" d="M80.91,158.12h2.48v.63h-.85v2.57h-.78v-2.58h-.84Z" transform="translate(-0.26 -0.26)"/><path class="cls-1" d="M85.74,158.79H84.55v.65h1v.61h-1v.7h1.18v.62h-2v-3.2h2Z" transform="translate(-0.26 -0.26)"/><path class="cls-1" d="M213.31,132.41v-3.93h19.11c5.54,0,7.93-3,7.93-7.45s-2.39-7.42-7.93-7.42H213.31v-3.93h19.06c7.85,0,11.44,5.14,11.44,11.39s-3.59,11.34-11.44,11.34Z" transform="translate(-0.26 -0.26)"/><path class="cls-1" d="M222.06,75.49v4.72a9.65,9.65,0,0,0-5.55,9.19c0,6.37,4.6,11.13,11.88,11.13s11.83-4.76,11.83-11.13c0-5.94-3.82-10-9.8-10.62v12h-3.21V74.53h3a14.63,14.63,0,0,1,13.52,14.82c0,8.49-6.33,15.15-15.38,15.15s-15.43-6.66-15.43-15.15C213,83,216.21,77.74,222.06,75.49Z" transform="translate(-0.26 -0.26)"/><path class="cls-1" d="M236.79,51.53V64.7l6.72,2.43v4.16l-30-10.92V55.82l30-10.88V49.1Zm-18.46,6.58,15.26,5.46V52.65Z" transform="translate(-0.26 -0.26)"/><path class="cls-1" d="M366.1,98H335.55v30.35H321.21V57h14.31V86.35h30.55V57h14.3v71.32h-14.3Z" transform="translate(-0.26 -0.26)"/><path class="cls-1" d="M489.33,114.78H460.92l-4.7,13.59h-15l25.65-71.43h16.65l25.65,71.43H494.05ZM475.12,73.5,464.8,103.33h20.64Z" transform="translate(-0.26 -0.26)"/><path class="cls-1" d="M602.54,56.13c15.84,0,28.71,8.48,33.51,23.09H619.6C616.23,72.37,610.1,69,602.44,69c-12.47,0-21.36,9.09-21.36,23.6s8.89,23.61,21.36,23.61c7.66,0,13.79-3.39,17.16-10.32h16.45C631.25,120.6,618.38,129,602.54,129c-20.54,0-36.17-15-36.17-36.38S582,56.13,602.54,56.13Z" transform="translate(-0.26 -0.26)"/><path class="cls-1" d="M713.71,96.59v31.78H699.4V57.05h14.31v32l25.95-32h17.27L727.5,92.4l30.25,36H739.66Z" transform="translate(-0.26 -0.26)"/><path class="cls-1" d="M842.86,129.07c-14.81,0-26.26-7.75-26.46-21.25h15.32c.41,5.72,4.19,9.5,10.83,9.5s10.73-3.57,10.73-8.68c0-15.42-36.78-6.14-36.68-32C816.6,63.78,827,56,841.74,56s24.62,7.46,25.54,20.34H851.55c-.31-4.7-4.09-8.38-10.22-8.48-5.62-.21-9.81,2.55-9.81,8.38,0,14.3,36.58,6.33,36.58,31.46C868.1,119,859.11,129.07,842.86,129.07Z" transform="translate(-0.26 -0.26)"/><path class="cls-11" d="M932,22.42c-.71-3-2.3-4.6-5.75-4.6-5,0-7.28,3.72-7.39,12.92,1.81-3,5.42-4.65,9.31-4.65,7.11,0,12.09,4.7,12.09,13,0,7.71-4.76,13.35-13.3,13.35-11.82,0-14.77-8.32-14.77-20.68,0-13,4.21-20.25,14.34-20.25,8.15,0,12,5.25,12.58,10.89ZM919.61,39c0,4.27,2.51,7,7,7,3.94,0,6.4-2.57,6.4-6.68s-2.13-6.89-6.56-6.89C922.89,32.38,919.61,34.46,919.61,39Z" transform="translate(-0.26 -0.26)"/></svg>