<svg xmlns="http://www.w3.org/2000/svg" xmlns:xlink="http://www.w3.org/1999/xlink" width="576" zoomAndPan="magnify" viewBox="0 0 432 287.999989" height="384" preserveAspectRatio="xMidYMid meet" version="1.0"><defs><g/><clipPath id="id1"><path d="M 48.824219 105.691406 L 56.027344 105.691406 L 56.027344 112.890625 L 48.824219 112.890625 Z M 48.824219 105.691406 " clip-rule="nonzero"/></clipPath></defs><g fill="#000000" fill-opacity="1"><g transform="translate(82.804356, 163.786962)"><g><path d="M 3.1875 0 L 3.1875 -36.65625 L 10.9375 -36.65625 L 10.9375 -21.53125 L 26.671875 -21.53125 L 26.671875 -36.65625 L 34.40625 -36.65625 L 34.40625 0 L 26.671875 0 L 26.671875 -15.140625 L 10.9375 -15.140625 L 10.9375 0 Z M 3.1875 0 "/></g></g></g><g fill="#000000" fill-opacity="1"><g transform="translate(154.489199, 163.786962)"><g/></g></g><g fill="#000000" fill-opacity="1"><g transform="translate(200.254059, 163.786962)"><g><path d="M 35.53125 -23.828125 L 27.6875 -23.828125 C 27.394531 -25.835938 26.535156 -27.414062 25.109375 -28.5625 C 23.691406 -29.71875 21.921875 -30.296875 19.796875 -30.296875 C 16.953125 -30.296875 14.675781 -29.253906 12.96875 -27.171875 C 11.257812 -25.097656 10.40625 -22.148438 10.40625 -18.328125 C 10.40625 -14.410156 11.265625 -11.4375 12.984375 -9.40625 C 14.710938 -7.375 16.96875 -6.359375 19.75 -6.359375 C 21.8125 -6.359375 23.554688 -6.894531 24.984375 -7.96875 C 26.421875 -9.050781 27.320312 -10.570312 27.6875 -12.53125 L 35.53125 -12.5 C 35.257812 -10.25 34.457031 -8.132812 33.125 -6.15625 C 31.800781 -4.175781 30.003906 -2.570312 27.734375 -1.34375 C 25.460938 -0.113281 22.757812 0.5 19.625 0.5 C 16.351562 0.5 13.429688 -0.238281 10.859375 -1.71875 C 8.285156 -3.195312 6.253906 -5.335938 4.765625 -8.140625 C 3.285156 -10.941406 2.546875 -14.335938 2.546875 -18.328125 C 2.546875 -22.328125 3.296875 -25.726562 4.796875 -28.53125 C 6.296875 -31.332031 8.332031 -33.46875 10.90625 -34.9375 C 13.488281 -36.414062 16.394531 -37.15625 19.625 -37.15625 C 22.445312 -37.15625 24.992188 -36.632812 27.265625 -35.59375 C 29.546875 -34.550781 31.410156 -33.035156 32.859375 -31.046875 C 34.304688 -29.054688 35.195312 -26.648438 35.53125 -23.828125 Z M 35.53125 -23.828125 "/></g></g></g><g fill="#000000" fill-opacity="1"><g transform="translate(272.243215, 163.786962)"><g><path d="M 3.1875 0 L 3.1875 -36.65625 L 10.9375 -36.65625 L 10.9375 -20.5 L 11.421875 -20.5 L 24.609375 -36.65625 L 33.90625 -36.65625 L 20.296875 -20.25 L 34.0625 0 L 24.796875 0 L 14.75 -15.078125 L 10.9375 -10.421875 L 10.9375 0 Z M 3.1875 0 "/></g></g></g><g fill="#000000" fill-opacity="1"><g transform="translate(341.081872, 163.786962)"><g><path d="M 23.078125 -26.109375 C 22.929688 -27.554688 22.3125 -28.679688 21.21875 -29.484375 C 20.125 -30.285156 18.65625 -30.6875 16.8125 -30.6875 C 14.914062 -30.6875 13.457031 -30.296875 12.4375 -29.515625 C 11.425781 -28.742188 10.921875 -27.765625 10.921875 -26.578125 C 10.898438 -25.265625 11.460938 -24.269531 12.609375 -23.59375 C 13.765625 -22.925781 15.132812 -22.40625 16.71875 -22.03125 L 20.015625 -21.25 C 22.140625 -20.769531 24.023438 -20.078125 25.671875 -19.171875 C 27.328125 -18.265625 28.628906 -17.097656 29.578125 -15.671875 C 30.523438 -14.242188 31 -12.507812 31 -10.46875 C 30.988281 -7.113281 29.734375 -4.441406 27.234375 -2.453125 C 24.734375 -0.472656 21.242188 0.515625 16.765625 0.515625 C 12.316406 0.515625 8.765625 -0.492188 6.109375 -2.515625 C 3.460938 -4.546875 2.09375 -7.546875 2 -11.515625 L 9.5 -11.515625 C 9.632812 -9.671875 10.359375 -8.285156 11.671875 -7.359375 C 12.992188 -6.441406 14.664062 -5.984375 16.6875 -5.984375 C 18.65625 -5.984375 20.222656 -6.398438 21.390625 -7.234375 C 22.566406 -8.066406 23.164062 -9.148438 23.1875 -10.484375 C 23.164062 -11.722656 22.617188 -12.675781 21.546875 -13.34375 C 20.472656 -14.019531 18.941406 -14.597656 16.953125 -15.078125 L 12.953125 -16.078125 C 9.867188 -16.816406 7.429688 -17.988281 5.640625 -19.59375 C 3.847656 -21.207031 2.957031 -23.363281 2.96875 -26.0625 C 2.957031 -28.28125 3.550781 -30.222656 4.75 -31.890625 C 5.945312 -33.554688 7.597656 -34.847656 9.703125 -35.765625 C 11.804688 -36.691406 14.191406 -37.15625 16.859375 -37.15625 C 19.578125 -37.15625 21.953125 -36.691406 23.984375 -35.765625 C 26.023438 -34.835938 27.613281 -33.539062 28.75 -31.875 C 29.882812 -30.21875 30.46875 -28.296875 30.5 -26.109375 Z M 23.078125 -26.109375 "/></g></g></g><g fill="#000000" fill-opacity="1"><g transform="translate(146.81878, 166.782386)"><g><path d="M 33.640625 1.890625 C 32.0625 -12.726562 26.269531 -31.183594 17.449219 -45.796875 C 8.628906 -31.183594 2.773438 -12.726562 1.195312 1.890625 C 5.667969 -4.21875 9.007812 -11.339844 11.78125 -18.644531 C 16.503906 -9.324219 21.734375 -4.347656 33.640625 1.890625 Z M 17.449219 -35.59375 C 20.914062 -25.007812 25.136719 -13.734375 30.238281 -4.03125 L 29.921875 -3.78125 C 24.757812 -11.214844 20.222656 -15.9375 11.96875 -19.085938 C 13.984375 -24.566406 15.75 -30.175781 17.449219 -35.59375 Z M 17.449219 -35.59375 "/></g></g></g><g fill="#428a52" fill-opacity="1"><g transform="translate(387.670933, 130.849399)"><g><path d="M 7.765625 0.234375 C 6.472656 0.234375 5.328125 0.0234375 4.328125 -0.390625 C 3.335938 -0.816406 2.554688 -1.394531 1.984375 -2.125 C 1.421875 -2.851562 1.140625 -3.675781 1.140625 -4.59375 C 1.140625 -5.3125 1.300781 -5.96875 1.625 -6.5625 C 1.945312 -7.15625 2.390625 -7.648438 2.953125 -8.046875 C 3.515625 -8.453125 4.144531 -8.710938 4.84375 -8.828125 L 4.84375 -8.9375 C 3.9375 -9.125 3.195312 -9.566406 2.625 -10.265625 C 2.050781 -10.972656 1.765625 -11.789062 1.765625 -12.71875 C 1.765625 -13.601562 2.023438 -14.390625 2.546875 -15.078125 C 3.066406 -15.773438 3.773438 -16.320312 4.671875 -16.71875 C 5.578125 -17.125 6.609375 -17.328125 7.765625 -17.328125 C 8.910156 -17.328125 9.9375 -17.125 10.84375 -16.71875 C 11.75 -16.320312 12.460938 -15.773438 12.984375 -15.078125 C 13.503906 -14.390625 13.765625 -13.601562 13.765625 -12.71875 C 13.753906 -11.78125 13.460938 -10.960938 12.890625 -10.265625 C 12.316406 -9.566406 11.582031 -9.125 10.6875 -8.9375 L 10.6875 -8.828125 C 11.375 -8.710938 11.992188 -8.453125 12.546875 -8.046875 C 13.109375 -7.648438 13.554688 -7.15625 13.890625 -6.5625 C 14.222656 -5.96875 14.390625 -5.3125 14.390625 -4.59375 C 14.390625 -3.675781 14.101562 -2.851562 13.53125 -2.125 C 12.96875 -1.394531 12.1875 -0.816406 11.1875 -0.390625 C 10.1875 0.0234375 9.046875 0.234375 7.765625 0.234375 Z M 7.765625 -2.421875 C 8.617188 -2.421875 9.304688 -2.648438 9.828125 -3.109375 C 10.359375 -3.566406 10.625 -4.15625 10.625 -4.875 C 10.625 -5.613281 10.351562 -6.222656 9.8125 -6.703125 C 9.269531 -7.179688 8.585938 -7.421875 7.765625 -7.421875 C 6.929688 -7.421875 6.242188 -7.179688 5.703125 -6.703125 C 5.160156 -6.222656 4.890625 -5.613281 4.890625 -4.875 C 4.890625 -4.15625 5.148438 -3.566406 5.671875 -3.109375 C 6.203125 -2.648438 6.898438 -2.421875 7.765625 -2.421875 Z M 7.765625 -10.0625 C 8.484375 -10.0625 9.070312 -10.273438 9.53125 -10.703125 C 10 -11.128906 10.234375 -11.675781 10.234375 -12.34375 C 10.234375 -13.007812 10.003906 -13.550781 9.546875 -13.96875 C 9.085938 -14.394531 8.492188 -14.609375 7.765625 -14.609375 C 7.035156 -14.609375 6.441406 -14.398438 5.984375 -13.984375 C 5.523438 -13.566406 5.296875 -13.019531 5.296875 -12.34375 C 5.296875 -11.675781 5.523438 -11.128906 5.984375 -10.703125 C 6.441406 -10.273438 7.035156 -10.0625 7.765625 -10.0625 Z M 7.765625 -10.0625 "/></g></g></g><path fill="#000000" d="M 52.292969 109.570312 C 52.292969 109.425781 52.285156 109.304688 52.273438 109.203125 C 52.257812 109.105469 52.238281 109.019531 52.214844 108.949219 C 52.164062 108.824219 52.101562 108.734375 52.015625 108.6875 C 51.933594 108.636719 51.835938 108.613281 51.730469 108.613281 C 51.636719 108.613281 51.554688 108.632812 51.484375 108.671875 C 51.410156 108.707031 51.355469 108.773438 51.3125 108.867188 C 51.285156 108.929688 51.265625 109.003906 51.253906 109.09375 C 51.242188 109.1875 51.234375 109.296875 51.234375 109.433594 L 51.234375 109.882812 L 52.292969 109.882812 Z M 51.742188 107.960938 C 51.984375 107.960938 52.1875 108.027344 52.355469 108.164062 C 52.523438 108.296875 52.644531 108.5 52.726562 108.78125 L 52.738281 108.78125 L 54.15625 107.753906 L 54.15625 108.511719 L 52.820312 109.449219 L 52.820312 109.882812 L 54.15625 109.882812 L 54.15625 110.515625 L 50.707031 110.515625 L 50.707031 109.464844 C 50.707031 109.292969 50.714844 109.128906 50.734375 108.980469 C 50.753906 108.832031 50.785156 108.703125 50.824219 108.597656 C 50.902344 108.394531 51.015625 108.238281 51.167969 108.128906 C 51.320312 108.015625 51.511719 107.960938 51.742188 107.960938 " fill-opacity="1" fill-rule="nonzero"/><g clip-path="url(#id1)"><path fill="#000000" d="M 52.425781 106.070312 C 54.203125 106.070312 55.644531 107.515625 55.644531 109.289062 C 55.644531 111.066406 54.203125 112.511719 52.425781 112.511719 C 50.652344 112.511719 49.207031 111.066406 49.207031 109.289062 C 49.207031 107.515625 50.652344 106.070312 52.425781 106.070312 Z M 51.023438 105.972656 C 50.597656 106.15625 50.210938 106.414062 49.878906 106.746094 C 49.550781 107.074219 49.289062 107.460938 49.109375 107.890625 C 48.921875 108.332031 48.824219 108.804688 48.824219 109.289062 C 48.824219 109.777344 48.921875 110.25 49.109375 110.691406 C 49.289062 111.121094 49.550781 111.507812 49.878906 111.835938 C 50.210938 112.167969 50.597656 112.425781 51.023438 112.609375 C 51.46875 112.796875 51.941406 112.890625 52.425781 112.890625 C 52.914062 112.890625 53.382812 112.796875 53.828125 112.609375 C 54.257812 112.425781 54.640625 112.167969 54.972656 111.835938 C 55.304688 111.507812 55.5625 111.121094 55.742188 110.691406 C 55.933594 110.25 56.027344 109.777344 56.027344 109.289062 C 56.027344 108.804688 55.933594 108.332031 55.742188 107.890625 C 55.5625 107.460938 55.304688 107.074219 54.972656 106.746094 C 54.640625 106.414062 54.257812 106.15625 53.828125 105.972656 C 53.382812 105.785156 52.914062 105.691406 52.425781 105.691406 C 51.941406 105.691406 51.46875 105.785156 51.023438 105.972656 " fill-opacity="1" fill-rule="nonzero"/></g><g fill="#000000" fill-opacity="1"><g transform="translate(56.236977, 182.786603)"><g><path d="M -21.808594 -19.132812 L -21.808594 -16.847656 L -8.355469 -16.847656 C -4.289062 -16.847656 -1.921875 -14.789062 -1.921875 -11.027344 C -1.921875 -7.660156 -3.730469 -5.039062 -8.496094 -5.039062 L -21.808594 -5.039062 L -21.808594 -2.757812 L -8.382812 -2.757812 C -3.230469 -2.757812 0.222656 -5.652344 0.222656 -10.945312 C 0.222656 -16.125 -3.007812 -19.132812 -8.523438 -19.132812 Z M -21.808594 -19.132812 "/></g></g></g><g fill="#000000" fill-opacity="1"><g transform="translate(56.236977, 160.897658)"><g><path d="M -15.429688 -22.195312 C -18.6875 -21.109375 -22.03125 -17.878906 -22.03125 -12.476562 C -22.03125 -6.210938 -17.128906 -1.503906 -10.832031 -1.503906 C -4.59375 -1.503906 0.222656 -5.792969 0.222656 -12.394531 C 0.222656 -18.742188 -4.207031 -22.585938 -9.71875 -22.585938 L -10.554688 -22.585938 L -10.554688 -11.027344 L -8.4375 -11.027344 L -8.4375 -20.136719 C -4.289062 -19.886719 -1.921875 -16.320312 -1.921875 -12.449219 C -1.921875 -7.128906 -6.015625 -3.871094 -10.972656 -3.871094 C -16.238281 -3.871094 -19.855469 -7.742188 -19.855469 -12.421875 C -19.855469 -16.988281 -17.101562 -19.214844 -14.480469 -20.136719 Z M -15.429688 -22.195312 "/></g></g></g><g fill="#000000" fill-opacity="1"><g transform="translate(56.236977, 137.031465)"><g><path d="M 0 -2.421875 L -5.570312 -4.816406 L -5.570312 -16.710938 L 0 -19.078125 L 0 -21.5 L -21.808594 -12.085938 L -21.808594 -9.496094 L 0 -0.0820312 Z M -7.660156 -15.820312 L -7.660156 -5.679688 L -19.4375 -10.75 Z M -7.660156 -15.820312 "/></g></g></g></svg>