<svg id="Layer_1" data-name="Layer 1" xmlns="http://www.w3.org/2000/svg" width="1896.2" height="1304.3" viewBox="0 0 1896.2 1304.3"><defs><style>

#dottedcircle, #dotted1, #dotted2, #dotted3, #dotted4, #dotted5, #dotted6 {
		                stroke-dasharray: 12.12;
		                stroke-dashoffset: 50;
		                animation: move 3s linear infinite;
		            }

		            #draw {
		                stroke-dasharray: 1353px;
		                stroke-dashoffset: 1353px;
		                animation: move 5s linear;
		                animation-fill-mode: forwards;
		            }

		            @keyframes move {
		                100% {
		                    stroke-dashoffset: 0;
		                }
		            }


.cls-1{fill:#203c9c;}.cls-2,.cls-4,.cls-5,.cls-6{fill:none;stroke-miterlimit:10;}.cls-2{stroke:#23489b;}.cls-3,.cls-4,.cls-5,.cls-6{opacity:0.5;}.cls-4,.cls-5,.cls-6{stroke:#fcffff;stroke-width:0.75px;isolation:isolate;}.cls-5{stroke-dashoffset:50px;stroke-dasharray:12.12;}.cls-6{stroke-dashoffset:1353px;stroke-dasharray:1353;}</style></defs><path class="cls-1" d="M0,1304.3H1896.2V0H0Z"/><g id="grid"><rect class="cls-2" width="1896.2" height="1304.3"/><line class="cls-2" x1="1896.2" y1="62.1" y2="62.1"/><line class="cls-2" x1="1896.2" y1="124.2" y2="124.2"/><line class="cls-2" x1="1896.2" y1="186.3" y2="186.3"/><line class="cls-2" x1="1896.2" y1="248.4" y2="248.4"/><line class="cls-2" x1="1896.2" y1="310.5" y2="310.5"/><line class="cls-2" x1="1896.2" y1="372.7" y2="372.7"/><line class="cls-2" x1="1896.2" y1="434.8" y2="434.8"/><line class="cls-2" x1="1896.2" y1="496.9" y2="496.9"/><line class="cls-2" x1="1896.2" y1="559" y2="559"/><line class="cls-2" x1="1896.2" y1="621.1" y2="621.1"/><line class="cls-2" x1="1896.2" y1="683.2" y2="683.2"/><line class="cls-2" x1="1896.2" y1="745.3" y2="745.3"/><line class="cls-2" x1="1896.2" y1="807.4" y2="807.4"/><line class="cls-2" x1="1896.2" y1="869.5" y2="869.5"/><line class="cls-2" x1="1896.2" y1="931.6" y2="931.6"/><line class="cls-2" x1="1896.2" y1="993.8" y2="993.8"/><line class="cls-2" x1="1896.2" y1="1055.9" y2="1055.9"/><line class="cls-2" x1="1896.2" y1="1118" y2="1118"/><line class="cls-2" x1="1896.2" y1="1180.1" y2="1180.1"/><line class="cls-2" x1="1896.2" y1="1242.2" y2="1242.2"/><line class="cls-2" x1="90.3" y1="1304.3" x2="90.3"/><line class="cls-2" x1="180.6" y1="1304.3" x2="180.6"/><line class="cls-2" x1="270.9" y1="1304.3" x2="270.9"/><line class="cls-2" x1="361.2" y1="1304.3" x2="361.2"/><line class="cls-2" x1="451.5" y1="1304.3" x2="451.5"/><line class="cls-2" x1="541.8" y1="1304.3" x2="541.8"/><line class="cls-2" x1="632.1" y1="1304.3" x2="632.1"/><line class="cls-2" x1="722.4" y1="1304.3" x2="722.4"/><line class="cls-2" x1="812.7" y1="1304.3" x2="812.7"/><line class="cls-2" x1="903" y1="1304.3" x2="903"/><line class="cls-2" x1="993.2" y1="1304.3" x2="993.2"/><line class="cls-2" x1="1083.5" y1="1304.3" x2="1083.5"/><line class="cls-2" x1="1173.8" y1="1304.3" x2="1173.8"/><line class="cls-2" x1="1264.1" y1="1304.3" x2="1264.1"/><line class="cls-2" x1="1354.4" y1="1304.3" x2="1354.4"/><line class="cls-2" x1="1444.7" y1="1304.3" x2="1444.7"/><line class="cls-2" x1="1535" y1="1304.3" x2="1535"/><line class="cls-2" x1="1625.3" y1="1304.3" x2="1625.3"/><line class="cls-2" x1="1715.6" y1="1304.3" x2="1715.6"/><line class="cls-2" x1="1805.9" y1="1304.3" x2="1805.9"/></g><g class="cls-3"><path class="cls-4" d="M-139.4,35.5,72.8,205.8"/><path class="cls-4" d="M78.9,210.6l6.4,5.1-6,5.4"/><path class="cls-4" d="M67.8,231.4l-200,179.4"/></g><g id="circles" class="cls-3"><path class="cls-4" d="M539.1,1090.9c-106,0-191.8,72.9-191.8,162.8s85.9,162.8,191.8,162.8,191.8-72.9,191.8-162.8S645,1090.9,539.1,1090.9Z"/><path class="cls-4" d="M1613.2,1014.9c-86.8,73.7-86.8,193.1,0,266.7s227.6,73.7,314.4,0,86.8-193.1,0-266.7S1700,941.2,1613.2,1014.9Z"/><path class="cls-4" d="M1770.4,902c-160.3,0-290.3,110.2-290.3,246.2s130,246.3,290.3,246.3,290.3-110.3,290.3-246.3S1930.7,902,1770.4,902Z"/></g><g id="dotted" class="cls-3"><path id="dotted1" class="cls-5" d="M-146.1-30.8l335,268.9L-125.9,520.5"/><path id="dottedcircle" class="cls-5" d="M1770.4,931.8c-140.9,0-255.1,96.9-255.1,216.4s114.2,216.5,255.1,216.5,255.1-96.9,255.1-216.5S1911.3,931.8,1770.4,931.8Z"/><path id="dotted2" class="cls-5" d="M723.2,1088.7v-70l-82.5,35Z"/><path id="dotted3" class="cls-5" d="M1804.3,637.3v-70l-82.5,35Z"/><path id="dotted4" class="cls-5" d="M125.8,97.2v-70l-82.5,35Z"/><path id="dotted5" class="cls-5" d="M428.4-91,789.5,215.4l261.6-222"/><path id="dotted6" class="cls-5" d="M665.9,1304.1,207.6,1112.8,44.3,1394.5"/></g><g class="cls-3"><path class="cls-6" d="M309.2,919.8V806.3"/><path class="cls-6" d="M320.4,920H297.8"/><path class="cls-6" d="M320.4,806.6H297.8"/></g><g class="cls-3"><path class="cls-6" d="M1827.3,658.9V545.3"/><path class="cls-6" d="M1838.6,659.1H1816"/><path class="cls-6" d="M1838.6,545.7H1816"/></g><g class="cls-3"><path class="cls-6" d="M386.1,302.1V55.9"/><path class="cls-6" d="M397.4,302.5H374.8"/><path class="cls-6" d="M397.4,56.6H374.8"/></g><g id="draw" class="cls-3"><path class="cls-6" d="M2125.1,499.6V684.8H1401V888.6"/><line class="cls-6" x1="1083.5" y1="869.5" x2="-88.2" y2="869.5"/><line class="cls-6" x1="1083.5" y1="902.4" x2="1083.5" y2="835.3"/><line class="cls-6" x1="2706.9" y1="309.5" x2="1535.2" y2="309.5"/><line class="cls-6" x1="1535" y1="341.1" x2="1535" y2="274"/></g></svg>