<?xml version="1.0" encoding="utf-8"?>
<!-- Generator: Adobe Illustrator 27.4.1, SVG Export Plug-In . SVG Version: 6.00 Build 0)  -->
<svg version="1.1" id="Layer_1" xmlns="http://www.w3.org/2000/svg" xmlns:xlink="http://www.w3.org/1999/xlink" x="0px" y="0px"
	 viewBox="0 0 1032.3 334.1" style="enable-background:new 0 0 1032.3 334.1;" xml:space="preserve">
<style type="text/css">
	.st0{fill:#FFFFFF;}
</style>
<g>
	<g>
		<path class="st0" d="M169.7,221.5l-25.8,14l-8.3-18.2c-8.6,10.6-21.3,18.2-37.8,18.2c-31.4,0-47.8-26-47.8-66.2
			c0-43.7,19.4-67.2,50.3-67.2c14.5,0,25.8,5.4,33.1,15.5V53.2h26.5v148.7L169.7,221.5z M133.4,203.8v-68.5
			c-6.9-5.6-15.5-9.1-24.5-9.1c-19.6,0-31.2,15-31.2,43.2c0,27,10.8,42,30.7,42C117.2,211.4,126.3,208.5,133.4,203.8z"/>
		<path class="st0" d="M301.2,171.7h-86.9C216.1,194,233.5,209,261,209c14,0,29.2-2.9,39.5-8.3l-8.3,27.2
			c-8.6,4.7-23.1,7.6-39.7,7.6c-39.5,0-65.5-26.7-65.5-67.5c0-41,24.8-66,64.3-66c32.6,0,53.2,18.6,53.2,48.8
			C304.4,157.7,303.2,165.8,301.2,171.7z M215.9,153.3h62.6c-1.2-19.1-10.3-28.2-27.2-28.2C232.8,125.1,220,135.6,215.9,153.3z"/>
		<path class="st0" d="M365.8,232.3l-50.1-127.1h29.2l32.6,88.8l3.7,11h1l3.7-11l32.4-88.8H447l-49.8,127.1H365.8z"/>
		<path class="st0" d="M533.8,105.5h57.4l-3.7,20.4h-57.4L510,240.2c-5.6,31.9-27,43.9-56.9,43.9c-13.7,0-20.1-2-27-3.4l-0.5-20.6
			c6.9,1.2,15,2,26.3,2c17.9,0,29.7-7.1,32.4-22.1l20.1-114.1h-40l3.7-20.4h40l2-11.8C515.7,62,536.8,50,566.5,50
			c14,0,21.1,2,27.2,3.4l0.5,21.1c-6.9-1.7-15-2.5-26.3-2.5c-17.7,0-29.4,7.1-32.1,22.1L533.8,105.5z"/>
		<path class="st0" d="M709.8,171.7h-86.9C624.6,194,642,209,669.5,209c14,0,29.2-2.9,39.5-8.3l-8.3,27.2
			c-8.6,4.7-23.1,7.6-39.7,7.6c-39.5,0-65.5-26.7-65.5-67.5c0-41,24.8-66,64.3-66c32.6,0,53.2,18.6,53.2,48.8
			C712.9,157.7,711.7,165.8,709.8,171.7z M624.4,153.3h62.6c-1.2-19.1-10.3-28.2-27.2-28.2C641.3,125.1,628.5,135.6,624.4,153.3z"/>
		<path class="st0" d="M738.2,224.7l-1.7-28.5c11.3,7.9,31.9,14.7,53.5,14.7c16.4,0,28.2-5.2,28.2-16.7c0-24-79-1.7-79-50.8
			c0-22.8,17.2-42.2,58.2-42.2c25,0,44.2,6.1,44.2,21.3c0,4.7-2,8.6-3.9,12.3c-10.8-5.2-27.7-8.8-42-8.8c-19.6,0-29.9,7.4-29.9,15.5
			c0,21.3,80,2.7,80,50.5c0,26.7-23.6,43.4-58.6,43.4C763.2,235.5,745.3,227.9,738.2,224.7z"/>
		<path class="st0" d="M982.3,205.3l-5.4,24.8c-6.4,2.7-19.1,5.4-30.9,5.4c-31.7,0-45.1-16.4-45.1-39.7v-68.2h-36.1v-22.3h36.1V70.4
			h26.5v34.8h51.3v22.3h-51.3v60.1c0,16.4,8.6,23.8,23.6,23.8C959.5,211.4,975.2,209.5,982.3,205.3z"/>
	</g>
</g>
</svg>
